<svg width="443" height="101" viewBox="0 0 443 101" fill="none" xmlns="http://www.w3.org/2000/svg">
<path d="M15.7051 0.0234375V17.6992C15.7051 19.75 15.64 21.7845 15.5098 23.8027C15.4121 25.821 15.2819 27.3835 15.1191 28.4902H15.7051C17.1374 26.2441 19.0905 24.3398 21.5645 22.7773C24.0384 21.1823 27.2448 20.3848 31.1836 20.3848C37.3034 20.3848 42.2676 22.7773 46.0762 27.5625C49.8848 32.3477 51.7891 39.3626 51.7891 48.6074C51.7891 54.8249 50.9102 60.0495 49.1523 64.2812C47.3945 68.4805 44.9368 71.6543 41.7793 73.8027C38.6217 75.9186 34.9596 76.9766 30.793 76.9766C26.7891 76.9766 23.6315 76.2604 21.3203 74.8281C19.0091 73.3958 17.1374 71.7845 15.7051 69.9941H14.6797L12.1895 76H0.8125V0.0234375H15.7051ZM26.3984 32.2988C23.7943 32.2988 21.7272 32.8359 20.1973 33.9102C18.6673 34.9844 17.5443 36.5957 16.8281 38.7441C16.1445 40.8926 15.7702 43.6107 15.7051 46.8984V48.5098C15.7051 53.8158 16.4863 57.8848 18.0488 60.7168C19.6113 63.5163 22.4596 64.916 26.5938 64.916C29.6536 64.916 32.0788 63.5 33.8691 60.668C35.6921 57.8359 36.6035 53.7507 36.6035 48.4121C36.6035 43.0736 35.6921 39.0534 33.8691 36.3516C32.0462 33.6497 29.556 32.2988 26.3984 32.2988ZM94.5625 20.3848C95.3112 20.3848 96.1738 20.4336 97.1504 20.5312C98.1595 20.5964 98.9733 20.694 99.5918 20.8242L98.4688 34.7891C97.9805 34.6263 97.2806 34.5124 96.3691 34.4473C95.4902 34.3496 94.7253 34.3008 94.0742 34.3008C92.1536 34.3008 90.2819 34.5449 88.459 35.0332C86.6686 35.5215 85.0573 36.319 83.625 37.4258C82.1927 38.5 81.0534 39.9323 80.207 41.7227C79.3932 43.4805 78.9863 45.6452 78.9863 48.2168V76H64.0938V21.4102H75.373L77.5703 30.5898H78.3027C79.377 28.7344 80.7116 27.0417 82.3066 25.5117C83.9342 23.9492 85.7734 22.7122 87.8242 21.8008C89.9076 20.8568 92.1536 20.3848 94.5625 20.3848ZM131.867 20.2871C139.191 20.2871 144.807 21.8822 148.713 25.0723C152.619 28.2624 154.572 33.1126 154.572 39.623V76H144.172L141.291 68.5781H140.9C139.338 70.5312 137.743 72.1263 136.115 73.3633C134.488 74.6003 132.616 75.5117 130.5 76.0977C128.384 76.6836 125.812 76.9766 122.785 76.9766C119.562 76.9766 116.665 76.3581 114.094 75.1211C111.555 73.8841 109.553 71.9961 108.088 69.457C106.623 66.8854 105.891 63.6302 105.891 59.6914C105.891 53.8971 107.925 49.6328 111.994 46.8984C116.063 44.1315 122.167 42.6016 130.305 42.3086L139.777 42.0156V39.623C139.777 36.7585 139.029 34.6589 137.531 33.3242C136.034 31.9896 133.951 31.3223 131.281 31.3223C128.645 31.3223 126.057 31.6966 123.518 32.4453C120.979 33.194 118.439 34.138 115.9 35.2773L110.969 25.2188C113.866 23.6888 117.105 22.4844 120.686 21.6055C124.299 20.7266 128.026 20.2871 131.867 20.2871ZM139.777 50.707L134.016 50.9023C129.198 51.0326 125.845 51.8952 123.957 53.4902C122.102 55.0853 121.174 57.1849 121.174 59.7891C121.174 62.0677 121.841 63.6953 123.176 64.6719C124.51 65.6159 126.252 66.0879 128.4 66.0879C131.59 66.0879 134.276 65.1439 136.457 63.2559C138.671 61.3678 139.777 58.6823 139.777 55.1992V50.707ZM200.959 20.3848C206.786 20.3848 211.473 21.9798 215.021 25.1699C218.57 28.3275 220.344 33.4056 220.344 40.4043V76H205.451V44.1152C205.451 40.209 204.735 37.263 203.303 35.2773C201.903 33.2917 199.689 32.2988 196.662 32.2988C192.105 32.2988 188.996 33.8451 187.336 36.9375C185.676 40.0299 184.846 44.4896 184.846 50.3164V76H169.953V21.4102H181.33L183.332 28.3926H184.162C185.334 26.5046 186.783 24.9746 188.508 23.8027C190.266 22.6309 192.202 21.7682 194.318 21.2148C196.467 20.6615 198.68 20.3848 200.959 20.3848ZM252.961 76.9766C246.874 76.9766 241.91 74.6003 238.068 69.8477C234.26 65.0625 232.355 58.0475 232.355 48.8027C232.355 39.4603 234.292 32.3965 238.166 27.6113C242.04 22.7936 247.102 20.3848 253.352 20.3848C255.956 20.3848 258.251 20.7428 260.236 21.459C262.222 22.1751 263.931 23.1354 265.363 24.3398C266.828 25.5443 268.065 26.8952 269.074 28.3926H269.562C269.367 27.3509 269.123 25.821 268.83 23.8027C268.57 21.752 268.439 19.6523 268.439 17.5039V0.0234375H283.381V76H271.955L269.074 68.9199H268.439C267.495 70.4173 266.307 71.7845 264.875 73.0215C263.475 74.2259 261.799 75.1862 259.846 75.9023C257.893 76.6185 255.598 76.9766 252.961 76.9766ZM258.186 65.1113C262.255 65.1113 265.119 63.9069 266.779 61.498C268.472 59.0566 269.367 55.3945 269.465 50.5117V48.9004C269.465 43.5944 268.651 39.5417 267.023 36.7422C265.396 33.9102 262.368 32.4941 257.941 32.4941C254.654 32.4941 252.082 33.9102 250.227 36.7422C248.371 39.5742 247.443 43.6595 247.443 48.998C247.443 54.3366 248.371 58.3568 250.227 61.0586C252.115 63.7604 254.768 65.1113 258.186 65.1113ZM313.85 21.4102V76H298.957V21.4102H313.85ZM306.428 0.0234375C308.641 0.0234375 310.546 0.544271 312.141 1.58594C313.736 2.59505 314.533 4.49935 314.533 7.29883C314.533 10.0658 313.736 11.9863 312.141 13.0605C310.546 14.1022 308.641 14.623 306.428 14.623C304.182 14.623 302.261 14.1022 300.666 13.0605C299.104 11.9863 298.322 10.0658 298.322 7.29883C298.322 4.49935 299.104 2.59505 300.666 1.58594C302.261 0.544271 304.182 0.0234375 306.428 0.0234375ZM360.529 20.3848C366.356 20.3848 371.044 21.9798 374.592 25.1699C378.14 28.3275 379.914 33.4056 379.914 40.4043V76H365.021V44.1152C365.021 40.209 364.305 37.263 362.873 35.2773C361.473 33.2917 359.26 32.2988 356.232 32.2988C351.675 32.2988 348.566 33.8451 346.906 36.9375C345.246 40.0299 344.416 44.4896 344.416 50.3164V76H329.523V21.4102H340.9L342.902 28.3926H343.732C344.904 26.5046 346.353 24.9746 348.078 23.8027C349.836 22.6309 351.773 21.7682 353.889 21.2148C356.037 20.6615 358.251 20.3848 360.529 20.3848ZM411.213 100.023C403.596 100.023 397.769 98.6888 393.732 96.0195C389.729 93.3828 387.727 89.6719 387.727 84.8867C387.727 81.599 388.752 78.8483 390.803 76.6348C392.854 74.4212 395.865 72.8424 399.836 71.8984C398.306 71.2474 396.971 70.1895 395.832 68.7246C394.693 67.2272 394.123 65.6484 394.123 63.9883C394.123 61.9049 394.725 60.1797 395.93 58.8125C397.134 57.4128 398.876 56.0456 401.154 54.7109C398.29 53.474 396.011 51.4883 394.318 48.7539C392.658 46.0195 391.828 42.7969 391.828 39.0859C391.828 35.1146 392.691 31.7454 394.416 28.9785C396.174 26.179 398.713 24.0469 402.033 22.582C405.386 21.1172 409.455 20.3848 414.24 20.3848C415.249 20.3848 416.421 20.4499 417.756 20.5801C419.09 20.7103 420.311 20.8568 421.418 21.0195C422.557 21.1823 423.322 21.3125 423.713 21.4102H442.756V28.9785L434.211 31.1758C434.992 32.3802 435.578 33.666 435.969 35.0332C436.359 36.4004 436.555 37.849 436.555 39.3789C436.555 45.2383 434.504 49.8118 430.402 53.0996C426.333 56.3548 420.669 57.9824 413.41 57.9824C411.685 57.8848 410.057 57.7546 408.527 57.5918C407.779 58.1777 407.209 58.7962 406.818 59.4473C406.428 60.0983 406.232 60.7819 406.232 61.498C406.232 62.2142 406.525 62.8164 407.111 63.3047C407.73 63.7604 408.641 64.1185 409.846 64.3789C411.083 64.6068 412.613 64.7207 414.436 64.7207H423.713C429.702 64.7207 434.26 66.0065 437.385 68.5781C440.542 71.1497 442.121 74.9258 442.121 79.9062C442.121 86.2865 439.452 91.2344 434.113 94.75C428.807 98.2656 421.174 100.023 411.213 100.023ZM411.848 90.3066C415.396 90.3066 418.439 89.9648 420.979 89.2812C423.55 88.6302 425.52 87.6862 426.887 86.4492C428.254 85.2448 428.938 83.7962 428.938 82.1035C428.938 80.7363 428.531 79.6458 427.717 78.832C426.936 78.0508 425.731 77.4974 424.104 77.1719C422.508 76.8464 420.458 76.6836 417.951 76.6836H410.236C408.413 76.6836 406.77 76.9766 405.305 77.5625C403.872 78.1484 402.733 78.9622 401.887 80.0039C401.04 81.0781 400.617 82.3151 400.617 83.7148C400.617 85.7656 401.594 87.377 403.547 88.5488C405.533 89.7207 408.299 90.3066 411.848 90.3066ZM414.24 48.9004C417.04 48.9004 419.09 48.0378 420.393 46.3125C421.695 44.5872 422.346 42.2435 422.346 39.2812C422.346 35.9935 421.662 33.5358 420.295 31.9082C418.96 30.248 416.942 29.418 414.24 29.418C411.506 29.418 409.455 30.248 408.088 31.9082C406.721 33.5358 406.037 35.9935 406.037 39.2812C406.037 42.2435 406.704 44.5872 408.039 46.3125C409.406 48.0378 411.473 48.9004 414.24 48.9004Z" fill="black"/>
<path d="M15.7051 0.0234375H16.7051V-0.976562H15.7051V0.0234375ZM15.5098 23.8027L14.5118 23.7384L14.5113 23.7464L14.5109 23.7544L15.5098 23.8027ZM15.1191 28.4902L14.1298 28.3447L13.9613 29.4902H15.1191V28.4902ZM15.7051 28.4902V29.4902H16.2534L16.5482 29.0279L15.7051 28.4902ZM21.5645 22.7773L22.0985 23.6229L22.1063 23.6178L21.5645 22.7773ZM49.1523 64.2812L50.0748 64.6674L50.0758 64.6649L49.1523 64.2812ZM41.7793 73.8027L42.336 74.6335L42.3418 74.6295L41.7793 73.8027ZM15.7051 69.9941L16.4859 69.3694L16.1857 68.9941H15.7051V69.9941ZM14.6797 69.9941V68.9941H14.0118L13.7559 69.6111L14.6797 69.9941ZM12.1895 76V77H12.8574L13.1132 76.383L12.1895 76ZM0.8125 76H-0.1875V77H0.8125V76ZM0.8125 0.0234375V-0.976562H-0.1875V0.0234375H0.8125ZM16.8281 38.7441L15.8794 38.4279L15.8752 38.4409L16.8281 38.7441ZM15.7051 46.8984L14.7053 46.8786L14.7051 46.8885V46.8984H15.7051ZM18.0488 60.7168L17.1732 61.1999L17.1756 61.2042L18.0488 60.7168ZM33.8691 60.668L33.0282 60.1267L33.0239 60.1336L33.8691 60.668ZM14.7051 0.0234375V17.6992H16.7051V0.0234375H14.7051ZM14.7051 17.6992C14.7051 19.7288 14.6406 21.7419 14.5118 23.7384L16.5077 23.8671C16.6393 21.8272 16.7051 19.7712 16.7051 17.6992H14.7051ZM14.5109 23.7544C14.4138 25.7615 14.2855 27.2861 14.1298 28.3447L16.1085 28.6357C16.2783 27.4809 16.4104 25.8804 16.5086 23.8511L14.5109 23.7544ZM15.1191 29.4902H15.7051V27.4902H15.1191V29.4902ZM16.5482 29.0279C17.8939 26.9177 19.7365 25.1146 22.0984 23.6228L21.0305 21.9319C18.4444 23.5651 16.3809 25.5706 14.8619 27.9526L16.5482 29.0279ZM22.1063 23.6178C24.3726 22.1566 27.3736 21.3848 31.1836 21.3848V19.3848C27.116 19.3848 23.7042 20.208 21.0226 21.9369L22.1063 23.6178ZM31.1836 21.3848C36.999 21.3848 41.675 23.6386 45.2937 28.1852L46.8586 26.9398C42.8601 21.916 37.6078 19.3848 31.1836 19.3848V21.3848ZM45.2937 28.1852C48.9054 32.7229 50.7891 39.4784 50.7891 48.6074H52.7891C52.7891 39.2469 50.8642 31.9724 46.8586 26.9398L45.2937 28.1852ZM50.7891 48.6074C50.7891 54.7374 49.9216 59.8225 48.2288 63.8976L50.0758 64.6649C51.8987 60.2765 52.7891 54.9124 52.7891 48.6074H50.7891ZM48.2299 63.8951C46.5323 67.9505 44.1856 70.9559 41.2168 72.976L42.3418 74.6295C45.6881 72.3527 48.2568 69.0104 50.0748 64.6674L48.2299 63.8951ZM41.2226 72.972C38.2455 74.967 34.7813 75.9766 30.793 75.9766V77.9766C35.138 77.9766 38.998 76.8703 42.336 74.6335L41.2226 72.972ZM30.793 75.9766C26.8927 75.9766 23.9422 75.2765 21.8471 73.9781L20.7935 75.6781C23.3209 77.2444 26.6855 77.9766 30.793 77.9766V75.9766ZM21.8471 73.9781C19.6152 72.595 17.8351 71.0559 16.4859 69.3694L14.9242 70.6188C16.4396 72.5131 18.403 74.1967 20.7935 75.6781L21.8471 73.9781ZM15.7051 68.9941H14.6797V70.9941H15.7051V68.9941ZM13.7559 69.6111L11.2657 75.617L13.1132 76.383L15.6034 70.3772L13.7559 69.6111ZM12.1895 75H0.8125V77H12.1895V75ZM1.8125 76V0.0234375H-0.1875V76H1.8125ZM0.8125 1.02344H15.7051V-0.976562H0.8125V1.02344ZM26.3984 31.2988C23.667 31.2988 21.3753 31.8611 19.6226 33.0917L20.7719 34.7286C22.0791 33.8108 23.9215 33.2988 26.3984 33.2988V31.2988ZM19.6226 33.0917C17.883 34.3132 16.6486 36.1203 15.8794 38.4279L17.7768 39.0604C18.4399 37.0711 19.4516 35.6556 20.7719 34.7286L19.6226 33.0917ZM15.8752 38.4409C15.1524 40.7126 14.7715 43.5345 14.7053 46.8786L16.7049 46.9182C16.7689 43.6869 17.1367 41.0726 17.7811 39.0473L15.8752 38.4409ZM14.7051 46.8984V48.5098H16.7051V46.8984H14.7051ZM14.7051 48.5098C14.7051 53.8885 15.4927 58.1539 17.1733 61.1999L18.9244 60.2337C17.48 57.6157 16.7051 53.7431 16.7051 48.5098H14.7051ZM17.1756 61.2042C18.967 64.4138 22.2189 65.916 26.5938 65.916V63.916C22.7004 63.916 20.2556 62.6188 18.922 60.2294L17.1756 61.2042ZM26.5938 65.916C30.0337 65.916 32.7615 64.2914 34.7144 61.2023L33.0239 60.1336C31.396 62.7086 29.2735 63.916 26.5938 63.916V65.916ZM34.71 61.2092C36.6811 58.147 37.6035 53.8399 37.6035 48.4121H35.6035C35.6035 53.6614 34.703 57.5249 33.0283 60.1267L34.71 61.2092ZM37.6035 48.4121C37.6035 42.9895 36.6831 38.7343 34.6981 35.7923L33.0402 36.9109C34.701 39.3725 35.6035 43.1576 35.6035 48.4121H37.6035ZM34.6981 35.7923C32.6965 32.8255 29.901 31.2988 26.3984 31.2988V33.2988C29.211 33.2988 31.396 34.4739 33.0402 36.9109L34.6981 35.7923ZM97.1504 20.5312L97.0509 21.5263L97.0684 21.528L97.086 21.5292L97.1504 20.5312ZM99.5918 20.8242L100.589 20.9044L100.659 20.027L99.7978 19.8457L99.5918 20.8242ZM98.4688 34.7891L98.1525 35.7377L99.3632 36.1413L99.4655 34.8692L98.4688 34.7891ZM96.3691 34.4473L96.2587 35.4411L96.2783 35.4433L96.2979 35.4447L96.3691 34.4473ZM88.459 35.0332L88.2002 34.0672L88.1959 34.0684L88.459 35.0332ZM83.625 37.4258L84.225 38.2258L84.2308 38.2215L84.2364 38.2171L83.625 37.4258ZM80.207 41.7227L79.3029 41.2953L79.2996 41.3025L80.207 41.7227ZM78.9863 76V77H79.9863V76H78.9863ZM64.0938 76H63.0938V77H64.0938V76ZM64.0938 21.4102V20.4102H63.0938V21.4102H64.0938ZM75.373 21.4102L76.3456 21.1774L76.1619 20.4102H75.373V21.4102ZM77.5703 30.5898L76.5978 30.8226L76.7814 31.5898H77.5703V30.5898ZM78.3027 30.5898V31.5898H78.8793L79.1682 31.0909L78.3027 30.5898ZM82.3066 25.5117L82.9989 26.2334L82.9992 26.2331L82.3066 25.5117ZM87.8242 21.8008L88.2304 22.7146L88.2369 22.7116L87.8242 21.8008ZM94.5625 21.3848C95.2696 21.3848 96.0979 21.431 97.0509 21.5263L97.2499 19.5362C96.2498 19.4362 95.3528 19.3848 94.5625 19.3848V21.3848ZM97.086 21.5292C98.0721 21.5928 98.8331 21.6864 99.3858 21.8028L99.7978 19.8457C99.1135 19.7016 98.2469 19.5999 97.2148 19.5333L97.086 21.5292ZM98.595 20.7441L97.472 34.7089L99.4655 34.8692L100.589 20.9044L98.595 20.7441ZM98.785 33.8404C98.1788 33.6383 97.3815 33.517 96.4404 33.4498L96.2979 35.4447C97.1797 35.5077 97.7821 35.6143 98.1525 35.7377L98.785 33.8404ZM96.4796 33.4534C95.576 33.353 94.7725 33.3008 94.0742 33.3008V35.3008C94.678 35.3008 95.4045 35.3462 96.2587 35.4411L96.4796 33.4534ZM94.0742 33.3008C92.0678 33.3008 90.109 33.556 88.2002 34.0673L88.7177 35.9992C90.4548 35.5339 92.2394 35.3008 94.0742 35.3008V33.3008ZM88.1959 34.0684C86.2824 34.5903 84.5521 35.4456 83.0136 36.6345L84.2364 38.2171C85.5625 37.1924 87.0548 36.4527 88.7221 35.998L88.1959 34.0684ZM83.025 36.6258C81.4492 37.8076 80.2113 39.3737 79.303 41.2953L81.1111 42.15C81.8954 40.4909 82.9362 39.1924 84.225 38.2258L83.025 36.6258ZM79.2996 41.3025C78.4083 43.2277 77.9863 45.5454 77.9863 48.2168H79.9863C79.9863 45.745 80.3782 43.7332 81.1145 42.1428L79.2996 41.3025ZM77.9863 48.2168V76H79.9863V48.2168H77.9863ZM78.9863 75H64.0938V77H78.9863V75ZM65.0938 76V21.4102H63.0938V76H65.0938ZM64.0938 22.4102H75.373V20.4102H64.0938V22.4102ZM74.4005 21.6429L76.5978 30.8226L78.5428 30.3571L76.3456 21.1774L74.4005 21.6429ZM77.5703 31.5898H78.3027V29.5898H77.5703V31.5898ZM79.1682 31.0909C80.1939 29.3192 81.4695 27.7003 82.9989 26.2334L81.6144 24.79C79.9537 26.383 78.56 28.1495 77.4373 30.0888L79.1682 31.0909ZM82.9992 26.2331C84.5436 24.7504 86.286 23.5787 88.2304 22.7146L87.4181 20.887C85.2608 21.8457 83.3249 23.148 81.6141 24.7903L82.9992 26.2331ZM88.2369 22.7116C90.1838 21.8295 92.2883 21.3848 94.5625 21.3848V19.3848C92.019 19.3848 89.6313 19.8841 87.4115 20.8899L88.2369 22.7116ZM148.713 25.0723L149.345 24.2977L148.713 25.0723ZM154.572 76V77H155.572V76H154.572ZM144.172 76L143.24 76.3619L143.487 77H144.172V76ZM141.291 68.5781L142.223 68.2163L141.976 67.5781H141.291V68.5781ZM140.9 68.5781V67.5781H140.42L140.12 67.9534L140.9 68.5781ZM136.115 73.3633L135.51 72.5671L136.115 73.3633ZM114.094 75.1211L113.656 76.0201L113.66 76.0223L114.094 75.1211ZM108.088 69.457L107.219 69.952L107.222 69.9568L108.088 69.457ZM111.994 46.8984L112.552 47.7285L112.556 47.7254L111.994 46.8984ZM130.305 42.3086L130.274 41.3091L130.269 41.3092L130.305 42.3086ZM139.777 42.0156L139.808 43.0151L140.777 42.9852V42.0156H139.777ZM115.9 35.2773L115.003 35.7176L115.428 36.5854L116.31 36.1897L115.9 35.2773ZM110.969 25.2188L110.502 24.3345L109.644 24.7876L110.071 25.659L110.969 25.2188ZM120.686 21.6055L120.449 20.6338L120.447 20.6343L120.686 21.6055ZM139.777 50.707H140.777V49.6726L139.743 49.7076L139.777 50.707ZM134.016 50.9023L134.043 51.902L134.05 51.9018L134.016 50.9023ZM123.957 53.4902L123.312 52.7263L123.305 52.7319L123.957 53.4902ZM123.176 64.6719L122.585 65.4789L122.592 65.4837L122.598 65.4883L123.176 64.6719ZM136.457 63.2559L135.808 62.495L135.803 62.4998L136.457 63.2559ZM131.867 21.2871C139.062 21.2871 144.418 22.8558 148.08 25.8468L149.345 24.2977C145.195 20.9085 139.321 19.2871 131.867 19.2871V21.2871ZM148.08 25.8468C151.69 28.7944 153.572 33.3185 153.572 39.623H155.572C155.572 32.9068 153.549 27.7303 149.345 24.2977L148.08 25.8468ZM153.572 39.623V76H155.572V39.623H153.572ZM154.572 75H144.172V77H154.572V75ZM145.104 75.6381L142.223 68.2163L140.359 68.94L143.24 76.3619L145.104 75.6381ZM141.291 67.5781H140.9V69.5781H141.291V67.5781ZM140.12 67.9534C138.597 69.8561 137.06 71.3895 135.51 72.5671L136.72 74.1594C138.426 72.8631 140.078 71.2064 141.681 69.2028L140.12 67.9534ZM135.51 72.5671C133.991 73.7218 132.236 74.5793 130.233 75.1339L130.767 77.0614C132.996 76.4441 134.984 75.4788 136.72 74.1594L135.51 72.5671ZM130.233 75.1339C128.23 75.6886 125.754 75.9766 122.785 75.9766V77.9766C125.871 77.9766 128.538 77.6785 130.767 77.0614L130.233 75.1339ZM122.785 75.9766C119.693 75.9766 116.947 75.3839 114.527 74.2199L113.66 76.0223C116.384 77.3323 119.432 77.9766 122.785 77.9766V75.9766ZM114.532 74.2221C112.179 73.076 110.323 71.3305 108.954 68.9573L107.222 69.9568C108.782 72.6617 110.93 74.6923 113.656 76.0201L114.532 74.2221ZM108.957 68.9621C107.602 66.5831 106.891 63.5121 106.891 59.6914H104.891C104.891 63.7483 105.644 67.1877 107.219 69.952L108.957 68.9621ZM106.891 59.6914C106.891 54.1603 108.813 50.2412 112.552 47.7284L111.436 46.0684C107.038 49.0244 104.891 53.6339 104.891 59.6914H106.891ZM112.556 47.7254C116.398 45.1128 122.28 43.5981 130.341 43.3079L130.269 41.3092C122.053 41.605 115.728 43.1502 111.432 46.0715L112.556 47.7254ZM130.336 43.3081L139.808 43.0151L139.746 41.0161L130.274 41.3091L130.336 43.3081ZM140.777 42.0156V39.623H138.777V42.0156H140.777ZM140.777 39.623C140.777 36.5986 139.985 34.1719 138.197 32.5777L136.866 34.0707C138.072 35.1458 138.777 36.9184 138.777 39.623H140.777ZM138.197 32.5777C136.463 31.0322 134.113 30.3223 131.281 30.3223V32.3223C133.788 32.3223 135.605 32.947 136.866 34.0707L138.197 32.5777ZM131.281 30.3223C128.548 30.3223 125.865 30.7105 123.235 31.4861L123.8 33.4045C126.248 32.6828 128.741 32.3223 131.281 32.3223V30.3223ZM123.235 31.4861C120.65 32.2482 118.069 33.2082 115.491 34.365L116.31 36.1897C118.81 35.0679 121.307 34.1398 123.8 33.4045L123.235 31.4861ZM116.798 34.8371L111.867 24.7785L110.071 25.659L115.003 35.7176L116.798 34.8371ZM111.436 26.103C114.252 24.6157 117.413 23.4384 120.924 22.5766L120.447 20.6343C116.797 21.5303 113.48 22.7619 110.502 24.3345L111.436 26.103ZM120.922 22.5771C124.455 21.7177 128.103 21.2871 131.867 21.2871V19.2871C127.949 19.2871 124.142 19.7355 120.449 20.6338L120.922 22.5771ZM139.743 49.7076L133.982 49.9029L134.05 51.9018L139.811 51.7065L139.743 49.7076ZM133.989 49.9027C129.128 50.0341 125.475 50.8989 123.312 52.7263L124.602 54.2541C126.215 52.8914 129.268 52.031 134.043 51.902L133.989 49.9027ZM123.305 52.7319C121.213 54.5304 120.174 56.9148 120.174 59.7891H122.174C122.174 57.455 122.99 55.6402 124.609 54.2486L123.305 52.7319ZM120.174 59.7891C120.174 62.2569 120.904 64.2487 122.585 65.4789L123.766 63.8648C122.778 63.1419 122.174 61.8785 122.174 59.7891H120.174ZM122.598 65.4883C124.148 66.5842 126.11 67.0879 128.4 67.0879V65.0879C126.394 65.0879 124.873 64.6475 123.753 63.8555L122.598 65.4883ZM128.4 67.0879C131.804 67.0879 134.729 66.0743 137.112 64.0119L135.803 62.4998C133.823 64.2135 131.377 65.0879 128.4 65.0879V67.0879ZM137.106 64.0167C139.586 61.901 140.777 58.9116 140.777 55.1992H138.777C138.777 58.453 137.755 60.8347 135.808 62.495L137.106 64.0167ZM140.777 55.1992V50.707H138.777V55.1992H140.777ZM215.021 25.1699L214.353 25.9136L214.357 25.917L215.021 25.1699ZM220.344 76V77H221.344V76H220.344ZM205.451 76H204.451V77H205.451V76ZM203.303 35.2773L202.485 35.8535L202.492 35.8623L203.303 35.2773ZM184.846 76V77H185.846V76H184.846ZM169.953 76H168.953V77H169.953V76ZM169.953 21.4102V20.4102H168.953V21.4102H169.953ZM181.33 21.4102L182.291 21.1345L182.084 20.4102H181.33V21.4102ZM183.332 28.3926L182.371 28.6682L182.578 29.3926H183.332V28.3926ZM184.162 28.3926V29.3926H184.718L185.012 28.9199L184.162 28.3926ZM188.508 23.8027L187.953 22.9707L187.946 22.9755L188.508 23.8027ZM194.318 21.2148L194.069 20.2464L194.065 20.2474L194.318 21.2148ZM200.959 21.3848C206.596 21.3848 211.027 22.9231 214.353 25.9136L215.69 24.4263C211.92 21.0365 206.975 19.3848 200.959 19.3848V21.3848ZM214.357 25.917C217.607 28.8095 219.344 33.554 219.344 40.4043H221.344C221.344 33.2572 219.532 27.8454 215.686 24.4229L214.357 25.917ZM219.344 40.4043V76H221.344V40.4043H219.344ZM220.344 75H205.451V77H220.344V75ZM206.451 76V44.1152H204.451V76H206.451ZM206.451 44.1152C206.451 40.1144 205.723 36.9227 204.114 34.6923L202.492 35.8623C203.748 37.6033 204.451 40.3036 204.451 44.1152H206.451ZM204.12 34.7012C202.487 32.3839 199.925 31.2988 196.662 31.2988V33.2988C199.454 33.2988 201.319 34.1994 202.485 35.8535L204.12 34.7012ZM196.662 31.2988C191.865 31.2988 188.342 32.9484 186.455 36.4645L188.217 37.4105C189.65 34.7417 192.345 33.2988 196.662 33.2988V31.2988ZM186.455 36.4645C184.681 39.7685 183.846 44.4208 183.846 50.3164H185.846C185.846 44.5584 186.67 40.2914 188.217 37.4105L186.455 36.4645ZM183.846 50.3164V76H185.846V50.3164H183.846ZM184.846 75H169.953V77H184.846V75ZM170.953 76V21.4102H168.953V76H170.953ZM169.953 22.4102H181.33V20.4102H169.953V22.4102ZM180.369 21.6858L182.371 28.6682L184.293 28.117L182.291 21.1345L180.369 21.6858ZM183.332 29.3926H184.162V27.3926H183.332V29.3926ZM185.012 28.9199C186.115 27.143 187.468 25.7181 189.07 24.63L187.946 22.9755C186.097 24.2312 184.553 25.8661 183.312 27.8652L185.012 28.9199ZM189.063 24.6348C190.725 23.5266 192.559 22.7086 194.571 22.1823L194.065 20.2474C191.846 20.8279 189.807 21.7351 187.953 22.9707L189.063 24.6348ZM194.568 22.1832C196.633 21.6514 198.762 21.3848 200.959 21.3848V19.3848C198.598 19.3848 196.301 19.6715 194.069 20.2465L194.568 22.1832ZM238.068 69.8477L237.286 70.4704L237.291 70.4762L238.068 69.8477ZM238.166 27.6113L238.943 28.2405L238.945 28.2379L238.166 27.6113ZM265.363 24.3398L264.72 25.1053L264.728 25.1123L265.363 24.3398ZM269.074 28.3926L268.245 28.9514L268.542 29.3926H269.074V28.3926ZM269.562 28.3926V29.3926H270.767L270.545 28.2083L269.562 28.3926ZM268.83 23.8027L267.838 23.9287L267.839 23.9376L267.84 23.9464L268.83 23.8027ZM268.439 0.0234375V-0.976562H267.439V0.0234375H268.439ZM283.381 0.0234375H284.381V-0.976562H283.381V0.0234375ZM283.381 76V77H284.381V76H283.381ZM271.955 76L271.029 76.3769L271.282 77H271.955V76ZM269.074 68.9199L270 68.543L269.747 67.9199H269.074V68.9199ZM268.439 68.9199V67.9199H267.888L267.594 68.3866L268.439 68.9199ZM264.875 73.0215L265.527 73.7795L265.529 73.7783L264.875 73.0215ZM266.779 61.498L265.957 60.9283L265.956 60.9306L266.779 61.498ZM269.465 50.5117L270.465 50.5317L270.465 50.5217V50.5117H269.465ZM267.023 36.7422L266.156 37.2405L266.159 37.2448L267.023 36.7422ZM250.227 61.0586L249.402 61.6247L249.407 61.6314L250.227 61.0586ZM252.961 75.9766C247.177 75.9766 242.498 73.7378 238.846 69.2191L237.291 70.4762C241.321 75.4627 246.57 77.9766 252.961 77.9766V75.9766ZM238.851 69.2249C235.239 64.6872 233.355 57.9318 233.355 48.8027H231.355C231.355 58.1633 233.28 65.4378 237.286 70.4704L238.851 69.2249ZM233.355 48.8027C233.355 39.5761 235.272 32.776 238.943 28.2405L237.389 26.9821C233.313 32.0169 231.355 39.3444 231.355 48.8027H233.355ZM238.945 28.2379C242.627 23.6593 247.401 21.3848 253.352 21.3848V19.3848C246.803 19.3848 241.453 21.9279 237.387 26.9847L238.945 28.2379ZM253.352 21.3848C255.866 21.3848 258.042 21.7307 259.897 22.3997L260.576 20.5183C258.459 19.7549 256.045 19.3848 253.352 19.3848V21.3848ZM259.897 22.3997C261.786 23.0809 263.388 23.9858 264.72 25.1052L266.007 23.5745C264.473 22.285 262.658 21.2694 260.576 20.5183L259.897 22.3997ZM264.728 25.1123C266.122 26.2584 267.293 27.5382 268.245 28.9514L269.903 27.8337C268.838 26.2522 267.534 24.8302 265.998 23.5674L264.728 25.1123ZM269.074 29.3926H269.562V27.3926H269.074V29.3926ZM270.545 28.2083C270.354 27.1873 270.112 25.6737 269.82 23.6591L267.84 23.9464C268.134 25.9683 268.38 27.5145 268.58 28.5769L270.545 28.2083ZM269.822 23.6768C269.567 21.6694 269.439 19.6119 269.439 17.5039H267.439C267.439 19.6928 267.572 21.8345 267.838 23.9287L269.822 23.6768ZM269.439 17.5039V0.0234375H267.439V17.5039H269.439ZM268.439 1.02344H283.381V-0.976562H268.439V1.02344ZM282.381 0.0234375V76H284.381V0.0234375H282.381ZM283.381 75H271.955V77H283.381V75ZM272.881 75.6231L270 68.543L268.148 69.2968L271.029 76.3769L272.881 75.6231ZM269.074 67.9199H268.439V69.9199H269.074V67.9199ZM267.594 68.3866C266.706 69.7948 265.584 71.0878 264.221 72.2647L265.529 73.7783C267.031 72.4812 268.285 71.0398 269.285 69.4532L267.594 68.3866ZM264.223 72.2635C262.925 73.3804 261.356 74.2835 259.501 74.9635L260.19 76.8412C262.242 76.0889 264.026 75.0715 265.527 73.7795L264.223 72.2635ZM259.501 74.9635C257.684 75.63 255.51 75.9766 252.961 75.9766V77.9766C255.685 77.9766 258.102 77.607 260.19 76.8412L259.501 74.9635ZM258.186 66.1113C262.444 66.1113 265.689 64.8426 267.603 62.0655L265.956 60.9306C264.55 62.9712 262.065 64.1113 258.186 64.1113V66.1113ZM267.601 62.0678C269.457 59.391 270.365 55.4968 270.465 50.5317L268.465 50.4917C268.369 55.2922 267.487 58.7223 265.957 60.9283L267.601 62.0678ZM270.465 50.5117V48.9004H268.465V50.5117H270.465ZM270.465 48.9004C270.465 43.5186 269.644 39.26 267.888 36.2396L266.159 37.2448C267.658 39.8233 268.465 43.6702 268.465 48.9004H270.465ZM267.89 36.2439C266.023 32.9941 262.582 31.4941 257.941 31.4941V33.4941C262.155 33.4941 264.769 34.8262 266.156 37.2405L267.89 36.2439ZM257.941 31.4941C254.305 31.4941 251.424 33.0902 249.39 36.1942L251.063 37.2902C252.74 34.7301 255.003 33.4941 257.941 33.4941V31.4941ZM249.39 36.1942C247.383 39.258 246.443 43.5679 246.443 48.998H248.443C248.443 43.7511 249.359 39.8905 251.063 37.2902L249.39 36.1942ZM246.443 48.998C246.443 54.423 247.381 58.6813 249.402 61.6247L251.051 60.4925C249.361 58.0323 248.443 54.2501 248.443 48.998H246.443ZM249.407 61.6314C251.49 64.6125 254.455 66.1113 258.186 66.1113V64.1113C255.08 64.1113 252.739 62.9084 251.046 60.4858L249.407 61.6314ZM313.85 21.4102H314.85V20.4102H313.85V21.4102ZM313.85 76V77H314.85V76H313.85ZM298.957 76H297.957V77H298.957V76ZM298.957 21.4102V20.4102H297.957V21.4102H298.957ZM312.141 1.58594L311.594 2.42321L311.6 2.42716L311.606 2.43102L312.141 1.58594ZM312.141 13.0605L312.687 13.8978L312.693 13.8939L312.699 13.89L312.141 13.0605ZM300.666 13.0605L300.099 13.8846L300.109 13.8913L300.119 13.8978L300.666 13.0605ZM300.666 1.58594L301.209 2.42599L301.213 2.42321L300.666 1.58594ZM312.85 21.4102V76H314.85V21.4102H312.85ZM313.85 75H298.957V77H313.85V75ZM299.957 76V21.4102H297.957V76H299.957ZM298.957 22.4102H313.85V20.4102H298.957V22.4102ZM306.428 1.02344C308.479 1.02344 310.186 1.50404 311.594 2.42321L312.687 0.748667C310.905 -0.415501 308.803 -0.976562 306.428 -0.976562V1.02344ZM311.606 2.43102C312.788 3.17854 313.533 4.66428 313.533 7.29883H315.533C315.533 4.33441 314.684 2.01156 312.675 0.740859L311.606 2.43102ZM313.533 7.29883C313.533 9.88995 312.792 11.4159 311.582 12.2311L312.699 13.89C314.679 12.5567 315.533 10.2416 315.533 7.29883H313.533ZM311.594 12.2233C310.186 13.1424 308.479 13.623 306.428 13.623V15.623C308.803 15.623 310.905 15.062 312.687 13.8978L311.594 12.2233ZM306.428 13.623C304.34 13.623 302.618 13.1409 301.213 12.2233L300.119 13.8978C301.904 15.0635 304.023 15.623 306.428 15.623V13.623ZM301.233 12.2365C300.051 11.4245 299.322 9.89746 299.322 7.29883H297.322C297.322 10.2341 298.156 12.5481 300.099 13.8846L301.233 12.2365ZM299.322 7.29883C299.322 4.65651 300.056 3.17003 301.209 2.42598L300.123 0.745898C298.151 2.02007 297.322 4.34219 297.322 7.29883H299.322ZM301.213 2.42321C302.618 1.50555 304.34 1.02344 306.428 1.02344V-0.976562C304.023 -0.976562 301.904 -0.417013 300.119 0.748667L301.213 2.42321ZM374.592 25.1699L373.923 25.9136L373.927 25.917L374.592 25.1699ZM379.914 76V77H380.914V76H379.914ZM365.021 76H364.021V77H365.021V76ZM362.873 35.2773L362.056 35.8535L362.062 35.8623L362.873 35.2773ZM344.416 76V77H345.416V76H344.416ZM329.523 76H328.523V77H329.523V76ZM329.523 21.4102V20.4102H328.523V21.4102H329.523ZM340.9 21.4102L341.862 21.1345L341.654 20.4102H340.9V21.4102ZM342.902 28.3926L341.941 28.6682L342.149 29.3926H342.902V28.3926ZM343.732 28.3926V29.3926H344.289L344.582 28.9199L343.732 28.3926ZM348.078 23.8027L347.523 22.9707L347.516 22.9755L348.078 23.8027ZM353.889 21.2148L353.639 20.2464L353.636 20.2474L353.889 21.2148ZM360.529 21.3848C366.166 21.3848 370.597 22.9231 373.923 25.9136L375.26 24.4263C371.49 21.0365 366.546 19.3848 360.529 19.3848V21.3848ZM373.927 25.917C377.177 28.8095 378.914 33.554 378.914 40.4043H380.914C380.914 33.2572 379.103 27.8454 375.257 24.4229L373.927 25.917ZM378.914 40.4043V76H380.914V40.4043H378.914ZM379.914 75H365.021V77H379.914V75ZM366.021 76V44.1152H364.021V76H366.021ZM366.021 44.1152C366.021 40.1144 365.293 36.9227 363.684 34.6923L362.062 35.8623C363.318 37.6033 364.021 40.3036 364.021 44.1152H366.021ZM363.69 34.7012C362.057 32.3839 359.495 31.2988 356.232 31.2988V33.2988C359.024 33.2988 360.89 34.1994 362.056 35.8535L363.69 34.7012ZM356.232 31.2988C351.435 31.2988 347.913 32.9484 346.025 36.4645L347.787 37.4105C349.22 34.7417 351.915 33.2988 356.232 33.2988V31.2988ZM346.025 36.4645C344.251 39.7685 343.416 44.4208 343.416 50.3164H345.416C345.416 44.5584 346.241 40.2914 347.787 37.4105L346.025 36.4645ZM343.416 50.3164V76H345.416V50.3164H343.416ZM344.416 75H329.523V77H344.416V75ZM330.523 76V21.4102H328.523V76H330.523ZM329.523 22.4102H340.9V20.4102H329.523V22.4102ZM339.939 21.6858L341.941 28.6682L343.864 28.117L341.862 21.1345L339.939 21.6858ZM342.902 29.3926H343.732V27.3926H342.902V29.3926ZM344.582 28.9199C345.685 27.143 347.038 25.7181 348.64 24.63L347.516 22.9755C345.668 24.2312 344.124 25.8661 342.883 27.8652L344.582 28.9199ZM348.633 24.6348C350.295 23.5266 352.129 22.7086 354.142 22.1823L353.636 20.2474C351.416 20.8279 349.377 21.7351 347.523 22.9707L348.633 24.6348ZM354.138 22.1832C356.203 21.6514 358.333 21.3848 360.529 21.3848V19.3848C358.169 19.3848 355.871 19.6715 353.639 20.2465L354.138 22.1832ZM393.732 96.0195L394.284 95.1854L394.282 95.1844L393.732 96.0195ZM399.836 71.8984L400.067 72.8713L403.024 72.1684L400.227 70.9783L399.836 71.8984ZM395.832 68.7246L395.036 69.3302L395.043 69.3385L395.832 68.7246ZM395.93 58.8125L396.68 59.4736L396.688 59.4647L395.93 58.8125ZM401.154 54.7109L401.66 55.5738L403.364 54.5758L401.551 53.7929L401.154 54.7109ZM394.318 48.7539L393.464 49.2729L393.468 49.2803L394.318 48.7539ZM394.416 28.9785L393.569 28.4467L393.567 28.4494L394.416 28.9785ZM402.033 22.582L401.633 21.6657L401.63 21.6671L402.033 22.582ZM421.418 21.0195L421.272 22.0089L421.277 22.0095L421.418 21.0195ZM423.713 21.4102L423.47 22.3803L423.59 22.4102H423.713V21.4102ZM442.756 21.4102H443.756V20.4102H442.756V21.4102ZM442.756 28.9785L443.005 29.947L443.756 29.7539V28.9785H442.756ZM434.211 31.1758L433.962 30.2073L432.615 30.5535L433.372 31.72L434.211 31.1758ZM430.402 53.0996L431.027 53.8805L431.028 53.8799L430.402 53.0996ZM413.41 57.9824L413.354 58.9808L413.382 58.9824H413.41V57.9824ZM408.527 57.5918L408.633 56.5974L408.23 56.5545L407.911 56.8043L408.527 57.5918ZM406.818 59.4473L405.961 58.9328L406.818 59.4473ZM407.111 63.3047L406.471 64.0729L406.494 64.092L406.518 64.1097L407.111 63.3047ZM409.846 64.3789L409.634 65.3563L409.649 65.3596L409.665 65.3624L409.846 64.3789ZM437.385 68.5781L436.749 69.3503L436.753 69.3535L437.385 68.5781ZM434.113 94.75L433.563 93.9148L433.561 93.9164L434.113 94.75ZM420.979 89.2812L420.733 88.3118L420.726 88.3137L420.719 88.3156L420.979 89.2812ZM426.887 86.4492L426.226 85.6988L426.216 85.7077L426.887 86.4492ZM427.717 78.832L428.424 78.1249L427.717 78.832ZM424.104 77.1719L423.904 78.1517L423.907 78.1525L424.104 77.1719ZM405.305 77.5625L404.933 76.634L404.926 76.637L405.305 77.5625ZM401.887 80.0039L401.111 79.3733L401.106 79.3791L401.101 79.385L401.887 80.0039ZM403.547 88.5488L403.032 89.4063L403.039 89.41L403.547 88.5488ZM420.393 46.3125L421.191 46.9149L420.393 46.3125ZM420.295 31.9082L419.516 32.5348L419.522 32.5432L419.529 32.5514L420.295 31.9082ZM408.088 31.9082L408.854 32.5514L408.86 32.5439L408.088 31.9082ZM408.039 46.3125L407.248 46.9244L407.255 46.9336L408.039 46.3125ZM411.213 99.0234C403.688 99.0234 398.088 97.7008 394.284 95.1854L393.181 96.8536C397.45 99.6768 403.503 101.023 411.213 101.023V99.0234ZM394.282 95.1844C390.559 92.7322 388.727 89.3348 388.727 84.8867H386.727C386.727 90.009 388.898 94.0334 393.182 96.8547L394.282 95.1844ZM388.727 84.8867C388.727 81.8264 389.673 79.3258 391.536 77.3144L390.069 75.9551C387.831 78.3708 386.727 81.3715 386.727 84.8867H388.727ZM391.536 77.3144C393.413 75.2893 396.222 73.7853 400.067 72.8713L399.605 70.9255C395.507 71.8996 392.295 73.5532 390.069 75.9551L391.536 77.3144ZM400.227 70.9783C398.872 70.4013 397.669 69.4572 396.621 68.1107L395.043 69.3385C396.274 70.9217 397.74 72.0935 399.444 72.8186L400.227 70.9783ZM396.628 68.1191C395.602 66.7714 395.123 65.401 395.123 63.9883H393.123C393.123 65.8959 393.783 67.683 395.036 69.3301L396.628 68.1191ZM395.123 63.9883C395.123 62.1111 395.66 60.632 396.68 59.4735L395.179 58.1515C393.791 59.7274 393.123 61.6988 393.123 63.9883H395.123ZM396.688 59.4647C397.796 58.1762 399.439 56.8746 401.66 55.5738L400.649 53.8481C398.312 55.2165 396.472 56.6493 395.172 58.1603L396.688 59.4647ZM401.551 53.7929C398.88 52.6396 396.757 50.7937 395.169 48.2276L393.468 49.2803C395.265 52.1829 397.699 54.3083 400.758 55.629L401.551 53.7929ZM395.173 48.2349C393.622 45.6806 392.828 42.6436 392.828 39.0859H390.828C390.828 42.9501 391.694 46.3584 393.464 49.2729L395.173 48.2349ZM392.828 39.0859C392.828 35.2607 393.658 32.0844 395.265 29.5076L393.567 28.4494C391.724 31.4065 390.828 34.9684 390.828 39.0859H392.828ZM395.263 29.5103C396.904 26.8964 399.281 24.8894 402.437 23.4969L401.63 21.6671C398.145 23.2043 395.443 25.4617 393.569 28.4467L395.263 29.5103ZM402.434 23.4984C405.628 22.1029 409.552 21.3848 414.24 21.3848V19.3848C409.358 19.3848 405.144 20.1315 401.633 21.6657L402.434 23.4984ZM414.24 21.3848C415.208 21.3848 416.347 21.4473 417.659 21.5754L417.853 19.5848C416.496 19.4524 415.29 19.3848 414.24 19.3848V21.3848ZM417.659 21.5754C418.98 21.7043 420.185 21.8489 421.272 22.0089L421.563 20.0302C420.438 19.8646 419.201 19.7163 417.853 19.5848L417.659 21.5754ZM421.277 22.0095C422.423 22.1732 423.137 22.2971 423.47 22.3803L423.955 20.44C423.507 20.3279 422.692 20.1914 421.559 20.0296L421.277 22.0095ZM423.713 22.4102H442.756V20.4102H423.713V22.4102ZM441.756 21.4102V28.9785H443.756V21.4102H441.756ZM442.507 28.01L433.962 30.2073L434.46 32.1443L443.005 29.947L442.507 28.01ZM433.372 31.72C434.1 32.842 434.644 34.0371 435.007 35.3079L436.93 34.7585C436.512 33.295 435.885 31.9184 435.05 30.6316L433.372 31.72ZM435.007 35.3079C435.37 36.5793 435.555 37.9348 435.555 39.3789H437.555C437.555 37.7631 437.348 36.2215 436.93 34.7585L435.007 35.3079ZM435.555 39.3789C435.555 44.9744 433.612 49.2448 429.777 52.3193L431.028 53.8799C435.395 50.3789 437.555 45.5022 437.555 39.3789H435.555ZM429.778 52.3187C425.944 55.3855 420.53 56.9824 413.41 56.9824V58.9824C420.808 58.9824 426.722 57.3241 431.027 53.8805L429.778 52.3187ZM413.467 56.984C411.756 56.8872 410.145 56.7582 408.633 56.5974L408.422 58.5862C409.97 58.7509 411.614 58.8823 413.354 58.9808L413.467 56.984ZM407.911 56.8043C407.089 57.4474 406.428 58.154 405.961 58.9328L407.676 59.9618C407.99 59.4385 408.468 58.9081 409.144 58.3793L407.911 56.8043ZM405.961 58.9328C405.483 59.7295 405.232 60.5896 405.232 61.498H407.232C407.232 60.9742 407.373 60.4671 407.676 59.9618L405.961 58.9328ZM405.232 61.498C405.232 62.5323 405.674 63.4088 406.471 64.0729L407.752 62.5365C407.377 62.2241 407.232 61.896 407.232 61.498H405.232ZM406.518 64.1097C407.298 64.6847 408.366 65.082 409.634 65.3563L410.057 63.4015C408.917 63.155 408.161 62.8361 407.705 62.4996L406.518 64.1097ZM409.665 65.3624C410.981 65.6049 412.576 65.7207 414.436 65.7207V63.7207C412.649 63.7207 411.184 63.6086 410.027 63.3955L409.665 65.3624ZM414.436 65.7207H423.713V63.7207H414.436V65.7207ZM423.713 65.7207C429.578 65.7207 433.872 66.9823 436.749 69.3503L438.02 67.806C434.648 65.0308 429.827 63.7207 423.713 63.7207V65.7207ZM436.753 69.3535C439.626 71.693 441.121 75.1527 441.121 79.9062H443.121C443.121 74.6989 441.459 70.6064 438.016 67.8027L436.753 69.3535ZM441.121 79.9062C441.121 85.9493 438.622 90.5838 433.563 93.9148L434.663 95.5852C440.282 91.885 443.121 86.6236 443.121 79.9062H441.121ZM433.561 93.9164C428.487 97.2782 421.08 99.0234 411.213 99.0234V101.023C421.268 101.023 429.127 99.2531 434.666 95.5836L433.561 93.9164ZM411.848 91.3066C415.455 91.3066 418.591 90.9596 421.238 90.2469L420.719 88.3156C418.288 88.97 415.336 89.3066 411.848 89.3066V91.3066ZM421.224 90.2507C423.889 89.576 426.028 88.5748 427.558 87.1908L426.216 85.7077C425.011 86.7976 423.211 87.6844 420.733 88.3118L421.224 90.2507ZM427.548 87.1996C429.112 85.8217 429.938 84.1073 429.938 82.1035H427.938C427.938 83.4852 427.396 84.6679 426.226 85.6989L427.548 87.1996ZM429.938 82.1035C429.938 80.5246 429.46 79.161 428.424 78.1249L427.01 79.5391C427.601 80.1307 427.938 80.948 427.938 82.1035H429.938ZM428.424 78.1249C427.449 77.1503 426.03 76.5373 424.3 76.1913L423.907 78.1525C425.433 78.4575 426.422 78.9513 427.01 79.5391L428.424 78.1249ZM424.303 76.1921C422.617 75.848 420.493 75.6836 417.951 75.6836V77.6836C420.422 77.6836 422.399 77.8447 423.904 78.1517L424.303 76.1921ZM417.951 75.6836H410.236V77.6836H417.951V75.6836ZM410.236 75.6836C408.306 75.6836 406.533 75.9941 404.933 76.634L405.676 78.491C407.006 77.959 408.521 77.6836 410.236 77.6836V75.6836ZM404.926 76.637C403.363 77.2766 402.078 78.1829 401.111 79.3733L402.663 80.6345C403.388 79.7416 404.382 79.0203 405.683 78.488L404.926 76.637ZM401.101 79.385C400.112 80.6401 399.617 82.0963 399.617 83.7148H401.617C401.617 82.5339 401.968 81.5162 402.672 80.6228L401.101 79.385ZM399.617 83.7148C399.617 86.1612 400.818 88.0777 403.032 89.4063L404.061 87.6913C402.369 86.6762 401.617 85.3701 401.617 83.7148H399.617ZM403.039 89.41C405.24 90.7091 408.209 91.3066 411.848 91.3066V89.3066C408.39 89.3066 405.825 88.7323 404.055 87.6876L403.039 89.41ZM414.24 49.9004C417.252 49.9004 419.646 48.9617 421.191 46.9149L419.594 45.7101C418.535 47.1138 416.827 47.9004 414.24 47.9004V49.9004ZM421.191 46.9149C422.665 44.962 423.346 42.3816 423.346 39.2812H421.346C421.346 42.1054 420.725 44.2125 419.594 45.7101L421.191 46.9149ZM423.346 39.2812C423.346 35.8807 422.643 33.1484 421.061 31.265L419.529 32.5514C420.682 33.9232 421.346 36.1063 421.346 39.2812H423.346ZM421.074 31.2816C419.501 29.324 417.156 28.418 414.24 28.418V30.418C416.728 30.418 418.42 31.1721 419.516 32.5348L421.074 31.2816ZM414.24 28.418C411.295 28.418 408.923 29.3214 407.316 31.2725L408.86 32.5439C409.987 31.1747 411.717 30.418 414.24 30.418V28.418ZM407.322 31.265C405.74 33.1484 405.037 35.8807 405.037 39.2812H407.037C407.037 36.1063 407.701 33.9232 408.854 32.5514L407.322 31.265ZM405.037 39.2812C405.037 42.3864 405.737 44.9706 407.248 46.9244L408.83 45.7006C407.672 44.2039 407.037 42.1005 407.037 39.2812H405.037ZM407.255 46.9336C408.86 48.9584 411.254 49.9004 414.24 49.9004V47.9004C411.693 47.9004 409.953 47.1172 408.823 45.6914L407.255 46.9336Z" fill="black"/>
</svg>
