<svg width="298" height="77" viewBox="0 0 298 77" fill="none" xmlns="http://www.w3.org/2000/svg">
<path d="M64.9238 20.3848C71.1087 20.3848 75.7799 21.9798 78.9375 25.1699C82.1276 28.3275 83.7227 33.4056 83.7227 40.4043V76H68.7812V44.1152C68.7812 40.209 68.1139 37.263 66.7793 35.2773C65.4447 33.2917 63.3776 32.2988 60.5781 32.2988C56.6393 32.2988 53.8398 33.7148 52.1797 36.5469C50.5195 39.3464 49.6895 43.3665 49.6895 48.6074V76H34.7969V44.1152C34.7969 41.5111 34.5039 39.3301 33.918 37.5723C33.332 35.8145 32.4368 34.4961 31.2324 33.6172C30.028 32.7383 28.4818 32.2988 26.5938 32.2988C23.8268 32.2988 21.6458 32.9987 20.0508 34.3984C18.4883 35.7656 17.3652 37.8001 16.6816 40.502C16.0306 43.1712 15.7051 46.4427 15.7051 50.3164V76H0.8125V21.4102H12.1895L14.1914 28.3926H15.0215C16.1283 26.5046 17.5117 24.9746 19.1719 23.8027C20.8646 22.6309 22.7201 21.7682 24.7383 21.2148C26.7565 20.6615 28.8073 20.3848 30.8906 20.3848C34.8945 20.3848 38.2799 21.0358 41.0469 22.3379C43.8464 23.64 45.9948 25.6582 47.4922 28.3926H48.8105C50.4382 25.5931 52.7331 23.5586 55.6953 22.2891C58.6901 21.0195 61.7663 20.3848 64.9238 20.3848ZM121.564 20.3848C126.61 20.3848 130.956 21.3613 134.602 23.3145C138.247 25.235 141.063 28.0345 143.049 31.7129C145.035 35.3913 146.027 39.8835 146.027 45.1895V52.416H110.822C110.985 56.6152 112.238 59.9193 114.582 62.3281C116.958 64.7044 120.246 65.8926 124.445 65.8926C127.928 65.8926 131.118 65.5345 134.016 64.8184C136.913 64.1022 139.891 63.028 142.951 61.5957V73.1191C140.249 74.4538 137.417 75.4303 134.455 76.0488C131.525 76.6673 127.961 76.9766 123.762 76.9766C118.293 76.9766 113.443 75.9674 109.211 73.9492C105.012 71.931 101.708 68.8548 99.2988 64.7207C96.9225 60.5866 95.7344 55.3783 95.7344 49.0957C95.7344 42.7155 96.8086 37.4095 98.957 33.1777C101.138 28.9134 104.165 25.7233 108.039 23.6074C111.913 21.459 116.421 20.3848 121.564 20.3848ZM121.662 30.9805C118.765 30.9805 116.356 31.9082 114.436 33.7637C112.548 35.6191 111.457 38.5326 111.164 42.5039H132.062C132.03 40.2904 131.623 38.321 130.842 36.5957C130.093 34.8704 128.954 33.5033 127.424 32.4941C125.926 31.485 124.006 30.9805 121.662 30.9805ZM175.422 76.9766C169.335 76.9766 164.37 74.6003 160.529 69.8477C156.721 65.0625 154.816 58.0475 154.816 48.8027C154.816 39.4603 156.753 32.3965 160.627 27.6113C164.501 22.7936 169.562 20.3848 175.812 20.3848C178.417 20.3848 180.712 20.7428 182.697 21.459C184.683 22.1751 186.392 23.1354 187.824 24.3398C189.289 25.5443 190.526 26.8952 191.535 28.3926H192.023C191.828 27.3509 191.584 25.821 191.291 23.8027C191.031 21.752 190.9 19.6523 190.9 17.5039V0.0234375H205.842V76H194.416L191.535 68.9199H190.9C189.956 70.4173 188.768 71.7845 187.336 73.0215C185.936 74.2259 184.26 75.1862 182.307 75.9023C180.354 76.6185 178.059 76.9766 175.422 76.9766ZM180.646 65.1113C184.715 65.1113 187.58 63.9069 189.24 61.498C190.933 59.0566 191.828 55.3945 191.926 50.5117V48.9004C191.926 43.5944 191.112 39.5417 189.484 36.7422C187.857 33.9102 184.829 32.4941 180.402 32.4941C177.115 32.4941 174.543 33.9102 172.688 36.7422C170.832 39.5742 169.904 43.6595 169.904 48.998C169.904 54.3366 170.832 58.3568 172.688 61.0586C174.576 63.7604 177.229 65.1113 180.646 65.1113ZM236.311 21.4102V76H221.418V21.4102H236.311ZM228.889 0.0234375C231.102 0.0234375 233.007 0.544271 234.602 1.58594C236.197 2.59505 236.994 4.49935 236.994 7.29883C236.994 10.0658 236.197 11.9863 234.602 13.0605C233.007 14.1022 231.102 14.623 228.889 14.623C226.643 14.623 224.722 14.1022 223.127 13.0605C221.564 11.9863 220.783 10.0658 220.783 7.29883C220.783 4.49935 221.564 2.59505 223.127 1.58594C224.722 0.544271 226.643 0.0234375 228.889 0.0234375ZM274.348 20.2871C281.672 20.2871 287.287 21.8822 291.193 25.0723C295.1 28.2624 297.053 33.1126 297.053 39.623V76H286.652L283.771 68.5781H283.381C281.818 70.5312 280.223 72.1263 278.596 73.3633C276.968 74.6003 275.096 75.5117 272.98 76.0977C270.865 76.6836 268.293 76.9766 265.266 76.9766C262.043 76.9766 259.146 76.3581 256.574 75.1211C254.035 73.8841 252.033 71.9961 250.568 69.457C249.104 66.8854 248.371 63.6302 248.371 59.6914C248.371 53.8971 250.406 49.6328 254.475 46.8984C258.544 44.1315 264.647 42.6016 272.785 42.3086L282.258 42.0156V39.623C282.258 36.7585 281.509 34.6589 280.012 33.3242C278.514 31.9896 276.431 31.3223 273.762 31.3223C271.125 31.3223 268.537 31.6966 265.998 32.4453C263.459 33.194 260.92 34.138 258.381 35.2773L253.449 25.2188C256.346 23.6888 259.585 22.4844 263.166 21.6055C266.779 20.7266 270.507 20.2871 274.348 20.2871ZM282.258 50.707L276.496 50.9023C271.678 51.0326 268.326 51.8952 266.438 53.4902C264.582 55.0853 263.654 57.1849 263.654 59.7891C263.654 62.0677 264.322 63.6953 265.656 64.6719C266.991 65.6159 268.732 66.0879 270.881 66.0879C274.071 66.0879 276.757 65.1439 278.938 63.2559C281.151 61.3678 282.258 58.6823 282.258 55.1992V50.707Z" fill="black"/>
<path d="M78.9375 25.1699L78.2267 25.8734L78.234 25.8806L78.9375 25.1699ZM83.7227 76V77H84.7227V76H83.7227ZM68.7812 76H67.7812V77H68.7812V76ZM52.1797 36.5469L53.0398 37.057L53.0424 37.0526L52.1797 36.5469ZM49.6895 76V77H50.6895V76H49.6895ZM34.7969 76H33.7969V77H34.7969V76ZM20.0508 34.3984L20.7093 35.151L20.7104 35.1501L20.0508 34.3984ZM16.6816 40.502L15.7122 40.2567L15.7101 40.265L16.6816 40.502ZM15.7051 76V77H16.7051V76H15.7051ZM0.8125 76H-0.1875V77H0.8125V76ZM0.8125 21.4102V20.4102H-0.1875V21.4102H0.8125ZM12.1895 21.4102L13.1507 21.1345L12.943 20.4102H12.1895V21.4102ZM14.1914 28.3926L13.2301 28.6682L13.4378 29.3926H14.1914V28.3926ZM15.0215 28.3926V29.3926H15.5944L15.8842 28.8983L15.0215 28.3926ZM19.1719 23.8027L18.6026 22.9805L18.5952 22.9858L19.1719 23.8027ZM24.7383 21.2148L24.4738 20.2504L24.7383 21.2148ZM41.0469 22.3379L40.6211 23.2427L40.6251 23.2446L41.0469 22.3379ZM47.4922 28.3926L46.6151 28.8729L46.8997 29.3926H47.4922V28.3926ZM48.8105 28.3926V29.3926H49.3859L49.6751 28.8952L48.8105 28.3926ZM55.6953 22.2891L55.305 21.3684L55.3014 21.3699L55.6953 22.2891ZM64.9238 21.3848C70.9449 21.3848 75.319 22.9356 78.2268 25.8734L79.6482 24.4665C76.2409 21.024 71.2725 19.3848 64.9238 19.3848V21.3848ZM78.234 25.8806C81.1513 28.7682 82.7227 33.5271 82.7227 40.4043H84.7227C84.7227 33.2841 83.1039 27.8868 79.641 24.4592L78.234 25.8806ZM82.7227 40.4043V76H84.7227V40.4043H82.7227ZM83.7227 75H68.7812V77H83.7227V75ZM69.7812 76V44.1152H67.7812V76H69.7812ZM69.7812 44.1152C69.7812 40.1243 69.1047 36.9445 67.6092 34.7195L65.9493 35.8352C67.1231 37.5816 67.7812 40.2936 67.7812 44.1152H69.7812ZM67.6092 34.7195C66.0551 32.4072 63.6451 31.2988 60.5781 31.2988V33.2988C63.1101 33.2988 64.8343 34.1762 65.9493 35.8352L67.6092 34.7195ZM60.5781 31.2988C56.3679 31.2988 53.1952 32.8372 51.317 36.0412L53.0424 37.0526C54.4845 34.5925 56.9107 33.2988 60.5781 33.2988V31.2988ZM51.3196 36.0368C49.528 39.0579 48.6895 43.2858 48.6895 48.6074H50.6895C50.6895 43.4473 51.5111 39.6348 53.0398 37.057L51.3196 36.0368ZM48.6895 48.6074V76H50.6895V48.6074H48.6895ZM49.6895 75H34.7969V77H49.6895V75ZM35.7969 76V44.1152H33.7969V76H35.7969ZM35.7969 44.1152C35.7969 41.4436 35.4973 39.1479 34.8667 37.256L32.9693 37.8885C33.5105 39.5123 33.7969 41.5785 33.7969 44.1152H35.7969ZM34.8667 37.256C34.2311 35.3494 33.2312 33.8378 31.8219 32.8094L30.643 34.425C31.6425 35.1544 32.433 36.2795 32.9693 37.8885L34.8667 37.256ZM31.8219 32.8094C30.4055 31.7758 28.6368 31.2988 26.5938 31.2988V33.2988C28.3267 33.2988 29.6505 33.7008 30.643 34.425L31.8219 32.8094ZM26.5938 31.2988C23.6594 31.2988 21.2183 32.0434 19.3912 33.6468L20.7104 35.1501C22.0734 33.954 23.9942 33.2988 26.5938 33.2988V31.2988ZM19.3923 33.6459C17.6327 35.1855 16.4288 37.4242 15.7122 40.2567L17.6511 40.7472C18.3016 38.176 19.3438 36.3458 20.7093 35.151L19.3923 33.6459ZM15.7101 40.265C15.0342 43.0362 14.7051 46.3927 14.7051 50.3164H16.7051C16.7051 46.4928 17.027 43.3062 17.6532 40.7389L15.7101 40.265ZM14.7051 50.3164V76H16.7051V50.3164H14.7051ZM15.7051 75H0.8125V77H15.7051V75ZM1.8125 76V21.4102H-0.1875V76H1.8125ZM0.8125 22.4102H12.1895V20.4102H0.8125V22.4102ZM11.2282 21.6858L13.2301 28.6682L15.1527 28.117L13.1507 21.1345L11.2282 21.6858ZM14.1914 29.3926H15.0215V27.3926H14.1914V29.3926ZM15.8842 28.8983C16.9245 27.1236 18.2136 25.7032 19.7486 24.6197L18.5952 22.9858C16.8098 24.246 15.332 25.8855 14.1588 27.8869L15.8842 28.8983ZM19.7411 24.6249C21.3394 23.5184 23.0916 22.7033 25.0027 22.1792L24.4738 20.2504C22.3486 20.8332 20.3898 21.7433 18.6027 22.9805L19.7411 24.6249ZM25.0027 22.1792C26.9352 21.6494 28.897 21.3848 30.8906 21.3848V19.3848C28.7175 19.3848 26.5778 19.6735 24.4738 20.2504L25.0027 22.1792ZM30.8906 21.3848C34.791 21.3848 38.0219 22.0196 40.6211 23.2427L41.4727 21.4331C38.538 20.0521 34.9981 19.3848 30.8906 19.3848V21.3848ZM40.6251 23.2446C43.2292 24.4558 45.2191 26.3236 46.6151 28.8729L48.3693 27.9123C46.7705 24.9928 44.4635 22.8241 41.4686 21.4312L40.6251 23.2446ZM47.4922 29.3926H48.8105V27.3926H47.4922V29.3926ZM49.6751 28.8952C51.1952 26.2806 53.3256 24.3926 56.0892 23.2082L55.3014 21.3699C52.1406 22.7245 49.6811 24.9056 47.946 27.89L49.6751 28.8952ZM56.0856 23.2098C58.9607 21.9909 61.9045 21.3848 64.9238 21.3848V19.3848C61.6281 19.3848 58.4195 20.0481 55.305 21.3684L56.0856 23.2098ZM134.602 23.3145L134.129 24.196L134.135 24.1992L134.602 23.3145ZM143.049 31.7129L142.169 32.1879L143.049 31.7129ZM146.027 52.416V53.416H147.027V52.416H146.027ZM110.822 52.416V51.416H109.783L109.823 52.4547L110.822 52.416ZM114.582 62.3281L113.865 63.0255L113.875 63.0352L114.582 62.3281ZM142.951 61.5957H143.951V60.0235L142.527 60.69L142.951 61.5957ZM142.951 73.1191L143.394 74.0157L143.951 73.7405V73.1191H142.951ZM134.455 76.0488L134.251 75.0699L134.249 75.0704L134.455 76.0488ZM109.211 73.9492L108.778 74.8505L108.78 74.8518L109.211 73.9492ZM99.2988 64.7207L98.4318 65.2191L98.4348 65.2242L99.2988 64.7207ZM98.957 33.1777L98.0667 32.7224L98.0654 32.725L98.957 33.1777ZM108.039 23.6074L108.518 24.4851L108.524 24.4819L108.039 23.6074ZM114.436 33.7637L113.741 33.0445L113.735 33.0504L114.436 33.7637ZM111.164 42.5039L110.167 42.4303L110.088 43.5039H111.164V42.5039ZM132.062 42.5039V43.5039H133.077L133.062 42.4892L132.062 42.5039ZM130.842 36.5957L129.924 36.9938L129.928 37.001L129.931 37.0082L130.842 36.5957ZM127.424 32.4941L126.865 33.3234L126.873 33.3289L127.424 32.4941ZM121.564 21.3848C126.481 21.3848 130.657 22.336 134.129 24.1959L135.074 22.433C131.254 20.3867 126.739 19.3848 121.564 19.3848V21.3848ZM134.135 24.1992C137.603 26.0259 140.276 28.6815 142.169 32.1879L143.929 31.2379C141.85 27.3875 138.892 24.4442 135.068 22.4297L134.135 24.1992ZM142.169 32.1879C144.057 35.6862 145.027 40.0056 145.027 45.1895H147.027C147.027 39.7613 146.012 35.0963 143.929 31.2379L142.169 32.1879ZM145.027 45.1895V52.416H147.027V45.1895H145.027ZM146.027 51.416H110.822V53.416H146.027V51.416ZM109.823 52.4547C109.993 56.8366 111.309 60.3983 113.865 63.0255L115.299 61.6308C113.167 59.4403 111.977 56.3939 111.822 52.3773L109.823 52.4547ZM113.875 63.0352C116.483 65.6433 120.051 66.8926 124.445 66.8926V64.8926C120.441 64.8926 117.434 63.7655 115.289 61.621L113.875 63.0352ZM124.445 66.8926C127.996 66.8926 131.268 66.5276 134.256 65.7891L133.776 63.8476C130.969 64.5414 127.861 64.8926 124.445 64.8926V66.8926ZM134.256 65.7891C137.224 65.0555 140.264 63.9578 143.375 62.5014L142.527 60.69C139.519 62.0982 136.602 63.149 133.776 63.8476L134.256 65.7891ZM141.951 61.5957V73.1191H143.951V61.5957H141.951ZM142.508 72.2226C139.882 73.5196 137.131 74.4686 134.251 75.0699L134.659 77.0277C137.704 76.392 140.616 75.3879 143.394 74.0157L142.508 72.2226ZM134.249 75.0704C131.408 75.6701 127.917 75.9766 123.762 75.9766V77.9766C128.005 77.9766 131.643 77.6645 134.662 77.0273L134.249 75.0704ZM123.762 75.9766C118.417 75.9766 113.718 74.9909 109.641 73.0466L108.78 74.8518C113.167 76.944 118.169 77.9766 123.762 77.9766V75.9766ZM109.644 73.0479C105.63 71.1187 102.474 68.1836 100.163 64.2173L98.4348 65.2242C100.941 69.526 104.393 72.7433 108.778 74.8505L109.644 73.0479ZM100.166 64.2224C97.9001 60.2806 96.7344 55.2573 96.7344 49.0957H94.7344C94.7344 55.4993 95.945 60.8926 98.4318 65.219L100.166 64.2224ZM96.7344 49.0957C96.7344 42.8211 97.7917 37.6821 99.8487 33.6304L98.0654 32.725C95.8255 37.1369 94.7344 42.6099 94.7344 49.0957H96.7344ZM99.8473 33.6331C101.945 29.5316 104.836 26.4964 108.518 24.485L107.56 22.7298C103.495 24.9502 100.331 28.2952 98.0667 32.7224L99.8473 33.6331ZM108.524 24.4819C112.227 22.4282 116.563 21.3848 121.564 21.3848V19.3848C116.279 19.3848 111.599 20.4898 107.554 22.7329L108.524 24.4819ZM121.662 29.9805C118.53 29.9805 115.864 30.9928 113.741 33.0445L115.13 34.4829C116.848 32.8236 119 31.9805 121.662 31.9805V29.9805ZM113.735 33.0504C111.604 35.144 110.469 38.3351 110.167 42.4303L112.161 42.5775C112.445 38.73 113.491 36.0943 115.136 34.4769L113.735 33.0504ZM111.164 43.5039H132.062V41.5039H111.164V43.5039ZM133.062 42.4892C133.028 40.1613 132.599 38.0529 131.753 36.1832L129.931 37.0082C130.647 38.5891 131.032 40.4194 131.063 42.5186L133.062 42.4892ZM131.759 36.1976C130.935 34.2992 129.671 32.7783 127.974 31.6594L126.873 33.3289C128.237 34.2282 129.251 35.4417 129.924 36.9938L131.759 36.1976ZM127.983 31.6649C126.277 30.5156 124.146 29.9805 121.662 29.9805V31.9805C123.865 31.9805 125.576 32.4544 126.865 33.3234L127.983 31.6649ZM160.529 69.8477L159.747 70.4704L159.752 70.4762L160.529 69.8477ZM160.627 27.6113L161.404 28.2405L161.406 28.2379L160.627 27.6113ZM187.824 24.3398L187.181 25.1053L187.189 25.1123L187.824 24.3398ZM191.535 28.3926L190.706 28.9514L191.003 29.3926H191.535V28.3926ZM192.023 28.3926V29.3926H193.228L193.006 28.2083L192.023 28.3926ZM191.291 23.8027L190.299 23.9287L190.3 23.9376L190.301 23.9464L191.291 23.8027ZM190.9 0.0234375V-0.976562H189.9V0.0234375H190.9ZM205.842 0.0234375H206.842V-0.976562H205.842V0.0234375ZM205.842 76V77H206.842V76H205.842ZM194.416 76L193.49 76.3769L193.743 77H194.416V76ZM191.535 68.9199L192.461 68.543L192.208 67.9199H191.535V68.9199ZM190.9 68.9199V67.9199H190.349L190.054 68.3866L190.9 68.9199ZM187.336 73.0215L187.988 73.7795L187.99 73.7783L187.336 73.0215ZM189.24 61.498L188.418 60.9283L188.417 60.9306L189.24 61.498ZM191.926 50.5117L192.926 50.5317L192.926 50.5217V50.5117H191.926ZM189.484 36.7422L188.617 37.2405L188.62 37.2448L189.484 36.7422ZM172.688 61.0586L171.863 61.6247L171.868 61.6314L172.688 61.0586ZM175.422 75.9766C169.638 75.9766 164.959 73.7378 161.307 69.2191L159.752 70.4762C163.782 75.4627 169.031 77.9766 175.422 77.9766V75.9766ZM161.312 69.2249C157.7 64.6872 155.816 57.9318 155.816 48.8027H153.816C153.816 58.1633 155.741 65.4378 159.747 70.4704L161.312 69.2249ZM155.816 48.8027C155.816 39.5761 157.733 32.776 161.404 28.2405L159.85 26.9821C155.774 32.0169 153.816 39.3444 153.816 48.8027H155.816ZM161.406 28.2379C165.088 23.6593 169.862 21.3848 175.812 21.3848V19.3848C169.263 19.3848 163.914 21.9279 159.848 26.9847L161.406 28.2379ZM175.812 21.3848C178.327 21.3848 180.503 21.7307 182.358 22.3997L183.037 20.5183C180.92 19.7549 178.506 19.3848 175.812 19.3848V21.3848ZM182.358 22.3997C184.247 23.0809 185.849 23.9858 187.181 25.1052L188.468 23.5745C186.934 22.285 185.119 21.2694 183.037 20.5183L182.358 22.3997ZM187.189 25.1123C188.583 26.2584 189.753 27.5382 190.706 28.9514L192.364 27.8337C191.299 26.2522 189.995 24.8302 188.459 23.5674L187.189 25.1123ZM191.535 29.3926H192.023V27.3926H191.535V29.3926ZM193.006 28.2083C192.815 27.1873 192.573 25.6737 192.281 23.6591L190.301 23.9464C190.595 25.9683 190.841 27.5145 191.041 28.5769L193.006 28.2083ZM192.283 23.6768C192.028 21.6694 191.9 19.6119 191.9 17.5039H189.9C189.9 19.6928 190.033 21.8345 190.299 23.9287L192.283 23.6768ZM191.9 17.5039V0.0234375H189.9V17.5039H191.9ZM190.9 1.02344H205.842V-0.976562H190.9V1.02344ZM204.842 0.0234375V76H206.842V0.0234375H204.842ZM205.842 75H194.416V77H205.842V75ZM195.342 75.6231L192.461 68.543L190.609 69.2968L193.49 76.3769L195.342 75.6231ZM191.535 67.9199H190.9V69.9199H191.535V67.9199ZM190.054 68.3866C189.167 69.7948 188.045 71.0878 186.682 72.2647L187.99 73.7783C189.491 72.4812 190.746 71.0398 191.746 69.4532L190.054 68.3866ZM186.684 72.2635C185.386 73.3804 183.817 74.2835 181.962 74.9635L182.651 76.8412C184.703 76.0889 186.487 75.0715 187.988 73.7795L186.684 72.2635ZM181.962 74.9635C180.145 75.63 177.971 75.9766 175.422 75.9766V77.9766C178.146 77.9766 180.562 77.607 182.651 76.8412L181.962 74.9635ZM180.646 66.1113C184.905 66.1113 188.15 64.8426 190.064 62.0655L188.417 60.9306C187.01 62.9712 184.526 64.1113 180.646 64.1113V66.1113ZM190.062 62.0678C191.918 59.391 192.826 55.4968 192.926 50.5317L190.926 50.4917C190.83 55.2922 189.948 58.7223 188.418 60.9283L190.062 62.0678ZM192.926 50.5117V48.9004H190.926V50.5117H192.926ZM192.926 48.9004C192.926 43.5186 192.105 39.26 190.349 36.2396L188.62 37.2448C190.119 39.8233 190.926 43.6702 190.926 48.9004H192.926ZM190.351 36.2439C188.484 32.9941 185.043 31.4941 180.402 31.4941V33.4941C184.616 33.4941 187.23 34.8262 188.617 37.2405L190.351 36.2439ZM180.402 31.4941C176.765 31.4941 173.885 33.0902 171.851 36.1942L173.524 37.2902C175.201 34.7301 177.464 33.4941 180.402 33.4941V31.4941ZM171.851 36.1942C169.844 39.258 168.904 43.5679 168.904 48.998H170.904C170.904 43.7511 171.82 39.8905 173.524 37.2902L171.851 36.1942ZM168.904 48.998C168.904 54.423 169.842 58.6813 171.863 61.6247L173.512 60.4925C171.822 58.0323 170.904 54.2501 170.904 48.998H168.904ZM171.868 61.6314C173.951 64.6125 176.916 66.1113 180.646 66.1113V64.1113C177.541 64.1113 175.2 62.9084 173.507 60.4858L171.868 61.6314ZM236.311 21.4102H237.311V20.4102H236.311V21.4102ZM236.311 76V77H237.311V76H236.311ZM221.418 76H220.418V77H221.418V76ZM221.418 21.4102V20.4102H220.418V21.4102H221.418ZM234.602 1.58594L234.055 2.42321L234.061 2.42716L234.067 2.43102L234.602 1.58594ZM234.602 13.0605L235.148 13.8978L235.154 13.8939L235.16 13.89L234.602 13.0605ZM223.127 13.0605L222.56 13.8846L222.57 13.8913L222.58 13.8978L223.127 13.0605ZM223.127 1.58594L223.669 2.42599L223.674 2.42321L223.127 1.58594ZM235.311 21.4102V76H237.311V21.4102H235.311ZM236.311 75H221.418V77H236.311V75ZM222.418 76V21.4102H220.418V76H222.418ZM221.418 22.4102H236.311V20.4102H221.418V22.4102ZM228.889 1.02344C230.94 1.02344 232.647 1.50404 234.055 2.42321L235.148 0.748667C233.366 -0.415501 231.264 -0.976562 228.889 -0.976562V1.02344ZM234.067 2.43102C235.248 3.17854 235.994 4.66428 235.994 7.29883H237.994C237.994 4.33441 237.145 2.01156 235.136 0.740859L234.067 2.43102ZM235.994 7.29883C235.994 9.88995 235.253 11.4159 234.043 12.2311L235.16 13.89C237.14 12.5567 237.994 10.2416 237.994 7.29883H235.994ZM234.055 12.2233C232.647 13.1424 230.94 13.623 228.889 13.623V15.623C231.264 15.623 233.366 15.062 235.148 13.8978L234.055 12.2233ZM228.889 13.623C226.801 13.623 225.079 13.1409 223.674 12.2233L222.58 13.8978C224.365 15.0635 226.484 15.623 228.889 15.623V13.623ZM223.693 12.2365C222.512 11.4245 221.783 9.89746 221.783 7.29883H219.783C219.783 10.2341 220.617 12.5481 222.56 13.8846L223.693 12.2365ZM221.783 7.29883C221.783 4.65651 222.517 3.17003 223.669 2.42598L222.584 0.745898C220.612 2.02007 219.783 4.34219 219.783 7.29883H221.783ZM223.674 2.42321C225.079 1.50555 226.801 1.02344 228.889 1.02344V-0.976562C226.484 -0.976562 224.365 -0.417013 222.58 0.748667L223.674 2.42321ZM291.193 25.0723L291.826 24.2977L291.193 25.0723ZM297.053 76V77H298.053V76H297.053ZM286.652 76L285.72 76.3619L285.968 77H286.652V76ZM283.771 68.5781L284.704 68.2163L284.456 67.5781H283.771V68.5781ZM283.381 68.5781V67.5781H282.9L282.6 67.9534L283.381 68.5781ZM278.596 73.3633L277.991 72.5671L278.596 73.3633ZM256.574 75.1211L256.136 76.0201L256.141 76.0223L256.574 75.1211ZM250.568 69.457L249.699 69.952L249.702 69.9568L250.568 69.457ZM254.475 46.8984L255.032 47.7285L255.037 47.7254L254.475 46.8984ZM272.785 42.3086L272.754 41.3091L272.749 41.3092L272.785 42.3086ZM282.258 42.0156L282.289 43.0151L283.258 42.9852V42.0156H282.258ZM258.381 35.2773L257.483 35.7176L257.908 36.5854L258.79 36.1897L258.381 35.2773ZM253.449 25.2188L252.982 24.3345L252.124 24.7876L252.551 25.659L253.449 25.2188ZM263.166 21.6055L262.93 20.6338L262.928 20.6343L263.166 21.6055ZM282.258 50.707H283.258V49.6726L282.224 49.7076L282.258 50.707ZM276.496 50.9023L276.523 51.902L276.53 51.9018L276.496 50.9023ZM266.438 53.4902L265.792 52.7263L265.786 52.7319L266.438 53.4902ZM265.656 64.6719L265.066 65.4789L265.072 65.4837L265.079 65.4883L265.656 64.6719ZM278.938 63.2559L278.289 62.495L278.283 62.4998L278.938 63.2559ZM274.348 21.2871C281.543 21.2871 286.898 22.8558 290.561 25.8468L291.826 24.2977C287.676 20.9085 281.801 19.2871 274.348 19.2871V21.2871ZM290.561 25.8468C294.17 28.7944 296.053 33.3185 296.053 39.623H298.053C298.053 32.9068 296.029 27.7303 291.826 24.2977L290.561 25.8468ZM296.053 39.623V76H298.053V39.623H296.053ZM297.053 75H286.652V77H297.053V75ZM287.585 75.6381L284.704 68.2163L282.839 68.94L285.72 76.3619L287.585 75.6381ZM283.771 67.5781H283.381V69.5781H283.771V67.5781ZM282.6 67.9534C281.078 69.8561 279.54 71.3895 277.991 72.5671L279.201 74.1594C280.906 72.8631 282.559 71.2064 284.162 69.2028L282.6 67.9534ZM277.991 72.5671C276.471 73.7218 274.716 74.5793 272.714 75.1339L273.247 77.0614C275.476 76.4441 277.465 75.4788 279.201 74.1594L277.991 72.5671ZM272.714 75.1339C270.71 75.6886 268.234 75.9766 265.266 75.9766V77.9766C268.352 77.9766 271.019 77.6785 273.247 77.0614L272.714 75.1339ZM265.266 75.9766C262.174 75.9766 259.428 75.3839 257.008 74.2199L256.141 76.0223C258.864 77.3323 261.912 77.9766 265.266 77.9766V75.9766ZM257.012 74.2221C254.66 73.076 252.804 71.3305 251.435 68.9573L249.702 69.9568C251.263 72.6617 253.411 74.6923 256.136 76.0201L257.012 74.2221ZM251.437 68.9621C250.082 66.5831 249.371 63.5121 249.371 59.6914H247.371C247.371 63.7483 248.125 67.1877 249.699 69.952L251.437 68.9621ZM249.371 59.6914C249.371 54.1603 251.293 50.2412 255.032 47.7284L253.917 46.0684C249.518 49.0244 247.371 53.6339 247.371 59.6914H249.371ZM255.037 47.7254C258.879 45.1128 264.761 43.5981 272.821 43.3079L272.749 41.3092C264.533 41.605 258.208 43.1502 253.912 46.0715L255.037 47.7254ZM272.816 43.3081L282.289 43.0151L282.227 41.0161L272.754 41.3091L272.816 43.3081ZM283.258 42.0156V39.623H281.258V42.0156H283.258ZM283.258 39.623C283.258 36.5986 282.466 34.1719 280.677 32.5777L279.346 34.0707C280.552 35.1458 281.258 36.9184 281.258 39.623H283.258ZM280.677 32.5777C278.943 31.0322 276.594 30.3223 273.762 30.3223V32.3223C276.268 32.3223 278.086 32.947 279.346 34.0707L280.677 32.5777ZM273.762 30.3223C271.029 30.3223 268.346 30.7105 265.715 31.4861L266.281 33.4045C268.728 32.6828 271.221 32.3223 273.762 32.3223V30.3223ZM265.715 31.4861C263.131 32.2482 260.55 33.2082 257.971 34.365L258.79 36.1897C261.29 35.0679 263.787 34.1398 266.281 33.4045L265.715 31.4861ZM259.279 34.8371L254.347 24.7785L252.551 25.659L257.483 35.7176L259.279 34.8371ZM253.916 26.103C256.733 24.6157 259.893 23.4384 263.404 22.5766L262.928 20.6343C259.277 21.5303 255.96 22.7619 252.982 24.3345L253.916 26.103ZM263.402 22.5771C266.936 21.7177 270.584 21.2871 274.348 21.2871V19.2871C270.43 19.2871 266.623 19.7355 262.93 20.6338L263.402 22.5771ZM282.224 49.7076L276.462 49.9029L276.53 51.9018L282.292 51.7065L282.224 49.7076ZM276.469 49.9027C271.608 50.0341 267.955 50.8989 265.792 52.7263L267.083 54.2541C268.696 52.8914 271.748 52.031 276.523 51.902L276.469 49.9027ZM265.786 52.7319C263.693 54.5304 262.654 56.9148 262.654 59.7891H264.654C264.654 57.455 265.471 55.6402 267.089 54.2486L265.786 52.7319ZM262.654 59.7891C262.654 62.2569 263.384 64.2487 265.066 65.4789L266.247 63.8648C265.259 63.1419 264.654 61.8785 264.654 59.7891H262.654ZM265.079 65.4883C266.628 66.5842 268.59 67.0879 270.881 67.0879V65.0879C268.875 65.0879 267.354 64.6475 266.234 63.8555L265.079 65.4883ZM270.881 67.0879C274.284 67.0879 277.21 66.0743 279.592 64.0119L278.283 62.4998C276.303 64.2135 273.858 65.0879 270.881 65.0879V67.0879ZM279.586 64.0167C282.067 61.901 283.258 58.9116 283.258 55.1992H281.258C281.258 58.453 280.235 60.8347 278.289 62.495L279.586 64.0167ZM283.258 55.1992V50.707H281.258V55.1992H283.258Z" fill="black"/>
</svg>
