<svg width="163" height="57" viewBox="0 0 163 57" fill="none" xmlns="http://www.w3.org/2000/svg">
<path d="M41.8984 39.7891C41.8984 43.5 41.0195 46.6413 39.2617 49.2129C37.5365 51.752 34.9486 53.6888 31.498 55.0234C28.0475 56.3255 23.7507 56.9766 18.6074 56.9766C14.7988 56.9766 11.5273 56.7324 8.79297 56.2441C6.09115 55.7559 3.35677 54.9421 0.589844 53.8027V41.498C3.55208 42.8327 6.72591 43.9395 10.1113 44.8184C13.5293 45.6647 16.5241 46.0879 19.0957 46.0879C21.9928 46.0879 24.0599 45.6647 25.2969 44.8184C26.5664 43.9395 27.2012 42.8001 27.2012 41.4004C27.2012 40.4889 26.9408 39.6751 26.4199 38.959C25.9316 38.2103 24.8574 37.3802 23.1973 36.4688C21.5371 35.5247 18.9329 34.304 15.3848 32.8066C11.9668 31.3743 9.15104 29.9258 6.9375 28.4609C4.75651 26.9961 3.12891 25.2708 2.05469 23.2852C1.01302 21.2669 0.492188 18.7116 0.492188 15.6191C0.492188 10.5736 2.44531 6.78125 6.35156 4.24219C10.2904 1.67057 15.5475 0.384766 22.123 0.384766C25.5085 0.384766 28.7311 0.726562 31.791 1.41016C34.8835 2.09375 38.0573 3.18424 41.3125 4.68164L36.8203 15.4238C34.1185 14.252 31.5632 13.2917 29.1543 12.543C26.778 11.7943 24.3529 11.4199 21.8789 11.4199C19.6979 11.4199 18.054 11.7129 16.9473 12.2988C15.8405 12.8848 15.2871 13.7799 15.2871 14.9844C15.2871 15.8633 15.5638 16.6445 16.1172 17.3281C16.7031 18.0117 17.8099 18.7767 19.4375 19.623C21.0977 20.4368 23.5228 21.4948 26.7129 22.7969C29.8053 24.0664 32.4909 25.401 34.7695 26.8008C37.0482 28.168 38.806 29.877 40.043 31.9277C41.2799 33.946 41.8984 36.5664 41.8984 39.7891ZM76.0293 0.384766C81.0749 0.384766 85.4206 1.36133 89.0664 3.31445C92.7122 5.23503 95.528 8.03451 97.5137 11.7129C99.4993 15.3913 100.492 19.8835 100.492 25.1895V32.416H65.2871C65.4499 36.6152 66.7031 39.9193 69.0469 42.3281C71.4232 44.7044 74.7109 45.8926 78.9102 45.8926C82.3932 45.8926 85.5833 45.5345 88.4805 44.8184C91.3776 44.1022 94.3561 43.028 97.416 41.5957V53.1191C94.7142 54.4538 91.8822 55.4303 88.9199 56.0488C85.9902 56.6673 82.4258 56.9766 78.2266 56.9766C72.7578 56.9766 67.9076 55.9674 63.6758 53.9492C59.4766 51.931 56.1725 48.8548 53.7637 44.7207C51.3874 40.5866 50.1992 35.3783 50.1992 29.0957C50.1992 22.7155 51.2734 17.4095 53.4219 13.1777C55.6029 8.91341 58.6302 5.72331 62.5039 3.60742C66.3776 1.45898 70.8861 0.384766 76.0293 0.384766ZM76.127 10.9805C73.2298 10.9805 70.821 11.9082 68.9004 13.7637C67.0124 15.6191 65.9219 18.5326 65.6289 22.5039H86.5273C86.4948 20.2904 86.0879 18.321 85.3066 16.5957C84.5579 14.8704 83.4186 13.5033 81.8887 12.4941C80.3913 11.485 78.4707 10.9805 76.127 10.9805ZM162.211 28.6074C162.211 33.1647 161.592 37.2012 160.355 40.7168C159.151 44.2324 157.377 47.2109 155.033 49.6523C152.722 52.0612 149.923 53.8841 146.635 55.1211C143.38 56.3581 139.701 56.9766 135.6 56.9766C131.758 56.9766 128.227 56.3581 125.004 55.1211C121.814 53.8841 119.031 52.0612 116.654 49.6523C114.311 47.2109 112.488 44.2324 111.186 40.7168C109.916 37.2012 109.281 33.1647 109.281 28.6074C109.281 22.5527 110.355 17.4258 112.504 13.2266C114.652 9.02734 117.712 5.83724 121.684 3.65625C125.655 1.47526 130.391 0.384766 135.893 0.384766C141.003 0.384766 145.528 1.47526 149.467 3.65625C153.438 5.83724 156.547 9.02734 158.793 13.2266C161.072 17.4258 162.211 22.5527 162.211 28.6074ZM124.467 28.6074C124.467 32.1882 124.857 35.1992 125.639 37.6406C126.42 40.082 127.641 41.9212 129.301 43.1582C130.961 44.3952 133.126 45.0137 135.795 45.0137C138.432 45.0137 140.564 44.3952 142.191 43.1582C143.852 41.9212 145.056 40.082 145.805 37.6406C146.586 35.1992 146.977 32.1882 146.977 28.6074C146.977 24.9941 146.586 21.9993 145.805 19.623C145.056 17.2142 143.852 15.4076 142.191 14.2031C140.531 12.9987 138.367 12.3965 135.697 12.3965C131.758 12.3965 128.894 13.7474 127.104 16.4492C125.346 19.151 124.467 23.2038 124.467 28.6074Z" fill="black"/>
<path d="M39.2617 49.2129L38.4362 48.6486L38.4346 48.6509L39.2617 49.2129ZM31.498 55.0234L31.8511 55.9591L31.8588 55.9561L31.498 55.0234ZM8.79297 56.2441L8.61513 57.2282L8.61718 57.2286L8.79297 56.2441ZM0.589844 53.8027H-0.410156V54.4724L0.209094 54.7274L0.589844 53.8027ZM0.589844 41.498L1.00062 40.5863L-0.410156 39.9507V41.498H0.589844ZM10.1113 44.8184L9.86003 45.7863L9.87097 45.789L10.1113 44.8184ZM25.2969 44.8184L25.8616 45.6437L25.8661 45.6406L25.2969 44.8184ZM26.4199 38.959L25.5823 39.5053L25.5962 39.5266L25.6112 39.5472L26.4199 38.959ZM23.1973 36.4688L22.703 37.338L22.7095 37.3417L22.716 37.3453L23.1973 36.4688ZM15.3848 32.8066L15.7736 31.8853L15.7713 31.8843L15.3848 32.8066ZM6.9375 28.4609L6.37993 29.2911L6.38563 29.2949L6.9375 28.4609ZM2.05469 23.2852L1.16607 23.7438L1.17052 23.7524L1.17514 23.761L2.05469 23.2852ZM6.35156 4.24219L6.89655 5.08063L6.89825 5.07952L6.35156 4.24219ZM31.791 1.41016L31.573 2.3861L31.5752 2.38658L31.791 1.41016ZM41.3125 4.68164L42.2351 5.06745L42.6076 4.17666L41.7304 3.77315L41.3125 4.68164ZM36.8203 15.4238L36.4224 16.3412L37.352 16.7444L37.7429 15.8096L36.8203 15.4238ZM29.1543 12.543L28.8538 13.4968L28.8575 13.4979L29.1543 12.543ZM16.1172 17.3281L15.3399 17.9573L15.3488 17.9682L15.3579 17.9789L16.1172 17.3281ZM19.4375 19.623L18.9761 20.5103L18.9867 20.5157L18.9973 20.521L19.4375 19.623ZM26.7129 22.7969L27.0927 21.8718L27.0908 21.871L26.7129 22.7969ZM34.7695 26.8008L34.2461 27.6529L34.255 27.6583L34.7695 26.8008ZM40.043 31.9277L39.1867 32.4442L39.1904 32.4503L40.043 31.9277ZM40.8984 39.7891C40.8984 43.3379 40.06 46.2729 38.4362 48.6486L40.0873 49.7772C41.9791 47.0096 42.8984 43.6621 42.8984 39.7891H40.8984ZM38.4346 48.6509C36.8453 50.9899 34.4379 52.8141 31.1373 54.0908L31.8588 55.9561C35.4593 54.5635 38.2277 52.514 40.0888 49.7749L38.4346 48.6509ZM31.145 54.0878C27.8423 55.3341 23.6741 55.9766 18.6074 55.9766V57.9766C23.8272 57.9766 28.2528 57.3169 31.8511 55.959L31.145 54.0878ZM18.6074 55.9766C14.8378 55.9766 11.6283 55.7346 8.96876 55.2597L8.61718 57.2286C11.4264 57.7302 14.7599 57.9766 18.6074 57.9766V55.9766ZM8.97081 55.2601C6.34443 54.7854 3.67796 53.9929 0.970594 52.8781L0.209094 54.7274C3.03558 55.8913 5.83786 56.7263 8.61513 57.2282L8.97081 55.2601ZM1.58984 53.8027V41.498H-0.410156V53.8027H1.58984ZM0.179063 42.4098C3.19653 43.7693 6.42409 44.8942 9.86004 45.7863L10.3626 43.8504C7.02773 42.9847 3.90764 41.8961 1.00062 40.5863L0.179063 42.4098ZM9.87097 45.789C13.3409 46.6483 16.4195 47.0879 19.0957 47.0879V45.0879C16.6286 45.0879 13.7177 44.6812 10.3517 43.8477L9.87097 45.789ZM19.0957 47.0879C22.036 47.0879 24.3633 46.6688 25.8616 45.6437L24.7322 43.9931C23.7564 44.6607 21.9497 45.0879 19.0957 45.0879V47.0879ZM25.8661 45.6406C27.3729 44.5974 28.2012 43.166 28.2012 41.4004H26.2012C26.2012 42.4343 25.76 43.2815 24.7277 43.9962L25.8661 45.6406ZM28.2012 41.4004C28.2012 40.2842 27.8776 39.2632 27.2287 38.3708L25.6112 39.5472C26.0039 40.0871 26.2012 40.6936 26.2012 41.4004H28.2012ZM27.2575 38.4127C26.6243 37.4417 25.3557 36.513 23.6785 35.5922L22.716 37.3453C24.3591 38.2474 25.239 38.9789 25.5823 39.5053L27.2575 38.4127ZM23.6916 35.5995C21.9781 34.6252 19.3294 33.3859 15.7736 31.8853L14.996 33.728C18.5365 35.2221 21.0961 36.4243 22.703 37.338L23.6916 35.5995ZM15.7713 31.8843C12.3902 30.4675 9.63472 29.0467 7.48937 27.627L6.38563 29.2949C8.66736 30.8048 11.5434 32.2812 14.9983 33.7289L15.7713 31.8843ZM7.49506 27.6308C5.42643 26.2414 3.91967 24.6309 2.93423 22.8093L1.17514 23.761C2.33815 25.9108 4.08659 27.7508 6.37994 29.2911L7.49506 27.6308ZM2.94331 22.8265C1.99642 20.9919 1.49219 18.6069 1.49219 15.6191H-0.507812C-0.507812 18.8163 0.0296172 21.5419 1.16607 23.7438L2.94331 22.8265ZM1.49219 15.6191C1.49219 10.8786 3.30104 7.41771 6.89655 5.08063L5.80657 3.40374C1.58958 6.14479 -0.507812 10.2685 -0.507812 15.6191H1.49219ZM6.89825 5.07952C10.6218 2.64844 15.6674 1.38477 22.123 1.38477V-0.615234C15.4277 -0.615234 9.95892 0.692703 5.80487 3.40485L6.89825 5.07952ZM22.123 1.38477C25.4409 1.38477 28.5901 1.71971 31.573 2.3861L32.009 0.434214C28.8721 -0.266584 25.576 -0.615234 22.123 -0.615234V1.38477ZM31.5752 2.38658C34.5897 3.05294 37.6958 4.1187 40.8946 5.59013L41.7304 3.77315C38.4188 2.24979 35.1773 1.13456 32.0069 0.433728L31.5752 2.38658ZM40.3899 4.29583L35.8977 15.038L37.7429 15.8096L42.2351 5.06745L40.3899 4.29583ZM37.2182 14.5064C34.4887 13.3225 31.8994 12.349 29.4511 11.588L28.8575 13.4979C31.2269 14.2343 33.7483 15.1814 36.4224 16.3412L37.2182 14.5064ZM29.4548 11.5892C26.982 10.8101 24.4555 10.4199 21.8789 10.4199V12.4199C24.2502 12.4199 26.574 12.7785 28.8538 13.4967L29.4548 11.5892ZM21.8789 10.4199C19.6393 10.4199 17.8007 10.7155 16.4794 11.415L17.4152 13.1826C18.3074 12.7103 19.7565 12.4199 21.8789 12.4199V10.4199ZM16.4794 11.415C15.7989 11.7753 15.2381 12.2586 14.8516 12.8838C14.4637 13.5112 14.2871 14.2238 14.2871 14.9844H16.2871C16.2871 14.5405 16.3872 14.2033 16.5527 13.9355C16.7196 13.6656 16.9889 13.4083 17.4152 13.1826L16.4794 11.415ZM14.2871 14.9844C14.2871 16.0925 14.6425 17.0958 15.3399 17.9573L16.8944 16.6989C16.4851 16.1932 16.2871 15.6341 16.2871 14.9844H14.2871ZM15.3579 17.9789C16.0755 18.8161 17.3281 19.6533 18.9761 20.5103L19.8989 18.7358C18.2916 17.9001 17.3307 17.2073 16.8764 16.6773L15.3579 17.9789ZM18.9973 20.521C20.6884 21.3499 23.1385 22.418 26.335 23.7227L27.0908 21.871C23.9071 20.5716 21.5069 19.5238 19.8777 18.7251L18.9973 20.521ZM26.3331 23.722C29.3875 24.9759 32.023 26.2872 34.2461 27.6529L35.2929 25.9487C32.9588 24.5149 30.2231 23.1569 27.0927 21.8718L26.3331 23.722ZM34.255 27.6583C36.4092 28.9508 38.043 30.5481 39.1867 32.4442L40.8993 31.4112C39.569 29.2058 37.6871 27.3852 35.284 25.9433L34.255 27.6583ZM39.1904 32.4503C40.3021 34.2642 40.8984 36.6865 40.8984 39.7891H42.8984C42.8984 36.4463 42.2578 33.6277 40.8956 31.4052L39.1904 32.4503ZM89.0664 3.31445L88.5942 4.19595L88.6003 4.1992L89.0664 3.31445ZM97.5137 11.7129L96.6337 12.1879L97.5137 11.7129ZM100.492 32.416V33.416H101.492V32.416H100.492ZM65.2871 32.416V31.416H64.2476L64.2879 32.4547L65.2871 32.416ZM69.0469 42.3281L68.3301 43.0255L68.3398 43.0352L69.0469 42.3281ZM97.416 41.5957H98.416V40.0235L96.9921 40.69L97.416 41.5957ZM97.416 53.1191L97.8589 54.0157L98.416 53.7405V53.1191H97.416ZM88.9199 56.0488L88.7155 55.0699L88.7134 55.0704L88.9199 56.0488ZM63.6758 53.9492L63.2426 54.8505L63.2453 54.8518L63.6758 53.9492ZM53.7637 44.7207L52.8967 45.2191L52.8996 45.2242L53.7637 44.7207ZM53.4219 13.1777L52.5316 12.7224L52.5302 12.725L53.4219 13.1777ZM62.5039 3.60742L62.9833 4.48505L62.9889 4.48193L62.5039 3.60742ZM68.9004 13.7637L68.2056 13.0445L68.1995 13.0504L68.9004 13.7637ZM65.6289 22.5039L64.6316 22.4303L64.5524 23.5039H65.6289V22.5039ZM86.5273 22.5039V23.5039H87.5422L87.5272 22.4892L86.5273 22.5039ZM85.3066 16.5957L84.3893 16.9938L84.3924 17.001L84.3957 17.0082L85.3066 16.5957ZM81.8887 12.4941L81.3298 13.3234L81.3381 13.3289L81.8887 12.4941ZM76.0293 1.38477C80.946 1.38477 85.1222 2.33595 88.5942 4.19593L89.5386 2.43297C85.7189 0.386706 81.2038 -0.615234 76.0293 -0.615234V1.38477ZM88.6003 4.1992C92.0679 6.02588 94.7408 8.68147 96.6337 12.1879L98.3936 11.2379C96.3152 7.38754 93.3565 4.44417 89.5325 2.42971L88.6003 4.1992ZM96.6337 12.1879C98.5222 15.6862 99.4922 20.0056 99.4922 25.1895H101.492C101.492 19.7613 100.477 15.0963 98.3936 11.2379L96.6337 12.1879ZM99.4922 25.1895V32.416H101.492V25.1895H99.4922ZM100.492 31.416H65.2871V33.416H100.492V31.416ZM64.2879 32.4547C64.4577 36.8366 65.774 40.3983 68.3301 43.0255L69.7636 41.6308C67.6323 39.4403 66.442 36.3939 66.2864 32.3773L64.2879 32.4547ZM68.3398 43.0352C70.9479 45.6433 74.5156 46.8926 78.9102 46.8926V44.8926C74.9062 44.8926 71.8985 43.7655 69.754 41.621L68.3398 43.0352ZM78.9102 46.8926C82.461 46.8926 85.733 46.5276 88.7204 45.7891L88.2405 43.8476C85.4336 44.5414 82.3255 44.8926 78.9102 44.8926V46.8926ZM88.7204 45.7891C91.6885 45.0555 94.7286 43.9578 97.84 42.5014L96.9921 40.69C93.9836 42.0982 91.0667 43.149 88.2405 43.8476L88.7204 45.7891ZM96.416 41.5957V53.1191H98.416V41.5957H96.416ZM96.9731 52.2226C94.3473 53.5196 91.5955 54.4686 88.7155 55.0699L89.1243 57.0277C92.1689 56.392 95.0811 55.3879 97.8589 54.0157L96.9731 52.2226ZM88.7134 55.0704C85.8726 55.6701 82.3818 55.9766 78.2266 55.9766V57.9766C82.4698 57.9766 86.1079 57.6645 89.1265 57.0273L88.7134 55.0704ZM78.2266 55.9766C72.8821 55.9766 68.183 54.9909 64.1063 53.0466L63.2453 54.8518C67.6321 56.944 72.6335 57.9766 78.2266 57.9766V55.9766ZM64.109 53.0479C60.095 51.1187 56.9388 48.1836 54.6277 44.2173L52.8996 45.2242C55.4062 49.526 58.8581 52.7433 63.2426 54.8505L64.109 53.0479ZM54.6307 44.2224C52.3649 40.2806 51.1992 35.2573 51.1992 29.0957H49.1992C49.1992 35.4993 50.4098 40.8926 52.8967 45.219L54.6307 44.2224ZM51.1992 29.0957C51.1992 22.8211 52.2565 17.6821 54.3135 13.6304L52.5302 12.725C50.2904 17.1369 49.1992 22.6099 49.1992 29.0957H51.1992ZM54.3122 13.6331C56.4099 9.53164 59.301 6.49639 62.9833 4.48504L62.0245 2.72981C57.9595 4.95023 54.7959 8.29518 52.5316 12.7224L54.3122 13.6331ZM62.9889 4.48193C66.6919 2.4282 71.0282 1.38477 76.0293 1.38477V-0.615234C70.7439 -0.615234 66.0634 0.48977 62.0189 2.73292L62.9889 4.48193ZM76.127 9.98047C72.9947 9.98047 70.3293 10.9928 68.2056 13.0445L69.5952 14.4829C71.3127 12.8236 73.4649 11.9805 76.127 11.9805V9.98047ZM68.1995 13.0504C66.0691 15.144 64.9337 18.3351 64.6316 22.4303L66.6262 22.5775C66.91 18.73 67.9556 16.0943 69.6013 14.4769L68.1995 13.0504ZM65.6289 23.5039H86.5273V21.5039H65.6289V23.5039ZM87.5272 22.4892C87.493 20.1613 87.0642 18.0529 86.2176 16.1832L84.3957 17.0082C85.1115 18.5891 85.4966 20.4194 85.5275 22.5186L87.5272 22.4892ZM86.224 16.1976C85.4002 14.2992 84.1357 12.7783 82.4393 11.6594L81.3381 13.3289C82.7016 14.2282 83.7157 15.4417 84.3893 16.9938L86.224 16.1976ZM82.4475 11.6649C80.7422 10.5156 78.6111 9.98047 76.127 9.98047V11.9805C78.3303 11.9805 80.0404 12.4544 81.3298 13.3234L82.4475 11.6649ZM160.355 40.7168L159.412 40.3849L159.409 40.3927L160.355 40.7168ZM155.033 49.6523L154.312 48.9598L154.312 48.96L155.033 49.6523ZM146.635 55.1211L146.283 54.1851L146.28 54.1863L146.635 55.1211ZM125.004 55.1211L124.642 56.0535L124.646 56.0547L125.004 55.1211ZM116.654 49.6523L115.933 50.3449L115.942 50.3546L116.654 49.6523ZM111.186 40.7168L110.245 41.0565L110.248 41.0641L111.186 40.7168ZM149.467 3.65625L148.982 4.53109L148.985 4.53277L149.467 3.65625ZM158.793 13.2266L157.911 13.6982L157.914 13.7035L158.793 13.2266ZM129.301 43.1582L129.898 42.3563L129.301 43.1582ZM142.191 43.1582L141.594 42.3563L141.586 42.362L142.191 43.1582ZM145.805 37.6406L144.852 37.3358L144.849 37.3474L145.805 37.6406ZM145.805 19.623L144.85 19.9199L144.852 19.9276L144.855 19.9354L145.805 19.623ZM127.104 16.4492L126.27 15.8968L126.265 15.9039L127.104 16.4492ZM161.211 28.6074C161.211 33.076 160.604 36.9966 159.412 40.3849L161.299 41.0487C162.581 37.4057 163.211 33.2534 163.211 28.6074H161.211ZM159.409 40.3927C158.248 43.7843 156.545 46.6333 154.312 48.9598L155.755 50.3449C158.209 47.7885 160.055 44.6806 161.301 41.0409L159.409 40.3927ZM154.312 48.96C152.109 51.2555 149.438 52.9979 146.283 54.1851L146.987 56.057C150.407 54.7703 153.335 52.8669 155.755 50.3447L154.312 48.96ZM146.28 54.1863C143.156 55.3732 139.601 55.9766 135.6 55.9766V57.9766C139.801 57.9766 143.603 57.3429 146.99 56.0559L146.28 54.1863ZM135.6 55.9766C131.867 55.9766 128.458 55.3759 125.362 54.1875L124.646 56.0547C127.995 57.3402 131.65 57.9766 135.6 57.9766V55.9766ZM125.365 54.1887C122.306 53.0022 119.642 51.2572 117.366 48.9501L115.942 50.3546C118.419 52.8652 121.322 54.766 124.642 56.0535L125.365 54.1887ZM117.376 48.9598C115.137 46.6276 113.383 43.7703 112.123 40.3695L110.248 41.0641C111.592 44.6945 113.484 47.7943 115.933 50.3449L117.376 48.9598ZM112.126 40.3772C110.903 36.9914 110.281 33.0735 110.281 28.6074H108.281C108.281 33.256 108.929 37.411 110.245 41.0564L112.126 40.3772ZM110.281 28.6074C110.281 22.6675 111.335 17.706 113.394 13.682L111.614 12.7711C109.376 17.1456 108.281 22.4379 108.281 28.6074H110.281ZM113.394 13.682C115.455 9.65316 118.376 6.61336 122.165 4.53277L121.202 2.77973C117.048 5.06112 113.849 8.40153 111.614 12.7711L113.394 13.682ZM122.165 4.53277C125.96 2.44843 130.524 1.38477 135.893 1.38477V-0.615234C130.259 -0.615234 125.35 0.50209 121.202 2.77973L122.165 4.53277ZM135.893 1.38477C140.857 1.38477 145.211 2.44275 148.982 4.53109L149.951 2.78141C145.845 0.507767 141.149 -0.615234 135.893 -0.615234V1.38477ZM148.985 4.53277C152.778 6.61557 155.752 9.66072 157.911 13.6982L159.675 12.7549C157.342 8.39396 154.098 5.05891 149.948 2.77973L148.985 4.53277ZM157.914 13.7035C160.095 17.7223 161.211 22.6757 161.211 28.6074H163.211C163.211 22.4297 162.048 17.1293 159.672 12.7496L157.914 13.7035ZM123.467 28.6074C123.467 32.2538 123.864 35.375 124.686 37.9454L126.591 37.3358C125.851 35.0234 125.467 32.1225 125.467 28.6074H123.467ZM124.686 37.9454C125.516 40.5376 126.84 42.5715 128.703 43.9601L129.898 42.3563C128.442 41.271 127.324 39.6265 126.591 37.3358L124.686 37.9454ZM128.703 43.9601C130.58 45.3586 132.973 46.0137 135.795 46.0137V44.0137C133.278 44.0137 131.342 43.4317 129.898 42.3563L128.703 43.9601ZM135.795 46.0137C138.586 46.0137 140.95 45.3576 142.796 43.9544L141.586 42.362C140.177 43.4328 138.277 44.0137 135.795 44.0137V46.0137ZM142.789 43.9601C144.656 42.5688 145.964 40.5303 146.761 37.9338L144.849 37.3474C144.148 39.6337 143.047 41.2736 141.594 42.3563L142.789 43.9601ZM146.757 37.9454C147.58 35.375 147.977 32.2538 147.977 28.6074H145.977C145.977 32.1225 145.592 35.0234 144.852 37.3358L146.757 37.9454ZM147.977 28.6074C147.977 24.9309 147.58 21.8218 146.755 19.3107L144.855 19.9354C145.592 22.1769 145.977 25.0574 145.977 28.6074H147.977ZM146.76 19.3262C145.962 16.7596 144.65 14.7517 142.779 13.3937L141.604 15.0125C143.053 16.0635 144.15 17.6688 144.85 19.9199L146.76 19.3262ZM142.779 13.3937C140.903 12.0327 138.514 11.3965 135.697 11.3965V13.3965C138.219 13.3965 140.16 13.9647 141.604 15.0125L142.779 13.3937ZM135.697 11.3965C131.506 11.3965 128.287 12.8529 126.27 15.8968L127.937 17.0016C129.501 14.6419 132.011 13.3965 135.697 13.3965V11.3965ZM126.265 15.9039C124.352 18.8441 123.467 23.1273 123.467 28.6074H125.467C125.467 23.2803 126.339 19.4579 127.942 16.9946L126.265 15.9039Z" fill="black"/>
</svg>
