<svg width="273" height="77" viewBox="0 0 273 77" fill="none" xmlns="http://www.w3.org/2000/svg">
<path d="M41.8984 59.7891C41.8984 63.5 41.0195 66.6413 39.2617 69.2129C37.5365 71.752 34.9486 73.6888 31.498 75.0234C28.0475 76.3255 23.7507 76.9766 18.6074 76.9766C14.7988 76.9766 11.5273 76.7324 8.79297 76.2441C6.09115 75.7559 3.35677 74.9421 0.589844 73.8027V61.498C3.55208 62.8327 6.72591 63.9395 10.1113 64.8184C13.5293 65.6647 16.5241 66.0879 19.0957 66.0879C21.9928 66.0879 24.0599 65.6647 25.2969 64.8184C26.5664 63.9395 27.2012 62.8001 27.2012 61.4004C27.2012 60.4889 26.9408 59.6751 26.4199 58.959C25.9316 58.2103 24.8574 57.3802 23.1973 56.4688C21.5371 55.5247 18.9329 54.304 15.3848 52.8066C11.9668 51.3743 9.15104 49.9258 6.9375 48.4609C4.75651 46.9961 3.12891 45.2708 2.05469 43.2852C1.01302 41.2669 0.492188 38.7116 0.492188 35.6191C0.492188 30.5736 2.44531 26.7812 6.35156 24.2422C10.2904 21.6706 15.5475 20.3848 22.123 20.3848C25.5085 20.3848 28.7311 20.7266 31.791 21.4102C34.8835 22.0938 38.0573 23.1842 41.3125 24.6816L36.8203 35.4238C34.1185 34.252 31.5632 33.2917 29.1543 32.543C26.778 31.7943 24.3529 31.4199 21.8789 31.4199C19.6979 31.4199 18.054 31.7129 16.9473 32.2988C15.8405 32.8848 15.2871 33.7799 15.2871 34.9844C15.2871 35.8633 15.5638 36.6445 16.1172 37.3281C16.7031 38.0117 17.8099 38.7767 19.4375 39.623C21.0977 40.4368 23.5228 41.4948 26.7129 42.7969C29.8053 44.0664 32.4909 45.401 34.7695 46.8008C37.0482 48.168 38.806 49.877 40.043 51.9277C41.2799 53.946 41.8984 56.5664 41.8984 59.7891ZM103.129 48.6074C103.129 53.1647 102.51 57.2012 101.273 60.7168C100.069 64.2324 98.2949 67.2109 95.9512 69.6523C93.64 72.0612 90.8405 73.8841 87.5527 75.1211C84.2975 76.3581 80.6191 76.9766 76.5176 76.9766C72.6764 76.9766 69.1445 76.3581 65.9219 75.1211C62.7318 73.8841 59.9486 72.0612 57.5723 69.6523C55.2285 67.2109 53.4056 64.2324 52.1035 60.7168C50.834 57.2012 50.1992 53.1647 50.1992 48.6074C50.1992 42.5527 51.2734 37.4258 53.4219 33.2266C55.5703 29.0273 58.6302 25.8372 62.6016 23.6562C66.5729 21.4753 71.3092 20.3848 76.8105 20.3848C81.9212 20.3848 86.446 21.4753 90.3848 23.6562C94.3561 25.8372 97.4648 29.0273 99.7109 33.2266C101.99 37.4258 103.129 42.5527 103.129 48.6074ZM65.3848 48.6074C65.3848 52.1882 65.7754 55.1992 66.5566 57.6406C67.3379 60.082 68.5586 61.9212 70.2188 63.1582C71.8789 64.3952 74.0436 65.0137 76.7129 65.0137C79.3496 65.0137 81.4818 64.3952 83.1094 63.1582C84.7695 61.9212 85.974 60.082 86.7227 57.6406C87.5039 55.1992 87.8945 52.1882 87.8945 48.6074C87.8945 44.9941 87.5039 41.9993 86.7227 39.623C85.974 37.2142 84.7695 35.4076 83.1094 34.2031C81.4492 32.9987 79.2845 32.3965 76.6152 32.3965C72.6764 32.3965 69.8118 33.7474 68.0215 36.4492C66.2637 39.151 65.3848 43.2038 65.3848 48.6074ZM137.602 76.9766C132.198 76.9766 127.592 76 123.783 74.0469C119.975 72.0612 117.077 69.0013 115.092 64.8672C113.106 60.7331 112.113 55.4434 112.113 48.998C112.113 42.3249 113.236 36.8887 115.482 32.6895C117.761 28.4577 120.902 25.349 124.906 23.3633C128.943 21.3776 133.614 20.3848 138.92 20.3848C142.696 20.3848 145.951 20.7591 148.686 21.5078C151.452 22.224 153.861 23.0866 155.912 24.0957L151.518 35.6191C149.174 34.6751 146.993 33.9102 144.975 33.3242C142.956 32.7057 140.938 32.3965 138.92 32.3965C136.316 32.3965 134.151 33.015 132.426 34.252C130.701 35.4564 129.415 37.2793 128.568 39.7207C127.722 42.1621 127.299 45.222 127.299 48.9004C127.299 52.5137 127.755 55.5085 128.666 57.8848C129.577 60.2611 130.896 62.0352 132.621 63.207C134.346 64.3464 136.446 64.916 138.92 64.916C142.012 64.916 144.763 64.5091 147.172 63.6953C149.581 62.849 151.924 61.6771 154.203 60.1797V72.9238C151.924 74.3561 149.532 75.3815 147.025 76C144.551 76.651 141.41 76.9766 137.602 76.9766ZM181.791 21.4102V76H166.898V21.4102H181.791ZM174.369 0.0234375C176.583 0.0234375 178.487 0.544271 180.082 1.58594C181.677 2.59505 182.475 4.49935 182.475 7.29883C182.475 10.0658 181.677 11.9863 180.082 13.0605C178.487 14.1022 176.583 14.623 174.369 14.623C172.123 14.623 170.202 14.1022 168.607 13.0605C167.045 11.9863 166.264 10.0658 166.264 7.29883C166.264 4.49935 167.045 2.59505 168.607 1.58594C170.202 0.544271 172.123 0.0234375 174.369 0.0234375ZM219.828 20.2871C227.152 20.2871 232.768 21.8822 236.674 25.0723C240.58 28.2624 242.533 33.1126 242.533 39.623V76H232.133L229.252 68.5781H228.861C227.299 70.5312 225.704 72.1263 224.076 73.3633C222.449 74.6003 220.577 75.5117 218.461 76.0977C216.345 76.6836 213.773 76.9766 210.746 76.9766C207.523 76.9766 204.626 76.3581 202.055 75.1211C199.516 73.8841 197.514 71.9961 196.049 69.457C194.584 66.8854 193.852 63.6302 193.852 59.6914C193.852 53.8971 195.886 49.6328 199.955 46.8984C204.024 44.1315 210.128 42.6016 218.266 42.3086L227.738 42.0156V39.623C227.738 36.7585 226.99 34.6589 225.492 33.3242C223.995 31.9896 221.911 31.3223 219.242 31.3223C216.605 31.3223 214.018 31.6966 211.479 32.4453C208.939 33.194 206.4 34.138 203.861 35.2773L198.93 25.2188C201.827 23.6888 205.066 22.4844 208.646 21.6055C212.26 20.7266 215.987 20.2871 219.828 20.2871ZM227.738 50.707L221.977 50.9023C217.159 51.0326 213.806 51.8952 211.918 53.4902C210.062 55.0853 209.135 57.1849 209.135 59.7891C209.135 62.0677 209.802 63.6953 211.137 64.6719C212.471 65.6159 214.213 66.0879 216.361 66.0879C219.551 66.0879 222.237 65.1439 224.418 63.2559C226.632 61.3678 227.738 58.6823 227.738 55.1992V50.707ZM272.807 76H257.914V0.0234375H272.807V76Z" fill="black"/>
<path d="M39.2617 69.2129L38.4362 68.6486L38.4346 68.6509L39.2617 69.2129ZM31.498 75.0234L31.8511 75.9591L31.8588 75.9561L31.498 75.0234ZM8.79297 76.2441L8.61513 77.2282L8.61718 77.2286L8.79297 76.2441ZM0.589844 73.8027H-0.410156V74.4724L0.209094 74.7274L0.589844 73.8027ZM0.589844 61.498L1.00062 60.5863L-0.410156 59.9507V61.498H0.589844ZM10.1113 64.8184L9.86003 65.7863L9.87097 65.789L10.1113 64.8184ZM25.2969 64.8184L25.8616 65.6437L25.8661 65.6406L25.2969 64.8184ZM26.4199 58.959L25.5823 59.5053L25.5962 59.5266L25.6112 59.5472L26.4199 58.959ZM23.1973 56.4688L22.703 57.338L22.7095 57.3417L22.716 57.3453L23.1973 56.4688ZM15.3848 52.8066L15.7736 51.8853L15.7713 51.8843L15.3848 52.8066ZM6.9375 48.4609L6.37993 49.2911L6.38563 49.2949L6.9375 48.4609ZM2.05469 43.2852L1.16607 43.7438L1.17052 43.7524L1.17514 43.761L2.05469 43.2852ZM6.35156 24.2422L6.89655 25.0806L6.89825 25.0795L6.35156 24.2422ZM31.791 21.4102L31.573 22.3861L31.5752 22.3866L31.791 21.4102ZM41.3125 24.6816L42.2351 25.0674L42.6076 24.1767L41.7304 23.7732L41.3125 24.6816ZM36.8203 35.4238L36.4224 36.3412L37.352 36.7444L37.7429 35.8096L36.8203 35.4238ZM29.1543 32.543L28.8538 33.4968L28.8575 33.4979L29.1543 32.543ZM16.1172 37.3281L15.3399 37.9573L15.3488 37.9682L15.3579 37.9789L16.1172 37.3281ZM19.4375 39.623L18.9761 40.5103L18.9867 40.5157L18.9973 40.521L19.4375 39.623ZM26.7129 42.7969L27.0927 41.8718L27.0908 41.871L26.7129 42.7969ZM34.7695 46.8008L34.2461 47.6529L34.255 47.6583L34.7695 46.8008ZM40.043 51.9277L39.1867 52.4442L39.1904 52.4503L40.043 51.9277ZM40.8984 59.7891C40.8984 63.3379 40.06 66.2729 38.4362 68.6486L40.0873 69.7772C41.9791 67.0096 42.8984 63.6621 42.8984 59.7891H40.8984ZM38.4346 68.6509C36.8453 70.9899 34.4379 72.8141 31.1373 74.0908L31.8588 75.9561C35.4593 74.5635 38.2277 72.514 40.0888 69.7749L38.4346 68.6509ZM31.145 74.0878C27.8423 75.3341 23.6741 75.9766 18.6074 75.9766V77.9766C23.8272 77.9766 28.2528 77.3169 31.8511 75.959L31.145 74.0878ZM18.6074 75.9766C14.8378 75.9766 11.6283 75.7346 8.96876 75.2597L8.61718 77.2286C11.4264 77.7302 14.7599 77.9766 18.6074 77.9766V75.9766ZM8.97081 75.2601C6.34443 74.7854 3.67796 73.9929 0.970594 72.8781L0.209094 74.7274C3.03558 75.8913 5.83786 76.7263 8.61513 77.2282L8.97081 75.2601ZM1.58984 73.8027V61.498H-0.410156V73.8027H1.58984ZM0.179063 62.4098C3.19653 63.7693 6.42409 64.8942 9.86004 65.7863L10.3626 63.8504C7.02773 62.9847 3.90764 61.8961 1.00062 60.5863L0.179063 62.4098ZM9.87097 65.789C13.3409 66.6483 16.4195 67.0879 19.0957 67.0879V65.0879C16.6286 65.0879 13.7177 64.6812 10.3517 63.8477L9.87097 65.789ZM19.0957 67.0879C22.036 67.0879 24.3633 66.6688 25.8616 65.6437L24.7322 63.9931C23.7564 64.6607 21.9497 65.0879 19.0957 65.0879V67.0879ZM25.8661 65.6406C27.3729 64.5974 28.2012 63.166 28.2012 61.4004H26.2012C26.2012 62.4343 25.76 63.2815 24.7277 63.9962L25.8661 65.6406ZM28.2012 61.4004C28.2012 60.2842 27.8776 59.2632 27.2287 58.3708L25.6112 59.5472C26.0039 60.0871 26.2012 60.6936 26.2012 61.4004H28.2012ZM27.2575 58.4127C26.6243 57.4417 25.3557 56.513 23.6785 55.5922L22.716 57.3453C24.3591 58.2474 25.239 58.9789 25.5823 59.5053L27.2575 58.4127ZM23.6916 55.5995C21.9781 54.6252 19.3294 53.3859 15.7736 51.8853L14.996 53.728C18.5365 55.2221 21.0961 56.4243 22.703 57.338L23.6916 55.5995ZM15.7713 51.8843C12.3902 50.4675 9.63472 49.0467 7.48937 47.627L6.38563 49.2949C8.66736 50.8048 11.5434 52.2812 14.9983 53.7289L15.7713 51.8843ZM7.49506 47.6308C5.42643 46.2414 3.91967 44.6309 2.93423 42.8093L1.17514 43.761C2.33815 45.9108 4.08659 47.7508 6.37994 49.2911L7.49506 47.6308ZM2.94331 42.8265C1.99642 40.9919 1.49219 38.6069 1.49219 35.6191H-0.507812C-0.507812 38.8163 0.0296172 41.5419 1.16607 43.7438L2.94331 42.8265ZM1.49219 35.6191C1.49219 30.8786 3.30104 27.4177 6.89655 25.0806L5.80657 23.4037C1.58958 26.1448 -0.507812 30.2685 -0.507812 35.6191H1.49219ZM6.89825 25.0795C10.6218 22.6484 15.6674 21.3848 22.123 21.3848V19.3848C15.4277 19.3848 9.95892 20.6927 5.80487 23.4049L6.89825 25.0795ZM22.123 21.3848C25.4409 21.3848 28.5901 21.7197 31.573 22.3861L32.009 20.4342C28.8721 19.7334 25.576 19.3848 22.123 19.3848V21.3848ZM31.5752 22.3866C34.5897 23.0529 37.6958 24.1187 40.8946 25.5901L41.7304 23.7732C38.4188 22.2498 35.1773 21.1346 32.0069 20.4337L31.5752 22.3866ZM40.3899 24.2958L35.8977 35.038L37.7429 35.8096L42.2351 25.0674L40.3899 24.2958ZM37.2182 34.5064C34.4887 33.3225 31.8994 32.349 29.4511 31.588L28.8575 33.4979C31.2269 34.2343 33.7483 35.1814 36.4224 36.3412L37.2182 34.5064ZM29.4548 31.5892C26.982 30.8101 24.4555 30.4199 21.8789 30.4199V32.4199C24.2502 32.4199 26.574 32.7785 28.8538 33.4967L29.4548 31.5892ZM21.8789 30.4199C19.6393 30.4199 17.8007 30.7155 16.4794 31.415L17.4152 33.1826C18.3074 32.7103 19.7565 32.4199 21.8789 32.4199V30.4199ZM16.4794 31.415C15.7989 31.7753 15.2381 32.2586 14.8516 32.8838C14.4637 33.5112 14.2871 34.2238 14.2871 34.9844H16.2871C16.2871 34.5405 16.3872 34.2033 16.5527 33.9355C16.7196 33.6656 16.9889 33.4083 17.4152 33.1826L16.4794 31.415ZM14.2871 34.9844C14.2871 36.0925 14.6425 37.0958 15.3399 37.9573L16.8944 36.6989C16.4851 36.1932 16.2871 35.6341 16.2871 34.9844H14.2871ZM15.3579 37.9789C16.0755 38.8161 17.3281 39.6533 18.9761 40.5103L19.8989 38.7358C18.2916 37.9001 17.3307 37.2073 16.8764 36.6773L15.3579 37.9789ZM18.9973 40.521C20.6884 41.3499 23.1385 42.418 26.335 43.7227L27.0908 41.871C23.9071 40.5716 21.5069 39.5238 19.8777 38.7251L18.9973 40.521ZM26.3331 43.722C29.3875 44.9759 32.023 46.2872 34.2461 47.6529L35.2929 45.9487C32.9588 44.5149 30.2231 43.1569 27.0927 41.8718L26.3331 43.722ZM34.255 47.6583C36.4092 48.9508 38.043 50.5481 39.1867 52.4442L40.8993 51.4112C39.569 49.2058 37.6871 47.3852 35.284 45.9433L34.255 47.6583ZM39.1904 52.4503C40.3021 54.2642 40.8984 56.6865 40.8984 59.7891H42.8984C42.8984 56.4463 42.2578 53.6277 40.8956 51.4052L39.1904 52.4503ZM101.273 60.7168L100.33 60.3849L100.327 60.3927L101.273 60.7168ZM95.9512 69.6523L95.2298 68.9598L95.2296 68.96L95.9512 69.6523ZM87.5527 75.1211L87.2006 74.1851L87.1975 74.1863L87.5527 75.1211ZM65.9219 75.1211L65.5603 76.0535L65.5635 76.0547L65.9219 75.1211ZM57.5723 69.6523L56.8508 70.3449L56.8604 70.3546L57.5723 69.6523ZM52.1035 60.7168L51.1629 61.0565L51.1658 61.0641L52.1035 60.7168ZM90.3848 23.6562L89.9003 24.5311L89.9034 24.5328L90.3848 23.6562ZM99.7109 33.2266L98.8291 33.6982L98.832 33.7035L99.7109 33.2266ZM70.2188 63.1582L70.8162 62.3563L70.2188 63.1582ZM83.1094 63.1582L82.5119 62.3563L82.5043 62.362L83.1094 63.1582ZM86.7227 57.6406L85.7702 57.3358L85.7666 57.3474L86.7227 57.6406ZM86.7227 39.623L85.7677 39.9199L85.7701 39.9276L85.7727 39.9354L86.7227 39.623ZM68.0215 36.4492L67.1879 35.8968L67.1833 35.9039L68.0215 36.4492ZM102.129 48.6074C102.129 53.076 101.522 56.9966 100.33 60.3849L102.217 61.0487C103.499 57.4057 104.129 53.2534 104.129 48.6074H102.129ZM100.327 60.3927C99.1655 63.7843 97.4632 66.6333 95.2298 68.9598L96.6726 70.3449C99.1266 67.7885 100.973 64.6806 102.219 61.0409L100.327 60.3927ZM95.2296 68.96C93.0272 71.2555 90.356 72.9979 87.2006 74.1851L87.9049 76.057C91.3249 74.7703 94.2527 72.8669 96.6728 70.3447L95.2296 68.96ZM87.1975 74.1863C84.074 75.3732 80.5189 75.9766 76.5176 75.9766V77.9766C80.7194 77.9766 84.5211 77.3429 87.908 76.0559L87.1975 74.1863ZM76.5176 75.9766C72.7852 75.9766 69.3763 75.3759 66.2802 74.1875L65.5635 76.0547C68.9127 77.3402 72.5677 77.9766 76.5176 77.9766V75.9766ZM66.2834 74.1887C63.2235 73.0022 60.5601 71.2572 58.2842 68.9501L56.8604 70.3546C59.337 72.8652 62.24 74.766 65.5603 76.0535L66.2834 74.1887ZM58.2937 68.9598C56.0547 66.6276 54.3008 63.7703 53.0413 60.3695L51.1658 61.0641C52.5104 64.6945 54.4023 67.7943 56.8509 70.3449L58.2937 68.9598ZM53.0441 60.3772C51.8214 56.9914 51.1992 53.0735 51.1992 48.6074H49.1992C49.1992 53.256 49.8465 57.411 51.163 61.0564L53.0441 60.3772ZM51.1992 48.6074C51.1992 42.6675 52.2533 37.706 54.3121 33.682L52.5316 32.7711C50.2935 37.1456 49.1992 42.4379 49.1992 48.6074H51.1992ZM54.3121 33.682C56.3734 29.6532 59.2944 26.6134 63.0829 24.5328L62.1202 22.7797C57.966 25.0611 54.7672 28.4015 52.5316 32.7711L54.3121 33.682ZM63.0829 24.5328C66.8783 22.4484 71.4417 21.3848 76.8105 21.3848V19.3848C71.1768 19.3848 66.2675 20.5021 62.1202 22.7797L63.0829 24.5328ZM76.8105 21.3848C81.775 21.3848 86.1289 22.4428 89.9004 24.5311L90.8692 22.7814C86.763 20.5078 82.0675 19.3848 76.8105 19.3848V21.3848ZM89.9034 24.5328C93.696 26.6156 96.6696 29.6607 98.8292 33.6982L100.593 32.7549C98.2601 28.394 95.0163 25.0589 90.8661 22.7797L89.9034 24.5328ZM98.832 33.7035C101.013 37.7223 102.129 42.6757 102.129 48.6074H104.129C104.129 42.4297 102.966 37.1293 100.59 32.7496L98.832 33.7035ZM64.3848 48.6074C64.3848 52.2538 64.7817 55.375 65.6042 57.9454L67.5091 57.3358C66.7691 55.0234 66.3848 52.1225 66.3848 48.6074H64.3848ZM65.6042 57.9454C66.4337 60.5376 67.7576 62.5715 69.6213 63.9601L70.8162 62.3563C69.3596 61.271 68.2421 59.6265 67.5091 57.3358L65.6042 57.9454ZM69.6213 63.9601C71.4982 65.3586 73.8909 66.0137 76.7129 66.0137V64.0137C74.1964 64.0137 72.2596 63.4317 70.8162 62.3563L69.6213 63.9601ZM76.7129 66.0137C79.5044 66.0137 81.8682 65.3576 83.7145 63.9544L82.5043 62.362C81.0954 63.4328 79.1948 64.0137 76.7129 64.0137V66.0137ZM83.7069 63.9601C85.5741 62.5688 86.8824 60.5303 87.6787 57.9338L85.7666 57.3474C85.0655 59.6337 83.965 61.2736 82.5119 62.3563L83.7069 63.9601ZM87.6751 57.9454C88.4976 55.375 88.8945 52.2538 88.8945 48.6074H86.8945C86.8945 52.1225 86.5102 55.0234 85.7702 57.3358L87.6751 57.9454ZM88.8945 48.6074C88.8945 44.9309 88.4982 41.8218 87.6726 39.3107L85.7727 39.9354C86.5096 42.1769 86.8945 45.0574 86.8945 48.6074H88.8945ZM87.6776 39.3262C86.8799 36.7596 85.5684 34.7517 83.6966 33.3937L82.5221 35.0125C83.9707 36.0635 85.0681 37.6688 85.7677 39.9199L87.6776 39.3262ZM83.6966 33.3937C81.8207 32.0327 79.432 31.3965 76.6152 31.3965V33.3965C79.137 33.3965 81.0778 33.9647 82.5221 35.0125L83.6966 33.3937ZM76.6152 31.3965C72.4238 31.3965 69.2049 32.8529 67.1879 35.8968L68.8551 37.0016C70.4188 34.6419 72.9291 33.3965 76.6152 33.3965V31.3965ZM67.1833 35.9039C65.2703 38.8441 64.3848 43.1273 64.3848 48.6074H66.3848C66.3848 43.2803 67.257 39.4579 68.8597 36.9946L67.1833 35.9039ZM123.783 74.0469L123.321 74.9336L123.327 74.9367L123.783 74.0469ZM115.482 32.6895L114.602 32.2154L114.601 32.2178L115.482 32.6895ZM124.906 23.3633L124.465 22.466L124.462 22.4674L124.906 23.3633ZM148.686 21.5078L148.421 22.4724L148.435 22.4759L148.686 21.5078ZM155.912 24.0957L156.846 24.452L157.171 23.6007L156.354 23.1984L155.912 24.0957ZM151.518 35.6191L151.144 36.5467L152.089 36.9273L152.452 35.9755L151.518 35.6191ZM144.975 33.3242L144.682 34.2803L144.689 34.2825L144.696 34.2846L144.975 33.3242ZM132.426 34.252L132.998 35.072L133.008 35.0646L132.426 34.252ZM132.621 63.207L132.059 64.0343L132.07 64.0415L132.621 63.207ZM147.172 63.6953L147.492 64.6428L147.503 64.6388L147.172 63.6953ZM154.203 60.1797H155.203V58.326L153.654 59.344L154.203 60.1797ZM154.203 72.9238L154.735 73.7705L155.203 73.4764V72.9238H154.203ZM147.025 76L146.786 75.0291L146.778 75.031L146.771 75.0329L147.025 76ZM137.602 75.9766C132.316 75.9766 127.875 75.0213 124.24 73.1571L123.327 74.9367C127.309 76.9787 132.08 77.9766 137.602 77.9766V75.9766ZM124.246 73.1602C120.642 71.2813 117.892 68.3877 115.993 64.4342L114.19 65.3001C116.263 69.6149 119.307 72.8411 123.321 74.9336L124.246 73.1602ZM115.993 64.4342C114.093 60.4785 113.113 55.3503 113.113 48.998H111.113C111.113 55.5364 112.119 60.9876 114.19 65.3001L115.993 64.4342ZM113.113 48.998C113.113 42.4271 114.221 37.1687 116.364 33.1611L114.601 32.2178C112.252 36.6086 111.113 42.2226 111.113 48.998H113.113ZM116.363 33.1636C118.551 29.0996 121.546 26.1457 125.351 24.2592L124.462 22.4674C120.258 24.5522 116.971 27.8157 114.602 32.2154L116.363 33.1636ZM125.348 24.2606C129.224 22.3536 133.74 21.3848 138.92 21.3848V19.3848C133.488 19.3848 128.661 20.4016 124.465 22.466L125.348 24.2606ZM138.92 21.3848C142.634 21.3848 145.796 21.7535 148.421 22.4723L148.95 20.5433C146.106 19.7647 142.758 19.3848 138.92 19.3848V21.3848ZM148.435 22.4759C151.152 23.179 153.494 24.0203 155.471 24.993L156.354 23.1984C154.229 22.1529 151.753 21.2689 148.936 20.5397L148.435 22.4759ZM154.978 23.7394L150.583 35.2628L152.452 35.9755L156.846 24.452L154.978 23.7394ZM151.891 34.6916C149.522 33.7375 147.309 32.9608 145.253 32.3639L144.696 34.2846C146.676 34.8595 148.825 35.6128 151.144 36.5467L151.891 34.6916ZM145.268 32.3681C143.159 31.7219 141.042 31.3965 138.92 31.3965V33.3965C140.834 33.3965 142.754 33.6896 144.682 34.2803L145.268 32.3681ZM138.92 31.3965C136.155 31.3965 133.774 32.0551 131.843 33.4393L133.008 35.0646C134.529 33.9748 136.477 33.3965 138.92 33.3965V31.3965ZM131.853 33.432C129.919 34.7825 128.523 36.7987 127.624 39.3932L129.513 40.0482C130.306 37.7599 131.482 36.1303 132.998 35.0719L131.853 33.432ZM127.624 39.3932C126.729 41.9742 126.299 45.1538 126.299 48.9004H128.299C128.299 45.2902 128.715 42.35 129.513 40.0482L127.624 39.3932ZM126.299 48.9004C126.299 52.5888 126.763 55.7152 127.732 58.2429L129.6 57.5266C128.746 55.3018 128.299 52.4386 128.299 48.9004H126.299ZM127.732 58.2429C128.701 60.7672 130.131 62.7244 132.059 64.0342L133.183 62.3798C131.661 61.3459 130.454 59.7549 129.6 57.5266L127.732 58.2429ZM132.07 64.0415C133.989 65.3085 136.289 65.916 138.92 65.916V63.916C136.603 63.916 134.704 63.3842 133.172 62.3726L132.07 64.0415ZM138.92 65.916C142.098 65.916 144.96 65.4979 147.492 64.6427L146.852 62.7479C144.566 63.5203 141.926 63.916 138.92 63.916V65.916ZM147.503 64.6388C149.994 63.7637 152.41 62.5544 154.752 61.0154L153.654 59.344C151.439 60.7998 149.168 61.9342 146.84 62.7519L147.503 64.6388ZM153.203 60.1797V72.9238H155.203V60.1797H153.203ZM153.671 72.0772C151.479 73.4552 149.184 74.4373 146.786 75.0291L147.265 76.9709C149.879 76.3258 152.37 75.2571 154.735 73.7705L153.671 72.0772ZM146.771 75.0329C144.41 75.6543 141.362 75.9766 137.602 75.9766V77.9766C141.459 77.9766 144.693 77.6478 147.28 76.9671L146.771 75.0329ZM181.791 21.4102H182.791V20.4102H181.791V21.4102ZM181.791 76V77H182.791V76H181.791ZM166.898 76H165.898V77H166.898V76ZM166.898 21.4102V20.4102H165.898V21.4102H166.898ZM180.082 1.58594L179.535 2.42321L179.541 2.42716L179.547 2.43102L180.082 1.58594ZM180.082 13.0605L180.629 13.8978L180.635 13.8939L180.641 13.89L180.082 13.0605ZM168.607 13.0605L168.041 13.8846L168.051 13.8913L168.061 13.8978L168.607 13.0605ZM168.607 1.58594L169.15 2.42599L169.154 2.42321L168.607 1.58594ZM180.791 21.4102V76H182.791V21.4102H180.791ZM181.791 75H166.898V77H181.791V75ZM167.898 76V21.4102H165.898V76H167.898ZM166.898 22.4102H181.791V20.4102H166.898V22.4102ZM174.369 1.02344C176.421 1.02344 178.128 1.50404 179.535 2.42321L180.629 0.748667C178.846 -0.415501 176.745 -0.976562 174.369 -0.976562V1.02344ZM179.547 2.43102C180.729 3.17854 181.475 4.66428 181.475 7.29883H183.475C183.475 4.33441 182.625 2.01156 180.617 0.740859L179.547 2.43102ZM181.475 7.29883C181.475 9.88995 180.734 11.4159 179.523 12.2311L180.641 13.89C182.62 12.5567 183.475 10.2416 183.475 7.29883H181.475ZM179.535 12.2233C178.128 13.1424 176.421 13.623 174.369 13.623V15.623C176.745 15.623 178.846 15.062 180.629 13.8978L179.535 12.2233ZM174.369 13.623C172.282 13.623 170.559 13.1409 169.154 12.2233L168.061 13.8978C169.846 15.0635 171.964 15.623 174.369 15.623V13.623ZM169.174 12.2365C167.993 11.4245 167.264 9.89746 167.264 7.29883H165.264C165.264 10.2341 166.097 12.5481 168.041 13.8846L169.174 12.2365ZM167.264 7.29883C167.264 4.65651 167.998 3.17003 169.15 2.42598L168.065 0.745898C166.092 2.02007 165.264 4.34219 165.264 7.29883H167.264ZM169.154 2.42321C170.559 1.50555 172.282 1.02344 174.369 1.02344V-0.976562C171.964 -0.976562 169.846 -0.417013 168.061 0.748667L169.154 2.42321ZM236.674 25.0723L237.306 24.2977L236.674 25.0723ZM242.533 76V77H243.533V76H242.533ZM232.133 76L231.201 76.3619L231.448 77H232.133V76ZM229.252 68.5781L230.184 68.2163L229.936 67.5781H229.252V68.5781ZM228.861 68.5781V67.5781H228.381L228.08 67.9534L228.861 68.5781ZM224.076 73.3633L223.471 72.5671L224.076 73.3633ZM202.055 75.1211L201.617 76.0201L201.621 76.0223L202.055 75.1211ZM196.049 69.457L195.18 69.952L195.183 69.9568L196.049 69.457ZM199.955 46.8984L200.513 47.7285L200.517 47.7254L199.955 46.8984ZM218.266 42.3086L218.235 41.3091L218.23 41.3092L218.266 42.3086ZM227.738 42.0156L227.769 43.0151L228.738 42.9852V42.0156H227.738ZM203.861 35.2773L202.963 35.7176L203.389 36.5854L204.271 36.1897L203.861 35.2773ZM198.93 25.2188L198.463 24.3345L197.605 24.7876L198.032 25.659L198.93 25.2188ZM208.646 21.6055L208.41 20.6338L208.408 20.6343L208.646 21.6055ZM227.738 50.707H228.738V49.6726L227.704 49.7076L227.738 50.707ZM221.977 50.9023L222.004 51.902L222.01 51.9018L221.977 50.9023ZM211.918 53.4902L211.273 52.7263L211.266 52.7319L211.918 53.4902ZM211.137 64.6719L210.546 65.4789L210.553 65.4837L210.559 65.4883L211.137 64.6719ZM224.418 63.2559L223.769 62.495L223.763 62.4998L224.418 63.2559ZM219.828 21.2871C227.023 21.2871 232.379 22.8558 236.041 25.8468L237.306 24.2977C233.156 20.9085 227.281 19.2871 219.828 19.2871V21.2871ZM236.041 25.8468C239.651 28.7944 241.533 33.3185 241.533 39.623H243.533C243.533 32.9068 241.51 27.7303 237.306 24.2977L236.041 25.8468ZM241.533 39.623V76H243.533V39.623H241.533ZM242.533 75H232.133V77H242.533V75ZM233.065 75.6381L230.184 68.2163L228.32 68.94L231.201 76.3619L233.065 75.6381ZM229.252 67.5781H228.861V69.5781H229.252V67.5781ZM228.08 67.9534C226.558 69.8561 225.021 71.3895 223.471 72.5671L224.681 74.1594C226.387 72.8631 228.039 71.2064 229.642 69.2028L228.08 67.9534ZM223.471 72.5671C221.952 73.7218 220.197 74.5793 218.194 75.1339L218.728 77.0614C220.957 76.4441 222.945 75.4788 224.681 74.1594L223.471 72.5671ZM218.194 75.1339C216.191 75.6886 213.715 75.9766 210.746 75.9766V77.9766C213.832 77.9766 216.499 77.6785 218.728 77.0614L218.194 75.1339ZM210.746 75.9766C207.654 75.9766 204.908 75.3839 202.488 74.2199L201.621 76.0223C204.345 77.3323 207.393 77.9766 210.746 77.9766V75.9766ZM202.493 74.2221C200.14 73.076 198.284 71.3305 196.915 68.9573L195.183 69.9568C196.743 72.6617 198.891 74.6923 201.617 76.0201L202.493 74.2221ZM196.918 68.9621C195.563 66.5831 194.852 63.5121 194.852 59.6914H192.852C192.852 63.7483 193.605 67.1877 195.18 69.952L196.918 68.9621ZM194.852 59.6914C194.852 54.1603 196.774 50.2412 200.513 47.7284L199.397 46.0684C194.999 49.0244 192.852 53.6339 192.852 59.6914H194.852ZM200.517 47.7254C204.359 45.1128 210.241 43.5981 218.302 43.3079L218.23 41.3092C210.014 41.605 203.689 43.1502 199.393 46.0715L200.517 47.7254ZM218.297 43.3081L227.769 43.0151L227.707 41.0161L218.235 41.3091L218.297 43.3081ZM228.738 42.0156V39.623H226.738V42.0156H228.738ZM228.738 39.623C228.738 36.5986 227.946 34.1719 226.158 32.5777L224.827 34.0707C226.033 35.1458 226.738 36.9184 226.738 39.623H228.738ZM226.158 32.5777C224.424 31.0322 222.074 30.3223 219.242 30.3223V32.3223C221.749 32.3223 223.566 32.947 224.827 34.0707L226.158 32.5777ZM219.242 30.3223C216.509 30.3223 213.826 30.7105 211.196 31.4861L211.761 33.4045C214.209 32.6828 216.702 32.3223 219.242 32.3223V30.3223ZM211.196 31.4861C208.611 32.2482 206.03 33.2082 203.452 34.365L204.271 36.1897C206.771 35.0679 209.268 34.1398 211.761 33.4045L211.196 31.4861ZM204.759 34.8371L199.828 24.7785L198.032 25.659L202.963 35.7176L204.759 34.8371ZM199.397 26.103C202.213 24.6157 205.374 23.4384 208.885 22.5766L208.408 20.6343C204.758 21.5303 201.441 22.7619 198.463 24.3345L199.397 26.103ZM208.883 22.5771C212.416 21.7177 216.064 21.2871 219.828 21.2871V19.2871C215.91 19.2871 212.103 19.7355 208.41 20.6338L208.883 22.5771ZM227.704 49.7076L221.943 49.9029L222.01 51.9018L227.772 51.7065L227.704 49.7076ZM221.95 49.9027C217.089 50.0341 213.436 50.8989 211.273 52.7263L212.563 54.2541C214.176 52.8914 217.229 52.031 222.004 51.902L221.95 49.9027ZM211.266 52.7319C209.174 54.5304 208.135 56.9148 208.135 59.7891H210.135C210.135 57.455 210.951 55.6402 212.57 54.2486L211.266 52.7319ZM208.135 59.7891C208.135 62.2569 208.865 64.2487 210.546 65.4789L211.727 63.8648C210.739 63.1419 210.135 61.8785 210.135 59.7891H208.135ZM210.559 65.4883C212.109 66.5842 214.07 67.0879 216.361 67.0879V65.0879C214.355 65.0879 212.834 64.6475 211.714 63.8555L210.559 65.4883ZM216.361 67.0879C219.764 67.0879 222.69 66.0743 225.072 64.0119L223.763 62.4998C221.784 64.2135 219.338 65.0879 216.361 65.0879V67.0879ZM225.067 64.0167C227.547 61.901 228.738 58.9116 228.738 55.1992H226.738C226.738 58.453 225.716 60.8347 223.769 62.495L225.067 64.0167ZM228.738 55.1992V50.707H226.738V55.1992H228.738ZM272.807 76V77H273.807V76H272.807ZM257.914 76H256.914V77H257.914V76ZM257.914 0.0234375V-0.976562H256.914V0.0234375H257.914ZM272.807 0.0234375H273.807V-0.976562H272.807V0.0234375ZM272.807 75H257.914V77H272.807V75ZM258.914 76V0.0234375H256.914V76H258.914ZM257.914 1.02344H272.807V-0.976562H257.914V1.02344ZM271.807 0.0234375V76H273.807V0.0234375H271.807Z" fill="black"/>
</svg>
