<svg width="268" height="77" viewBox="0 0 268 77" fill="none" xmlns="http://www.w3.org/2000/svg">
<path d="M20.8008 76L0 21.4102H15.5762L26.123 52.5137C26.709 54.3366 27.1647 56.2572 27.4902 58.2754C27.8483 60.2936 28.0924 62.1003 28.2227 63.6953H28.6133C28.7109 61.9701 28.9388 60.1309 29.2969 58.1777C29.6875 56.2246 30.1921 54.3366 30.8105 52.5137L41.3086 21.4102H56.8848L36.084 76H20.8008ZM79.6387 21.4102V76H64.7461V21.4102H79.6387ZM72.2168 0.0234375C74.4303 0.0234375 76.3346 0.544271 77.9297 1.58594C79.5247 2.59505 80.3223 4.49935 80.3223 7.29883C80.3223 10.0658 79.5247 11.9863 77.9297 13.0605C76.3346 14.1022 74.4303 14.623 72.2168 14.623C69.9707 14.623 68.0501 14.1022 66.4551 13.0605C64.8926 11.9863 64.1113 10.0658 64.1113 7.29883C64.1113 4.49935 64.8926 2.59505 66.4551 1.58594C68.0501 0.544271 69.9707 0.0234375 72.2168 0.0234375ZM112.598 76.9766C106.51 76.9766 101.546 74.6003 97.7051 69.8477C93.8965 65.0625 91.9922 58.0475 91.9922 48.8027C91.9922 39.4603 93.929 32.3965 97.8027 27.6113C101.676 22.7936 106.738 20.3848 112.988 20.3848C115.592 20.3848 117.887 20.7428 119.873 21.459C121.859 22.1751 123.568 23.1354 125 24.3398C126.465 25.5443 127.702 26.8952 128.711 28.3926H129.199C129.004 27.3509 128.76 25.821 128.467 23.8027C128.206 21.752 128.076 19.6523 128.076 17.5039V0.0234375H143.018V76H131.592L128.711 68.9199H128.076C127.132 70.4173 125.944 71.7845 124.512 73.0215C123.112 74.2259 121.436 75.1862 119.482 75.9023C117.529 76.6185 115.234 76.9766 112.598 76.9766ZM117.822 65.1113C121.891 65.1113 124.756 63.9069 126.416 61.498C128.109 59.0566 129.004 55.3945 129.102 50.5117V48.9004C129.102 43.5944 128.288 39.5417 126.66 36.7422C125.033 33.9102 122.005 32.4941 117.578 32.4941C114.29 32.4941 111.719 33.9102 109.863 36.7422C108.008 39.5742 107.08 43.6595 107.08 48.998C107.08 54.3366 108.008 58.3568 109.863 61.0586C111.751 63.7604 114.404 65.1113 117.822 65.1113ZM181.104 20.3848C186.149 20.3848 190.495 21.3613 194.141 23.3145C197.786 25.235 200.602 28.0345 202.588 31.7129C204.574 35.3913 205.566 39.8835 205.566 45.1895V52.416H170.361C170.524 56.6152 171.777 59.9193 174.121 62.3281C176.497 64.7044 179.785 65.8926 183.984 65.8926C187.467 65.8926 190.658 65.5345 193.555 64.8184C196.452 64.1022 199.43 63.028 202.49 61.5957V73.1191C199.788 74.4538 196.956 75.4303 193.994 76.0488C191.064 76.6673 187.5 76.9766 183.301 76.9766C177.832 76.9766 172.982 75.9674 168.75 73.9492C164.551 71.931 161.247 68.8548 158.838 64.7207C156.462 60.5866 155.273 55.3783 155.273 49.0957C155.273 42.7155 156.348 37.4095 158.496 33.1777C160.677 28.9134 163.704 25.7233 167.578 23.6074C171.452 21.459 175.96 20.3848 181.104 20.3848ZM181.201 30.9805C178.304 30.9805 175.895 31.9082 173.975 33.7637C172.087 35.6191 170.996 38.5326 170.703 42.5039H191.602C191.569 40.2904 191.162 38.321 190.381 36.5957C189.632 34.8704 188.493 33.5033 186.963 32.4941C185.465 31.485 183.545 30.9805 181.201 30.9805ZM267.285 48.6074C267.285 53.1647 266.667 57.2012 265.43 60.7168C264.225 64.2324 262.451 67.2109 260.107 69.6523C257.796 72.0612 254.997 73.8841 251.709 75.1211C248.454 76.3581 244.775 76.9766 240.674 76.9766C236.833 76.9766 233.301 76.3581 230.078 75.1211C226.888 73.8841 224.105 72.0612 221.729 69.6523C219.385 67.2109 217.562 64.2324 216.26 60.7168C214.99 57.2012 214.355 53.1647 214.355 48.6074C214.355 42.5527 215.43 37.4258 217.578 33.2266C219.727 29.0273 222.786 25.8372 226.758 23.6562C230.729 21.4753 235.465 20.3848 240.967 20.3848C246.077 20.3848 250.602 21.4753 254.541 23.6562C258.512 25.8372 261.621 29.0273 263.867 33.2266C266.146 37.4258 267.285 42.5527 267.285 48.6074ZM229.541 48.6074C229.541 52.1882 229.932 55.1992 230.713 57.6406C231.494 60.082 232.715 61.9212 234.375 63.1582C236.035 64.3952 238.2 65.0137 240.869 65.0137C243.506 65.0137 245.638 64.3952 247.266 63.1582C248.926 61.9212 250.13 60.082 250.879 57.6406C251.66 55.1992 252.051 52.1882 252.051 48.6074C252.051 44.9941 251.66 41.9993 250.879 39.623C250.13 37.2142 248.926 35.4076 247.266 34.2031C245.605 32.9987 243.441 32.3965 240.771 32.3965C236.833 32.3965 233.968 33.7474 232.178 36.4492C230.42 39.151 229.541 43.2038 229.541 48.6074Z" fill="black"/>
<path d="M20.8008 76L19.8663 76.3561L20.1117 77H20.8008V76ZM0 21.4102V20.4102H-1.45117L-0.934461 21.7662L0 21.4102ZM15.5762 21.4102L16.5232 21.089L16.293 20.4102H15.5762V21.4102ZM26.123 52.5137L27.0751 52.2077L27.0726 52.2001L27.0701 52.1925L26.123 52.5137ZM27.4902 58.2754L26.503 58.4346L26.5042 58.4424L26.5056 58.4501L27.4902 58.2754ZM28.2227 63.6953L27.226 63.7767L27.301 64.6953H28.2227V63.6953ZM28.6133 63.6953V64.6953H29.5583L29.6117 63.7518L28.6133 63.6953ZM29.2969 58.1777L28.3163 57.9816L28.3147 57.9895L28.3133 57.9974L29.2969 58.1777ZM30.8105 52.5137L31.7575 52.835L31.758 52.8335L30.8105 52.5137ZM41.3086 21.4102V20.4102H40.5907L40.3611 21.0904L41.3086 21.4102ZM56.8848 21.4102L57.8192 21.7662L58.3359 20.4102H56.8848V21.4102ZM36.084 76V77H36.7731L37.0184 76.3561L36.084 76ZM21.7352 75.6439L0.934461 21.0541L-0.934461 21.7662L19.8663 76.3561L21.7352 75.6439ZM0 22.4102H15.5762V20.4102H0V22.4102ZM14.6291 21.7313L25.176 52.8348L27.0701 52.1925L16.5232 21.089L14.6291 21.7313ZM25.171 52.8197C25.7405 54.5915 26.185 56.4628 26.503 58.4346L28.4775 58.1162C28.1445 56.0515 27.6774 54.0816 27.0751 52.2077L25.171 52.8197ZM26.5056 58.4501C26.8596 60.4455 27.0989 62.2201 27.226 63.7767L29.2193 63.614C29.086 61.9804 28.837 60.1417 28.4749 58.1007L26.5056 58.4501ZM28.2227 64.6953H28.6133V62.6953H28.2227V64.6953ZM29.6117 63.7518C29.7067 62.0737 29.9288 60.2762 30.2805 58.3581L28.3133 57.9974C27.9488 59.9856 27.7152 61.8664 27.6149 63.6388L29.6117 63.7518ZM30.2775 58.3739C30.6599 56.4617 31.1534 54.6155 31.7575 52.835L29.8636 52.1924C29.2307 54.0576 28.7151 55.9875 28.3163 57.9816L30.2775 58.3739ZM31.758 52.8335L42.2561 21.73L40.3611 21.0904L29.8631 52.1939L31.758 52.8335ZM41.3086 22.4102H56.8848V20.4102H41.3086V22.4102ZM55.9503 21.0541L35.1495 75.6439L37.0184 76.3561L57.8192 21.7662L55.9503 21.0541ZM36.084 75H20.8008V77H36.084V75ZM79.6387 21.4102H80.6387V20.4102H79.6387V21.4102ZM79.6387 76V77H80.6387V76H79.6387ZM64.7461 76H63.7461V77H64.7461V76ZM64.7461 21.4102V20.4102H63.7461V21.4102H64.7461ZM77.9297 1.58594L77.3829 2.42321L77.3889 2.42716L77.395 2.43102L77.9297 1.58594ZM77.9297 13.0605L78.4765 13.8978L78.4824 13.8939L78.4883 13.89L77.9297 13.0605ZM66.4551 13.0605L65.8885 13.8846L65.8983 13.8913L65.9083 13.8978L66.4551 13.0605ZM66.4551 1.58594L66.9976 2.42599L67.0019 2.42321L66.4551 1.58594ZM78.6387 21.4102V76H80.6387V21.4102H78.6387ZM79.6387 75H64.7461V77H79.6387V75ZM65.7461 76V21.4102H63.7461V76H65.7461ZM64.7461 22.4102H79.6387V20.4102H64.7461V22.4102ZM72.2168 1.02344C74.2683 1.02344 75.9754 1.50404 77.3829 2.42321L78.4765 0.748667C76.6938 -0.415501 74.5924 -0.976562 72.2168 -0.976562V1.02344ZM77.395 2.43102C78.5766 3.17854 79.3223 4.66428 79.3223 7.29883H81.3223C81.3223 4.33441 80.4729 2.01156 78.4643 0.740859L77.395 2.43102ZM79.3223 7.29883C79.3223 9.88995 78.5815 11.4159 77.3711 12.2311L78.4883 13.89C80.468 12.5567 81.3223 10.2416 81.3223 7.29883H79.3223ZM77.3829 12.2233C75.9754 13.1424 74.2683 13.623 72.2168 13.623V15.623C74.5924 15.623 76.6938 15.062 78.4765 13.8978L77.3829 12.2233ZM72.2168 13.623C70.1295 13.623 68.407 13.1409 67.0019 12.2233L65.9083 13.8978C67.6932 15.0635 69.8119 15.623 72.2168 15.623V13.623ZM67.0216 12.2365C65.8405 11.4245 65.1113 9.89746 65.1113 7.29883H63.1113C63.1113 10.2341 63.9446 12.5481 65.8885 13.8846L67.0216 12.2365ZM65.1113 7.29883C65.1113 4.65651 65.8455 3.17003 66.9976 2.42598L65.9126 0.745898C63.9396 2.02007 63.1113 4.34219 63.1113 7.29883H65.1113ZM67.0019 2.42321C68.407 1.50555 70.1295 1.02344 72.2168 1.02344V-0.976562C69.8119 -0.976562 67.6932 -0.417013 65.9083 0.748667L67.0019 2.42321ZM97.7051 69.8477L96.9226 70.4704L96.9273 70.4762L97.7051 69.8477ZM97.8027 27.6113L98.58 28.2405L98.5821 28.2379L97.8027 27.6113ZM125 24.3398L124.356 25.1053L124.365 25.1123L125 24.3398ZM128.711 28.3926L127.882 28.9514L128.179 29.3926H128.711V28.3926ZM129.199 28.3926V29.3926H130.404L130.182 28.2083L129.199 28.3926ZM128.467 23.8027L127.475 23.9287L127.476 23.9376L127.477 23.9464L128.467 23.8027ZM128.076 0.0234375V-0.976562H127.076V0.0234375H128.076ZM143.018 0.0234375H144.018V-0.976562H143.018V0.0234375ZM143.018 76V77H144.018V76H143.018ZM131.592 76L130.666 76.3769L130.919 77H131.592V76ZM128.711 68.9199L129.637 68.543L129.384 67.9199H128.711V68.9199ZM128.076 68.9199V67.9199H127.524L127.23 68.3866L128.076 68.9199ZM124.512 73.0215L125.164 73.7795L125.165 73.7783L124.512 73.0215ZM126.416 61.498L125.594 60.9283L125.593 60.9306L126.416 61.498ZM129.102 50.5117L130.101 50.5317L130.102 50.5217V50.5117H129.102ZM126.66 36.7422L125.793 37.2405L125.796 37.2448L126.66 36.7422ZM109.863 61.0586L109.039 61.6247L109.044 61.6314L109.863 61.0586ZM112.598 75.9766C106.814 75.9766 102.135 73.7378 98.4828 69.2191L96.9273 70.4762C100.957 75.4627 106.207 77.9766 112.598 77.9766V75.9766ZM98.4875 69.2249C94.8759 64.6872 92.9922 57.9318 92.9922 48.8027H90.9922C90.9922 58.1633 92.9171 65.4378 96.9227 70.4704L98.4875 69.2249ZM92.9922 48.8027C92.9922 39.5761 94.9084 32.776 98.58 28.2405L97.0255 26.9821C92.9497 32.0169 90.9922 39.3444 90.9922 48.8027H92.9922ZM98.5821 28.2379C102.264 23.6593 107.037 21.3848 112.988 21.3848V19.3848C106.439 19.3848 101.089 21.9279 97.0234 26.9847L98.5821 28.2379ZM112.988 21.3848C115.503 21.3848 117.679 21.7307 119.534 22.3997L120.212 20.5183C118.096 19.7549 115.682 19.3848 112.988 19.3848V21.3848ZM119.534 22.3997C121.423 23.0809 123.025 23.9858 124.356 25.1052L125.644 23.5745C124.11 22.285 122.295 21.2694 120.212 20.5183L119.534 22.3997ZM124.365 25.1123C125.759 26.2584 126.929 27.5382 127.882 28.9514L129.54 27.8337C128.474 26.2522 127.171 24.8302 125.635 23.5674L124.365 25.1123ZM128.711 29.3926H129.199V27.3926H128.711V29.3926ZM130.182 28.2083C129.991 27.1873 129.749 25.6737 129.456 23.6591L127.477 23.9464C127.771 25.9683 128.017 27.5145 128.216 28.5769L130.182 28.2083ZM129.459 23.6768C129.204 21.6694 129.076 19.6119 129.076 17.5039H127.076C127.076 19.6928 127.209 21.8345 127.475 23.9287L129.459 23.6768ZM129.076 17.5039V0.0234375H127.076V17.5039H129.076ZM128.076 1.02344H143.018V-0.976562H128.076V1.02344ZM142.018 0.0234375V76H144.018V0.0234375H142.018ZM143.018 75H131.592V77H143.018V75ZM132.518 75.6231L129.637 68.543L127.785 69.2968L130.666 76.3769L132.518 75.6231ZM128.711 67.9199H128.076V69.9199H128.711V67.9199ZM127.23 68.3866C126.342 69.7948 125.221 71.0878 123.858 72.2647L125.165 73.7783C126.667 72.4812 127.922 71.0398 128.922 69.4532L127.23 68.3866ZM123.859 72.2635C122.561 73.3804 120.993 74.2835 119.138 74.9635L119.827 76.8412C121.878 76.0889 123.662 75.0715 125.164 73.7795L123.859 72.2635ZM119.138 74.9635C117.32 75.63 115.147 75.9766 112.598 75.9766V77.9766C115.322 77.9766 117.738 77.607 119.827 76.8412L119.138 74.9635ZM117.822 66.1113C122.081 66.1113 125.325 64.8426 127.239 62.0655L125.593 60.9306C124.186 62.9712 121.702 64.1113 117.822 64.1113V66.1113ZM127.238 62.0678C129.094 59.391 130.002 55.4968 130.101 50.5317L128.102 50.4917C128.006 55.2922 127.124 58.7223 125.594 60.9283L127.238 62.0678ZM130.102 50.5117V48.9004H128.102V50.5117H130.102ZM130.102 48.9004C130.102 43.5186 129.281 39.26 127.525 36.2396L125.796 37.2448C127.295 39.8233 128.102 43.6702 128.102 48.9004H130.102ZM127.527 36.2439C125.659 32.9941 122.219 31.4941 117.578 31.4941V33.4941C121.791 33.4941 124.406 34.8262 125.793 37.2405L127.527 36.2439ZM117.578 31.4941C113.941 31.4941 111.06 33.0902 109.027 36.1942L110.7 37.2902C112.377 34.7301 114.639 33.4941 117.578 33.4941V31.4941ZM109.027 36.1942C107.02 39.258 106.08 43.5679 106.08 48.998H108.08C108.08 43.7511 108.996 39.8905 110.7 37.2902L109.027 36.1942ZM106.08 48.998C106.08 54.423 107.018 58.6813 109.039 61.6247L110.688 60.4925C108.998 58.0323 108.08 54.2501 108.08 48.998H106.08ZM109.044 61.6314C111.127 64.6125 114.092 66.1113 117.822 66.1113V64.1113C114.717 64.1113 112.376 62.9084 110.683 60.4858L109.044 61.6314ZM194.141 23.3145L193.668 24.196L193.675 24.1992L194.141 23.3145ZM202.588 31.7129L201.708 32.1879L202.588 31.7129ZM205.566 52.416V53.416H206.566V52.416H205.566ZM170.361 52.416V51.416H169.322L169.362 52.4547L170.361 52.416ZM174.121 62.3281L173.404 63.0255L173.414 63.0352L174.121 62.3281ZM202.49 61.5957H203.49V60.0235L202.066 60.69L202.49 61.5957ZM202.49 73.1191L202.933 74.0157L203.49 73.7405V73.1191H202.49ZM193.994 76.0488L193.79 75.0699L193.788 75.0704L193.994 76.0488ZM168.75 73.9492L168.317 74.8505L168.32 74.8518L168.75 73.9492ZM158.838 64.7207L157.971 65.2191L157.974 65.2242L158.838 64.7207ZM158.496 33.1777L157.606 32.7224L157.604 32.725L158.496 33.1777ZM167.578 23.6074L168.058 24.4851L168.063 24.4819L167.578 23.6074ZM173.975 33.7637L173.28 33.0445L173.274 33.0504L173.975 33.7637ZM170.703 42.5039L169.706 42.4303L169.627 43.5039H170.703V42.5039ZM191.602 42.5039V43.5039H192.616L192.601 42.4892L191.602 42.5039ZM190.381 36.5957L189.464 36.9938L189.467 37.001L189.47 37.0082L190.381 36.5957ZM186.963 32.4941L186.404 33.3234L186.412 33.3289L186.963 32.4941ZM181.104 21.3848C186.02 21.3848 190.196 22.336 193.668 24.1959L194.613 22.433C190.793 20.3867 186.278 19.3848 181.104 19.3848V21.3848ZM193.675 24.1992C197.142 26.0259 199.815 28.6815 201.708 32.1879L203.468 31.2379C201.389 27.3875 198.431 24.4442 194.607 22.4297L193.675 24.1992ZM201.708 32.1879C203.596 35.6862 204.566 40.0056 204.566 45.1895H206.566C206.566 39.7613 205.551 35.0963 203.468 31.2379L201.708 32.1879ZM204.566 45.1895V52.416H206.566V45.1895H204.566ZM205.566 51.416H170.361V53.416H205.566V51.416ZM169.362 52.4547C169.532 56.8366 170.848 60.3983 173.404 63.0255L174.838 61.6308C172.707 59.4403 171.516 56.3939 171.361 52.3773L169.362 52.4547ZM173.414 63.0352C176.022 65.6433 179.59 66.8926 183.984 66.8926V64.8926C179.98 64.8926 176.973 63.7655 174.828 61.621L173.414 63.0352ZM183.984 66.8926C187.535 66.8926 190.807 66.5276 193.795 65.7891L193.315 63.8476C190.508 64.5414 187.4 64.8926 183.984 64.8926V66.8926ZM193.795 65.7891C196.763 65.0555 199.803 63.9578 202.914 62.5014L202.066 60.69C199.058 62.0982 196.141 63.149 193.315 63.8476L193.795 65.7891ZM201.49 61.5957V73.1191H203.49V61.5957H201.49ZM202.047 72.2226C199.422 73.5196 196.67 74.4686 193.79 75.0699L194.199 77.0277C197.243 76.392 200.155 75.3879 202.933 74.0157L202.047 72.2226ZM193.788 75.0704C190.947 75.6701 187.456 75.9766 183.301 75.9766V77.9766C187.544 77.9766 191.182 77.6645 194.201 77.0273L193.788 75.0704ZM183.301 75.9766C177.956 75.9766 173.257 74.9909 169.18 73.0466L168.32 74.8518C172.706 76.944 177.708 77.9766 183.301 77.9766V75.9766ZM169.183 73.0479C165.169 71.1187 162.013 68.1836 159.702 64.2173L157.974 65.2242C160.48 69.526 163.932 72.7433 168.317 74.8505L169.183 73.0479ZM159.705 64.2224C157.439 60.2806 156.273 55.2573 156.273 49.0957H154.273C154.273 55.4993 155.484 60.8926 157.971 65.219L159.705 64.2224ZM156.273 49.0957C156.273 42.8211 157.331 37.6821 159.388 33.6304L157.604 32.725C155.365 37.1369 154.273 42.6099 154.273 49.0957H156.273ZM159.386 33.6331C161.484 29.5316 164.375 26.4964 168.057 24.485L167.099 22.7298C163.034 24.9502 159.87 28.2952 157.606 32.7224L159.386 33.6331ZM168.063 24.4819C171.766 22.4282 176.102 21.3848 181.104 21.3848V19.3848C175.818 19.3848 171.138 20.4898 167.093 22.7329L168.063 24.4819ZM181.201 29.9805C178.069 29.9805 175.403 30.9928 173.28 33.0445L174.669 34.4829C176.387 32.8236 178.539 31.9805 181.201 31.9805V29.9805ZM173.274 33.0504C171.143 35.144 170.008 38.3351 169.706 42.4303L171.7 42.5775C171.984 38.73 173.03 36.0943 174.676 34.4769L173.274 33.0504ZM170.703 43.5039H191.602V41.5039H170.703V43.5039ZM192.601 42.4892C192.567 40.1613 192.138 38.0529 191.292 36.1832L189.47 37.0082C190.186 38.5891 190.571 40.4194 190.602 42.5186L192.601 42.4892ZM191.298 36.1976C190.474 34.2992 189.21 32.7783 187.513 31.6594L186.412 33.3289C187.776 34.2282 188.79 35.4417 189.464 36.9938L191.298 36.1976ZM187.522 31.6649C185.816 30.5156 183.685 29.9805 181.201 29.9805V31.9805C183.405 31.9805 185.115 32.4544 186.404 33.3234L187.522 31.6649ZM265.43 60.7168L264.486 60.3849L264.484 60.3927L265.43 60.7168ZM260.107 69.6523L259.386 68.9598L259.386 68.96L260.107 69.6523ZM251.709 75.1211L251.357 74.1851L251.354 74.1863L251.709 75.1211ZM230.078 75.1211L229.717 76.0535L229.72 76.0547L230.078 75.1211ZM221.729 69.6523L221.007 70.3449L221.017 70.3546L221.729 69.6523ZM216.26 60.7168L215.319 61.0565L215.322 61.0641L216.26 60.7168ZM254.541 23.6562L254.057 24.5311L254.06 24.5328L254.541 23.6562ZM263.867 33.2266L262.985 33.6982L262.988 33.7035L263.867 33.2266ZM234.375 63.1582L234.972 62.3563L234.375 63.1582ZM247.266 63.1582L246.668 62.3563L246.661 62.362L247.266 63.1582ZM250.879 57.6406L249.926 57.3358L249.923 57.3474L250.879 57.6406ZM250.879 39.623L249.924 39.9199L249.926 39.9276L249.929 39.9354L250.879 39.623ZM232.178 36.4492L231.344 35.8968L231.34 35.9039L232.178 36.4492ZM266.285 48.6074C266.285 53.076 265.679 56.9966 264.486 60.3849L266.373 61.0487C267.655 57.4057 268.285 53.2534 268.285 48.6074H266.285ZM264.484 60.3927C263.322 63.7843 261.619 66.6333 259.386 68.9598L260.829 70.3449C263.283 67.7885 265.129 64.6806 266.376 61.0409L264.484 60.3927ZM259.386 68.96C257.183 71.2555 254.512 72.9979 251.357 74.1851L252.061 76.057C255.481 74.7703 258.409 72.8669 260.829 70.3447L259.386 68.96ZM251.354 74.1863C248.23 75.3732 244.675 75.9766 240.674 75.9766V77.9766C244.876 77.9766 248.677 77.3429 252.064 76.0559L251.354 74.1863ZM240.674 75.9766C236.941 75.9766 233.533 75.3759 230.436 74.1875L229.72 76.0547C233.069 77.3402 236.724 77.9766 240.674 77.9766V75.9766ZM230.44 74.1887C227.38 73.0022 224.716 71.2572 222.44 68.9501L221.017 70.3546C223.493 72.8652 226.396 74.766 229.717 76.0535L230.44 74.1887ZM222.45 68.9598C220.211 66.6276 218.457 63.7703 217.198 60.3695L215.322 61.0641C216.667 64.6945 218.559 67.7943 221.007 70.3449L222.45 68.9598ZM217.2 60.3772C215.978 56.9914 215.355 53.0735 215.355 48.6074H213.355C213.355 53.256 214.003 57.411 215.319 61.0564L217.2 60.3772ZM215.355 48.6074C215.355 42.6675 216.41 37.706 218.468 33.682L216.688 32.7711C214.45 37.1456 213.355 42.4379 213.355 48.6074H215.355ZM218.468 33.682C220.53 29.6532 223.451 26.6134 227.239 24.5328L226.276 22.7797C222.122 25.0611 218.923 28.4015 216.688 32.7711L218.468 33.682ZM227.239 24.5328C231.035 22.4484 235.598 21.3848 240.967 21.3848V19.3848C235.333 19.3848 230.424 20.5021 226.276 22.7797L227.239 24.5328ZM240.967 21.3848C245.931 21.3848 250.285 22.4428 254.057 24.5311L255.025 22.7814C250.919 20.5078 246.224 19.3848 240.967 19.3848V21.3848ZM254.06 24.5328C257.852 26.6156 260.826 29.6607 262.985 33.6982L264.749 32.7549C262.416 28.394 259.173 25.0589 255.022 22.7797L254.06 24.5328ZM262.988 33.7035C265.169 37.7223 266.285 42.6757 266.285 48.6074H268.285C268.285 42.4297 267.123 37.1293 264.746 32.7496L262.988 33.7035ZM228.541 48.6074C228.541 52.2538 228.938 55.375 229.76 57.9454L231.665 57.3358C230.925 55.0234 230.541 52.1225 230.541 48.6074H228.541ZM229.76 57.9454C230.59 60.5376 231.914 62.5715 233.778 63.9601L234.972 62.3563C233.516 61.271 232.398 59.6265 231.665 57.3358L229.76 57.9454ZM233.778 63.9601C235.654 65.3586 238.047 66.0137 240.869 66.0137V64.0137C238.353 64.0137 236.416 63.4317 234.972 62.3563L233.778 63.9601ZM240.869 66.0137C243.661 66.0137 246.024 65.3576 247.871 63.9544L246.661 62.362C245.252 63.4328 243.351 64.0137 240.869 64.0137V66.0137ZM247.863 63.9601C249.73 62.5688 251.039 60.5303 251.835 57.9338L249.923 57.3474C249.222 59.6337 248.121 61.2736 246.668 62.3563L247.863 63.9601ZM251.831 57.9454C252.654 55.375 253.051 52.2538 253.051 48.6074H251.051C251.051 52.1225 250.666 55.0234 249.926 57.3358L251.831 57.9454ZM253.051 48.6074C253.051 44.9309 252.654 41.8218 251.829 39.3107L249.929 39.9354C250.666 42.1769 251.051 45.0574 251.051 48.6074H253.051ZM251.834 39.3262C251.036 36.7596 249.725 34.7517 247.853 33.3937L246.678 35.0125C248.127 36.0635 249.224 37.6688 249.924 39.9199L251.834 39.3262ZM247.853 33.3937C245.977 32.0327 243.588 31.3965 240.771 31.3965V33.3965C243.293 33.3965 245.234 33.9647 246.678 35.0125L247.853 33.3937ZM240.771 31.3965C236.58 31.3965 233.361 32.8529 231.344 35.8968L233.011 37.0016C234.575 34.6419 237.085 33.3965 240.771 33.3965V31.3965ZM231.34 35.9039C229.427 38.8441 228.541 43.1273 228.541 48.6074H230.541C230.541 43.2803 231.413 39.4579 233.016 36.9946L231.34 35.9039Z" fill="black"/>
</svg>
