<svg width="437" height="77" viewBox="0 0 437 77" fill="none" xmlns="http://www.w3.org/2000/svg">
<path d="M52.6855 76L48.4863 56.9082C48.2585 55.7689 47.8841 54.0924 47.3633 51.8789C46.8424 49.6328 46.2728 47.2402 45.6543 44.7012C45.0684 42.1296 44.515 39.7533 43.9941 37.5723C43.5059 35.3913 43.1478 33.7962 42.9199 32.7871H42.4805C42.2526 33.7962 41.8945 35.3913 41.4062 37.5723C40.918 39.7533 40.3646 42.1296 39.7461 44.7012C39.1602 47.2728 38.6068 49.6979 38.0859 51.9766C37.5651 54.2227 37.1745 55.9316 36.9141 57.1035L32.5195 76H16.5039L0.976562 21.4102H15.8203L22.1191 45.5801C22.5423 47.2728 22.9492 49.291 23.3398 51.6348C23.7305 53.946 24.0723 56.1921 24.3652 58.373C24.6908 60.5215 24.9349 62.2305 25.0977 63.5H25.4883C25.5534 62.556 25.6836 61.3027 25.8789 59.7402C26.1068 58.1777 26.3509 56.5664 26.6113 54.9062C26.9043 53.2135 27.1647 51.6999 27.3926 50.3652C27.653 48.998 27.8483 48.0703 27.9785 47.582L34.7168 21.4102H51.123L57.5195 47.582C57.7474 48.526 58.0404 50.0234 58.3984 52.0742C58.7891 54.125 59.1309 56.2409 59.4238 58.4219C59.7168 60.5703 59.8796 62.263 59.9121 63.5H60.3027C60.4329 62.3932 60.6608 60.7493 60.9863 58.5684C61.3118 56.3874 61.6862 54.1087 62.1094 51.7324C62.5651 49.3236 63.0208 47.2728 63.4766 45.5801L70.0195 21.4102H84.6191L68.8965 76H52.6855ZM115.967 20.3848C121.012 20.3848 125.358 21.3613 129.004 23.3145C132.65 25.235 135.465 28.0345 137.451 31.7129C139.437 35.3913 140.43 39.8835 140.43 45.1895V52.416H105.225C105.387 56.6152 106.641 59.9193 108.984 62.3281C111.361 64.7044 114.648 65.8926 118.848 65.8926C122.331 65.8926 125.521 65.5345 128.418 64.8184C131.315 64.1022 134.294 63.028 137.354 61.5957V73.1191C134.652 74.4538 131.82 75.4303 128.857 76.0488C125.928 76.6673 122.363 76.9766 118.164 76.9766C112.695 76.9766 107.845 75.9674 103.613 73.9492C99.4141 71.931 96.11 68.8548 93.7012 64.7207C91.3249 60.5866 90.1367 55.3783 90.1367 49.0957C90.1367 42.7155 91.2109 37.4095 93.3594 33.1777C95.5404 28.9134 98.5677 25.7233 102.441 23.6074C106.315 21.459 110.824 20.3848 115.967 20.3848ZM116.064 30.9805C113.167 30.9805 110.758 31.9082 108.838 33.7637C106.95 35.6191 105.859 38.5326 105.566 42.5039H126.465C126.432 40.2904 126.025 38.321 125.244 36.5957C124.495 34.8704 123.356 33.5033 121.826 32.4941C120.329 31.485 118.408 30.9805 116.064 30.9805ZM167.432 0.0234375V17.6992C167.432 19.75 167.367 21.7845 167.236 23.8027C167.139 25.821 167.008 27.3835 166.846 28.4902H167.432C168.864 26.2441 170.817 24.3398 173.291 22.7773C175.765 21.1823 178.971 20.3848 182.91 20.3848C189.03 20.3848 193.994 22.7773 197.803 27.5625C201.611 32.3477 203.516 39.3626 203.516 48.6074C203.516 54.8249 202.637 60.0495 200.879 64.2812C199.121 68.4805 196.663 71.6543 193.506 73.8027C190.348 75.9186 186.686 76.9766 182.52 76.9766C178.516 76.9766 175.358 76.2604 173.047 74.8281C170.736 73.3958 168.864 71.7845 167.432 69.9941H166.406L163.916 76H152.539V0.0234375H167.432ZM178.125 32.2988C175.521 32.2988 173.454 32.8359 171.924 33.9102C170.394 34.9844 169.271 36.5957 168.555 38.7441C167.871 40.8926 167.497 43.6107 167.432 46.8984V48.5098C167.432 53.8158 168.213 57.8848 169.775 60.7168C171.338 63.5163 174.186 64.916 178.32 64.916C181.38 64.916 183.805 63.5 185.596 60.668C187.419 57.8359 188.33 53.7507 188.33 48.4121C188.33 43.0736 187.419 39.0534 185.596 36.3516C183.773 33.6497 181.283 32.2988 178.125 32.2988ZM253.906 59.7891C253.906 63.5 253.027 66.6413 251.27 69.2129C249.544 71.752 246.956 73.6888 243.506 75.0234C240.055 76.3255 235.758 76.9766 230.615 76.9766C226.807 76.9766 223.535 76.7324 220.801 76.2441C218.099 75.7559 215.365 74.9421 212.598 73.8027V61.498C215.56 62.8327 218.734 63.9395 222.119 64.8184C225.537 65.6647 228.532 66.0879 231.104 66.0879C234.001 66.0879 236.068 65.6647 237.305 64.8184C238.574 63.9395 239.209 62.8001 239.209 61.4004C239.209 60.4889 238.949 59.6751 238.428 58.959C237.939 58.2103 236.865 57.3802 235.205 56.4688C233.545 55.5247 230.941 54.304 227.393 52.8066C223.975 51.3743 221.159 49.9258 218.945 48.4609C216.764 46.9961 215.137 45.2708 214.062 43.2852C213.021 41.2669 212.5 38.7116 212.5 35.6191C212.5 30.5736 214.453 26.7812 218.359 24.2422C222.298 21.6706 227.555 20.3848 234.131 20.3848C237.516 20.3848 240.739 20.7266 243.799 21.4102C246.891 22.0938 250.065 23.1842 253.32 24.6816L248.828 35.4238C246.126 34.252 243.571 33.2917 241.162 32.543C238.786 31.7943 236.361 31.4199 233.887 31.4199C231.706 31.4199 230.062 31.7129 228.955 32.2988C227.848 32.8848 227.295 33.7799 227.295 34.9844C227.295 35.8633 227.572 36.6445 228.125 37.3281C228.711 38.0117 229.818 38.7767 231.445 39.623C233.105 40.4368 235.531 41.4948 238.721 42.7969C241.813 44.0664 244.499 45.401 246.777 46.8008C249.056 48.168 250.814 49.877 252.051 51.9277C253.288 53.946 253.906 56.5664 253.906 59.7891ZM280.42 21.4102V76H265.527V21.4102H280.42ZM272.998 0.0234375C275.212 0.0234375 277.116 0.544271 278.711 1.58594C280.306 2.59505 281.104 4.49935 281.104 7.29883C281.104 10.0658 280.306 11.9863 278.711 13.0605C277.116 14.1022 275.212 14.623 272.998 14.623C270.752 14.623 268.831 14.1022 267.236 13.0605C265.674 11.9863 264.893 10.0658 264.893 7.29883C264.893 4.49935 265.674 2.59505 267.236 1.58594C268.831 0.544271 270.752 0.0234375 272.998 0.0234375ZM319.092 65.1113C320.719 65.1113 322.298 64.9486 323.828 64.623C325.391 64.2975 326.937 63.8906 328.467 63.4023V74.4863C326.872 75.2025 324.886 75.7884 322.51 76.2441C320.166 76.7324 317.594 76.9766 314.795 76.9766C311.54 76.9766 308.61 76.4557 306.006 75.4141C303.434 74.3398 301.4 72.5007 299.902 69.8965C298.438 67.2598 297.705 63.5977 297.705 58.9102V32.5918H290.576V26.293L298.779 21.3125L303.076 9.78906H312.598V21.4102H327.881V32.5918H312.598V58.9102C312.598 60.9935 313.184 62.556 314.355 63.5977C315.56 64.6068 317.139 65.1113 319.092 65.1113ZM362.061 20.3848C367.106 20.3848 371.452 21.3613 375.098 23.3145C378.743 25.235 381.559 28.0345 383.545 31.7129C385.531 35.3913 386.523 39.8835 386.523 45.1895V52.416H351.318C351.481 56.6152 352.734 59.9193 355.078 62.3281C357.454 64.7044 360.742 65.8926 364.941 65.8926C368.424 65.8926 371.615 65.5345 374.512 64.8184C377.409 64.1022 380.387 63.028 383.447 61.5957V73.1191C380.745 74.4538 377.913 75.4303 374.951 76.0488C372.021 76.6673 368.457 76.9766 364.258 76.9766C358.789 76.9766 353.939 75.9674 349.707 73.9492C345.508 71.931 342.204 68.8548 339.795 64.7207C337.419 60.5866 336.23 55.3783 336.23 49.0957C336.23 42.7155 337.305 37.4095 339.453 33.1777C341.634 28.9134 344.661 25.7233 348.535 23.6074C352.409 21.459 356.917 20.3848 362.061 20.3848ZM362.158 30.9805C359.261 30.9805 356.852 31.9082 354.932 33.7637C353.044 35.6191 351.953 38.5326 351.66 42.5039H372.559C372.526 40.2904 372.119 38.321 371.338 36.5957C370.589 34.8704 369.45 33.5033 367.92 32.4941C366.423 31.485 364.502 30.9805 362.158 30.9805ZM436.719 59.7891C436.719 63.5 435.84 66.6413 434.082 69.2129C432.357 71.752 429.769 73.6888 426.318 75.0234C422.868 76.3255 418.571 76.9766 413.428 76.9766C409.619 76.9766 406.348 76.7324 403.613 76.2441C400.911 75.7559 398.177 74.9421 395.41 73.8027V61.498C398.372 62.8327 401.546 63.9395 404.932 64.8184C408.35 65.6647 411.344 66.0879 413.916 66.0879C416.813 66.0879 418.88 65.6647 420.117 64.8184C421.387 63.9395 422.021 62.8001 422.021 61.4004C422.021 60.4889 421.761 59.6751 421.24 58.959C420.752 58.2103 419.678 57.3802 418.018 56.4688C416.357 55.5247 413.753 54.304 410.205 52.8066C406.787 51.3743 403.971 49.9258 401.758 48.4609C399.577 46.9961 397.949 45.2708 396.875 43.2852C395.833 41.2669 395.312 38.7116 395.312 35.6191C395.312 30.5736 397.266 26.7812 401.172 24.2422C405.111 21.6706 410.368 20.3848 416.943 20.3848C420.329 20.3848 423.551 20.7266 426.611 21.4102C429.704 22.0938 432.878 23.1842 436.133 24.6816L431.641 35.4238C428.939 34.252 426.383 33.2917 423.975 32.543C421.598 31.7943 419.173 31.4199 416.699 31.4199C414.518 31.4199 412.874 31.7129 411.768 32.2988C410.661 32.8848 410.107 33.7799 410.107 34.9844C410.107 35.8633 410.384 36.6445 410.938 37.3281C411.523 38.0117 412.63 38.7767 414.258 39.623C415.918 40.4368 418.343 41.4948 421.533 42.7969C424.626 44.0664 427.311 45.401 429.59 46.8008C431.868 48.168 433.626 49.877 434.863 51.9277C436.1 53.946 436.719 56.5664 436.719 59.7891Z" fill="black"/>
<path d="M52.6855 76L51.7089 76.2148L51.8816 77H52.6855V76ZM48.4863 56.9082L47.5057 57.1043L47.5076 57.1137L47.5097 57.123L48.4863 56.9082ZM47.3633 51.8789L46.3891 52.1048L46.3899 52.1079L47.3633 51.8789ZM45.6543 44.7012L44.6793 44.9233L44.6809 44.9306L44.6827 44.9378L45.6543 44.7012ZM43.9941 37.5723L43.0183 37.7907L43.0198 37.7977L43.0215 37.8045L43.9941 37.5723ZM42.9199 32.7871L43.8954 32.5668L43.7193 31.7871H42.9199V32.7871ZM42.4805 32.7871V31.7871H41.6811L41.505 32.5668L42.4805 32.7871ZM39.7461 44.7012L38.7737 44.4673L38.7711 44.479L39.7461 44.7012ZM38.0859 51.9766L39.0601 52.2025L39.0608 52.1994L38.0859 51.9766ZM36.9141 57.1035L37.8881 57.33L37.8902 57.3204L36.9141 57.1035ZM32.5195 76V77H33.3137L33.4935 76.2265L32.5195 76ZM16.5039 76L15.5421 76.2736L15.7487 77H16.5039V76ZM0.976562 21.4102V20.4102H-0.347539L0.0147146 21.6837L0.976562 21.4102ZM15.8203 21.4102L16.788 21.158L16.5931 20.4102H15.8203V21.4102ZM22.1191 45.5801L23.0893 45.3375L23.0868 45.3279L22.1191 45.5801ZM23.3398 51.6348L22.3534 51.7992L22.3538 51.8014L23.3398 51.6348ZM24.3652 58.373L23.3741 58.5062L23.3753 58.5145L23.3765 58.5229L24.3652 58.373ZM25.0977 63.5L24.1058 63.6272L24.2177 64.5H25.0977V63.5ZM25.4883 63.5V64.5H26.4217L26.4859 63.5688L25.4883 63.5ZM25.8789 59.7402L24.8894 59.5959L24.8879 59.606L24.8866 59.6162L25.8789 59.7402ZM26.6113 54.9062L25.626 54.7357L25.6246 54.7435L25.6234 54.7513L26.6113 54.9062ZM27.3926 50.3652L26.4102 50.1781L26.4085 50.1875L26.4068 50.1969L27.3926 50.3652ZM27.9785 47.582L28.9448 47.8397L28.9469 47.8314L27.9785 47.582ZM34.7168 21.4102V20.4102H33.9416L33.7484 21.1608L34.7168 21.4102ZM51.123 21.4102L52.0945 21.1727L51.9081 20.4102H51.123V21.4102ZM57.5195 47.582L58.4916 47.3474L58.4909 47.3446L57.5195 47.582ZM58.3984 52.0742L57.4133 52.2462L57.4147 52.2538L57.4161 52.2613L58.3984 52.0742ZM59.4238 58.4219L58.4327 58.555L58.433 58.557L59.4238 58.4219ZM59.9121 63.5L58.9125 63.5263L58.9381 64.5H59.9121V63.5ZM60.3027 63.5V64.5H61.192L61.2959 63.6168L60.3027 63.5ZM62.1094 51.7324L61.1267 51.5465L61.1249 51.5571L62.1094 51.7324ZM63.4766 45.5801L62.5113 45.3188L62.5109 45.3201L63.4766 45.5801ZM70.0195 21.4102V20.4102H69.2542L69.0543 21.1489L70.0195 21.4102ZM84.6191 21.4102L85.5801 21.6869L85.9478 20.4102H84.6191V21.4102ZM68.8965 76V77H69.6491L69.8574 76.2768L68.8965 76ZM53.6622 75.7852L49.463 56.6934L47.5097 57.123L51.7089 76.2148L53.6622 75.7852ZM49.4669 56.7121C49.2356 55.5558 48.8582 53.8661 48.3367 51.6499L46.3899 52.1079C46.9101 54.3188 47.2813 55.982 47.5057 57.1043L49.4669 56.7121ZM48.3374 51.653C47.8157 49.4029 47.2451 47.0067 46.6259 44.4645L44.6827 44.9378C45.3004 47.4738 45.8692 49.8627 46.3891 52.1048L48.3374 51.653ZM46.6293 44.479C46.0427 41.9046 45.4886 39.5249 44.9668 37.34L43.0215 37.8045C43.5414 39.9816 44.094 42.3545 44.6793 44.9233L46.6293 44.479ZM44.97 37.3538C44.4817 35.1727 44.1234 33.5769 43.8954 32.5668L41.9445 33.0074C42.1721 34.0155 42.53 35.6098 43.0183 37.7907L44.97 37.3538ZM42.9199 31.7871H42.4805V33.7871H42.9199V31.7871ZM41.505 32.5668C41.2769 33.5769 40.9187 35.1727 40.4304 37.3538L42.3821 37.7907C42.8704 35.6098 43.2283 34.0155 43.4559 33.0074L41.505 32.5668ZM40.4304 37.3538C39.9435 39.5288 39.3913 41.8999 38.7738 44.4673L40.7184 44.935C41.3379 42.3592 41.8925 39.9777 42.3821 37.7907L40.4304 37.3538ZM38.7711 44.479C38.1852 47.0504 37.6319 49.4753 37.1111 51.7537L39.0608 52.1994C39.5817 49.9205 40.1351 47.4951 40.7211 44.9233L38.7711 44.479ZM37.1118 51.7507C36.5908 53.9976 36.1993 55.7101 35.9379 56.8866L37.8902 57.3204C38.1496 56.1531 38.5394 54.4477 39.0601 52.2025L37.1118 51.7507ZM35.9401 56.877L31.5455 75.7735L33.4935 76.2265L37.8881 57.33L35.9401 56.877ZM32.5195 75H16.5039V77H32.5195V75ZM17.4658 75.7264L1.93841 21.1366L0.0147146 21.6837L15.5421 76.2736L17.4658 75.7264ZM0.976562 22.4102H15.8203V20.4102H0.976562V22.4102ZM14.8526 21.6623L21.1515 45.8323L23.0868 45.3279L16.788 21.158L14.8526 21.6623ZM21.149 45.8226C21.5639 47.4822 21.9658 49.473 22.3534 51.7992L24.3262 51.4704C23.9327 49.109 23.5207 47.0634 23.0893 45.3375L21.149 45.8226ZM22.3538 51.8014C22.7427 54.1022 23.0828 56.3371 23.3741 58.5062L25.3563 58.2399C25.0618 56.047 24.7182 53.7897 24.3259 51.4681L22.3538 51.8014ZM23.3765 58.5229C23.7016 60.6682 23.9444 62.3686 24.1058 63.6272L26.0895 63.3728C25.9254 62.0923 25.6799 60.3748 25.3539 58.2232L23.3765 58.5229ZM25.0977 64.5H25.4883V62.5H25.0977V64.5ZM26.4859 63.5688C26.5492 62.6513 26.6769 61.4187 26.8712 59.8643L24.8866 59.6162C24.6903 61.1868 24.5576 62.4607 24.4907 63.4312L26.4859 63.5688ZM26.8684 59.8845C27.0958 58.3258 27.3394 56.718 27.5992 55.0612L25.6234 54.7513C25.3625 56.4148 25.1178 58.0297 24.8894 59.5959L26.8684 59.8845ZM27.5967 55.0768C27.8897 53.3835 28.1503 51.8691 28.3783 50.5335L26.4068 50.1969C26.1791 51.5307 25.9188 53.0436 25.626 54.7357L27.5967 55.0768ZM28.3749 50.5523C28.636 49.1815 28.8252 48.2879 28.9448 47.8397L27.0123 47.3244C26.8714 47.8527 26.67 48.8146 26.4102 50.1781L28.3749 50.5523ZM28.9469 47.8314L35.6852 21.6595L33.7484 21.1608L27.0101 47.3327L28.9469 47.8314ZM34.7168 22.4102H51.123V20.4102H34.7168V22.4102ZM50.1516 21.6476L56.5481 47.8194L58.4909 47.3446L52.0945 21.1727L50.1516 21.6476ZM56.5474 47.8167C56.7673 48.7276 57.0558 50.1984 57.4133 52.2462L59.3835 51.9022C59.0249 49.8485 58.7275 48.3245 58.4916 47.3474L56.5474 47.8167ZM57.4161 52.2613C57.8031 54.2933 58.1421 56.3911 58.4327 58.555L60.4149 58.2887C60.1197 56.0906 59.775 53.9567 59.3808 51.8871L57.4161 52.2613ZM58.433 58.557C58.7241 60.6918 58.8813 62.3429 58.9125 63.5263L60.9118 63.4737C60.8778 62.1831 60.7095 60.4488 60.4147 58.2868L58.433 58.557ZM59.9121 64.5H60.3027V62.5H59.9121V64.5ZM61.2959 63.6168C61.4242 62.526 61.6502 60.8946 61.9754 58.716L59.9973 58.4207C59.6714 60.6041 59.4417 62.2605 59.3096 63.3832L61.2959 63.6168ZM61.9754 58.716C62.2994 56.5451 62.6722 54.2757 63.0939 51.9077L61.1249 51.5571C60.7002 53.9418 60.3243 56.2297 59.9973 58.4207L61.9754 58.716ZM63.0919 51.9183C63.5447 49.5254 63.995 47.5008 64.4422 45.8401L62.5109 45.3201C62.0466 47.0447 61.5855 49.1217 61.1268 51.5465L63.0919 51.9183ZM64.4418 45.8414L70.9848 21.6715L69.0543 21.1489L62.5113 45.3188L64.4418 45.8414ZM70.0195 22.4102H84.6191V20.4102H70.0195V22.4102ZM83.6582 21.1334L67.9355 75.7232L69.8574 76.2768L85.5801 21.6869L83.6582 21.1334ZM68.8965 75H52.6855V77H68.8965V75ZM129.004 23.3145L128.532 24.196L128.538 24.1992L129.004 23.3145ZM137.451 31.7129L136.571 32.1879L137.451 31.7129ZM140.43 52.416V53.416H141.43V52.416H140.43ZM105.225 52.416V51.416H104.185L104.225 52.4547L105.225 52.416ZM108.984 62.3281L108.268 63.0255L108.277 63.0352L108.984 62.3281ZM137.354 61.5957H138.354V60.0235L136.93 60.69L137.354 61.5957ZM137.354 73.1191L137.796 74.0157L138.354 73.7405V73.1191H137.354ZM128.857 76.0488L128.653 75.0699L128.651 75.0704L128.857 76.0488ZM103.613 73.9492L103.18 74.8505L103.183 74.8518L103.613 73.9492ZM93.7012 64.7207L92.8342 65.2191L92.8371 65.2242L93.7012 64.7207ZM93.3594 33.1777L92.4691 32.7224L92.4677 32.725L93.3594 33.1777ZM102.441 23.6074L102.921 24.4851L102.926 24.4819L102.441 23.6074ZM108.838 33.7637L108.143 33.0445L108.137 33.0504L108.838 33.7637ZM105.566 42.5039L104.569 42.4303L104.49 43.5039H105.566V42.5039ZM126.465 42.5039V43.5039H127.48L127.465 42.4892L126.465 42.5039ZM125.244 36.5957L124.327 36.9938L124.33 37.001L124.333 37.0082L125.244 36.5957ZM121.826 32.4941L121.267 33.3234L121.276 33.3289L121.826 32.4941ZM115.967 21.3848C120.883 21.3848 125.06 22.336 128.532 24.1959L129.476 22.433C125.656 20.3867 121.141 19.3848 115.967 19.3848V21.3848ZM128.538 24.1992C132.005 26.0259 134.678 28.6815 136.571 32.1879L138.331 31.2379C136.253 27.3875 133.294 24.4442 129.47 22.4297L128.538 24.1992ZM136.571 32.1879C138.46 35.6862 139.43 40.0056 139.43 45.1895H141.43C141.43 39.7613 140.414 35.0963 138.331 31.2379L136.571 32.1879ZM139.43 45.1895V52.416H141.43V45.1895H139.43ZM140.43 51.416H105.225V53.416H140.43V51.416ZM104.225 52.4547C104.395 56.8366 105.711 60.3983 108.268 63.0255L109.701 61.6308C107.57 59.4403 106.38 56.3939 106.224 52.3773L104.225 52.4547ZM108.277 63.0352C110.885 65.6433 114.453 66.8926 118.848 66.8926V64.8926C114.844 64.8926 111.836 63.7655 109.691 61.621L108.277 63.0352ZM118.848 66.8926C122.399 66.8926 125.671 66.5276 128.658 65.7891L128.178 63.8476C125.371 64.5414 122.263 64.8926 118.848 64.8926V66.8926ZM128.658 65.7891C131.626 65.0555 134.666 63.9578 137.777 62.5014L136.93 60.69C133.921 62.0982 131.004 63.149 128.178 63.8476L128.658 65.7891ZM136.354 61.5957V73.1191H138.354V61.5957H136.354ZM136.911 72.2226C134.285 73.5196 131.533 74.4686 128.653 75.0699L129.062 77.0277C132.106 76.392 135.019 75.3879 137.796 74.0157L136.911 72.2226ZM128.651 75.0704C125.81 75.6701 122.319 75.9766 118.164 75.9766V77.9766C122.407 77.9766 126.045 77.6645 129.064 77.0273L128.651 75.0704ZM118.164 75.9766C112.82 75.9766 108.12 74.9909 104.044 73.0466L103.183 74.8518C107.57 76.944 112.571 77.9766 118.164 77.9766V75.9766ZM104.046 73.0479C100.032 71.1187 96.8763 68.1836 94.5652 64.2173L92.8371 65.2242C95.3437 69.526 98.7956 72.7433 103.18 74.8505L104.046 73.0479ZM94.5682 64.2224C92.3024 60.2806 91.1367 55.2573 91.1367 49.0957H89.1367C89.1367 55.4993 90.3473 60.8926 92.8342 65.219L94.5682 64.2224ZM91.1367 49.0957C91.1367 42.8211 92.194 37.6821 94.251 33.6304L92.4677 32.725C90.2279 37.1369 89.1367 42.6099 89.1367 49.0957H91.1367ZM94.2497 33.6331C96.3474 29.5316 99.2385 26.4964 102.921 24.485L101.962 22.7298C97.897 24.9502 94.7334 28.2952 92.4691 32.7224L94.2497 33.6331ZM102.926 24.4819C106.629 22.4282 110.966 21.3848 115.967 21.3848V19.3848C110.681 19.3848 106.001 20.4898 101.956 22.7329L102.926 24.4819ZM116.064 29.9805C112.932 29.9805 110.267 30.9928 108.143 33.0445L109.533 34.4829C111.25 32.8236 113.402 31.9805 116.064 31.9805V29.9805ZM108.137 33.0504C106.007 35.144 104.871 38.3351 104.569 42.4303L106.564 42.5775C106.848 38.73 107.893 36.0943 109.539 34.4769L108.137 33.0504ZM105.566 43.5039H126.465V41.5039H105.566V43.5039ZM127.465 42.4892C127.431 40.1613 127.002 38.0529 126.155 36.1832L124.333 37.0082C125.049 38.5891 125.434 40.4194 125.465 42.5186L127.465 42.4892ZM126.161 36.1976C125.338 34.2992 124.073 32.7783 122.377 31.6594L121.276 33.3289C122.639 34.2282 123.653 35.4417 124.327 36.9938L126.161 36.1976ZM122.385 31.6649C120.68 30.5156 118.549 29.9805 116.064 29.9805V31.9805C118.268 31.9805 119.978 32.4544 121.267 33.3234L122.385 31.6649ZM167.432 0.0234375H168.432V-0.976562H167.432V0.0234375ZM167.236 23.8027L166.238 23.7384L166.238 23.7464L166.237 23.7544L167.236 23.8027ZM166.846 28.4902L165.856 28.3447L165.688 29.4902H166.846V28.4902ZM167.432 28.4902V29.4902H167.98L168.275 29.0279L167.432 28.4902ZM173.291 22.7773L173.825 23.6229L173.833 23.6178L173.291 22.7773ZM200.879 64.2812L201.801 64.6674L201.802 64.6649L200.879 64.2812ZM193.506 73.8027L194.063 74.6335L194.068 74.6295L193.506 73.8027ZM167.432 69.9941L168.213 69.3694L167.912 68.9941H167.432V69.9941ZM166.406 69.9941V68.9941H165.738L165.483 69.6111L166.406 69.9941ZM163.916 76V77H164.584L164.84 76.383L163.916 76ZM152.539 76H151.539V77H152.539V76ZM152.539 0.0234375V-0.976562H151.539V0.0234375H152.539ZM168.555 38.7441L167.606 38.4279L167.602 38.4409L168.555 38.7441ZM167.432 46.8984L166.432 46.8786L166.432 46.8885V46.8984H167.432ZM169.775 60.7168L168.9 61.1999L168.902 61.2042L169.775 60.7168ZM185.596 60.668L184.755 60.1267L184.75 60.1336L185.596 60.668ZM166.432 0.0234375V17.6992H168.432V0.0234375H166.432ZM166.432 17.6992C166.432 19.7288 166.367 21.7419 166.238 23.7384L168.234 23.8671C168.366 21.8272 168.432 19.7712 168.432 17.6992H166.432ZM166.237 23.7544C166.14 25.7615 166.012 27.2861 165.856 28.3447L167.835 28.6357C168.005 27.4809 168.137 25.8804 168.235 23.8511L166.237 23.7544ZM166.846 29.4902H167.432V27.4902H166.846V29.4902ZM168.275 29.0279C169.62 26.9177 171.463 25.1146 173.825 23.6228L172.757 21.9319C170.171 23.5651 168.107 25.5706 166.588 27.9526L168.275 29.0279ZM173.833 23.6178C176.099 22.1566 179.1 21.3848 182.91 21.3848V19.3848C178.843 19.3848 175.431 20.208 172.749 21.9369L173.833 23.6178ZM182.91 21.3848C188.726 21.3848 193.402 23.6386 197.02 28.1852L198.585 26.9398C194.587 21.916 189.334 19.3848 182.91 19.3848V21.3848ZM197.02 28.1852C200.632 32.7229 202.516 39.4784 202.516 48.6074H204.516C204.516 39.2469 202.591 31.9724 198.585 26.9398L197.02 28.1852ZM202.516 48.6074C202.516 54.7374 201.648 59.8225 199.955 63.8976L201.802 64.6649C203.625 60.2765 204.516 54.9124 204.516 48.6074H202.516ZM199.956 63.8951C198.259 67.9505 195.912 70.9559 192.943 72.976L194.068 74.6295C197.415 72.3527 199.983 69.0104 201.801 64.6674L199.956 63.8951ZM192.949 72.972C189.972 74.967 186.508 75.9766 182.52 75.9766V77.9766C186.865 77.9766 190.725 76.8703 194.063 74.6335L192.949 72.972ZM182.52 75.9766C178.619 75.9766 175.669 75.2765 173.574 73.9781L172.52 75.6781C175.047 77.2444 178.412 77.9766 182.52 77.9766V75.9766ZM173.574 73.9781C171.342 72.595 169.562 71.0559 168.213 69.3694L166.651 70.6188C168.166 72.5131 170.13 74.1967 172.52 75.6781L173.574 73.9781ZM167.432 68.9941H166.406V70.9941H167.432V68.9941ZM165.483 69.6111L162.992 75.617L164.84 76.383L167.33 70.3772L165.483 69.6111ZM163.916 75H152.539V77H163.916V75ZM153.539 76V0.0234375H151.539V76H153.539ZM152.539 1.02344H167.432V-0.976562H152.539V1.02344ZM178.125 31.2988C175.394 31.2988 173.102 31.8611 171.349 33.0917L172.498 34.7286C173.806 33.8108 175.648 33.2988 178.125 33.2988V31.2988ZM171.349 33.0917C169.61 34.3132 168.375 36.1203 167.606 38.4279L169.503 39.0604C170.166 37.0711 171.178 35.6556 172.498 34.7286L171.349 33.0917ZM167.602 38.4409C166.879 40.7126 166.498 43.5345 166.432 46.8786L168.431 46.9182C168.495 43.6869 168.863 41.0726 169.508 39.0473L167.602 38.4409ZM166.432 46.8984V48.5098H168.432V46.8984H166.432ZM166.432 48.5098C166.432 53.8885 167.219 58.1539 168.9 61.1999L170.651 60.2337C169.207 57.6157 168.432 53.7431 168.432 48.5098H166.432ZM168.902 61.2042C170.694 64.4138 173.945 65.916 178.32 65.916V63.916C174.427 63.916 171.982 62.6188 170.649 60.2294L168.902 61.2042ZM178.32 65.916C181.76 65.916 184.488 64.2914 186.441 61.2023L184.75 60.1336C183.123 62.7086 181 63.916 178.32 63.916V65.916ZM186.437 61.2092C188.408 58.147 189.33 53.8399 189.33 48.4121H187.33C187.33 53.6614 186.43 57.5249 184.755 60.1267L186.437 61.2092ZM189.33 48.4121C189.33 42.9895 188.41 38.7343 186.425 35.7923L184.767 36.9109C186.428 39.3725 187.33 43.1576 187.33 48.4121H189.33ZM186.425 35.7923C184.423 32.8255 181.628 31.2988 178.125 31.2988V33.2988C180.938 33.2988 183.123 34.4739 184.767 36.9109L186.425 35.7923ZM251.27 69.2129L250.444 68.6486L250.442 68.6509L251.27 69.2129ZM243.506 75.0234L243.859 75.9591L243.867 75.9561L243.506 75.0234ZM220.801 76.2441L220.623 77.2282L220.625 77.2286L220.801 76.2441ZM212.598 73.8027H211.598V74.4724L212.217 74.7274L212.598 73.8027ZM212.598 61.498L213.008 60.5863L211.598 59.9507V61.498H212.598ZM222.119 64.8184L221.868 65.7863L221.879 65.789L222.119 64.8184ZM237.305 64.8184L237.869 65.6437L237.874 65.6406L237.305 64.8184ZM238.428 58.959L237.59 59.5053L237.604 59.5266L237.619 59.5472L238.428 58.959ZM235.205 56.4688L234.711 57.338L234.717 57.3417L234.724 57.3453L235.205 56.4688ZM227.393 52.8066L227.781 51.8853L227.779 51.8843L227.393 52.8066ZM218.945 48.4609L218.388 49.2911L218.393 49.2949L218.945 48.4609ZM214.062 43.2852L213.174 43.7438L213.178 43.7524L213.183 43.761L214.062 43.2852ZM218.359 24.2422L218.904 25.0806L218.906 25.0795L218.359 24.2422ZM243.799 21.4102L243.581 22.3861L243.583 22.3866L243.799 21.4102ZM253.32 24.6816L254.243 25.0674L254.615 24.1767L253.738 23.7732L253.32 24.6816ZM248.828 35.4238L248.43 36.3412L249.36 36.7444L249.751 35.8096L248.828 35.4238ZM241.162 32.543L240.862 33.4968L240.865 33.4979L241.162 32.543ZM228.125 37.3281L227.348 37.9573L227.357 37.9682L227.366 37.9789L228.125 37.3281ZM231.445 39.623L230.984 40.5103L230.994 40.5157L231.005 40.521L231.445 39.623ZM238.721 42.7969L239.1 41.8718L239.099 41.871L238.721 42.7969ZM246.777 46.8008L246.254 47.6529L246.263 47.6583L246.777 46.8008ZM252.051 51.9277L251.194 52.4442L251.198 52.4503L252.051 51.9277ZM252.906 59.7891C252.906 63.3379 252.068 66.2729 250.444 68.6486L252.095 69.7772C253.987 67.0096 254.906 63.6621 254.906 59.7891H252.906ZM250.442 68.6509C248.853 70.9899 246.446 72.8141 243.145 74.0908L243.867 75.9561C247.467 74.5635 250.235 72.514 252.097 69.7749L250.442 68.6509ZM243.153 74.0878C239.85 75.3341 235.682 75.9766 230.615 75.9766V77.9766C235.835 77.9766 240.261 77.3169 243.859 75.959L243.153 74.0878ZM230.615 75.9766C226.846 75.9766 223.636 75.7346 220.977 75.2597L220.625 77.2286C223.434 77.7302 226.768 77.9766 230.615 77.9766V75.9766ZM220.979 75.2601C218.352 74.7854 215.686 73.9929 212.978 72.8781L212.217 74.7274C215.043 75.8913 217.846 76.7263 220.623 77.2282L220.979 75.2601ZM213.598 73.8027V61.498H211.598V73.8027H213.598ZM212.187 62.4098C215.204 63.7693 218.432 64.8942 221.868 65.7863L222.37 63.8504C219.036 62.9847 215.915 61.8961 213.008 60.5863L212.187 62.4098ZM221.879 65.789C225.349 66.6483 228.427 67.0879 231.104 67.0879V65.0879C228.636 65.0879 225.726 64.6812 222.36 63.8477L221.879 65.789ZM231.104 67.0879C234.044 67.0879 236.371 66.6688 237.869 65.6437L236.74 63.9931C235.764 64.6607 233.957 65.0879 231.104 65.0879V67.0879ZM237.874 65.6406C239.381 64.5974 240.209 63.166 240.209 61.4004H238.209C238.209 62.4343 237.768 63.2815 236.735 63.9962L237.874 65.6406ZM240.209 61.4004C240.209 60.2842 239.885 59.2632 239.236 58.3708L237.619 59.5472C238.012 60.0871 238.209 60.6936 238.209 61.4004H240.209ZM239.265 58.4127C238.632 57.4417 237.364 56.513 235.686 55.5922L234.724 57.3453C236.367 58.2474 237.247 58.9789 237.59 59.5053L239.265 58.4127ZM235.699 55.5995C233.986 54.6252 231.337 53.3859 227.781 51.8853L227.004 53.728C230.544 55.2221 233.104 56.4243 234.711 57.338L235.699 55.5995ZM227.779 51.8843C224.398 50.4675 221.643 49.0467 219.497 47.627L218.393 49.2949C220.675 50.8048 223.551 52.2812 227.006 53.7289L227.779 51.8843ZM219.503 47.6308C217.434 46.2414 215.927 44.6309 214.942 42.8093L213.183 43.761C214.346 45.9108 216.094 47.7508 218.388 49.2911L219.503 47.6308ZM214.951 42.8265C214.004 40.9919 213.5 38.6069 213.5 35.6191H211.5C211.5 38.8163 212.037 41.5419 213.174 43.7438L214.951 42.8265ZM213.5 35.6191C213.5 30.8786 215.309 27.4177 218.904 25.0806L217.814 23.4037C213.597 26.1448 211.5 30.2685 211.5 35.6191H213.5ZM218.906 25.0795C222.63 22.6484 227.675 21.3848 234.131 21.3848V19.3848C227.435 19.3848 221.967 20.6927 217.813 23.4049L218.906 25.0795ZM234.131 21.3848C237.449 21.3848 240.598 21.7197 243.581 22.3861L244.017 20.4342C240.88 19.7334 237.584 19.3848 234.131 19.3848V21.3848ZM243.583 22.3866C246.597 23.0529 249.704 24.1187 252.902 25.5901L253.738 23.7732C250.427 22.2498 247.185 21.1346 244.015 20.4337L243.583 22.3866ZM252.398 24.2958L247.906 35.038L249.751 35.8096L254.243 25.0674L252.398 24.2958ZM249.226 34.5064C246.497 33.3225 243.907 32.349 241.459 31.588L240.865 33.4979C243.235 34.2343 245.756 35.1814 248.43 36.3412L249.226 34.5064ZM241.463 31.5892C238.99 30.8101 236.463 30.4199 233.887 30.4199V32.4199C236.258 32.4199 238.582 32.7785 240.862 33.4967L241.463 31.5892ZM233.887 30.4199C231.647 30.4199 229.809 30.7155 228.487 31.415L229.423 33.1826C230.315 32.7103 231.764 32.4199 233.887 32.4199V30.4199ZM228.487 31.415C227.807 31.7753 227.246 32.2586 226.859 32.8838C226.472 33.5112 226.295 34.2238 226.295 34.9844H228.295C228.295 34.5405 228.395 34.2033 228.561 33.9355C228.727 33.6656 228.997 33.4083 229.423 33.1826L228.487 31.415ZM226.295 34.9844C226.295 36.0925 226.65 37.0958 227.348 37.9573L228.902 36.6989C228.493 36.1932 228.295 35.6341 228.295 34.9844H226.295ZM227.366 37.9789C228.083 38.8161 229.336 39.6533 230.984 40.5103L231.907 38.7358C230.299 37.9001 229.339 37.2073 228.884 36.6773L227.366 37.9789ZM231.005 40.521C232.696 41.3499 235.146 42.418 238.343 43.7227L239.099 41.871C235.915 40.5716 233.515 39.5238 231.885 38.7251L231.005 40.521ZM238.341 43.722C241.395 44.9759 244.031 46.2872 246.254 47.6529L247.301 45.9487C244.967 44.5149 242.231 43.1569 239.1 41.8718L238.341 43.722ZM246.263 47.6583C248.417 48.9508 250.051 50.5481 251.194 52.4442L252.907 51.4112C251.577 49.2058 249.695 47.3852 247.292 45.9433L246.263 47.6583ZM251.198 52.4503C252.31 54.2642 252.906 56.6865 252.906 59.7891H254.906C254.906 56.4463 254.266 53.6277 252.903 51.4052L251.198 52.4503ZM280.42 21.4102H281.42V20.4102H280.42V21.4102ZM280.42 76V77H281.42V76H280.42ZM265.527 76H264.527V77H265.527V76ZM265.527 21.4102V20.4102H264.527V21.4102H265.527ZM278.711 1.58594L278.164 2.42321L278.17 2.42716L278.176 2.43102L278.711 1.58594ZM278.711 13.0605L279.258 13.8978L279.264 13.8939L279.27 13.89L278.711 13.0605ZM267.236 13.0605L266.67 13.8846L266.68 13.8913L266.69 13.8978L267.236 13.0605ZM267.236 1.58594L267.779 2.42599L267.783 2.42321L267.236 1.58594ZM279.42 21.4102V76H281.42V21.4102H279.42ZM280.42 75H265.527V77H280.42V75ZM266.527 76V21.4102H264.527V76H266.527ZM265.527 22.4102H280.42V20.4102H265.527V22.4102ZM272.998 1.02344C275.05 1.02344 276.757 1.50404 278.164 2.42321L279.258 0.748667C277.475 -0.415501 275.374 -0.976562 272.998 -0.976562V1.02344ZM278.176 2.43102C279.358 3.17854 280.104 4.66428 280.104 7.29883H282.104C282.104 4.33441 281.254 2.01156 279.246 0.740859L278.176 2.43102ZM280.104 7.29883C280.104 9.88995 279.363 11.4159 278.152 12.2311L279.27 13.89C281.249 12.5567 282.104 10.2416 282.104 7.29883H280.104ZM278.164 12.2233C276.757 13.1424 275.05 13.623 272.998 13.623V15.623C275.374 15.623 277.475 15.062 279.258 13.8978L278.164 12.2233ZM272.998 13.623C270.911 13.623 269.188 13.1409 267.783 12.2233L266.69 13.8978C268.474 15.0635 270.593 15.623 272.998 15.623V13.623ZM267.803 12.2365C266.622 11.4245 265.893 9.89746 265.893 7.29883H263.893C263.893 10.2341 264.726 12.5481 266.67 13.8846L267.803 12.2365ZM265.893 7.29883C265.893 4.65651 266.627 3.17003 267.779 2.42598L266.694 0.745898C264.721 2.02007 263.893 4.34219 263.893 7.29883H265.893ZM267.783 2.42321C269.188 1.50555 270.911 1.02344 272.998 1.02344V-0.976562C270.593 -0.976562 268.474 -0.417013 266.69 0.748667L267.783 2.42321ZM323.828 64.623L323.624 63.6441L323.62 63.6449L323.828 64.623ZM328.467 63.4023H329.467V62.0335L328.163 62.4497L328.467 63.4023ZM328.467 74.4863L328.876 75.3986L329.467 75.1335V74.4863H328.467ZM322.51 76.2441L322.321 75.262L322.314 75.2635L322.306 75.2652L322.51 76.2441ZM306.006 75.4141L305.62 76.3368L305.627 76.3397L305.634 76.3425L306.006 75.4141ZM299.902 69.8965L299.028 70.3821L299.032 70.3886L299.035 70.395L299.902 69.8965ZM297.705 32.5918H298.705V31.5918H297.705V32.5918ZM290.576 32.5918H289.576V33.5918H290.576V32.5918ZM290.576 26.293L290.057 25.4382L289.576 25.7302V26.293H290.576ZM298.779 21.3125L299.298 22.1673L299.595 21.9871L299.716 21.6619L298.779 21.3125ZM303.076 9.78906V8.78906H302.382L302.139 9.43968L303.076 9.78906ZM312.598 9.78906H313.598V8.78906H312.598V9.78906ZM312.598 21.4102H311.598V22.4102H312.598V21.4102ZM327.881 21.4102H328.881V20.4102H327.881V21.4102ZM327.881 32.5918V33.5918H328.881V32.5918H327.881ZM312.598 32.5918V31.5918H311.598V32.5918H312.598ZM314.355 63.5977L313.691 64.3451L313.702 64.3548L313.713 64.3642L314.355 63.5977ZM319.092 66.1113C320.787 66.1113 322.435 65.9418 324.036 65.6012L323.62 63.6449C322.161 63.9553 320.652 64.1113 319.092 64.1113V66.1113ZM324.032 65.602C325.629 65.2694 327.208 64.8537 328.771 64.355L328.163 62.4497C326.665 62.9275 325.153 63.3256 323.624 63.6441L324.032 65.602ZM327.467 63.4023V74.4863H329.467V63.4023H327.467ZM328.057 73.5741C326.554 74.2489 324.648 74.8158 322.321 75.262L322.698 77.2262C325.124 76.761 327.189 76.156 328.876 75.3986L328.057 73.5741ZM322.306 75.2652C320.039 75.7374 317.537 75.9766 314.795 75.9766V77.9766C317.652 77.9766 320.293 77.7275 322.714 77.2231L322.306 75.2652ZM314.795 75.9766C311.647 75.9766 308.846 75.4731 306.377 74.4856L305.634 76.3425C308.374 77.4384 311.433 77.9766 314.795 77.9766V75.9766ZM306.391 74.4913C304.039 73.5086 302.166 71.8275 300.769 69.398L299.035 70.395C300.633 73.1738 302.83 75.1711 305.62 76.3368L306.391 74.4913ZM300.777 69.4108C299.428 66.9829 298.705 63.5134 298.705 58.9102H296.705C296.705 63.6819 297.447 67.5366 299.028 70.3821L300.777 69.4108ZM298.705 58.9102V32.5918H296.705V58.9102H298.705ZM297.705 31.5918H290.576V33.5918H297.705V31.5918ZM291.576 32.5918V26.293H289.576V32.5918H291.576ZM291.095 27.1478L299.298 22.1673L298.26 20.4577L290.057 25.4382L291.095 27.1478ZM299.716 21.6619L304.013 10.1384L302.139 9.43968L297.842 20.9631L299.716 21.6619ZM303.076 10.7891H312.598V8.78906H303.076V10.7891ZM311.598 9.78906V21.4102H313.598V9.78906H311.598ZM312.598 22.4102H327.881V20.4102H312.598V22.4102ZM326.881 21.4102V32.5918H328.881V21.4102H326.881ZM327.881 31.5918H312.598V33.5918H327.881V31.5918ZM311.598 32.5918V58.9102H313.598V32.5918H311.598ZM311.598 58.9102C311.598 61.1801 312.242 63.0565 313.691 64.3451L315.02 62.8502C314.126 62.0554 313.598 60.8068 313.598 58.9102H311.598ZM313.713 64.3642C315.138 65.558 316.963 66.1113 319.092 66.1113V64.1113C317.315 64.1113 315.982 63.6555 314.998 62.8311L313.713 64.3642ZM375.098 23.3145L374.625 24.196L374.632 24.1992L375.098 23.3145ZM383.545 31.7129L382.665 32.1879L383.545 31.7129ZM386.523 52.416V53.416H387.523V52.416H386.523ZM351.318 52.416V51.416H350.279L350.319 52.4547L351.318 52.416ZM355.078 62.3281L354.361 63.0255L354.371 63.0352L355.078 62.3281ZM383.447 61.5957H384.447V60.0235L383.023 60.69L383.447 61.5957ZM383.447 73.1191L383.89 74.0157L384.447 73.7405V73.1191H383.447ZM374.951 76.0488L374.747 75.0699L374.745 75.0704L374.951 76.0488ZM349.707 73.9492L349.274 74.8505L349.277 74.8518L349.707 73.9492ZM339.795 64.7207L338.928 65.2191L338.931 65.2242L339.795 64.7207ZM339.453 33.1777L338.563 32.7224L338.561 32.725L339.453 33.1777ZM348.535 23.6074L349.015 24.4851L349.02 24.4819L348.535 23.6074ZM354.932 33.7637L354.237 33.0445L354.231 33.0504L354.932 33.7637ZM351.66 42.5039L350.663 42.4303L350.584 43.5039H351.66V42.5039ZM372.559 42.5039V43.5039H373.573L373.558 42.4892L372.559 42.5039ZM371.338 36.5957L370.421 36.9938L370.424 37.001L370.427 37.0082L371.338 36.5957ZM367.92 32.4941L367.361 33.3234L367.369 33.3289L367.92 32.4941ZM362.061 21.3848C366.977 21.3848 371.153 22.336 374.625 24.1959L375.57 22.433C371.75 20.3867 367.235 19.3848 362.061 19.3848V21.3848ZM374.632 24.1992C378.099 26.0259 380.772 28.6815 382.665 32.1879L384.425 31.2379C382.346 27.3875 379.388 24.4442 375.564 22.4297L374.632 24.1992ZM382.665 32.1879C384.553 35.6862 385.523 40.0056 385.523 45.1895H387.523C387.523 39.7613 386.508 35.0963 384.425 31.2379L382.665 32.1879ZM385.523 45.1895V52.416H387.523V45.1895H385.523ZM386.523 51.416H351.318V53.416H386.523V51.416ZM350.319 52.4547C350.489 56.8366 351.805 60.3983 354.361 63.0255L355.795 61.6308C353.664 59.4403 352.473 56.3939 352.318 52.3773L350.319 52.4547ZM354.371 63.0352C356.979 65.6433 360.547 66.8926 364.941 66.8926V64.8926C360.937 64.8926 357.93 63.7655 355.785 61.621L354.371 63.0352ZM364.941 66.8926C368.492 66.8926 371.764 66.5276 374.752 65.7891L374.272 63.8476C371.465 64.5414 368.357 64.8926 364.941 64.8926V66.8926ZM374.752 65.7891C377.72 65.0555 380.76 63.9578 383.871 62.5014L383.023 60.69C380.015 62.0982 377.098 63.149 374.272 63.8476L374.752 65.7891ZM382.447 61.5957V73.1191H384.447V61.5957H382.447ZM383.004 72.2226C380.379 73.5196 377.627 74.4686 374.747 75.0699L375.156 77.0277C378.2 76.392 381.112 75.3879 383.89 74.0157L383.004 72.2226ZM374.745 75.0704C371.904 75.6701 368.413 75.9766 364.258 75.9766V77.9766C368.501 77.9766 372.139 77.6645 375.158 77.0273L374.745 75.0704ZM364.258 75.9766C358.913 75.9766 354.214 74.9909 350.138 73.0466L349.277 74.8518C353.663 76.944 358.665 77.9766 364.258 77.9766V75.9766ZM350.14 73.0479C346.126 71.1187 342.97 68.1836 340.659 64.2173L338.931 65.2242C341.437 69.526 344.889 72.7433 349.274 74.8505L350.14 73.0479ZM340.662 64.2224C338.396 60.2806 337.23 55.2573 337.23 49.0957H335.23C335.23 55.4993 336.441 60.8926 338.928 65.219L340.662 64.2224ZM337.23 49.0957C337.23 42.8211 338.288 37.6821 340.345 33.6304L338.561 32.725C336.322 37.1369 335.23 42.6099 335.23 49.0957H337.23ZM340.343 33.6331C342.441 29.5316 345.332 26.4964 349.015 24.485L348.056 22.7298C343.991 24.9502 340.827 28.2952 338.563 32.7224L340.343 33.6331ZM349.02 24.4819C352.723 22.4282 357.059 21.3848 362.061 21.3848V19.3848C356.775 19.3848 352.095 20.4898 348.05 22.7329L349.02 24.4819ZM362.158 29.9805C359.026 29.9805 356.361 30.9928 354.237 33.0445L355.626 34.4829C357.344 32.8236 359.496 31.9805 362.158 31.9805V29.9805ZM354.231 33.0504C352.1 35.144 350.965 38.3351 350.663 42.4303L352.657 42.5775C352.941 38.73 353.987 36.0943 355.633 34.4769L354.231 33.0504ZM351.66 43.5039H372.559V41.5039H351.66V43.5039ZM373.558 42.4892C373.524 40.1613 373.095 38.0529 372.249 36.1832L370.427 37.0082C371.143 38.5891 371.528 40.4194 371.559 42.5186L373.558 42.4892ZM372.255 36.1976C371.431 34.2992 370.167 32.7783 368.471 31.6594L367.369 33.3289C368.733 34.2282 369.747 35.4417 370.421 36.9938L372.255 36.1976ZM368.479 31.6649C366.773 30.5156 364.642 29.9805 362.158 29.9805V31.9805C364.362 31.9805 366.072 32.4544 367.361 33.3234L368.479 31.6649ZM434.082 69.2129L433.256 68.6486L433.255 68.6509L434.082 69.2129ZM426.318 75.0234L426.671 75.9591L426.679 75.9561L426.318 75.0234ZM403.613 76.2441L403.435 77.2282L403.437 77.2286L403.613 76.2441ZM395.41 73.8027H394.41V74.4724L395.029 74.7274L395.41 73.8027ZM395.41 61.498L395.821 60.5863L394.41 59.9507V61.498H395.41ZM404.932 64.8184L404.68 65.7863L404.691 65.789L404.932 64.8184ZM420.117 64.8184L420.682 65.6437L420.686 65.6406L420.117 64.8184ZM421.24 58.959L420.403 59.5053L420.417 59.5266L420.431 59.5472L421.24 58.959ZM418.018 56.4688L417.523 57.338L417.53 57.3417L417.536 57.3453L418.018 56.4688ZM410.205 52.8066L410.594 51.8853L410.592 51.8843L410.205 52.8066ZM401.758 48.4609L401.2 49.2911L401.206 49.2949L401.758 48.4609ZM396.875 43.2852L395.986 43.7438L395.991 43.7524L395.995 43.761L396.875 43.2852ZM401.172 24.2422L401.717 25.0806L401.719 25.0795L401.172 24.2422ZM426.611 21.4102L426.393 22.3861L426.395 22.3866L426.611 21.4102ZM436.133 24.6816L437.055 25.0674L437.428 24.1767L436.551 23.7732L436.133 24.6816ZM431.641 35.4238L431.243 36.3412L432.172 36.7444L432.563 35.8096L431.641 35.4238ZM423.975 32.543L423.674 33.4968L423.678 33.4979L423.975 32.543ZM410.938 37.3281L410.16 37.9573L410.169 37.9682L410.178 37.9789L410.938 37.3281ZM414.258 39.623L413.796 40.5103L413.807 40.5157L413.818 40.521L414.258 39.623ZM421.533 42.7969L421.913 41.8718L421.911 41.871L421.533 42.7969ZM429.59 46.8008L429.066 47.6529L429.075 47.6583L429.59 46.8008ZM434.863 51.9277L434.007 52.4442L434.011 52.4503L434.863 51.9277ZM435.719 59.7891C435.719 63.3379 434.88 66.2729 433.256 68.6486L434.908 69.7772C436.799 67.0096 437.719 63.6621 437.719 59.7891H435.719ZM433.255 68.6509C431.666 70.9899 429.258 72.8141 425.958 74.0908L426.679 75.9561C430.28 74.5635 433.048 72.514 434.909 69.7749L433.255 68.6509ZM425.965 74.0878C422.663 75.3341 418.494 75.9766 413.428 75.9766V77.9766C418.647 77.9766 423.073 77.3169 426.671 75.959L425.965 74.0878ZM413.428 75.9766C409.658 75.9766 406.449 75.7346 403.789 75.2597L403.437 77.2286C406.247 77.7302 409.58 77.9766 413.428 77.9766V75.9766ZM403.791 75.2601C401.165 74.7854 398.498 73.9929 395.791 72.8781L395.029 74.7274C397.856 75.8913 400.658 76.7263 403.435 77.2282L403.791 75.2601ZM396.41 73.8027V61.498H394.41V73.8027H396.41ZM394.999 62.4098C398.017 63.7693 401.244 64.8942 404.68 65.7863L405.183 63.8504C401.848 62.9847 398.728 61.8961 395.821 60.5863L394.999 62.4098ZM404.691 65.789C408.161 66.6483 411.24 67.0879 413.916 67.0879V65.0879C411.449 65.0879 408.538 64.6812 405.172 63.8477L404.691 65.789ZM413.916 67.0879C416.856 67.0879 419.184 66.6688 420.682 65.6437L419.553 63.9931C418.577 64.6607 416.77 65.0879 413.916 65.0879V67.0879ZM420.686 65.6406C422.193 64.5974 423.021 63.166 423.021 61.4004H421.021C421.021 62.4343 420.58 63.2815 419.548 63.9962L420.686 65.6406ZM423.021 61.4004C423.021 60.2842 422.698 59.2632 422.049 58.3708L420.431 59.5472C420.824 60.0871 421.021 60.6936 421.021 61.4004H423.021ZM422.078 58.4127C421.445 57.4417 420.176 56.513 418.499 55.5922L417.536 57.3453C419.179 58.2474 420.059 58.9789 420.403 59.5053L422.078 58.4127ZM418.512 55.5995C416.798 54.6252 414.15 53.3859 410.594 51.8853L409.816 53.728C413.357 55.2221 415.916 56.4243 417.523 57.338L418.512 55.5995ZM410.592 51.8843C407.211 50.4675 404.455 49.0467 402.31 47.627L401.206 49.2949C403.488 50.8048 406.364 52.2812 409.819 53.7289L410.592 51.8843ZM402.315 47.6308C400.247 46.2414 398.74 44.6309 397.755 42.8093L395.995 43.761C397.158 45.9108 398.907 47.7508 401.2 49.2911L402.315 47.6308ZM397.764 42.8265C396.817 40.9919 396.312 38.6069 396.312 35.6191H394.312C394.312 38.8163 394.85 41.5419 395.986 43.7438L397.764 42.8265ZM396.312 35.6191C396.312 30.8786 398.121 27.4177 401.717 25.0806L400.627 23.4037C396.41 26.1448 394.312 30.2685 394.312 35.6191H396.312ZM401.719 25.0795C405.442 22.6484 410.488 21.3848 416.943 21.3848V19.3848C410.248 19.3848 404.779 20.6927 400.625 23.4049L401.719 25.0795ZM416.943 21.3848C420.261 21.3848 423.41 21.7197 426.393 22.3861L426.829 20.4342C423.692 19.7334 420.396 19.3848 416.943 19.3848V21.3848ZM426.395 22.3866C429.41 23.0529 432.516 24.1187 435.715 25.5901L436.551 23.7732C433.239 22.2498 429.998 21.1346 426.827 20.4337L426.395 22.3866ZM435.21 24.2958L430.718 35.038L432.563 35.8096L437.055 25.0674L435.21 24.2958ZM432.039 34.5064C429.309 33.3225 426.72 32.349 424.271 31.588L423.678 33.4979C426.047 34.2343 428.569 35.1814 431.243 36.3412L432.039 34.5064ZM424.275 31.5892C421.802 30.8101 419.276 30.4199 416.699 30.4199V32.4199C419.071 32.4199 421.394 32.7785 423.674 33.4967L424.275 31.5892ZM416.699 30.4199C414.46 30.4199 412.621 30.7155 411.3 31.415L412.235 33.1826C413.128 32.7103 414.577 32.4199 416.699 32.4199V30.4199ZM411.3 31.415C410.619 31.7753 410.058 32.2586 409.672 32.8838C409.284 33.5112 409.107 34.2238 409.107 34.9844H411.107C411.107 34.5405 411.208 34.2033 411.373 33.9355C411.54 33.6656 411.809 33.4083 412.235 33.1826L411.3 31.415ZM409.107 34.9844C409.107 36.0925 409.463 37.0958 410.16 37.9573L411.715 36.6989C411.305 36.1932 411.107 35.6341 411.107 34.9844H409.107ZM410.178 37.9789C410.896 38.8161 412.148 39.6533 413.796 40.5103L414.719 38.7358C413.112 37.9001 412.151 37.2073 411.697 36.6773L410.178 37.9789ZM413.818 40.521C415.509 41.3499 417.959 42.418 421.155 43.7227L421.911 41.871C418.727 40.5716 416.327 39.5238 414.698 38.7251L413.818 40.521ZM421.153 43.722C424.208 44.9759 426.843 46.2872 429.066 47.6529L430.113 45.9487C427.779 44.5149 425.043 43.1569 421.913 41.8718L421.153 43.722ZM429.075 47.6583C431.23 48.9508 432.863 50.5481 434.007 52.4442L435.72 51.4112C434.389 49.2058 432.507 47.3852 430.104 45.9433L429.075 47.6583ZM434.011 52.4503C435.122 54.2642 435.719 56.6865 435.719 59.7891H437.719C437.719 56.4463 437.078 53.6277 435.716 51.4052L434.011 52.4503Z" fill="black"/>
</svg>
