<svg width="239" height="77" viewBox="0 0 239 77" fill="none" xmlns="http://www.w3.org/2000/svg">
<path d="M15.7051 0.0234375V17.6992C15.7051 19.75 15.64 21.7845 15.5098 23.8027C15.4121 25.821 15.2819 27.3835 15.1191 28.4902H15.7051C17.1374 26.2441 19.0905 24.3398 21.5645 22.7773C24.0384 21.1823 27.2448 20.3848 31.1836 20.3848C37.3034 20.3848 42.2676 22.7773 46.0762 27.5625C49.8848 32.3477 51.7891 39.3626 51.7891 48.6074C51.7891 54.8249 50.9102 60.0495 49.1523 64.2812C47.3945 68.4805 44.9368 71.6543 41.7793 73.8027C38.6217 75.9186 34.9596 76.9766 30.793 76.9766C26.7891 76.9766 23.6315 76.2604 21.3203 74.8281C19.0091 73.3958 17.1374 71.7845 15.7051 69.9941H14.6797L12.1895 76H0.8125V0.0234375H15.7051ZM26.3984 32.2988C23.7943 32.2988 21.7272 32.8359 20.1973 33.9102C18.6673 34.9844 17.5443 36.5957 16.8281 38.7441C16.1445 40.8926 15.7702 43.6107 15.7051 46.8984V48.5098C15.7051 53.8158 16.4863 57.8848 18.0488 60.7168C19.6113 63.5163 22.4596 64.916 26.5938 64.916C29.6536 64.916 32.0788 63.5 33.8691 60.668C35.6921 57.8359 36.6035 53.7507 36.6035 48.4121C36.6035 43.0736 35.6921 39.0534 33.8691 36.3516C32.0462 33.6497 29.556 32.2988 26.3984 32.2988ZM114.191 21.4102V76H102.766L100.764 69.0176H99.9824C98.8105 70.873 97.3457 72.3867 95.5879 73.5586C93.8301 74.7305 91.8932 75.5931 89.7773 76.1465C87.6615 76.6999 85.4642 76.9766 83.1855 76.9766C79.2793 76.9766 75.8776 76.293 72.9805 74.9258C70.0833 73.526 67.821 71.3613 66.1934 68.4316C64.5983 65.502 63.8008 61.6934 63.8008 57.0059V21.4102H78.6934V53.2949C78.6934 57.2012 79.3932 60.1471 80.793 62.1328C82.1927 64.1185 84.4225 65.1113 87.4824 65.1113C90.5098 65.1113 92.8861 64.4277 94.6113 63.0605C96.3366 61.6608 97.541 59.6263 98.2246 56.957C98.9408 54.2552 99.2988 50.9674 99.2988 47.0938V21.4102H114.191ZM144.709 21.4102V76H129.816V21.4102H144.709ZM137.287 0.0234375C139.501 0.0234375 141.405 0.544271 143 1.58594C144.595 2.59505 145.393 4.49935 145.393 7.29883C145.393 10.0658 144.595 11.9863 143 13.0605C141.405 14.1022 139.501 14.623 137.287 14.623C135.041 14.623 133.12 14.1022 131.525 13.0605C129.963 11.9863 129.182 10.0658 129.182 7.29883C129.182 4.49935 129.963 2.59505 131.525 1.58594C133.12 0.544271 135.041 0.0234375 137.287 0.0234375ZM175.275 76H160.383V0.0234375H175.275V76ZM208.234 76.9766C202.147 76.9766 197.183 74.6003 193.342 69.8477C189.533 65.0625 187.629 58.0475 187.629 48.8027C187.629 39.4603 189.566 32.3965 193.439 27.6113C197.313 22.7936 202.375 20.3848 208.625 20.3848C211.229 20.3848 213.524 20.7428 215.51 21.459C217.495 22.1751 219.204 23.1354 220.637 24.3398C222.102 25.5443 223.339 26.8952 224.348 28.3926H224.836C224.641 27.3509 224.396 25.821 224.104 23.8027C223.843 21.752 223.713 19.6523 223.713 17.5039V0.0234375H238.654V76H227.229L224.348 68.9199H223.713C222.769 70.4173 221.581 71.7845 220.148 73.0215C218.749 74.2259 217.072 75.1862 215.119 75.9023C213.166 76.6185 210.871 76.9766 208.234 76.9766ZM213.459 65.1113C217.528 65.1113 220.393 63.9069 222.053 61.498C223.745 59.0566 224.641 55.3945 224.738 50.5117V48.9004C224.738 43.5944 223.924 39.5417 222.297 36.7422C220.669 33.9102 217.642 32.4941 213.215 32.4941C209.927 32.4941 207.355 33.9102 205.5 36.7422C203.645 39.5742 202.717 43.6595 202.717 48.998C202.717 54.3366 203.645 58.3568 205.5 61.0586C207.388 63.7604 210.041 65.1113 213.459 65.1113Z" fill="white"/>
<path d="M15.7051 0.0234375H16.7051V-0.976562H15.7051V0.0234375ZM15.5098 23.8027L14.5118 23.7384L14.5113 23.7464L14.5109 23.7544L15.5098 23.8027ZM15.1191 28.4902L14.1298 28.3447L13.9613 29.4902H15.1191V28.4902ZM15.7051 28.4902V29.4902H16.2534L16.5482 29.0279L15.7051 28.4902ZM21.5645 22.7773L22.0985 23.6229L22.1063 23.6178L21.5645 22.7773ZM49.1523 64.2812L50.0748 64.6674L50.0758 64.6649L49.1523 64.2812ZM41.7793 73.8027L42.336 74.6335L42.3418 74.6295L41.7793 73.8027ZM15.7051 69.9941L16.4859 69.3694L16.1857 68.9941H15.7051V69.9941ZM14.6797 69.9941V68.9941H14.0118L13.7559 69.6111L14.6797 69.9941ZM12.1895 76V77H12.8574L13.1132 76.383L12.1895 76ZM0.8125 76H-0.1875V77H0.8125V76ZM0.8125 0.0234375V-0.976562H-0.1875V0.0234375H0.8125ZM16.8281 38.7441L15.8794 38.4279L15.8752 38.4409L16.8281 38.7441ZM15.7051 46.8984L14.7053 46.8786L14.7051 46.8885V46.8984H15.7051ZM18.0488 60.7168L17.1732 61.1999L17.1756 61.2042L18.0488 60.7168ZM33.8691 60.668L33.0282 60.1267L33.0239 60.1336L33.8691 60.668ZM14.7051 0.0234375V17.6992H16.7051V0.0234375H14.7051ZM14.7051 17.6992C14.7051 19.7288 14.6406 21.7419 14.5118 23.7384L16.5077 23.8671C16.6393 21.8272 16.7051 19.7712 16.7051 17.6992H14.7051ZM14.5109 23.7544C14.4138 25.7615 14.2855 27.2861 14.1298 28.3447L16.1085 28.6357C16.2783 27.4809 16.4104 25.8804 16.5086 23.8511L14.5109 23.7544ZM15.1191 29.4902H15.7051V27.4902H15.1191V29.4902ZM16.5482 29.0279C17.8939 26.9177 19.7365 25.1146 22.0984 23.6228L21.0305 21.9319C18.4444 23.5651 16.3809 25.5706 14.8619 27.9526L16.5482 29.0279ZM22.1063 23.6178C24.3726 22.1566 27.3736 21.3848 31.1836 21.3848V19.3848C27.116 19.3848 23.7042 20.208 21.0226 21.9369L22.1063 23.6178ZM31.1836 21.3848C36.999 21.3848 41.675 23.6386 45.2937 28.1852L46.8586 26.9398C42.8601 21.916 37.6078 19.3848 31.1836 19.3848V21.3848ZM45.2937 28.1852C48.9054 32.7229 50.7891 39.4784 50.7891 48.6074H52.7891C52.7891 39.2469 50.8642 31.9724 46.8586 26.9398L45.2937 28.1852ZM50.7891 48.6074C50.7891 54.7374 49.9216 59.8225 48.2288 63.8976L50.0758 64.6649C51.8987 60.2765 52.7891 54.9124 52.7891 48.6074H50.7891ZM48.2299 63.8951C46.5323 67.9505 44.1856 70.9559 41.2168 72.976L42.3418 74.6295C45.6881 72.3527 48.2568 69.0104 50.0748 64.6674L48.2299 63.8951ZM41.2226 72.972C38.2455 74.967 34.7813 75.9766 30.793 75.9766V77.9766C35.138 77.9766 38.998 76.8703 42.336 74.6335L41.2226 72.972ZM30.793 75.9766C26.8927 75.9766 23.9422 75.2765 21.8471 73.9781L20.7935 75.6781C23.3209 77.2444 26.6855 77.9766 30.793 77.9766V75.9766ZM21.8471 73.9781C19.6152 72.595 17.8351 71.0559 16.4859 69.3694L14.9242 70.6188C16.4396 72.5131 18.403 74.1967 20.7935 75.6781L21.8471 73.9781ZM15.7051 68.9941H14.6797V70.9941H15.7051V68.9941ZM13.7559 69.6111L11.2657 75.617L13.1132 76.383L15.6034 70.3772L13.7559 69.6111ZM12.1895 75H0.8125V77H12.1895V75ZM1.8125 76V0.0234375H-0.1875V76H1.8125ZM0.8125 1.02344H15.7051V-0.976562H0.8125V1.02344ZM26.3984 31.2988C23.667 31.2988 21.3753 31.8611 19.6226 33.0917L20.7719 34.7286C22.0791 33.8108 23.9215 33.2988 26.3984 33.2988V31.2988ZM19.6226 33.0917C17.883 34.3132 16.6486 36.1203 15.8794 38.4279L17.7768 39.0604C18.4399 37.0711 19.4516 35.6556 20.7719 34.7286L19.6226 33.0917ZM15.8752 38.4409C15.1524 40.7126 14.7715 43.5345 14.7053 46.8786L16.7049 46.9182C16.7689 43.6869 17.1367 41.0726 17.7811 39.0473L15.8752 38.4409ZM14.7051 46.8984V48.5098H16.7051V46.8984H14.7051ZM14.7051 48.5098C14.7051 53.8885 15.4927 58.1539 17.1733 61.1999L18.9244 60.2337C17.48 57.6157 16.7051 53.7431 16.7051 48.5098H14.7051ZM17.1756 61.2042C18.967 64.4138 22.2189 65.916 26.5938 65.916V63.916C22.7004 63.916 20.2556 62.6188 18.922 60.2294L17.1756 61.2042ZM26.5938 65.916C30.0337 65.916 32.7615 64.2914 34.7144 61.2023L33.0239 60.1336C31.396 62.7086 29.2735 63.916 26.5938 63.916V65.916ZM34.71 61.2092C36.6811 58.147 37.6035 53.8399 37.6035 48.4121H35.6035C35.6035 53.6614 34.703 57.5249 33.0283 60.1267L34.71 61.2092ZM37.6035 48.4121C37.6035 42.9895 36.6831 38.7343 34.6981 35.7923L33.0402 36.9109C34.701 39.3725 35.6035 43.1576 35.6035 48.4121H37.6035ZM34.6981 35.7923C32.6965 32.8255 29.901 31.2988 26.3984 31.2988V33.2988C29.211 33.2988 31.396 34.4739 33.0402 36.9109L34.6981 35.7923ZM114.191 21.4102H115.191V20.4102H114.191V21.4102ZM114.191 76V77H115.191V76H114.191ZM102.766 76L101.804 76.2756L102.012 77H102.766V76ZM100.764 69.0176L101.725 68.742L101.517 68.0176H100.764V69.0176ZM99.9824 69.0176V68.0176H99.4313L99.1369 68.4836L99.9824 69.0176ZM89.7773 76.1465L89.5243 75.179L89.7773 76.1465ZM72.9805 74.9258L72.5454 75.8262L72.5537 75.8301L72.9805 74.9258ZM66.1934 68.4316L65.3151 68.9098L65.3192 68.9173L66.1934 68.4316ZM63.8008 21.4102V20.4102H62.8008V21.4102H63.8008ZM78.6934 21.4102H79.6934V20.4102H78.6934V21.4102ZM80.793 62.1328L81.6103 61.5567L80.793 62.1328ZM94.6113 63.0605L95.2325 63.8443L95.2414 63.8371L94.6113 63.0605ZM98.2246 56.957L97.258 56.7008L97.2559 56.7089L98.2246 56.957ZM99.2988 21.4102V20.4102H98.2988V21.4102H99.2988ZM113.191 21.4102V76H115.191V21.4102H113.191ZM114.191 75H102.766V77H114.191V75ZM103.727 75.7244L101.725 68.742L99.8024 69.2932L101.804 76.2756L103.727 75.7244ZM100.764 68.0176H99.9824V70.0176H100.764V68.0176ZM99.1369 68.4836C98.037 70.2251 96.6697 71.6355 95.0332 72.7265L96.1426 74.3906C98.0217 73.1379 99.5841 71.521 100.828 69.5516L99.1369 68.4836ZM95.0332 72.7265C93.371 73.8347 91.5367 74.6527 89.5243 75.179L90.0304 77.1139C92.2498 76.5335 94.2892 75.6262 96.1426 74.3906L95.0332 72.7265ZM89.5243 75.179C87.4944 75.7099 85.3824 75.9766 83.1855 75.9766V77.9766C85.546 77.9766 87.8285 77.6898 90.0304 77.1139L89.5243 75.179ZM83.1855 75.9766C79.3951 75.9766 76.1449 75.3134 73.4072 74.0214L72.5537 75.8301C75.6103 77.2726 79.1635 77.9766 83.1855 77.9766V75.9766ZM73.4155 74.0254C70.712 72.7192 68.5994 70.7034 67.0675 67.946L65.3192 68.9173C67.0425 72.0192 69.4546 74.3329 72.5454 75.8262L73.4155 74.0254ZM67.0716 67.9535C65.5823 65.2179 64.8008 61.5902 64.8008 57.0059H62.8008C62.8008 61.7965 63.6143 65.786 65.3151 68.9098L67.0716 67.9535ZM64.8008 57.0059V21.4102H62.8008V57.0059H64.8008ZM63.8008 22.4102H78.6934V20.4102H63.8008V22.4102ZM77.6934 21.4102V53.2949H79.6934V21.4102H77.6934ZM77.6934 53.2949C77.6934 57.2924 78.4046 60.4802 79.9756 62.709L81.6103 61.5567C80.3819 59.814 79.6934 57.11 79.6934 53.2949H77.6934ZM79.9756 62.709C81.6112 65.0292 84.1918 66.1113 87.4824 66.1113V64.1113C84.6533 64.1113 82.7742 63.2078 81.6103 61.5567L79.9756 62.709ZM87.4824 66.1113C90.6516 66.1113 93.2744 65.3959 95.2324 63.8443L93.9902 62.2768C92.4977 63.4596 90.3679 64.1113 87.4824 64.1113V66.1113ZM95.2414 63.8371C97.1699 62.2725 98.4695 60.0316 99.1933 57.2051L97.2559 56.7089C96.6125 59.221 95.5033 61.0491 93.9813 62.284L95.2414 63.8371ZM99.1912 57.2132C99.9362 54.4027 100.299 51.0233 100.299 47.0938H98.2988C98.2988 50.9116 97.9453 54.1078 97.258 56.7008L99.1912 57.2132ZM100.299 47.0938V21.4102H98.2988V47.0938H100.299ZM99.2988 22.4102H114.191V20.4102H99.2988V22.4102ZM144.709 21.4102H145.709V20.4102H144.709V21.4102ZM144.709 76V77H145.709V76H144.709ZM129.816 76H128.816V77H129.816V76ZM129.816 21.4102V20.4102H128.816V21.4102H129.816ZM143 1.58594L142.453 2.42321L142.459 2.42716L142.465 2.43102L143 1.58594ZM143 13.0605L143.547 13.8978L143.553 13.8939L143.559 13.89L143 13.0605ZM131.525 13.0605L130.959 13.8846L130.969 13.8913L130.979 13.8978L131.525 13.0605ZM131.525 1.58594L132.068 2.42599L132.072 2.42321L131.525 1.58594ZM143.709 21.4102V76H145.709V21.4102H143.709ZM144.709 75H129.816V77H144.709V75ZM130.816 76V21.4102H128.816V76H130.816ZM129.816 22.4102H144.709V20.4102H129.816V22.4102ZM137.287 1.02344C139.339 1.02344 141.046 1.50404 142.453 2.42321L143.547 0.748667C141.764 -0.415501 139.663 -0.976562 137.287 -0.976562V1.02344ZM142.465 2.43102C143.647 3.17854 144.393 4.66428 144.393 7.29883H146.393C146.393 4.33441 145.543 2.01156 143.535 0.740859L142.465 2.43102ZM144.393 7.29883C144.393 9.88995 143.652 11.4159 142.441 12.2311L143.559 13.89C145.538 12.5567 146.393 10.2416 146.393 7.29883H144.393ZM142.453 12.2233C141.046 13.1424 139.339 13.623 137.287 13.623V15.623C139.663 15.623 141.764 15.062 143.547 13.8978L142.453 12.2233ZM137.287 13.623C135.2 13.623 133.477 13.1409 132.072 12.2233L130.979 13.8978C132.764 15.0635 134.882 15.623 137.287 15.623V13.623ZM132.092 12.2365C130.911 11.4245 130.182 9.89746 130.182 7.29883H128.182C128.182 10.2341 129.015 12.5481 130.959 13.8846L132.092 12.2365ZM130.182 7.29883C130.182 4.65651 130.916 3.17003 132.068 2.42598L130.983 0.745898C129.01 2.02007 128.182 4.34219 128.182 7.29883H130.182ZM132.072 2.42321C133.477 1.50555 135.2 1.02344 137.287 1.02344V-0.976562C134.882 -0.976562 132.764 -0.417013 130.979 0.748667L132.072 2.42321ZM175.275 76V77H176.275V76H175.275ZM160.383 76H159.383V77H160.383V76ZM160.383 0.0234375V-0.976562H159.383V0.0234375H160.383ZM175.275 0.0234375H176.275V-0.976562H175.275V0.0234375ZM175.275 75H160.383V77H175.275V75ZM161.383 76V0.0234375H159.383V76H161.383ZM160.383 1.02344H175.275V-0.976562H160.383V1.02344ZM174.275 0.0234375V76H176.275V0.0234375H174.275ZM193.342 69.8477L192.559 70.4704L192.564 70.4762L193.342 69.8477ZM193.439 27.6113L194.217 28.2405L194.219 28.2379L193.439 27.6113ZM220.637 24.3398L219.993 25.1053L220.002 25.1123L220.637 24.3398ZM224.348 28.3926L223.518 28.9514L223.816 29.3926H224.348V28.3926ZM224.836 28.3926V29.3926H226.041L225.819 28.2083L224.836 28.3926ZM224.104 23.8027L223.111 23.9287L223.113 23.9376L223.114 23.9464L224.104 23.8027ZM223.713 0.0234375V-0.976562H222.713V0.0234375H223.713ZM238.654 0.0234375H239.654V-0.976562H238.654V0.0234375ZM238.654 76V77H239.654V76H238.654ZM227.229 76L226.302 76.3769L226.556 77H227.229V76ZM224.348 68.9199L225.274 68.543L225.02 67.9199H224.348V68.9199ZM223.713 68.9199V67.9199H223.161L222.867 68.3866L223.713 68.9199ZM220.148 73.0215L220.801 73.7795L220.802 73.7783L220.148 73.0215ZM222.053 61.498L221.231 60.9283L221.229 60.9306L222.053 61.498ZM224.738 50.5117L225.738 50.5317L225.738 50.5217V50.5117H224.738ZM222.297 36.7422L221.43 37.2405L221.432 37.2448L222.297 36.7422ZM205.5 61.0586L204.676 61.6247L204.68 61.6314L205.5 61.0586ZM208.234 75.9766C202.451 75.9766 197.772 73.7378 194.12 69.2191L192.564 70.4762C196.594 75.4627 201.844 77.9766 208.234 77.9766V75.9766ZM194.124 69.2249C190.513 64.6872 188.629 57.9318 188.629 48.8027H186.629C186.629 58.1633 188.554 65.4378 192.559 70.4704L194.124 69.2249ZM188.629 48.8027C188.629 39.5761 190.545 32.776 194.217 28.2405L192.662 26.9821C188.586 32.0169 186.629 39.3444 186.629 48.8027H188.629ZM194.219 28.2379C197.9 23.6593 202.674 21.3848 208.625 21.3848V19.3848C202.076 19.3848 196.726 21.9279 192.66 26.9847L194.219 28.2379ZM208.625 21.3848C211.14 21.3848 213.316 21.7307 215.171 22.3997L215.849 20.5183C213.732 19.7549 211.319 19.3848 208.625 19.3848V21.3848ZM215.171 22.3997C217.059 23.0809 218.662 23.9858 219.993 25.1052L221.28 23.5745C219.747 22.285 217.932 21.2694 215.849 20.5183L215.171 22.3997ZM220.002 25.1123C221.396 26.2584 222.566 27.5382 223.518 28.9514L225.177 27.8337C224.111 26.2522 222.808 24.8302 221.272 23.5674L220.002 25.1123ZM224.348 29.3926H224.836V27.3926H224.348V29.3926ZM225.819 28.2083C225.627 27.1873 225.386 25.6737 225.093 23.6591L223.114 23.9464C223.407 25.9683 223.654 27.5145 223.853 28.5769L225.819 28.2083ZM225.096 23.6768C224.841 21.6694 224.713 19.6119 224.713 17.5039H222.713C222.713 19.6928 222.846 21.8345 223.111 23.9287L225.096 23.6768ZM224.713 17.5039V0.0234375H222.713V17.5039H224.713ZM223.713 1.02344H238.654V-0.976562H223.713V1.02344ZM237.654 0.0234375V76H239.654V0.0234375H237.654ZM238.654 75H227.229V77H238.654V75ZM228.155 75.6231L225.274 68.543L223.421 69.2968L226.302 76.3769L228.155 75.6231ZM224.348 67.9199H223.713V69.9199H224.348V67.9199ZM222.867 68.3866C221.979 69.7948 220.857 71.0878 219.495 72.2647L220.802 73.7783C222.304 72.4812 223.559 71.0398 224.559 69.4532L222.867 68.3866ZM219.496 72.2635C218.198 73.3804 216.629 74.2835 214.775 74.9635L215.463 76.8412C217.515 76.0889 219.299 75.0715 220.801 73.7795L219.496 72.2635ZM214.775 74.9635C212.957 75.63 210.784 75.9766 208.234 75.9766V77.9766C210.959 77.9766 213.375 77.607 215.463 76.8412L214.775 74.9635ZM213.459 66.1113C217.718 66.1113 220.962 64.8426 222.876 62.0655L221.229 60.9306C219.823 62.9712 217.338 64.1113 213.459 64.1113V66.1113ZM222.875 62.0678C224.73 59.391 225.639 55.4968 225.738 50.5317L223.738 50.4917C223.642 55.2922 222.76 58.7223 221.231 60.9283L222.875 62.0678ZM225.738 50.5117V48.9004H223.738V50.5117H225.738ZM225.738 48.9004C225.738 43.5186 224.917 39.26 223.161 36.2396L221.432 37.2448C222.932 39.8233 223.738 43.6702 223.738 48.9004H225.738ZM223.164 36.2439C221.296 32.9941 217.856 31.4941 213.215 31.4941V33.4941C217.428 33.4941 220.042 34.8262 221.43 37.2405L223.164 36.2439ZM213.215 31.4941C209.578 31.4941 206.697 33.0902 204.664 36.1942L206.336 37.2902C208.014 34.7301 210.276 33.4941 213.215 33.4941V31.4941ZM204.664 36.1942C202.656 39.258 201.717 43.5679 201.717 48.998H203.717C203.717 43.7511 204.633 39.8905 206.336 37.2902L204.664 36.1942ZM201.717 48.998C201.717 54.423 202.654 58.6813 204.676 61.6247L206.324 60.4925C204.635 58.0323 203.717 54.2501 203.717 48.998H201.717ZM204.68 61.6314C206.763 64.6125 209.729 66.1113 213.459 66.1113V64.1113C210.353 64.1113 208.013 62.9084 206.32 60.4858L204.68 61.6314Z" fill="black"/>
</svg>
