<svg width="233" height="78" viewBox="0 0 233 78" fill="none" xmlns="http://www.w3.org/2000/svg">
<path d="M25.9805 77.9766C20.5768 77.9766 15.9707 77 12.1621 75.0469C8.35352 73.0612 5.45638 70.0013 3.4707 65.8672C1.48503 61.7331 0.492188 56.4434 0.492188 49.998C0.492188 43.3249 1.61523 37.8887 3.86133 33.6895C6.13997 29.4577 9.28125 26.349 13.2852 24.3633C17.3216 22.3776 21.9928 21.3848 27.2988 21.3848C31.0749 21.3848 34.3301 21.7591 37.0645 22.5078C39.8314 23.224 42.2402 24.0866 44.291 25.0957L39.8965 36.6191C37.5527 35.6751 35.3717 34.9102 33.3535 34.3242C31.3353 33.7057 29.3171 33.3965 27.2988 33.3965C24.6947 33.3965 22.5299 34.015 20.8047 35.252C19.0794 36.4564 17.7936 38.2793 16.9473 40.7207C16.1009 43.1621 15.6777 46.222 15.6777 49.9004C15.6777 53.5137 16.1335 56.5085 17.0449 58.8848C17.9564 61.2611 19.2747 63.0352 21 64.207C22.7253 65.3464 24.8249 65.916 27.2988 65.916C30.3913 65.916 33.1419 65.5091 35.5508 64.6953C37.9596 63.849 40.3034 62.6771 42.582 61.1797V73.9238C40.3034 75.3561 37.9108 76.3815 35.4043 77C32.9303 77.651 29.7891 77.9766 25.9805 77.9766ZM85.7461 21.3848C86.4948 21.3848 87.3574 21.4336 88.334 21.5312C89.3431 21.5964 90.1569 21.694 90.7754 21.8242L89.6523 35.7891C89.1641 35.6263 88.4642 35.5124 87.5527 35.4473C86.6738 35.3496 85.9089 35.3008 85.2578 35.3008C83.3372 35.3008 81.4655 35.5449 79.6426 36.0332C77.8522 36.5215 76.2409 37.319 74.8086 38.4258C73.3763 39.5 72.237 40.9323 71.3906 42.7227C70.5768 44.4805 70.1699 46.6452 70.1699 49.2168V77H55.2773V22.4102H66.5566L68.7539 31.5898H69.4863C70.5605 29.7344 71.8952 28.0417 73.4902 26.5117C75.1178 24.9492 76.957 23.7122 79.0078 22.8008C81.0911 21.8568 83.3372 21.3848 85.7461 21.3848ZM123.051 21.2871C130.375 21.2871 135.99 22.8822 139.896 26.0723C143.803 29.2624 145.756 34.1126 145.756 40.623V77H135.355L132.475 69.5781H132.084C130.521 71.5312 128.926 73.1263 127.299 74.3633C125.671 75.6003 123.799 76.5117 121.684 77.0977C119.568 77.6836 116.996 77.9766 113.969 77.9766C110.746 77.9766 107.849 77.3581 105.277 76.1211C102.738 74.8841 100.736 72.9961 99.2715 70.457C97.8066 67.8854 97.0742 64.6302 97.0742 60.6914C97.0742 54.8971 99.1087 50.6328 103.178 47.8984C107.247 45.1315 113.35 43.6016 121.488 43.3086L130.961 43.0156V40.623C130.961 37.7585 130.212 35.6589 128.715 34.3242C127.217 32.9896 125.134 32.3223 122.465 32.3223C119.828 32.3223 117.24 32.6966 114.701 33.4453C112.162 34.194 109.623 35.138 107.084 36.2773L102.152 26.2188C105.049 24.6888 108.288 23.4844 111.869 22.6055C115.482 21.7266 119.21 21.2871 123.051 21.2871ZM130.961 51.707L125.199 51.9023C120.382 52.0326 117.029 52.8952 115.141 54.4902C113.285 56.0853 112.357 58.1849 112.357 60.7891C112.357 63.0677 113.025 64.6953 114.359 65.6719C115.694 66.6159 117.436 67.0879 119.584 67.0879C122.774 67.0879 125.46 66.1439 127.641 64.2559C129.854 62.3678 130.961 59.6823 130.961 56.1992V51.707ZM191.312 33.5918H178.422V77H163.529V33.5918H155.326V26.4141L163.529 22.4102V18.4062C163.529 13.7513 164.311 10.138 165.873 7.56641C167.468 4.96224 169.698 3.13932 172.562 2.09766C175.46 1.02344 178.878 0.486328 182.816 0.486328C185.714 0.486328 188.35 0.730469 190.727 1.21875C193.103 1.67448 195.04 2.19531 196.537 2.78125L192.729 13.7188C191.589 13.3607 190.352 13.0352 189.018 12.7422C187.683 12.4492 186.153 12.3027 184.428 12.3027C182.344 12.3027 180.814 12.9375 179.838 14.207C178.894 15.444 178.422 17.0391 178.422 18.9922V22.4102H191.312V33.5918ZM222.904 66.1113C224.532 66.1113 226.111 65.9486 227.641 65.623C229.203 65.2975 230.749 64.8906 232.279 64.4023V75.4863C230.684 76.2025 228.699 76.7884 226.322 77.2441C223.979 77.7324 221.407 77.9766 218.607 77.9766C215.352 77.9766 212.423 77.4557 209.818 76.4141C207.247 75.3398 205.212 73.5007 203.715 70.8965C202.25 68.2598 201.518 64.5977 201.518 59.9102V33.5918H194.389V27.293L202.592 22.3125L206.889 10.7891H216.41V22.4102H231.693V33.5918H216.41V59.9102C216.41 61.9935 216.996 63.556 218.168 64.5977C219.372 65.6068 220.951 66.1113 222.904 66.1113Z" fill="white"/>
<path d="M12.1621 75.0469L11.6998 75.9336L11.7058 75.9367L12.1621 75.0469ZM3.86133 33.6895L2.98085 33.2154L2.97954 33.2178L3.86133 33.6895ZM13.2852 24.3633L12.8437 23.466L12.8409 23.4674L13.2852 24.3633ZM37.0645 22.5078L36.8003 23.4724L36.8139 23.4759L37.0645 22.5078ZM44.291 25.0957L45.2254 25.452L45.55 24.6007L44.7325 24.1984L44.291 25.0957ZM39.8965 36.6191L39.5229 37.5467L40.4678 37.9273L40.8308 36.9755L39.8965 36.6191ZM33.3535 34.3242L33.0605 35.2803L33.0676 35.2825L33.0747 35.2846L33.3535 34.3242ZM20.8047 35.252L21.3772 36.072L21.3874 36.0646L20.8047 35.252ZM21 64.207L20.4381 65.0343L20.4489 65.0415L21 64.207ZM35.5508 64.6953L35.8709 65.6428L35.8823 65.6388L35.5508 64.6953ZM42.582 61.1797H43.582V59.326L42.0329 60.344L42.582 61.1797ZM42.582 73.9238L43.1142 74.7705L43.582 74.4764V73.9238H42.582ZM35.4043 77L35.1647 76.0291L35.1573 76.031L35.1498 76.0329L35.4043 77ZM25.9805 76.9766C20.6949 76.9766 16.2536 76.0213 12.6184 74.1571L11.7058 75.9367C15.6878 77.9787 20.4588 78.9766 25.9805 78.9766V76.9766ZM12.6244 74.1602C9.02072 72.2813 6.27102 69.3877 4.37212 65.4342L2.56929 66.3001C4.64174 70.6149 7.68631 73.8411 11.6998 75.9336L12.6244 74.1602ZM4.37212 65.4342C2.47212 61.4785 1.49219 56.3503 1.49219 49.998H-0.507812C-0.507812 56.5364 0.497929 61.9876 2.56929 66.3001L4.37212 65.4342ZM1.49219 49.998C1.49219 43.4271 2.59949 38.1687 4.74311 34.1611L2.97954 33.2178C0.630974 37.6086 -0.507812 43.2226 -0.507812 49.998H1.49219ZM4.7418 34.1636C6.93006 30.0996 9.92535 27.1457 13.7295 25.2592L12.8409 23.4674C8.63715 25.5522 5.34989 28.8157 2.98086 33.2154L4.7418 34.1636ZM13.7266 25.2606C17.6031 23.3536 22.1186 22.3848 27.2988 22.3848V20.3848C21.8671 20.3848 17.0401 21.4016 12.8437 23.466L13.7266 25.2606ZM27.2988 22.3848C31.0132 22.3848 34.1751 22.7535 36.8004 23.4723L37.3285 21.5433C34.4851 20.7647 31.1365 20.3848 27.2988 20.3848V22.3848ZM36.8139 23.4759C39.5305 24.179 41.8727 25.0203 43.8495 25.993L44.7325 24.1984C42.6077 23.1529 40.1322 22.2689 37.315 21.5397L36.8139 23.4759ZM43.3567 24.7394L38.9621 36.2628L40.8308 36.9755L45.2254 25.452L43.3567 24.7394ZM40.2701 35.6916C37.9013 34.7375 35.6883 33.9608 33.6323 33.3639L33.0747 35.2846C35.0552 35.8595 37.2042 36.6128 39.5229 37.5467L40.2701 35.6916ZM33.6465 33.3681C31.5377 32.7219 29.4208 32.3965 27.2988 32.3965V34.3965C29.2133 34.3965 31.1329 34.6896 33.0605 35.2803L33.6465 33.3681ZM27.2988 32.3965C24.5338 32.3965 22.1525 33.0551 20.222 34.4393L21.3874 36.0646C22.9074 34.9748 24.8555 34.3965 27.2988 34.3965V32.3965ZM20.2323 34.432C18.2978 35.7825 16.9019 37.7987 16.0024 40.3932L17.8921 41.0482C18.6854 38.7599 19.861 37.1303 21.3771 36.0719L20.2323 34.432ZM16.0024 40.3932C15.1077 42.9742 14.6777 46.1538 14.6777 49.9004H16.6777C16.6777 46.2902 17.0942 43.35 17.8921 41.0482L16.0024 40.3932ZM14.6777 49.9004C14.6777 53.5888 15.1417 56.7152 16.1112 59.2429L17.9786 58.5266C17.1252 56.3018 16.6777 53.4386 16.6777 49.9004H14.6777ZM16.1112 59.2429C17.0795 61.7672 18.5098 63.7244 20.4381 65.0342L21.5619 63.3798C20.0397 62.3459 18.8333 60.7549 17.9786 58.5266L16.1112 59.2429ZM20.4489 65.0415C22.3675 66.3085 24.668 66.916 27.2988 66.916V64.916C24.9817 64.916 23.083 64.3842 21.5511 63.3726L20.4489 65.0415ZM27.2988 66.916C30.4774 66.916 33.3394 66.4979 35.8708 65.6427L35.2307 63.7479C32.9445 64.5203 30.3052 64.916 27.2988 64.916V66.916ZM35.8823 65.6388C38.3728 64.7637 40.7892 63.5544 43.1312 62.0154L42.0329 60.344C39.8175 61.7998 37.5465 62.9342 35.2193 63.7519L35.8823 65.6388ZM41.582 61.1797V73.9238H43.582V61.1797H41.582ZM42.0499 73.0772C39.8576 74.4552 37.5634 75.4373 35.1647 76.0291L35.6439 77.9709C38.2583 77.3258 40.7491 76.2571 43.1142 74.7705L42.0499 73.0772ZM35.1498 76.0329C32.7887 76.6543 29.7407 76.9766 25.9805 76.9766V78.9766C29.8375 78.9766 33.072 78.6478 35.6588 77.9671L35.1498 76.0329ZM88.334 21.5312L88.2345 22.5263L88.252 22.528L88.2696 22.5292L88.334 21.5312ZM90.7754 21.8242L91.7722 21.9044L91.8427 21.027L90.9814 20.8457L90.7754 21.8242ZM89.6523 35.7891L89.3361 36.7377L90.5468 37.1413L90.6491 35.8692L89.6523 35.7891ZM87.5527 35.4473L87.4423 36.4411L87.4619 36.4433L87.4815 36.4447L87.5527 35.4473ZM79.6426 36.0332L79.3838 35.0672L79.3795 35.0684L79.6426 36.0332ZM74.8086 38.4258L75.4086 39.2258L75.4143 39.2215L75.42 39.2171L74.8086 38.4258ZM71.3906 42.7227L70.4865 42.2953L70.4832 42.3025L71.3906 42.7227ZM70.1699 77V78H71.1699V77H70.1699ZM55.2773 77H54.2773V78H55.2773V77ZM55.2773 22.4102V21.4102H54.2773V22.4102H55.2773ZM66.5566 22.4102L67.5292 22.1774L67.3455 21.4102H66.5566V22.4102ZM68.7539 31.5898L67.7814 31.8226L67.965 32.5898H68.7539V31.5898ZM69.4863 31.5898V32.5898H70.0629L70.3518 32.0909L69.4863 31.5898ZM73.4902 26.5117L74.1825 27.2334L74.1828 27.2331L73.4902 26.5117ZM79.0078 22.8008L79.414 23.7146L79.4205 23.7116L79.0078 22.8008ZM85.7461 22.3848C86.4532 22.3848 87.2815 22.431 88.2345 22.5263L88.4335 20.5362C87.4334 20.4362 86.5364 20.3848 85.7461 20.3848V22.3848ZM88.2696 22.5292C89.2557 22.5928 90.0167 22.6864 90.5694 22.8028L90.9814 20.8457C90.2971 20.7016 89.4305 20.5999 88.3984 20.5333L88.2696 22.5292ZM89.7786 21.7441L88.6556 35.7089L90.6491 35.8692L91.7722 21.9044L89.7786 21.7441ZM89.9686 34.8404C89.3624 34.6383 88.5651 34.517 87.624 34.4498L87.4815 36.4447C88.3633 36.5077 88.9657 36.6143 89.3361 36.7377L89.9686 34.8404ZM87.6632 34.4534C86.7596 34.353 85.9561 34.3008 85.2578 34.3008V36.3008C85.8616 36.3008 86.588 36.3462 87.4423 36.4411L87.6632 34.4534ZM85.2578 34.3008C83.2514 34.3008 81.2926 34.556 79.3838 35.0673L79.9013 36.9992C81.6384 36.5339 83.423 36.3008 85.2578 36.3008V34.3008ZM79.3795 35.0684C77.466 35.5903 75.7357 36.4456 74.1971 37.6345L75.42 39.2171C76.7461 38.1924 78.2384 37.4527 79.9057 36.998L79.3795 35.0684ZM74.2086 37.6258C72.6328 38.8076 71.3949 40.3737 70.4866 42.2953L72.2947 43.15C73.079 41.4909 74.1198 40.1924 75.4086 39.2258L74.2086 37.6258ZM70.4832 42.3025C69.5919 44.2277 69.1699 46.5454 69.1699 49.2168H71.1699C71.1699 46.745 71.5618 44.7332 72.2981 43.1428L70.4832 42.3025ZM69.1699 49.2168V77H71.1699V49.2168H69.1699ZM70.1699 76H55.2773V78H70.1699V76ZM56.2773 77V22.4102H54.2773V77H56.2773ZM55.2773 23.4102H66.5566V21.4102H55.2773V23.4102ZM65.5841 22.6429L67.7814 31.8226L69.7264 31.3571L67.5292 22.1774L65.5841 22.6429ZM68.7539 32.5898H69.4863V30.5898H68.7539V32.5898ZM70.3518 32.0909C71.3775 30.3192 72.6531 28.7003 74.1825 27.2334L72.798 25.79C71.1373 27.383 69.7436 29.1495 68.6209 31.0888L70.3518 32.0909ZM74.1828 27.2331C75.7272 25.7504 77.4696 24.5787 79.414 23.7146L78.6017 21.887C76.4444 22.8457 74.5084 24.148 72.7977 25.7903L74.1828 27.2331ZM79.4205 23.7116C81.3674 22.8295 83.4719 22.3848 85.7461 22.3848V20.3848C83.2026 20.3848 80.8149 20.8841 78.5951 21.8899L79.4205 23.7116ZM139.896 26.0723L140.529 25.2977L139.896 26.0723ZM145.756 77V78H146.756V77H145.756ZM135.355 77L134.423 77.3619L134.671 78H135.355V77ZM132.475 69.5781L133.407 69.2163L133.159 68.5781H132.475V69.5781ZM132.084 69.5781V68.5781H131.603L131.303 68.9534L132.084 69.5781ZM127.299 74.3633L126.694 73.5671L127.299 74.3633ZM105.277 76.1211L104.839 77.0201L104.844 77.0223L105.277 76.1211ZM99.2715 70.457L98.4026 70.952L98.4053 70.9568L99.2715 70.457ZM103.178 47.8984L103.736 48.7285L103.74 48.7254L103.178 47.8984ZM121.488 43.3086L121.457 42.3091L121.452 42.3092L121.488 43.3086ZM130.961 43.0156L130.992 44.0151L131.961 43.9852V43.0156H130.961ZM107.084 36.2773L106.186 36.7176L106.612 37.5854L107.493 37.1897L107.084 36.2773ZM102.152 26.2188L101.685 25.3345L100.827 25.7876L101.254 26.659L102.152 26.2188ZM111.869 22.6055L111.633 21.6338L111.631 21.6343L111.869 22.6055ZM130.961 51.707H131.961V50.6726L130.927 50.7076L130.961 51.707ZM125.199 51.9023L125.226 52.902L125.233 52.9018L125.199 51.9023ZM115.141 54.4902L114.495 53.7263L114.489 53.7319L115.141 54.4902ZM114.359 65.6719L113.769 66.4789L113.775 66.4837L113.782 66.4883L114.359 65.6719ZM127.641 64.2559L126.992 63.495L126.986 63.4998L127.641 64.2559ZM123.051 22.2871C130.246 22.2871 135.602 23.8558 139.264 26.8468L140.529 25.2977C136.379 21.9085 130.504 20.2871 123.051 20.2871V22.2871ZM139.264 26.8468C142.873 29.7944 144.756 34.3185 144.756 40.623H146.756C146.756 33.9068 144.732 28.7303 140.529 25.2977L139.264 26.8468ZM144.756 40.623V77H146.756V40.623H144.756ZM145.756 76H135.355V78H145.756V76ZM136.288 76.6381L133.407 69.2163L131.542 69.94L134.423 77.3619L136.288 76.6381ZM132.475 68.5781H132.084V70.5781H132.475V68.5781ZM131.303 68.9534C129.781 70.8561 128.243 72.3895 126.694 73.5671L127.904 75.1594C129.61 73.8631 131.262 72.2064 132.865 70.2028L131.303 68.9534ZM126.694 73.5671C125.174 74.7218 123.419 75.5793 121.417 76.1339L121.95 78.0614C124.18 77.4441 126.168 76.4788 127.904 75.1594L126.694 73.5671ZM121.417 76.1339C119.414 76.6886 116.937 76.9766 113.969 76.9766V78.9766C117.055 78.9766 119.722 78.6785 121.95 78.0614L121.417 76.1339ZM113.969 76.9766C110.877 76.9766 108.131 76.3839 105.711 75.2199L104.844 77.0223C107.567 78.3323 110.616 78.9766 113.969 78.9766V76.9766ZM105.715 75.2221C103.363 74.076 101.507 72.3305 100.138 69.9573L98.4053 70.9568C99.9659 73.6617 102.114 75.6923 104.839 77.0201L105.715 75.2221ZM100.14 69.9621C98.7853 67.5831 98.0742 64.5121 98.0742 60.6914H96.0742C96.0742 64.7483 96.828 68.1877 98.4026 70.952L100.14 69.9621ZM98.0742 60.6914C98.0742 55.1603 99.9962 51.2412 103.735 48.7284L102.62 47.0684C98.2212 50.0244 96.0742 54.6339 96.0742 60.6914H98.0742ZM103.74 48.7254C107.582 46.1128 113.464 44.5981 121.524 44.3079L121.452 42.3092C113.237 42.605 106.911 44.1502 102.615 47.0715L103.74 48.7254ZM121.519 44.3081L130.992 44.0151L130.93 42.0161L121.457 42.3091L121.519 44.3081ZM131.961 43.0156V40.623H129.961V43.0156H131.961ZM131.961 40.623C131.961 37.5986 131.169 35.1719 129.38 33.5777L128.049 35.0707C129.256 36.1458 129.961 37.9184 129.961 40.623H131.961ZM129.38 33.5777C127.646 32.0322 125.297 31.3223 122.465 31.3223V33.3223C124.971 33.3223 126.789 33.947 128.049 35.0707L129.38 33.5777ZM122.465 31.3223C119.732 31.3223 117.049 31.7105 114.418 32.4861L114.984 34.4045C117.432 33.6828 119.924 33.3223 122.465 33.3223V31.3223ZM114.418 32.4861C111.834 33.2482 109.253 34.2082 106.675 35.365L107.493 37.1897C109.993 36.0679 112.49 35.1398 114.984 34.4045L114.418 32.4861ZM107.982 35.8371L103.05 25.7785L101.254 26.659L106.186 36.7176L107.982 35.8371ZM102.619 27.103C105.436 25.6157 108.596 24.4384 112.108 23.5766L111.631 21.6343C107.98 22.5303 104.663 23.7619 101.685 25.3345L102.619 27.103ZM112.105 23.5771C115.639 22.7177 119.287 22.2871 123.051 22.2871V20.2871C119.133 20.2871 115.326 20.7355 111.633 21.6338L112.105 23.5771ZM130.927 50.7076L125.165 50.9029L125.233 52.9018L130.995 52.7065L130.927 50.7076ZM125.172 50.9027C120.311 51.0341 116.658 51.8989 114.495 53.7263L115.786 55.2541C117.399 53.8914 120.452 53.031 125.226 52.902L125.172 50.9027ZM114.489 53.7319C112.397 55.5304 111.357 57.9148 111.357 60.7891H113.357C113.357 58.455 114.174 56.6402 115.793 55.2486L114.489 53.7319ZM111.357 60.7891C111.357 63.2569 112.088 65.2487 113.769 66.4789L114.95 64.8648C113.962 64.1419 113.357 62.8785 113.357 60.7891H111.357ZM113.782 66.4883C115.331 67.5842 117.293 68.0879 119.584 68.0879V66.0879C117.578 66.0879 116.057 65.6475 114.937 64.8555L113.782 66.4883ZM119.584 68.0879C122.987 68.0879 125.913 67.0743 128.295 65.0119L126.986 63.4998C125.007 65.2135 122.561 66.0879 119.584 66.0879V68.0879ZM128.29 65.0167C130.77 62.901 131.961 59.9116 131.961 56.1992H129.961C129.961 59.453 128.938 61.8347 126.992 63.495L128.29 65.0167ZM131.961 56.1992V51.707H129.961V56.1992H131.961ZM191.312 33.5918V34.5918H192.312V33.5918H191.312ZM178.422 33.5918V32.5918H177.422V33.5918H178.422ZM178.422 77V78H179.422V77H178.422ZM163.529 77H162.529V78H163.529V77ZM163.529 33.5918H164.529V32.5918H163.529V33.5918ZM155.326 33.5918H154.326V34.5918H155.326V33.5918ZM155.326 26.4141L154.888 25.5154L154.326 25.7894V26.4141H155.326ZM163.529 22.4102L163.968 23.3088L164.529 23.0348V22.4102H163.529ZM165.873 7.56641L165.02 7.04409L165.018 7.04715L165.873 7.56641ZM172.562 2.09766L172.904 3.03747L172.91 3.03528L172.562 2.09766ZM190.727 1.21875L190.525 2.19837L190.538 2.20085L190.727 1.21875ZM196.537 2.78125L197.481 3.1101L197.798 2.20085L196.902 1.85001L196.537 2.78125ZM192.729 13.7188L192.429 14.6727L193.354 14.9635L193.673 14.0476L192.729 13.7188ZM179.838 14.207L179.045 13.5973L179.043 13.6004L179.838 14.207ZM178.422 22.4102H177.422V23.4102H178.422V22.4102ZM191.312 22.4102H192.312V21.4102H191.312V22.4102ZM191.312 32.5918H178.422V34.5918H191.312V32.5918ZM177.422 33.5918V77H179.422V33.5918H177.422ZM178.422 76H163.529V78H178.422V76ZM164.529 77V33.5918H162.529V77H164.529ZM163.529 32.5918H155.326V34.5918H163.529V32.5918ZM156.326 33.5918V26.4141H154.326V33.5918H156.326ZM155.765 27.3127L163.968 23.3088L163.091 21.5115L154.888 25.5154L155.765 27.3127ZM164.529 22.4102V18.4062H162.529V22.4102H164.529ZM164.529 18.4062C164.529 13.8424 165.299 10.4374 166.728 8.08567L165.018 7.04715C163.322 9.83867 162.529 13.6602 162.529 18.4062H164.529ZM166.726 8.08872C168.203 5.67713 170.253 4.00162 172.904 3.03745L172.221 1.15786C169.143 2.27702 166.733 4.24735 165.02 7.04409L166.726 8.08872ZM172.91 3.03528C175.67 2.0119 178.965 1.48633 182.816 1.48633V-0.513672C178.79 -0.513672 175.249 0.0349724 172.215 1.16003L172.91 3.03528ZM182.816 1.48633C185.659 1.48633 188.227 1.72593 190.525 2.19828L190.928 0.239215C188.474 -0.264995 185.769 -0.513672 182.816 -0.513672V1.48633ZM190.538 2.20085C192.881 2.6502 194.753 3.157 196.173 3.71249L196.902 1.85001C195.326 1.23363 193.324 0.698759 190.915 0.236648L190.538 2.20085ZM195.593 2.4524L191.784 13.3899L193.673 14.0476L197.481 3.1101L195.593 2.4524ZM193.028 12.7648C191.857 12.3967 190.591 12.0639 189.232 11.7654L188.803 13.7189C190.113 14.0065 191.321 14.3247 192.429 14.6727L193.028 12.7648ZM189.232 11.7654C187.811 11.4536 186.207 11.3027 184.428 11.3027V13.3027C186.099 13.3027 187.554 13.4448 188.803 13.7189L189.232 11.7654ZM184.428 11.3027C182.136 11.3027 180.266 12.011 179.045 13.5973L180.631 14.8167C181.363 13.864 182.553 13.3027 184.428 13.3027V11.3027ZM179.043 13.6004C177.935 15.052 177.422 16.8767 177.422 18.9922H179.422C179.422 17.2015 179.853 15.8361 180.633 14.8137L179.043 13.6004ZM177.422 18.9922V22.4102H179.422V18.9922H177.422ZM178.422 23.4102H191.312V21.4102H178.422V23.4102ZM190.312 22.4102V33.5918H192.312V22.4102H190.312ZM227.641 65.623L227.437 64.6441L227.433 64.6449L227.641 65.623ZM232.279 64.4023H233.279V63.0335L231.975 63.4497L232.279 64.4023ZM232.279 75.4863L232.689 76.3986L233.279 76.1335V75.4863H232.279ZM226.322 77.2441L226.134 76.262L226.126 76.2635L226.118 76.2652L226.322 77.2441ZM209.818 76.4141L209.433 77.3368L209.44 77.3397L209.447 77.3425L209.818 76.4141ZM203.715 70.8965L202.841 71.3821L202.844 71.3886L202.848 71.395L203.715 70.8965ZM201.518 33.5918H202.518V32.5918H201.518V33.5918ZM194.389 33.5918H193.389V34.5918H194.389V33.5918ZM194.389 27.293L193.87 26.4382L193.389 26.7302V27.293H194.389ZM202.592 22.3125L203.111 23.1673L203.407 22.9871L203.529 22.6619L202.592 22.3125ZM206.889 10.7891V9.78906H206.194L205.952 10.4397L206.889 10.7891ZM216.41 10.7891H217.41V9.78906H216.41V10.7891ZM216.41 22.4102H215.41V23.4102H216.41V22.4102ZM231.693 22.4102H232.693V21.4102H231.693V22.4102ZM231.693 33.5918V34.5918H232.693V33.5918H231.693ZM216.41 33.5918V32.5918H215.41V33.5918H216.41ZM218.168 64.5977L217.504 65.3451L217.515 65.3548L217.526 65.3642L218.168 64.5977ZM222.904 67.1113C224.599 67.1113 226.248 66.9418 227.849 66.6012L227.433 64.6449C225.974 64.9553 224.465 65.1113 222.904 65.1113V67.1113ZM227.845 66.602C229.441 66.2694 231.021 65.8537 232.583 65.355L231.975 63.4497C230.478 63.9275 228.965 64.3256 227.437 64.6441L227.845 66.602ZM231.279 64.4023V75.4863H233.279V64.4023H231.279ZM231.87 74.5741C230.367 75.2489 228.461 75.8158 226.134 76.262L226.511 78.2262C228.936 77.761 231.002 77.156 232.689 76.3986L231.87 74.5741ZM226.118 76.2652C223.852 76.7374 221.35 76.9766 218.607 76.9766V78.9766C221.464 78.9766 224.105 78.7275 226.526 78.2231L226.118 76.2652ZM218.607 76.9766C215.459 76.9766 212.658 76.4731 210.19 75.4856L209.447 77.3425C212.187 78.4384 215.245 78.9766 218.607 78.9766V76.9766ZM210.204 75.4913C207.851 74.5086 205.979 72.8275 204.582 70.398L202.848 71.395C204.446 74.1738 206.642 76.1711 209.433 77.3368L210.204 75.4913ZM204.589 70.4108C203.24 67.9829 202.518 64.5134 202.518 59.9102H200.518C200.518 64.6819 201.26 68.5366 202.841 71.3821L204.589 70.4108ZM202.518 59.9102V33.5918H200.518V59.9102H202.518ZM201.518 32.5918H194.389V34.5918H201.518V32.5918ZM195.389 33.5918V27.293H193.389V33.5918H195.389ZM194.908 28.1478L203.111 23.1673L202.073 21.4577L193.87 26.4382L194.908 28.1478ZM203.529 22.6619L207.826 11.1384L205.952 10.4397L201.655 21.9631L203.529 22.6619ZM206.889 11.7891H216.41V9.78906H206.889V11.7891ZM215.41 10.7891V22.4102H217.41V10.7891H215.41ZM216.41 23.4102H231.693V21.4102H216.41V23.4102ZM230.693 22.4102V33.5918H232.693V22.4102H230.693ZM231.693 32.5918H216.41V34.5918H231.693V32.5918ZM215.41 33.5918V59.9102H217.41V33.5918H215.41ZM215.41 59.9102C215.41 62.1801 216.054 64.0565 217.504 65.3451L218.832 63.8502C217.938 63.0554 217.41 61.8068 217.41 59.9102H215.41ZM217.526 65.3642C218.951 66.558 220.775 67.1113 222.904 67.1113V65.1113C221.127 65.1113 219.794 64.6555 218.81 63.8311L217.526 65.3642Z" fill="black"/>
</svg>
