<svg width="311" height="68" viewBox="0 0 311 68" fill="none" xmlns="http://www.w3.org/2000/svg">
<path d="M25.9805 67.9766C20.5768 67.9766 15.9707 67 12.1621 65.0469C8.35352 63.0612 5.45638 60.0013 3.4707 55.8672C1.48503 51.7331 0.492188 46.4434 0.492188 39.998C0.492188 33.3249 1.61523 27.8887 3.86133 23.6895C6.13997 19.4577 9.28125 16.349 13.2852 14.3633C17.3216 12.3776 21.9928 11.3848 27.2988 11.3848C31.0749 11.3848 34.3301 11.7591 37.0645 12.5078C39.8314 13.224 42.2402 14.0866 44.291 15.0957L39.8965 26.6191C37.5527 25.6751 35.3717 24.9102 33.3535 24.3242C31.3353 23.7057 29.3171 23.3965 27.2988 23.3965C24.6947 23.3965 22.5299 24.015 20.8047 25.252C19.0794 26.4564 17.7936 28.2793 16.9473 30.7207C16.1009 33.1621 15.6777 36.222 15.6777 39.9004C15.6777 43.5137 16.1335 46.5085 17.0449 48.8848C17.9564 51.2611 19.2747 53.0352 21 54.207C22.7253 55.3464 24.8249 55.916 27.2988 55.916C30.3913 55.916 33.1419 55.5091 35.5508 54.6953C37.9596 53.849 40.3034 52.6771 42.582 51.1797V63.9238C40.3034 65.3561 37.9108 66.3815 35.4043 67C32.9303 67.651 29.7891 67.9766 25.9805 67.9766ZM85.7461 11.3848C86.4948 11.3848 87.3574 11.4336 88.334 11.5312C89.3431 11.5964 90.1569 11.694 90.7754 11.8242L89.6523 25.7891C89.1641 25.6263 88.4642 25.5124 87.5527 25.4473C86.6738 25.3496 85.9089 25.3008 85.2578 25.3008C83.3372 25.3008 81.4655 25.5449 79.6426 26.0332C77.8522 26.5215 76.2409 27.319 74.8086 28.4258C73.3763 29.5 72.237 30.9323 71.3906 32.7227C70.5768 34.4805 70.1699 36.6452 70.1699 39.2168V67H55.2773V12.4102H66.5566L68.7539 21.5898H69.4863C70.5605 19.7344 71.8952 18.0417 73.4902 16.5117C75.1178 14.9492 76.957 13.7122 79.0078 12.8008C81.0911 11.8568 83.3372 11.3848 85.7461 11.3848ZM123.197 11.3848C128.243 11.3848 132.589 12.3613 136.234 14.3145C139.88 16.235 142.696 19.0345 144.682 22.7129C146.667 26.3913 147.66 30.8835 147.66 36.1895V43.416H112.455C112.618 47.6152 113.871 50.9193 116.215 53.3281C118.591 55.7044 121.879 56.8926 126.078 56.8926C129.561 56.8926 132.751 56.5345 135.648 55.8184C138.546 55.1022 141.524 54.028 144.584 52.5957V64.1191C141.882 65.4538 139.05 66.4303 136.088 67.0488C133.158 67.6673 129.594 67.9766 125.395 67.9766C119.926 67.9766 115.076 66.9674 110.844 64.9492C106.645 62.931 103.34 59.8548 100.932 55.7207C98.5553 51.5866 97.3672 46.3783 97.3672 40.0957C97.3672 33.7155 98.4414 28.4095 100.59 24.1777C102.771 19.9134 105.798 16.7233 109.672 14.6074C113.546 12.459 118.054 11.3848 123.197 11.3848ZM123.295 21.9805C120.398 21.9805 117.989 22.9082 116.068 24.7637C114.18 26.6191 113.09 29.5326 112.797 33.5039H133.695C133.663 31.2904 133.256 29.321 132.475 27.5957C131.726 25.8704 130.587 24.5033 129.057 23.4941C127.559 22.485 125.639 21.9805 123.295 21.9805ZM182.133 11.2871C189.457 11.2871 195.072 12.8822 198.979 16.0723C202.885 19.2624 204.838 24.1126 204.838 30.623V67H194.438L191.557 59.5781H191.166C189.604 61.5312 188.008 63.1263 186.381 64.3633C184.753 65.6003 182.882 66.5117 180.766 67.0977C178.65 67.6836 176.078 67.9766 173.051 67.9766C169.828 67.9766 166.931 67.3581 164.359 66.1211C161.82 64.8841 159.818 62.9961 158.354 60.457C156.889 57.8854 156.156 54.6302 156.156 50.6914C156.156 44.8971 158.191 40.6328 162.26 37.8984C166.329 35.1315 172.432 33.6016 180.57 33.3086L190.043 33.0156V30.623C190.043 27.7585 189.294 25.6589 187.797 24.3242C186.299 22.9896 184.216 22.3223 181.547 22.3223C178.91 22.3223 176.322 22.6966 173.783 23.4453C171.244 24.194 168.705 25.138 166.166 26.2773L161.234 16.2188C164.132 14.6888 167.37 13.4844 170.951 12.6055C174.564 11.7266 178.292 11.2871 182.133 11.2871ZM190.043 41.707L184.281 41.9023C179.464 42.0326 176.111 42.8952 174.223 44.4902C172.367 46.0853 171.439 48.1849 171.439 50.7891C171.439 53.0677 172.107 54.6953 173.441 55.6719C174.776 56.6159 176.518 57.0879 178.666 57.0879C181.856 57.0879 184.542 56.1439 186.723 54.2559C188.936 52.3678 190.043 49.6823 190.043 46.1992V41.707ZM243.217 56.1113C244.844 56.1113 246.423 55.9486 247.953 55.623C249.516 55.2975 251.062 54.8906 252.592 54.4023V65.4863C250.997 66.2025 249.011 66.7884 246.635 67.2441C244.291 67.7324 241.719 67.9766 238.92 67.9766C235.665 67.9766 232.735 67.4557 230.131 66.4141C227.559 65.3398 225.525 63.5007 224.027 60.8965C222.562 58.2598 221.83 54.5977 221.83 49.9102V23.5918H214.701V17.293L222.904 12.3125L227.201 0.789062H236.723V12.4102H252.006V23.5918H236.723V49.9102C236.723 51.9935 237.309 53.556 238.48 54.5977C239.685 55.6068 241.264 56.1113 243.217 56.1113ZM286.186 11.3848C291.231 11.3848 295.577 12.3613 299.223 14.3145C302.868 16.235 305.684 19.0345 307.67 22.7129C309.656 26.3913 310.648 30.8835 310.648 36.1895V43.416H275.443C275.606 47.6152 276.859 50.9193 279.203 53.3281C281.579 55.7044 284.867 56.8926 289.066 56.8926C292.549 56.8926 295.74 56.5345 298.637 55.8184C301.534 55.1022 304.512 54.028 307.572 52.5957V64.1191C304.87 65.4538 302.038 66.4303 299.076 67.0488C296.146 67.6673 292.582 67.9766 288.383 67.9766C282.914 67.9766 278.064 66.9674 273.832 64.9492C269.633 62.931 266.329 59.8548 263.92 55.7207C261.544 51.5866 260.355 46.3783 260.355 40.0957C260.355 33.7155 261.43 28.4095 263.578 24.1777C265.759 19.9134 268.786 16.7233 272.66 14.6074C276.534 12.459 281.042 11.3848 286.186 11.3848ZM286.283 21.9805C283.386 21.9805 280.977 22.9082 279.057 24.7637C277.169 26.6191 276.078 29.5326 275.785 33.5039H296.684C296.651 31.2904 296.244 29.321 295.463 27.5957C294.714 25.8704 293.575 24.5033 292.045 23.4941C290.548 22.485 288.627 21.9805 286.283 21.9805Z" fill="white"/>
<path d="M12.1621 65.0469L11.6998 65.9336L11.7058 65.9367L12.1621 65.0469ZM3.86133 23.6895L2.98085 23.2154L2.97954 23.2178L3.86133 23.6895ZM13.2852 14.3633L12.8437 13.466L12.8409 13.4674L13.2852 14.3633ZM37.0645 12.5078L36.8003 13.4724L36.8139 13.4759L37.0645 12.5078ZM44.291 15.0957L45.2254 15.452L45.55 14.6007L44.7325 14.1984L44.291 15.0957ZM39.8965 26.6191L39.5229 27.5467L40.4678 27.9273L40.8308 26.9755L39.8965 26.6191ZM33.3535 24.3242L33.0605 25.2803L33.0676 25.2825L33.0747 25.2846L33.3535 24.3242ZM20.8047 25.252L21.3772 26.072L21.3874 26.0646L20.8047 25.252ZM21 54.207L20.4381 55.0343L20.4489 55.0415L21 54.207ZM35.5508 54.6953L35.8709 55.6428L35.8823 55.6388L35.5508 54.6953ZM42.582 51.1797H43.582V49.326L42.0329 50.344L42.582 51.1797ZM42.582 63.9238L43.1142 64.7705L43.582 64.4764V63.9238H42.582ZM35.4043 67L35.1647 66.0291L35.1573 66.031L35.1498 66.0329L35.4043 67ZM25.9805 66.9766C20.6949 66.9766 16.2536 66.0213 12.6184 64.1571L11.7058 65.9367C15.6878 67.9787 20.4588 68.9766 25.9805 68.9766V66.9766ZM12.6244 64.1602C9.02072 62.2813 6.27102 59.3877 4.37212 55.4342L2.56929 56.3001C4.64174 60.6149 7.68631 63.8411 11.6998 65.9336L12.6244 64.1602ZM4.37212 55.4342C2.47212 51.4785 1.49219 46.3503 1.49219 39.998H-0.507812C-0.507812 46.5364 0.497929 51.9876 2.56929 56.3001L4.37212 55.4342ZM1.49219 39.998C1.49219 33.4271 2.59949 28.1687 4.74311 24.1611L2.97954 23.2178C0.630974 27.6086 -0.507812 33.2226 -0.507812 39.998H1.49219ZM4.7418 24.1636C6.93006 20.0996 9.92535 17.1457 13.7295 15.2592L12.8409 13.4674C8.63715 15.5522 5.34989 18.8157 2.98086 23.2154L4.7418 24.1636ZM13.7266 15.2606C17.6031 13.3536 22.1186 12.3848 27.2988 12.3848V10.3848C21.8671 10.3848 17.0401 11.4016 12.8437 13.466L13.7266 15.2606ZM27.2988 12.3848C31.0132 12.3848 34.1751 12.7535 36.8004 13.4723L37.3285 11.5433C34.4851 10.7647 31.1365 10.3848 27.2988 10.3848V12.3848ZM36.8139 13.4759C39.5305 14.179 41.8727 15.0203 43.8495 15.993L44.7325 14.1984C42.6077 13.1529 40.1322 12.2689 37.315 11.5397L36.8139 13.4759ZM43.3567 14.7394L38.9621 26.2628L40.8308 26.9755L45.2254 15.452L43.3567 14.7394ZM40.2701 25.6916C37.9013 24.7375 35.6883 23.9608 33.6323 23.3639L33.0747 25.2846C35.0552 25.8595 37.2042 26.6128 39.5229 27.5467L40.2701 25.6916ZM33.6465 23.3681C31.5377 22.7219 29.4208 22.3965 27.2988 22.3965V24.3965C29.2133 24.3965 31.1329 24.6896 33.0605 25.2803L33.6465 23.3681ZM27.2988 22.3965C24.5338 22.3965 22.1525 23.0551 20.222 24.4393L21.3874 26.0646C22.9074 24.9748 24.8555 24.3965 27.2988 24.3965V22.3965ZM20.2323 24.432C18.2978 25.7825 16.9019 27.7987 16.0024 30.3932L17.8921 31.0482C18.6854 28.7599 19.861 27.1303 21.3771 26.0719L20.2323 24.432ZM16.0024 30.3932C15.1077 32.9742 14.6777 36.1538 14.6777 39.9004H16.6777C16.6777 36.2902 17.0942 33.35 17.8921 31.0482L16.0024 30.3932ZM14.6777 39.9004C14.6777 43.5888 15.1417 46.7152 16.1112 49.2429L17.9786 48.5266C17.1252 46.3018 16.6777 43.4386 16.6777 39.9004H14.6777ZM16.1112 49.2429C17.0795 51.7672 18.5098 53.7244 20.4381 55.0342L21.5619 53.3798C20.0397 52.3459 18.8333 50.7549 17.9786 48.5266L16.1112 49.2429ZM20.4489 55.0415C22.3675 56.3085 24.668 56.916 27.2988 56.916V54.916C24.9817 54.916 23.083 54.3842 21.5511 53.3726L20.4489 55.0415ZM27.2988 56.916C30.4774 56.916 33.3394 56.4979 35.8708 55.6427L35.2307 53.7479C32.9445 54.5203 30.3052 54.916 27.2988 54.916V56.916ZM35.8823 55.6388C38.3728 54.7637 40.7892 53.5544 43.1312 52.0154L42.0329 50.344C39.8175 51.7998 37.5465 52.9342 35.2193 53.7519L35.8823 55.6388ZM41.582 51.1797V63.9238H43.582V51.1797H41.582ZM42.0499 63.0772C39.8576 64.4552 37.5634 65.4373 35.1647 66.0291L35.6439 67.9709C38.2583 67.3258 40.7491 66.2571 43.1142 64.7705L42.0499 63.0772ZM35.1498 66.0329C32.7887 66.6543 29.7407 66.9766 25.9805 66.9766V68.9766C29.8375 68.9766 33.072 68.6478 35.6588 67.9671L35.1498 66.0329ZM88.334 11.5312L88.2345 12.5263L88.252 12.528L88.2696 12.5292L88.334 11.5312ZM90.7754 11.8242L91.7722 11.9044L91.8427 11.027L90.9814 10.8457L90.7754 11.8242ZM89.6523 25.7891L89.3361 26.7377L90.5468 27.1413L90.6491 25.8692L89.6523 25.7891ZM87.5527 25.4473L87.4423 26.4411L87.4619 26.4433L87.4815 26.4447L87.5527 25.4473ZM79.6426 26.0332L79.3838 25.0672L79.3795 25.0684L79.6426 26.0332ZM74.8086 28.4258L75.4086 29.2258L75.4143 29.2215L75.42 29.2171L74.8086 28.4258ZM71.3906 32.7227L70.4865 32.2953L70.4832 32.3025L71.3906 32.7227ZM70.1699 67V68H71.1699V67H70.1699ZM55.2773 67H54.2773V68H55.2773V67ZM55.2773 12.4102V11.4102H54.2773V12.4102H55.2773ZM66.5566 12.4102L67.5292 12.1774L67.3455 11.4102H66.5566V12.4102ZM68.7539 21.5898L67.7814 21.8226L67.965 22.5898H68.7539V21.5898ZM69.4863 21.5898V22.5898H70.0629L70.3518 22.0909L69.4863 21.5898ZM73.4902 16.5117L74.1825 17.2334L74.1828 17.2331L73.4902 16.5117ZM79.0078 12.8008L79.414 13.7146L79.4205 13.7116L79.0078 12.8008ZM85.7461 12.3848C86.4532 12.3848 87.2815 12.431 88.2345 12.5263L88.4335 10.5362C87.4334 10.4362 86.5364 10.3848 85.7461 10.3848V12.3848ZM88.2696 12.5292C89.2557 12.5928 90.0167 12.6864 90.5694 12.8028L90.9814 10.8457C90.2971 10.7016 89.4305 10.5999 88.3984 10.5333L88.2696 12.5292ZM89.7786 11.7441L88.6556 25.7089L90.6491 25.8692L91.7722 11.9044L89.7786 11.7441ZM89.9686 24.8404C89.3624 24.6383 88.5651 24.517 87.624 24.4498L87.4815 26.4447C88.3633 26.5077 88.9657 26.6143 89.3361 26.7377L89.9686 24.8404ZM87.6632 24.4534C86.7596 24.353 85.9561 24.3008 85.2578 24.3008V26.3008C85.8616 26.3008 86.588 26.3462 87.4423 26.4411L87.6632 24.4534ZM85.2578 24.3008C83.2514 24.3008 81.2926 24.556 79.3838 25.0673L79.9013 26.9992C81.6384 26.5339 83.423 26.3008 85.2578 26.3008V24.3008ZM79.3795 25.0684C77.466 25.5903 75.7357 26.4456 74.1971 27.6345L75.42 29.2171C76.7461 28.1924 78.2384 27.4527 79.9057 26.998L79.3795 25.0684ZM74.2086 27.6258C72.6328 28.8076 71.3949 30.3737 70.4866 32.2953L72.2947 33.15C73.079 31.4909 74.1198 30.1924 75.4086 29.2258L74.2086 27.6258ZM70.4832 32.3025C69.5919 34.2277 69.1699 36.5454 69.1699 39.2168H71.1699C71.1699 36.745 71.5618 34.7332 72.2981 33.1428L70.4832 32.3025ZM69.1699 39.2168V67H71.1699V39.2168H69.1699ZM70.1699 66H55.2773V68H70.1699V66ZM56.2773 67V12.4102H54.2773V67H56.2773ZM55.2773 13.4102H66.5566V11.4102H55.2773V13.4102ZM65.5841 12.6429L67.7814 21.8226L69.7264 21.3571L67.5292 12.1774L65.5841 12.6429ZM68.7539 22.5898H69.4863V20.5898H68.7539V22.5898ZM70.3518 22.0909C71.3775 20.3192 72.6531 18.7003 74.1825 17.2334L72.798 15.79C71.1373 17.383 69.7436 19.1495 68.6209 21.0888L70.3518 22.0909ZM74.1828 17.2331C75.7272 15.7504 77.4696 14.5787 79.414 13.7146L78.6017 11.887C76.4444 12.8457 74.5084 14.148 72.7977 15.7903L74.1828 17.2331ZM79.4205 13.7116C81.3674 12.8295 83.4719 12.3848 85.7461 12.3848V10.3848C83.2026 10.3848 80.8149 10.8841 78.5951 11.8899L79.4205 13.7116ZM136.234 14.3145L135.762 15.196L135.768 15.1992L136.234 14.3145ZM144.682 22.7129L143.802 23.1879L144.682 22.7129ZM147.66 43.416V44.416H148.66V43.416H147.66ZM112.455 43.416V42.416H111.416L111.456 43.4547L112.455 43.416ZM116.215 53.3281L115.498 54.0255L115.508 54.0352L116.215 53.3281ZM144.584 52.5957H145.584V51.0235L144.16 51.69L144.584 52.5957ZM144.584 64.1191L145.027 65.0157L145.584 64.7405V64.1191H144.584ZM136.088 67.0488L135.884 66.0699L135.881 66.0704L136.088 67.0488ZM110.844 64.9492L110.411 65.8505L110.413 65.8518L110.844 64.9492ZM100.932 55.7207L100.065 56.2191L100.068 56.2242L100.932 55.7207ZM100.59 24.1777L99.6995 23.7224L99.6982 23.725L100.59 24.1777ZM109.672 14.6074L110.151 15.4851L110.157 15.4819L109.672 14.6074ZM116.068 24.7637L115.374 24.0445L115.367 24.0504L116.068 24.7637ZM112.797 33.5039L111.8 33.4303L111.72 34.5039H112.797V33.5039ZM133.695 33.5039V34.5039H134.71L134.695 33.4892L133.695 33.5039ZM132.475 27.5957L131.557 27.9938L131.56 28.001L131.564 28.0082L132.475 27.5957ZM129.057 23.4941L128.498 24.3234L128.506 24.3289L129.057 23.4941ZM123.197 12.3848C128.114 12.3848 132.29 13.336 135.762 15.1959L136.707 13.433C132.887 11.3867 128.372 10.3848 123.197 10.3848V12.3848ZM135.768 15.1992C139.236 17.0259 141.909 19.6815 143.802 23.1879L145.562 22.2379C143.483 18.3875 140.525 15.4442 136.7 13.4297L135.768 15.1992ZM143.802 23.1879C145.69 26.6862 146.66 31.0056 146.66 36.1895H148.66C148.66 30.7613 147.644 26.0963 145.562 22.2379L143.802 23.1879ZM146.66 36.1895V43.416H148.66V36.1895H146.66ZM147.66 42.416H112.455V44.416H147.66V42.416ZM111.456 43.4547C111.626 47.8366 112.942 51.3983 115.498 54.0255L116.932 52.6308C114.8 50.4403 113.61 47.3939 113.454 43.3773L111.456 43.4547ZM115.508 54.0352C118.116 56.6433 121.684 57.8926 126.078 57.8926V55.8926C122.074 55.8926 119.066 54.7655 116.922 52.621L115.508 54.0352ZM126.078 57.8926C129.629 57.8926 132.901 57.5276 135.888 56.7891L135.408 54.8476C132.602 55.5414 129.493 55.8926 126.078 55.8926V57.8926ZM135.888 56.7891C138.856 56.0555 141.897 54.9578 145.008 53.5014L144.16 51.69C141.152 53.0982 138.235 54.149 135.408 54.8476L135.888 56.7891ZM143.584 52.5957V64.1191H145.584V52.5957H143.584ZM144.141 63.2226C141.515 64.5196 138.763 65.4686 135.884 66.0699L136.292 68.0277C139.337 67.392 142.249 66.3879 145.027 65.0157L144.141 63.2226ZM135.881 66.0704C133.041 66.6701 129.55 66.9766 125.395 66.9766V68.9766C129.638 68.9766 133.276 68.6645 136.294 68.0273L135.881 66.0704ZM125.395 66.9766C120.05 66.9766 115.351 65.9909 111.274 64.0466L110.413 65.8518C114.8 67.944 119.801 68.9766 125.395 68.9766V66.9766ZM111.277 64.0479C107.263 62.1187 104.107 59.1836 101.796 55.2173L100.068 56.2242C102.574 60.526 106.026 63.7433 110.411 65.8505L111.277 64.0479ZM101.799 55.2224C99.5329 51.2806 98.3672 46.2573 98.3672 40.0957H96.3672C96.3672 46.4993 97.5778 51.8926 100.065 56.219L101.799 55.2224ZM98.3672 40.0957C98.3672 33.8211 99.4245 28.6821 101.482 24.6304L99.6982 23.725C97.4583 28.1369 96.3672 33.6099 96.3672 40.0957H98.3672ZM101.48 24.6331C103.578 20.5316 106.469 17.4964 110.151 15.485L109.193 13.7298C105.127 15.9502 101.964 19.2952 99.6995 23.7224L101.48 24.6331ZM110.157 15.4819C113.86 13.4282 118.196 12.3848 123.197 12.3848V10.3848C117.912 10.3848 113.231 11.4898 109.187 13.7329L110.157 15.4819ZM123.295 20.9805C120.163 20.9805 117.497 21.9928 115.374 24.0445L116.763 25.4829C118.481 23.8236 120.633 22.9805 123.295 22.9805V20.9805ZM115.367 24.0504C113.237 26.144 112.102 29.3351 111.8 33.4303L113.794 33.5775C114.078 29.73 115.124 27.0943 116.769 25.4769L115.367 24.0504ZM112.797 34.5039H133.695V32.5039H112.797V34.5039ZM134.695 33.4892C134.661 31.1613 134.232 29.0529 133.386 27.1832L131.564 28.0082C132.28 29.5891 132.665 31.4194 132.695 33.5186L134.695 33.4892ZM133.392 27.1976C132.568 25.2992 131.304 23.7783 129.607 22.6594L128.506 24.3289C129.87 25.2282 130.884 26.4417 131.557 27.9938L133.392 27.1976ZM129.615 22.6649C127.91 21.5156 125.779 20.9805 123.295 20.9805V22.9805C125.498 22.9805 127.208 23.4544 128.498 24.3234L129.615 22.6649ZM198.979 16.0723L199.611 15.2977L198.979 16.0723ZM204.838 67V68H205.838V67H204.838ZM194.438 67L193.505 67.3619L193.753 68H194.438V67ZM191.557 59.5781L192.489 59.2163L192.241 58.5781H191.557V59.5781ZM191.166 59.5781V58.5781H190.685L190.385 58.9534L191.166 59.5781ZM186.381 64.3633L185.776 63.5671L186.381 64.3633ZM164.359 66.1211L163.921 67.0201L163.926 67.0223L164.359 66.1211ZM158.354 60.457L157.485 60.952L157.487 60.9568L158.354 60.457ZM162.26 37.8984L162.818 38.7285L162.822 38.7254L162.26 37.8984ZM180.57 33.3086L180.539 32.3091L180.534 32.3092L180.57 33.3086ZM190.043 33.0156L190.074 34.0151L191.043 33.9852V33.0156H190.043ZM166.166 26.2773L165.268 26.7176L165.694 27.5854L166.575 27.1897L166.166 26.2773ZM161.234 16.2188L160.767 15.3345L159.909 15.7876L160.336 16.659L161.234 16.2188ZM170.951 12.6055L170.715 11.6338L170.713 11.6343L170.951 12.6055ZM190.043 41.707H191.043V40.6726L190.009 40.7076L190.043 41.707ZM184.281 41.9023L184.308 42.902L184.315 42.9018L184.281 41.9023ZM174.223 44.4902L173.577 43.7263L173.571 43.7319L174.223 44.4902ZM173.441 55.6719L172.851 56.4789L172.857 56.4837L172.864 56.4883L173.441 55.6719ZM186.723 54.2559L186.074 53.495L186.068 53.4998L186.723 54.2559ZM182.133 12.2871C189.328 12.2871 194.684 13.8558 198.346 16.8468L199.611 15.2977C195.461 11.9085 189.586 10.2871 182.133 10.2871V12.2871ZM198.346 16.8468C201.955 19.7944 203.838 24.3185 203.838 30.623H205.838C205.838 23.9068 203.814 18.7303 199.611 15.2977L198.346 16.8468ZM203.838 30.623V67H205.838V30.623H203.838ZM204.838 66H194.438V68H204.838V66ZM195.37 66.6381L192.489 59.2163L190.624 59.94L193.505 67.3619L195.37 66.6381ZM191.557 58.5781H191.166V60.5781H191.557V58.5781ZM190.385 58.9534C188.863 60.8561 187.325 62.3895 185.776 63.5671L186.986 65.1594C188.692 63.8631 190.344 62.2064 191.947 60.2028L190.385 58.9534ZM185.776 63.5671C184.257 64.7218 182.501 65.5793 180.499 66.1339L181.033 68.0614C183.262 67.4441 185.25 66.4788 186.986 65.1594L185.776 63.5671ZM180.499 66.1339C178.496 66.6886 176.019 66.9766 173.051 66.9766V68.9766C176.137 68.9766 178.804 68.6785 181.033 68.0614L180.499 66.1339ZM173.051 66.9766C169.959 66.9766 167.213 66.3839 164.793 65.2199L163.926 67.0223C166.649 68.3323 169.698 68.9766 173.051 68.9766V66.9766ZM164.797 65.2221C162.445 64.076 160.589 62.3305 159.22 59.9573L157.487 60.9568C159.048 63.6617 161.196 65.6923 163.921 67.0201L164.797 65.2221ZM159.222 59.9621C157.867 57.5831 157.156 54.5121 157.156 50.6914H155.156C155.156 54.7483 155.91 58.1877 157.485 60.952L159.222 59.9621ZM157.156 50.6914C157.156 45.1603 159.078 41.2412 162.818 38.7284L161.702 37.0684C157.303 40.0244 155.156 44.6339 155.156 50.6914H157.156ZM162.822 38.7254C166.664 36.1128 172.546 34.5981 180.606 34.3079L180.534 32.3092C172.319 32.605 165.994 34.1502 161.697 37.0715L162.822 38.7254ZM180.601 34.3081L190.074 34.0151L190.012 32.0161L180.539 32.3091L180.601 34.3081ZM191.043 33.0156V30.623H189.043V33.0156H191.043ZM191.043 30.623C191.043 27.5986 190.251 25.1719 188.462 23.5777L187.132 25.0707C188.338 26.1458 189.043 27.9184 189.043 30.623H191.043ZM188.462 23.5777C186.728 22.0322 184.379 21.3223 181.547 21.3223V23.3223C184.053 23.3223 185.871 23.947 187.132 25.0707L188.462 23.5777ZM181.547 21.3223C178.814 21.3223 176.131 21.7105 173.5 22.4861L174.066 24.4045C176.514 23.6828 179.006 23.3223 181.547 23.3223V21.3223ZM173.5 22.4861C170.916 23.2482 168.335 24.2082 165.757 25.365L166.575 27.1897C169.075 26.0679 171.572 25.1398 174.066 24.4045L173.5 22.4861ZM167.064 25.8371L162.132 15.7785L160.336 16.659L165.268 26.7176L167.064 25.8371ZM161.701 17.103C164.518 15.6157 167.679 14.4384 171.19 13.5766L170.713 11.6343C167.062 12.5303 163.745 13.7619 160.767 15.3345L161.701 17.103ZM171.188 13.5771C174.721 12.7177 178.369 12.2871 182.133 12.2871V10.2871C178.215 10.2871 174.408 10.7355 170.715 11.6338L171.188 13.5771ZM190.009 40.7076L184.247 40.9029L184.315 42.9018L190.077 42.7065L190.009 40.7076ZM184.254 40.9027C179.394 41.0341 175.74 41.8989 173.577 43.7263L174.868 45.2541C176.481 43.8914 179.534 43.031 184.308 42.902L184.254 40.9027ZM173.571 43.7319C171.479 45.5304 170.439 47.9148 170.439 50.7891H172.439C172.439 48.455 173.256 46.6402 174.875 45.2486L173.571 43.7319ZM170.439 50.7891C170.439 53.2569 171.17 55.2487 172.851 56.4789L174.032 54.8648C173.044 54.1419 172.439 52.8785 172.439 50.7891H170.439ZM172.864 56.4883C174.413 57.5842 176.375 58.0879 178.666 58.0879V56.0879C176.66 56.0879 175.139 55.6475 174.019 54.8555L172.864 56.4883ZM178.666 58.0879C182.069 58.0879 184.995 57.0743 187.377 55.0119L186.068 53.4998C184.089 55.2135 181.643 56.0879 178.666 56.0879V58.0879ZM187.372 55.0167C189.852 52.901 191.043 49.9116 191.043 46.1992H189.043C189.043 49.453 188.02 51.8347 186.074 53.495L187.372 55.0167ZM191.043 46.1992V41.707H189.043V46.1992H191.043ZM247.953 55.623L247.749 54.6441L247.745 54.6449L247.953 55.623ZM252.592 54.4023H253.592V53.0335L252.288 53.4497L252.592 54.4023ZM252.592 65.4863L253.001 66.3986L253.592 66.1335V65.4863H252.592ZM246.635 67.2441L246.446 66.262L246.439 66.2635L246.431 66.2652L246.635 67.2441ZM230.131 66.4141L229.745 67.3368L229.752 67.3397L229.759 67.3425L230.131 66.4141ZM224.027 60.8965L223.153 61.3821L223.157 61.3886L223.16 61.395L224.027 60.8965ZM221.83 23.5918H222.83V22.5918H221.83V23.5918ZM214.701 23.5918H213.701V24.5918H214.701V23.5918ZM214.701 17.293L214.182 16.4382L213.701 16.7302V17.293H214.701ZM222.904 12.3125L223.423 13.1673L223.72 12.9871L223.841 12.6619L222.904 12.3125ZM227.201 0.789062V-0.210938H226.507L226.264 0.43968L227.201 0.789062ZM236.723 0.789062H237.723V-0.210938H236.723V0.789062ZM236.723 12.4102H235.723V13.4102H236.723V12.4102ZM252.006 12.4102H253.006V11.4102H252.006V12.4102ZM252.006 23.5918V24.5918H253.006V23.5918H252.006ZM236.723 23.5918V22.5918H235.723V23.5918H236.723ZM238.48 54.5977L237.816 55.3451L237.827 55.3548L237.838 55.3642L238.48 54.5977ZM243.217 57.1113C244.912 57.1113 246.56 56.9418 248.161 56.6012L247.745 54.6449C246.286 54.9553 244.777 55.1113 243.217 55.1113V57.1113ZM248.157 56.602C249.754 56.2694 251.333 55.8537 252.896 55.355L252.288 53.4497C250.79 53.9275 249.278 54.3256 247.749 54.6441L248.157 56.602ZM251.592 54.4023V65.4863H253.592V54.4023H251.592ZM252.182 64.5741C250.679 65.2489 248.773 65.8158 246.446 66.262L246.823 68.2262C249.249 67.761 251.314 67.156 253.001 66.3986L252.182 64.5741ZM246.431 66.2652C244.164 66.7374 241.662 66.9766 238.92 66.9766V68.9766C241.777 68.9766 244.418 68.7275 246.839 68.2231L246.431 66.2652ZM238.92 66.9766C235.772 66.9766 232.971 66.4731 230.502 65.4856L229.759 67.3425C232.499 68.4384 235.558 68.9766 238.92 68.9766V66.9766ZM230.516 65.4913C228.164 64.5086 226.291 62.8275 224.894 60.398L223.16 61.395C224.758 64.1738 226.955 66.1711 229.745 67.3368L230.516 65.4913ZM224.902 60.4108C223.553 57.9829 222.83 54.5134 222.83 49.9102H220.83C220.83 54.6819 221.572 58.5366 223.153 61.3821L224.902 60.4108ZM222.83 49.9102V23.5918H220.83V49.9102H222.83ZM221.83 22.5918H214.701V24.5918H221.83V22.5918ZM215.701 23.5918V17.293H213.701V23.5918H215.701ZM215.22 18.1478L223.423 13.1673L222.385 11.4577L214.182 16.4382L215.22 18.1478ZM223.841 12.6619L228.138 1.13844L226.264 0.43968L221.967 11.9631L223.841 12.6619ZM227.201 1.78906H236.723V-0.210938H227.201V1.78906ZM235.723 0.789062V12.4102H237.723V0.789062H235.723ZM236.723 13.4102H252.006V11.4102H236.723V13.4102ZM251.006 12.4102V23.5918H253.006V12.4102H251.006ZM252.006 22.5918H236.723V24.5918H252.006V22.5918ZM235.723 23.5918V49.9102H237.723V23.5918H235.723ZM235.723 49.9102C235.723 52.1801 236.367 54.0565 237.816 55.3451L239.145 53.8502C238.251 53.0554 237.723 51.8068 237.723 49.9102H235.723ZM237.838 55.3642C239.263 56.558 241.088 57.1113 243.217 57.1113V55.1113C241.44 55.1113 240.107 54.6555 239.123 53.8311L237.838 55.3642ZM299.223 14.3145L298.75 15.196L298.757 15.1992L299.223 14.3145ZM307.67 22.7129L306.79 23.1879L307.67 22.7129ZM310.648 43.416V44.416H311.648V43.416H310.648ZM275.443 43.416V42.416H274.404L274.444 43.4547L275.443 43.416ZM279.203 53.3281L278.486 54.0255L278.496 54.0352L279.203 53.3281ZM307.572 52.5957H308.572V51.0235L307.148 51.69L307.572 52.5957ZM307.572 64.1191L308.015 65.0157L308.572 64.7405V64.1191H307.572ZM299.076 67.0488L298.872 66.0699L298.87 66.0704L299.076 67.0488ZM273.832 64.9492L273.399 65.8505L273.402 65.8518L273.832 64.9492ZM263.92 55.7207L263.053 56.2191L263.056 56.2242L263.92 55.7207ZM263.578 24.1777L262.688 23.7224L262.686 23.725L263.578 24.1777ZM272.66 14.6074L273.14 15.4851L273.145 15.4819L272.66 14.6074ZM279.057 24.7637L278.362 24.0445L278.356 24.0504L279.057 24.7637ZM275.785 33.5039L274.788 33.4303L274.709 34.5039H275.785V33.5039ZM296.684 33.5039V34.5039H297.698L297.683 33.4892L296.684 33.5039ZM295.463 27.5957L294.546 27.9938L294.549 28.001L294.552 28.0082L295.463 27.5957ZM292.045 23.4941L291.486 24.3234L291.494 24.3289L292.045 23.4941ZM286.186 12.3848C291.102 12.3848 295.278 13.336 298.75 15.1959L299.695 13.433C295.875 11.3867 291.36 10.3848 286.186 10.3848V12.3848ZM298.757 15.1992C302.224 17.0259 304.897 19.6815 306.79 23.1879L308.55 22.2379C306.471 18.3875 303.513 15.4442 299.689 13.4297L298.757 15.1992ZM306.79 23.1879C308.678 26.6862 309.648 31.0056 309.648 36.1895H311.648C311.648 30.7613 310.633 26.0963 308.55 22.2379L306.79 23.1879ZM309.648 36.1895V43.416H311.648V36.1895H309.648ZM310.648 42.416H275.443V44.416H310.648V42.416ZM274.444 43.4547C274.614 47.8366 275.93 51.3983 278.486 54.0255L279.92 52.6308C277.789 50.4403 276.598 47.3939 276.443 43.3773L274.444 43.4547ZM278.496 54.0352C281.104 56.6433 284.672 57.8926 289.066 57.8926V55.8926C285.062 55.8926 282.055 54.7655 279.91 52.621L278.496 54.0352ZM289.066 57.8926C292.617 57.8926 295.889 57.5276 298.877 56.7891L298.397 54.8476C295.59 55.5414 292.482 55.8926 289.066 55.8926V57.8926ZM298.877 56.7891C301.845 56.0555 304.885 54.9578 307.996 53.5014L307.148 51.69C304.14 53.0982 301.223 54.149 298.397 54.8476L298.877 56.7891ZM306.572 52.5957V64.1191H308.572V52.5957H306.572ZM307.129 63.2226C304.504 64.5196 301.752 65.4686 298.872 66.0699L299.281 68.0277C302.325 67.392 305.237 66.3879 308.015 65.0157L307.129 63.2226ZM298.87 66.0704C296.029 66.6701 292.538 66.9766 288.383 66.9766V68.9766C292.626 68.9766 296.264 68.6645 299.283 68.0273L298.87 66.0704ZM288.383 66.9766C283.038 66.9766 278.339 65.9909 274.263 64.0466L273.402 65.8518C277.788 67.944 282.79 68.9766 288.383 68.9766V66.9766ZM274.265 64.0479C270.251 62.1187 267.095 59.1836 264.784 55.2173L263.056 56.2242C265.562 60.526 269.014 63.7433 273.399 65.8505L274.265 64.0479ZM264.787 55.2224C262.521 51.2806 261.355 46.2573 261.355 40.0957H259.355C259.355 46.4993 260.566 51.8926 263.053 56.219L264.787 55.2224ZM261.355 40.0957C261.355 33.8211 262.413 28.6821 264.47 24.6304L262.686 23.725C260.447 28.1369 259.355 33.6099 259.355 40.0957H261.355ZM264.468 24.6331C266.566 20.5316 269.457 17.4964 273.14 15.485L272.181 13.7298C268.116 15.9502 264.952 19.2952 262.688 23.7224L264.468 24.6331ZM273.145 15.4819C276.848 13.4282 281.184 12.3848 286.186 12.3848V10.3848C280.9 10.3848 276.22 11.4898 272.175 13.7329L273.145 15.4819ZM286.283 20.9805C283.151 20.9805 280.486 21.9928 278.362 24.0445L279.751 25.4829C281.469 23.8236 283.621 22.9805 286.283 22.9805V20.9805ZM278.356 24.0504C276.225 26.144 275.09 29.3351 274.788 33.4303L276.782 33.5775C277.066 29.73 278.112 27.0943 279.758 25.4769L278.356 24.0504ZM275.785 34.5039H296.684V32.5039H275.785V34.5039ZM297.683 33.4892C297.649 31.1613 297.22 29.0529 296.374 27.1832L294.552 28.0082C295.268 29.5891 295.653 31.4194 295.684 33.5186L297.683 33.4892ZM296.38 27.1976C295.556 25.2992 294.292 23.7783 292.596 22.6594L291.494 24.3289C292.858 25.2282 293.872 26.4417 294.546 27.9938L296.38 27.1976ZM292.604 22.6649C290.898 21.5156 288.767 20.9805 286.283 20.9805V22.9805C288.487 22.9805 290.197 23.4544 291.486 24.3234L292.604 22.6649Z" fill="black"/>
</svg>
