<svg width="386" height="101" viewBox="0 0 386 101" fill="none" xmlns="http://www.w3.org/2000/svg">
<path d="M21.0977 76.9766C15.0104 76.9766 10.0462 74.6003 6.20508 69.8477C2.39648 65.0625 0.492188 58.0475 0.492188 48.8027C0.492188 39.4603 2.42904 32.3965 6.30273 27.6113C10.1764 22.7936 15.2383 20.3848 21.4883 20.3848C24.0924 20.3848 26.3874 20.7428 28.373 21.459C30.3587 22.1751 32.0677 23.1354 33.5 24.3398C34.9648 25.5443 36.2018 26.8952 37.2109 28.3926H37.6992C37.5039 27.3509 37.2598 25.821 36.9668 23.8027C36.7064 21.752 36.5762 19.6523 36.5762 17.5039V0.0234375H51.5176V76H40.0918L37.2109 68.9199H36.5762C35.6322 70.4173 34.444 71.7845 33.0117 73.0215C31.612 74.2259 29.9355 75.1862 27.9824 75.9023C26.0293 76.6185 23.7344 76.9766 21.0977 76.9766ZM26.3223 65.1113C30.3913 65.1113 33.2559 63.9069 34.916 61.498C36.6087 59.0566 37.5039 55.3945 37.6016 50.5117V48.9004C37.6016 43.5944 36.7878 39.5417 35.1602 36.7422C33.5326 33.9102 30.5052 32.4941 26.0781 32.4941C22.7904 32.4941 20.2188 33.9102 18.3633 36.7422C16.5078 39.5742 15.5801 43.6595 15.5801 48.998C15.5801 54.3366 16.5078 58.3568 18.3633 61.0586C20.2513 63.7604 22.9043 65.1113 26.3223 65.1113ZM89.6035 20.3848C94.6491 20.3848 98.9948 21.3613 102.641 23.3145C106.286 25.235 109.102 28.0345 111.088 31.7129C113.074 35.3913 114.066 39.8835 114.066 45.1895V52.416H78.8613C79.0241 56.6152 80.2773 59.9193 82.6211 62.3281C84.9974 64.7044 88.2852 65.8926 92.4844 65.8926C95.9674 65.8926 99.1576 65.5345 102.055 64.8184C104.952 64.1022 107.93 63.028 110.99 61.5957V73.1191C108.288 74.4538 105.456 75.4303 102.494 76.0488C99.5645 76.6673 96 76.9766 91.8008 76.9766C86.332 76.9766 81.4818 75.9674 77.25 73.9492C73.0508 71.931 69.7467 68.8548 67.3379 64.7207C64.9616 60.5866 63.7734 55.3783 63.7734 49.0957C63.7734 42.7155 64.8477 37.4095 66.9961 33.1777C69.1771 28.9134 72.2044 25.7233 76.0781 23.6074C79.9518 21.459 84.4603 20.3848 89.6035 20.3848ZM89.7012 30.9805C86.804 30.9805 84.3952 31.9082 82.4746 33.7637C80.5866 35.6191 79.4961 38.5326 79.2031 42.5039H100.102C100.069 40.2904 99.6621 38.321 98.8809 36.5957C98.1322 34.8704 96.9928 33.5033 95.4629 32.4941C93.9655 31.485 92.0449 30.9805 89.7012 30.9805ZM139.164 76L118.363 21.4102H133.939L144.486 52.5137C145.072 54.3366 145.528 56.2572 145.854 58.2754C146.212 60.2936 146.456 62.1003 146.586 63.6953H146.977C147.074 61.9701 147.302 60.1309 147.66 58.1777C148.051 56.2246 148.555 54.3366 149.174 52.5137L159.672 21.4102H175.248L154.447 76H139.164ZM205.619 20.3848C210.665 20.3848 215.01 21.3613 218.656 23.3145C222.302 25.235 225.118 28.0345 227.104 31.7129C229.089 35.3913 230.082 39.8835 230.082 45.1895V52.416H194.877C195.04 56.6152 196.293 59.9193 198.637 62.3281C201.013 64.7044 204.301 65.8926 208.5 65.8926C211.983 65.8926 215.173 65.5345 218.07 64.8184C220.967 64.1022 223.946 63.028 227.006 61.5957V73.1191C224.304 74.4538 221.472 75.4303 218.51 76.0488C215.58 76.6673 212.016 76.9766 207.816 76.9766C202.348 76.9766 197.497 75.9674 193.266 73.9492C189.066 71.931 185.762 68.8548 183.354 64.7207C180.977 60.5866 179.789 55.3783 179.789 49.0957C179.789 42.7155 180.863 37.4095 183.012 33.1777C185.193 28.9134 188.22 25.7233 192.094 23.6074C195.967 21.459 200.476 20.3848 205.619 20.3848ZM205.717 30.9805C202.82 30.9805 200.411 31.9082 198.49 33.7637C196.602 35.6191 195.512 38.5326 195.219 42.5039H216.117C216.085 40.2904 215.678 38.321 214.896 36.5957C214.148 34.8704 213.008 33.5033 211.479 32.4941C209.981 31.485 208.061 30.9805 205.717 30.9805ZM257.084 76H242.191V0.0234375H257.084V76ZM322.367 48.6074C322.367 53.1647 321.749 57.2012 320.512 60.7168C319.307 64.2324 317.533 67.2109 315.189 69.6523C312.878 72.0612 310.079 73.8841 306.791 75.1211C303.536 76.3581 299.857 76.9766 295.756 76.9766C291.915 76.9766 288.383 76.3581 285.16 75.1211C281.97 73.8841 279.187 72.0612 276.811 69.6523C274.467 67.2109 272.644 64.2324 271.342 60.7168C270.072 57.2012 269.438 53.1647 269.438 48.6074C269.438 42.5527 270.512 37.4258 272.66 33.2266C274.809 29.0273 277.868 25.8372 281.84 23.6562C285.811 21.4753 290.548 20.3848 296.049 20.3848C301.16 20.3848 305.684 21.4753 309.623 23.6562C313.594 25.8372 316.703 29.0273 318.949 33.2266C321.228 37.4258 322.367 42.5527 322.367 48.6074ZM284.623 48.6074C284.623 52.1882 285.014 55.1992 285.795 57.6406C286.576 60.082 287.797 61.9212 289.457 63.1582C291.117 64.3952 293.282 65.0137 295.951 65.0137C298.588 65.0137 300.72 64.3952 302.348 63.1582C304.008 61.9212 305.212 60.082 305.961 57.6406C306.742 55.1992 307.133 52.1882 307.133 48.6074C307.133 44.9941 306.742 41.9993 305.961 39.623C305.212 37.2142 304.008 35.4076 302.348 34.2031C300.688 32.9987 298.523 32.3965 295.854 32.3965C291.915 32.3965 289.05 33.7474 287.26 36.4492C285.502 39.151 284.623 43.2038 284.623 48.6074ZM365.043 20.3848C371.195 20.3848 376.16 22.7773 379.936 27.5625C383.744 32.3477 385.648 39.3626 385.648 48.6074C385.648 54.7923 384.753 60.0007 382.963 64.2324C381.173 68.4316 378.699 71.6055 375.541 73.7539C372.383 75.9023 368.754 76.9766 364.652 76.9766C362.016 76.9766 359.753 76.651 357.865 76C355.977 75.3164 354.366 74.4538 353.031 73.4121C351.697 72.3379 350.541 71.1986 349.564 69.9941H348.783C349.044 71.2962 349.239 72.6309 349.369 73.998C349.499 75.3652 349.564 76.6999 349.564 78.002V100.023H334.672V21.4102H346.781L348.881 28.4902H349.564C350.541 27.0254 351.729 25.6745 353.129 24.4375C354.529 23.2005 356.205 22.224 358.158 21.5078C360.144 20.7591 362.439 20.3848 365.043 20.3848ZM360.258 32.2988C357.654 32.2988 355.587 32.8359 354.057 33.9102C352.527 34.9844 351.404 36.5957 350.688 38.7441C350.004 40.8926 349.63 43.6107 349.564 46.8984V48.5098C349.564 52.0254 349.89 55.0039 350.541 57.4453C351.225 59.8867 352.348 61.7422 353.91 63.0117C355.505 64.2812 357.686 64.916 360.453 64.916C362.732 64.916 364.604 64.2812 366.068 63.0117C367.533 61.7422 368.624 59.8867 369.34 57.4453C370.089 54.9714 370.463 51.9603 370.463 48.4121C370.463 43.0736 369.633 39.0534 367.973 36.3516C366.312 33.6497 363.741 32.2988 360.258 32.2988Z" fill="white"/>
<path d="M6.20508 69.8477L5.42263 70.4704L5.42734 70.4762L6.20508 69.8477ZM6.30273 27.6113L7.07998 28.2405L7.08206 28.2379L6.30273 27.6113ZM33.5 24.3398L32.8564 25.1053L32.8649 25.1123L33.5 24.3398ZM37.2109 28.3926L36.3817 28.9514L36.679 29.3926H37.2109V28.3926ZM37.6992 28.3926V29.3926H38.9041L38.6821 28.2083L37.6992 28.3926ZM36.9668 23.8027L35.9748 23.9287L35.9759 23.9376L35.9772 23.9464L36.9668 23.8027ZM36.5762 0.0234375V-0.976562H35.5762V0.0234375H36.5762ZM51.5176 0.0234375H52.5176V-0.976562H51.5176V0.0234375ZM51.5176 76V77H52.5176V76H51.5176ZM40.0918 76L39.1655 76.3769L39.4191 77H40.0918V76ZM37.2109 68.9199L38.1372 68.543L37.8837 67.9199H37.2109V68.9199ZM36.5762 68.9199V67.9199H36.0245L35.7302 68.3866L36.5762 68.9199ZM33.0117 73.0215L33.664 73.7795L33.6653 73.7783L33.0117 73.0215ZM34.916 61.498L34.0942 60.9283L34.0926 60.9306L34.916 61.498ZM37.6016 50.5117L38.6014 50.5317L38.6016 50.5217V50.5117H37.6016ZM35.1602 36.7422L34.2931 37.2405L34.2956 37.2448L35.1602 36.7422ZM18.3633 61.0586L17.5389 61.6247L17.5436 61.6314L18.3633 61.0586ZM21.0977 75.9766C15.3138 75.9766 10.635 73.7378 6.98282 69.2191L5.42734 70.4762C9.45748 75.4627 14.707 77.9766 21.0977 77.9766V75.9766ZM6.9875 69.2249C3.37587 64.6872 1.49219 57.9318 1.49219 48.8027H-0.507812C-0.507812 58.1633 1.4171 65.4378 5.42265 70.4704L6.9875 69.2249ZM1.49219 48.8027C1.49219 39.5761 3.40837 32.776 7.07998 28.2405L5.52549 26.9821C1.44971 32.0169 -0.507812 39.3444 -0.507812 48.8027H1.49219ZM7.08206 28.2379C10.7635 23.6593 15.5373 21.3848 21.4883 21.3848V19.3848C14.9393 19.3848 9.58935 21.9279 5.52341 26.9847L7.08206 28.2379ZM21.4883 21.3848C24.0028 21.3848 26.179 21.7307 28.0338 22.3997L28.7123 20.5183C26.5958 19.7549 24.1821 19.3848 21.4883 19.3848V21.3848ZM28.0338 22.3997C29.9225 23.0809 31.5252 23.9858 32.8564 25.1052L34.1436 23.5745C32.6102 22.285 30.7949 21.2694 28.7123 20.5183L28.0338 22.3997ZM32.8649 25.1123C34.2588 26.2584 35.4293 27.5382 36.3817 28.9514L38.0402 27.8337C36.9744 26.2522 35.6709 24.8302 34.1351 23.5674L32.8649 25.1123ZM37.2109 29.3926H37.6992V27.3926H37.2109V29.3926ZM38.6821 28.2083C38.4907 27.1873 38.2489 25.6737 37.9564 23.6591L35.9772 23.9464C36.2707 25.9683 36.5172 27.5145 36.7163 28.5769L38.6821 28.2083ZM37.9588 23.6768C37.7039 21.6694 37.5762 19.6119 37.5762 17.5039H35.5762C35.5762 19.6928 35.7088 21.8345 35.9748 23.9287L37.9588 23.6768ZM37.5762 17.5039V0.0234375H35.5762V17.5039H37.5762ZM36.5762 1.02344H51.5176V-0.976562H36.5762V1.02344ZM50.5176 0.0234375V76H52.5176V0.0234375H50.5176ZM51.5176 75H40.0918V77H51.5176V75ZM41.0181 75.6231L38.1372 68.543L36.2847 69.2968L39.1655 76.3769L41.0181 75.6231ZM37.2109 67.9199H36.5762V69.9199H37.2109V67.9199ZM35.7302 68.3866C34.8425 69.7948 33.7208 71.0878 32.3581 72.2647L33.6653 73.7783C35.1673 72.4812 36.4219 71.0398 37.4221 69.4532L35.7302 68.3866ZM32.3595 72.2635C31.0615 73.3804 29.4928 74.2835 27.6382 74.9635L28.3267 76.8412C30.3783 76.0889 32.1625 75.0715 33.664 73.7795L32.3595 72.2635ZM27.6382 74.9635C25.8204 75.63 23.647 75.9766 21.0977 75.9766V77.9766C23.8218 77.9766 26.2382 77.607 28.3267 76.8412L27.6382 74.9635ZM26.3223 66.1113C30.5808 66.1113 33.8255 64.8426 35.7394 62.0655L34.0926 60.9306C32.6863 62.9712 30.2018 64.1113 26.3223 64.1113V66.1113ZM35.7378 62.0678C37.5938 59.391 38.5021 55.4968 38.6014 50.5317L36.6018 50.4917C36.5058 55.2922 35.6237 58.7223 34.0942 60.9283L35.7378 62.0678ZM38.6016 50.5117V48.9004H36.6016V50.5117H38.6016ZM38.6016 48.9004C38.6016 43.5186 37.7807 39.26 36.0247 36.2396L34.2956 37.2448C35.7948 39.8233 36.6016 43.6702 36.6016 48.9004H38.6016ZM36.0272 36.2439C34.1595 32.9941 30.7191 31.4941 26.0781 31.4941V33.4941C30.2913 33.4941 32.9056 34.8262 34.2931 37.2405L36.0272 36.2439ZM26.0781 31.4941C22.4412 31.4941 19.5604 33.0902 17.5268 36.1942L19.1997 37.2902C20.8771 34.7301 23.1395 33.4941 26.0781 33.4941V31.4941ZM17.5268 36.1942C15.5195 39.258 14.5801 43.5679 14.5801 48.998H16.5801C16.5801 43.7511 17.4961 39.8905 19.1997 37.2902L17.5268 36.1942ZM14.5801 48.998C14.5801 54.423 15.5175 58.6813 17.5389 61.6247L19.1876 60.4925C17.4981 58.0323 16.5801 54.2501 16.5801 48.998H14.5801ZM17.5436 61.6314C19.6268 64.6125 22.592 66.1113 26.3223 66.1113V64.1113C23.2165 64.1113 20.8759 62.9084 19.183 60.4858L17.5436 61.6314ZM102.641 23.3145L102.168 24.196L102.175 24.1992L102.641 23.3145ZM111.088 31.7129L110.208 32.1879L111.088 31.7129ZM114.066 52.416V53.416H115.066V52.416H114.066ZM78.8613 52.416V51.416H77.8218L77.8621 52.4547L78.8613 52.416ZM82.6211 62.3281L81.9043 63.0255L81.914 63.0352L82.6211 62.3281ZM110.99 61.5957H111.99V60.0235L110.566 60.69L110.99 61.5957ZM110.99 73.1191L111.433 74.0157L111.99 73.7405V73.1191H110.99ZM102.494 76.0488L102.29 75.0699L102.288 75.0704L102.494 76.0488ZM77.25 73.9492L76.8168 74.8505L76.8195 74.8518L77.25 73.9492ZM67.3379 64.7207L66.4709 65.2191L66.4739 65.2242L67.3379 64.7207ZM66.9961 33.1777L66.1058 32.7224L66.1044 32.725L66.9961 33.1777ZM76.0781 23.6074L76.5575 24.4851L76.5631 24.4819L76.0781 23.6074ZM82.4746 33.7637L81.7798 33.0445L81.7737 33.0504L82.4746 33.7637ZM79.2031 42.5039L78.2058 42.4303L78.1266 43.5039H79.2031V42.5039ZM100.102 42.5039V43.5039H101.116L101.101 42.4892L100.102 42.5039ZM98.8809 36.5957L97.9635 36.9938L97.9667 37.001L97.9699 37.0082L98.8809 36.5957ZM95.4629 32.4941L94.904 33.3234L94.9123 33.3289L95.4629 32.4941ZM89.6035 21.3848C94.5202 21.3848 98.6964 22.336 102.168 24.1959L103.113 22.433C99.2931 20.3867 94.778 19.3848 89.6035 19.3848V21.3848ZM102.175 24.1992C105.642 26.0259 108.315 28.6815 110.208 32.1879L111.968 31.2379C109.889 27.3875 106.931 24.4442 103.107 22.4297L102.175 24.1992ZM110.208 32.1879C112.096 35.6862 113.066 40.0056 113.066 45.1895H115.066C115.066 39.7613 114.051 35.0963 111.968 31.2379L110.208 32.1879ZM113.066 45.1895V52.416H115.066V45.1895H113.066ZM114.066 51.416H78.8613V53.416H114.066V51.416ZM77.8621 52.4547C78.0319 56.8366 79.3482 60.3983 81.9044 63.0255L83.3378 61.6308C81.2065 59.4403 80.0163 56.3939 79.8606 52.3773L77.8621 52.4547ZM81.914 63.0352C84.5221 65.6433 88.0899 66.8926 92.4844 66.8926V64.8926C88.4805 64.8926 85.4727 63.7655 83.3282 61.621L81.914 63.0352ZM92.4844 66.8926C96.0352 66.8926 99.3072 66.5276 102.295 65.7891L101.815 63.8476C99.0079 64.5414 95.8997 64.8926 92.4844 64.8926V66.8926ZM102.295 65.7891C105.263 65.0555 108.303 63.9578 111.414 62.5014L110.566 60.69C107.558 62.0982 104.641 63.149 101.815 63.8476L102.295 65.7891ZM109.99 61.5957V73.1191H111.99V61.5957H109.99ZM110.547 72.2226C107.922 73.5196 105.17 74.4686 102.29 75.0699L102.699 77.0277C105.743 76.392 108.655 75.3879 111.433 74.0157L110.547 72.2226ZM102.288 75.0704C99.4468 75.6701 95.956 75.9766 91.8008 75.9766V77.9766C96.044 77.9766 99.6821 77.6645 102.701 77.0273L102.288 75.0704ZM91.8008 75.9766C86.4563 75.9766 81.7572 74.9909 77.6805 73.0466L76.8195 74.8518C81.2064 76.944 86.2077 77.9766 91.8008 77.9766V75.9766ZM77.6832 73.0479C73.6692 71.1187 70.513 68.1836 68.2019 64.2173L66.4739 65.2242C68.9805 69.526 72.4324 72.7433 76.8168 74.8505L77.6832 73.0479ZM68.2049 64.2224C65.9391 60.2806 64.7734 55.2573 64.7734 49.0957H62.7734C62.7734 55.4993 63.984 60.8926 66.4709 65.219L68.2049 64.2224ZM64.7734 49.0957C64.7734 42.8211 65.8307 37.6821 67.8878 33.6304L66.1044 32.725C63.8646 37.1369 62.7734 42.6099 62.7734 49.0957H64.7734ZM67.8864 33.6331C69.9841 29.5316 72.8752 26.4964 76.5575 24.485L75.5988 22.7298C71.5337 24.9502 68.3701 28.2952 66.1058 32.7224L67.8864 33.6331ZM76.5631 24.4819C80.2661 22.4282 84.6024 21.3848 89.6035 21.3848V19.3848C84.3181 19.3848 79.6376 20.4898 75.5931 22.7329L76.5631 24.4819ZM89.7012 29.9805C86.5689 29.9805 83.9035 30.9928 81.7798 33.0445L83.1694 34.4829C84.8869 32.8236 87.0391 31.9805 89.7012 31.9805V29.9805ZM81.7737 33.0504C79.6434 35.144 78.5079 38.3351 78.2058 42.4303L80.2004 42.5775C80.4842 38.73 81.5298 36.0943 83.1755 34.4769L81.7737 33.0504ZM79.2031 43.5039H100.102V41.5039H79.2031V43.5039ZM101.101 42.4892C101.067 40.1613 100.638 38.0529 99.7918 36.1832L97.9699 37.0082C98.6858 38.5891 99.0708 40.4194 99.1017 42.5186L101.101 42.4892ZM99.7982 36.1976C98.9744 34.2992 97.7099 32.7783 96.0135 31.6594L94.9123 33.3289C96.2758 34.2282 97.29 35.4417 97.9635 36.9938L99.7982 36.1976ZM96.0217 31.6649C94.3164 30.5156 92.1853 29.9805 89.7012 29.9805V31.9805C91.9046 31.9805 93.6146 32.4544 94.904 33.3234L96.0217 31.6649ZM139.164 76L138.23 76.3561L138.475 77H139.164V76ZM118.363 21.4102V20.4102H116.912L117.429 21.7662L118.363 21.4102ZM133.939 21.4102L134.886 21.089L134.656 20.4102H133.939V21.4102ZM144.486 52.5137L145.438 52.2077L145.436 52.2001L145.433 52.1925L144.486 52.5137ZM145.854 58.2754L144.866 58.4346L144.868 58.4424L144.869 58.4501L145.854 58.2754ZM146.586 63.6953L145.589 63.7767L145.664 64.6953H146.586V63.6953ZM146.977 63.6953V64.6953H147.922L147.975 63.7518L146.977 63.6953ZM147.66 58.1777L146.68 57.9816L146.678 57.9895L146.677 57.9974L147.66 58.1777ZM149.174 52.5137L150.121 52.835L150.121 52.8335L149.174 52.5137ZM159.672 21.4102V20.4102H158.954L158.724 21.0904L159.672 21.4102ZM175.248 21.4102L176.183 21.7662L176.699 20.4102H175.248V21.4102ZM154.447 76V77H155.136L155.382 76.3561L154.447 76ZM140.099 75.6439L119.298 21.0541L117.429 21.7662L138.23 76.3561L140.099 75.6439ZM118.363 22.4102H133.939V20.4102H118.363V22.4102ZM132.992 21.7313L143.539 52.8348L145.433 52.1925L134.886 21.089L132.992 21.7313ZM143.534 52.8197C144.104 54.5915 144.548 56.4628 144.866 58.4346L146.841 58.1162C146.508 56.0515 146.041 54.0816 145.438 52.2077L143.534 52.8197ZM144.869 58.4501C145.223 60.4455 145.462 62.2201 145.589 63.7767L147.583 63.614C147.449 61.9804 147.2 60.1417 146.838 58.1007L144.869 58.4501ZM146.586 64.6953H146.977V62.6953H146.586V64.6953ZM147.975 63.7518C148.07 62.0737 148.292 60.2762 148.644 58.3581L146.677 57.9974C146.312 59.9856 146.078 61.8664 145.978 63.6388L147.975 63.7518ZM148.641 58.3739C149.023 56.4617 149.517 54.6155 150.121 52.835L148.227 52.1924C147.594 54.0576 147.078 55.9875 146.68 57.9816L148.641 58.3739ZM150.121 52.8335L160.619 21.73L158.724 21.0904L148.226 52.1939L150.121 52.8335ZM159.672 22.4102H175.248V20.4102H159.672V22.4102ZM174.314 21.0541L153.513 75.6439L155.382 76.3561L176.183 21.7662L174.314 21.0541ZM154.447 75H139.164V77H154.447V75ZM218.656 23.3145L218.184 24.196L218.19 24.1992L218.656 23.3145ZM227.104 31.7129L226.224 32.1879L227.104 31.7129ZM230.082 52.416V53.416H231.082V52.416H230.082ZM194.877 52.416V51.416H193.837L193.878 52.4547L194.877 52.416ZM198.637 62.3281L197.92 63.0255L197.93 63.0352L198.637 62.3281ZM227.006 61.5957H228.006V60.0235L226.582 60.69L227.006 61.5957ZM227.006 73.1191L227.449 74.0157L228.006 73.7405V73.1191H227.006ZM218.51 76.0488L218.305 75.0699L218.303 75.0704L218.51 76.0488ZM193.266 73.9492L192.832 74.8505L192.835 74.8518L193.266 73.9492ZM183.354 64.7207L182.487 65.2191L182.489 65.2242L183.354 64.7207ZM183.012 33.1777L182.121 32.7224L182.12 32.725L183.012 33.1777ZM192.094 23.6074L192.573 24.4851L192.579 24.4819L192.094 23.6074ZM198.49 33.7637L197.795 33.0445L197.789 33.0504L198.49 33.7637ZM195.219 42.5039L194.221 42.4303L194.142 43.5039H195.219V42.5039ZM216.117 42.5039V43.5039H217.132L217.117 42.4892L216.117 42.5039ZM214.896 36.5957L213.979 36.9938L213.982 37.001L213.986 37.0082L214.896 36.5957ZM211.479 32.4941L210.92 33.3234L210.928 33.3289L211.479 32.4941ZM205.619 21.3848C210.536 21.3848 214.712 22.336 218.184 24.1959L219.128 22.433C215.309 20.3867 210.794 19.3848 205.619 19.3848V21.3848ZM218.19 24.1992C221.658 26.0259 224.331 28.6815 226.224 32.1879L227.983 31.2379C225.905 27.3875 222.946 24.4442 219.122 22.4297L218.19 24.1992ZM226.224 32.1879C228.112 35.6862 229.082 40.0056 229.082 45.1895H231.082C231.082 39.7613 230.066 35.0963 227.983 31.2379L226.224 32.1879ZM229.082 45.1895V52.416H231.082V45.1895H229.082ZM230.082 51.416H194.877V53.416H230.082V51.416ZM193.878 52.4547C194.048 56.8366 195.364 60.3983 197.92 63.0255L199.353 61.6308C197.222 59.4403 196.032 56.3939 195.876 52.3773L193.878 52.4547ZM197.93 63.0352C200.538 65.6433 204.105 66.8926 208.5 66.8926V64.8926C204.496 64.8926 201.488 63.7655 199.344 61.621L197.93 63.0352ZM208.5 66.8926C212.051 66.8926 215.323 66.5276 218.31 65.7891L217.83 63.8476C215.023 64.5414 211.915 64.8926 208.5 64.8926V66.8926ZM218.31 65.7891C221.278 65.0555 224.318 63.9578 227.43 62.5014L226.582 60.69C223.573 62.0982 220.657 63.149 217.83 63.8476L218.31 65.7891ZM226.006 61.5957V73.1191H228.006V61.5957H226.006ZM226.563 72.2226C223.937 73.5196 221.185 74.4686 218.305 75.0699L218.714 77.0277C221.759 76.392 224.671 75.3879 227.449 74.0157L226.563 72.2226ZM218.303 75.0704C215.462 75.6701 211.972 75.9766 207.816 75.9766V77.9766C212.06 77.9766 215.698 77.6645 218.716 77.0273L218.303 75.0704ZM207.816 75.9766C202.472 75.9766 197.773 74.9909 193.696 73.0466L192.835 74.8518C197.222 76.944 202.223 77.9766 207.816 77.9766V75.9766ZM193.699 73.0479C189.685 71.1187 186.529 68.1836 184.218 64.2173L182.489 65.2242C184.996 69.526 188.448 72.7433 192.832 74.8505L193.699 73.0479ZM184.22 64.2224C181.955 60.2806 180.789 55.2573 180.789 49.0957H178.789C178.789 55.4993 180 60.8926 182.487 65.219L184.22 64.2224ZM180.789 49.0957C180.789 42.8211 181.846 37.6821 183.903 33.6304L182.12 32.725C179.88 37.1369 178.789 42.6099 178.789 49.0957H180.789ZM183.902 33.6331C186 29.5316 188.891 26.4964 192.573 24.485L191.614 22.7298C187.549 24.9502 184.386 28.2952 182.121 32.7224L183.902 33.6331ZM192.579 24.4819C196.282 22.4282 200.618 21.3848 205.619 21.3848V19.3848C200.334 19.3848 195.653 20.4898 191.609 22.7329L192.579 24.4819ZM205.717 29.9805C202.585 29.9805 199.919 30.9928 197.795 33.0445L199.185 34.4829C200.903 32.8236 203.055 31.9805 205.717 31.9805V29.9805ZM197.789 33.0504C195.659 35.144 194.524 38.3351 194.221 42.4303L196.216 42.5775C196.5 38.73 197.545 36.0943 199.191 34.4769L197.789 33.0504ZM195.219 43.5039H216.117V41.5039H195.219V43.5039ZM217.117 42.4892C217.083 40.1613 216.654 38.0529 215.807 36.1832L213.986 37.0082C214.701 38.5891 215.086 40.4194 215.117 42.5186L217.117 42.4892ZM215.814 36.1976C214.99 34.2992 213.726 32.7783 212.029 31.6594L210.928 33.3289C212.291 34.2282 213.306 35.4417 213.979 36.9938L215.814 36.1976ZM212.037 31.6649C210.332 30.5156 208.201 29.9805 205.717 29.9805V31.9805C207.92 31.9805 209.63 32.4544 210.92 33.3234L212.037 31.6649ZM257.084 76V77H258.084V76H257.084ZM242.191 76H241.191V77H242.191V76ZM242.191 0.0234375V-0.976562H241.191V0.0234375H242.191ZM257.084 0.0234375H258.084V-0.976562H257.084V0.0234375ZM257.084 75H242.191V77H257.084V75ZM243.191 76V0.0234375H241.191V76H243.191ZM242.191 1.02344H257.084V-0.976562H242.191V1.02344ZM256.084 0.0234375V76H258.084V0.0234375H256.084ZM320.512 60.7168L319.568 60.3849L319.566 60.3927L320.512 60.7168ZM315.189 69.6523L314.468 68.9598L314.468 68.96L315.189 69.6523ZM306.791 75.1211L306.439 74.1851L306.436 74.1863L306.791 75.1211ZM285.16 75.1211L284.799 76.0535L284.802 76.0547L285.16 75.1211ZM276.811 69.6523L276.089 70.3449L276.099 70.3546L276.811 69.6523ZM271.342 60.7168L270.401 61.0565L270.404 61.0641L271.342 60.7168ZM309.623 23.6562L309.139 24.5311L309.142 24.5328L309.623 23.6562ZM318.949 33.2266L318.067 33.6982L318.07 33.7035L318.949 33.2266ZM289.457 63.1582L290.055 62.3563L289.457 63.1582ZM302.348 63.1582L301.75 62.3563L301.743 62.362L302.348 63.1582ZM305.961 57.6406L305.008 57.3358L305.005 57.3474L305.961 57.6406ZM305.961 39.623L305.006 39.9199L305.008 39.9276L305.011 39.9354L305.961 39.623ZM287.26 36.4492L286.426 35.8968L286.422 35.9039L287.26 36.4492ZM321.367 48.6074C321.367 53.076 320.761 56.9966 319.568 60.3849L321.455 61.0487C322.737 57.4057 323.367 53.2534 323.367 48.6074H321.367ZM319.566 60.3927C318.404 63.7843 316.701 66.6333 314.468 68.9598L315.911 70.3449C318.365 67.7885 320.211 64.6806 321.458 61.0409L319.566 60.3927ZM314.468 68.96C312.265 71.2555 309.594 72.9979 306.439 74.1851L307.143 76.057C310.563 74.7703 313.491 72.8669 315.911 70.3447L314.468 68.96ZM306.436 74.1863C303.312 75.3732 299.757 75.9766 295.756 75.9766V77.9766C299.958 77.9766 303.759 77.3429 307.146 76.0559L306.436 74.1863ZM295.756 75.9766C292.023 75.9766 288.615 75.3759 285.519 74.1875L284.802 76.0547C288.151 77.3402 291.806 77.9766 295.756 77.9766V75.9766ZM285.522 74.1887C282.462 73.0022 279.798 71.2572 277.522 68.9501L276.099 70.3546C278.575 72.8652 281.478 74.766 284.799 76.0535L285.522 74.1887ZM277.532 68.9598C275.293 66.6276 273.539 63.7703 272.28 60.3695L270.404 61.0641C271.749 64.6945 273.641 67.7943 276.089 70.3449L277.532 68.9598ZM272.282 60.3772C271.06 56.9914 270.438 53.0735 270.438 48.6074H268.438C268.438 53.256 269.085 57.411 270.401 61.0564L272.282 60.3772ZM270.438 48.6074C270.438 42.6675 271.492 37.706 273.55 33.682L271.77 32.7711C269.532 37.1456 268.438 42.4379 268.438 48.6074H270.438ZM273.55 33.682C275.612 29.6532 278.533 26.6134 282.321 24.5328L281.358 22.7797C277.204 25.0611 274.005 28.4015 271.77 32.7711L273.55 33.682ZM282.321 24.5328C286.117 22.4484 290.68 21.3848 296.049 21.3848V19.3848C290.415 19.3848 285.506 20.5021 281.358 22.7797L282.321 24.5328ZM296.049 21.3848C301.013 21.3848 305.367 22.4428 309.139 24.5311L310.107 22.7814C306.001 20.5078 301.306 19.3848 296.049 19.3848V21.3848ZM309.142 24.5328C312.934 26.6156 315.908 29.6607 318.067 33.6982L319.831 32.7549C317.498 28.394 314.255 25.0589 310.104 22.7797L309.142 24.5328ZM318.07 33.7035C320.251 37.7223 321.367 42.6757 321.367 48.6074H323.367C323.367 42.4297 322.205 37.1293 319.828 32.7496L318.07 33.7035ZM283.623 48.6074C283.623 52.2538 284.02 55.375 284.842 57.9454L286.747 57.3358C286.007 55.0234 285.623 52.1225 285.623 48.6074H283.623ZM284.842 57.9454C285.672 60.5376 286.996 62.5715 288.86 63.9601L290.055 62.3563C288.598 61.271 287.48 59.6265 286.747 57.3358L284.842 57.9454ZM288.86 63.9601C290.737 65.3586 293.129 66.0137 295.951 66.0137V64.0137C293.435 64.0137 291.498 63.4317 290.055 62.3563L288.86 63.9601ZM295.951 66.0137C298.743 66.0137 301.106 65.3576 302.953 63.9544L301.743 62.362C300.334 63.4328 298.433 64.0137 295.951 64.0137V66.0137ZM302.945 63.9601C304.812 62.5688 306.121 60.5303 306.917 57.9338L305.005 57.3474C304.304 59.6337 303.203 61.2736 301.75 62.3563L302.945 63.9601ZM306.913 57.9454C307.736 55.375 308.133 52.2538 308.133 48.6074H306.133C306.133 52.1225 305.748 55.0234 305.009 57.3358L306.913 57.9454ZM308.133 48.6074C308.133 44.9309 307.736 41.8218 306.911 39.3107L305.011 39.9354C305.748 42.1769 306.133 45.0574 306.133 48.6074H308.133ZM306.916 39.3262C306.118 36.7596 304.807 34.7517 302.935 33.3937L301.76 35.0125C303.209 36.0635 304.306 37.6688 305.006 39.9199L306.916 39.3262ZM302.935 33.3937C301.059 32.0327 298.67 31.3965 295.854 31.3965V33.3965C298.375 33.3965 300.316 33.9647 301.76 35.0125L302.935 33.3937ZM295.854 31.3965C291.662 31.3965 288.443 32.8529 286.426 35.8968L288.093 37.0016C289.657 34.6419 292.167 33.3965 295.854 33.3965V31.3965ZM286.422 35.9039C284.509 38.8441 283.623 43.1273 283.623 48.6074H285.623C285.623 43.2803 286.495 39.4579 288.098 36.9946L286.422 35.9039ZM379.936 27.5625L379.151 28.182L379.153 28.1852L379.936 27.5625ZM382.963 64.2324L383.883 64.6246L383.884 64.6221L382.963 64.2324ZM375.541 73.7539L374.978 72.9271L375.541 73.7539ZM357.865 76L357.525 76.9403L357.532 76.9429L357.539 76.9454L357.865 76ZM353.031 73.4121L352.404 74.1911L352.41 74.1958L352.416 74.2004L353.031 73.4121ZM349.564 69.9941L350.341 69.3643L350.041 68.9941H349.564V69.9941ZM348.783 69.9941V68.9941H347.563L347.803 70.1903L348.783 69.9941ZM349.564 100.023V101.023H350.564V100.023H349.564ZM334.672 100.023H333.672V101.023H334.672V100.023ZM334.672 21.4102V20.4102H333.672V21.4102H334.672ZM346.781 21.4102L347.74 21.1258L347.528 20.4102H346.781V21.4102ZM348.881 28.4902L347.922 28.7745L348.134 29.4902H348.881V28.4902ZM349.564 28.4902V29.4902H350.1L350.397 29.0449L349.564 28.4902ZM353.129 24.4375L353.791 25.1868L353.129 24.4375ZM358.158 21.5078L358.502 22.4467L358.511 22.4435L358.158 21.5078ZM350.688 38.7441L349.739 38.4279L349.735 38.4409L350.688 38.7441ZM349.564 46.8984L348.565 46.8786L348.564 46.8885V46.8984H349.564ZM350.541 57.4453L349.575 57.703L349.578 57.7149L350.541 57.4453ZM353.91 63.0117L353.28 63.7879L353.287 63.7941L353.91 63.0117ZM369.34 57.4453L368.383 57.1556L368.38 57.1638L369.34 57.4453ZM365.043 21.3848C370.893 21.3848 375.566 23.6397 379.151 28.182L380.721 26.943C376.753 21.915 371.498 19.3848 365.043 19.3848V21.3848ZM379.153 28.1852C382.765 32.7229 384.648 39.4784 384.648 48.6074H386.648C386.648 39.2469 384.724 31.9724 380.718 26.9398L379.153 28.1852ZM384.648 48.6074C384.648 54.7021 383.765 59.769 382.042 63.8428L383.884 64.6221C385.741 60.2323 386.648 54.8825 386.648 48.6074H384.648ZM382.043 63.8402C380.313 67.8982 377.949 70.9058 374.978 72.9271L376.104 74.5807C379.448 72.3051 382.032 68.9651 383.883 64.6246L382.043 63.8402ZM374.978 72.9271C371.999 74.9542 368.569 75.9766 364.652 75.9766V77.9766C368.939 77.9766 372.768 76.8504 376.104 74.5807L374.978 72.9271ZM364.652 75.9766C362.093 75.9766 359.947 75.66 358.191 75.0546L357.539 76.9454C359.56 77.6421 361.938 77.9766 364.652 77.9766V75.9766ZM358.206 75.0597C356.399 74.4055 354.884 73.5899 353.647 72.6238L352.416 74.2004C353.847 75.3177 355.556 76.2273 357.525 76.9403L358.206 75.0597ZM353.658 72.6331C352.373 71.5986 351.269 70.5085 350.341 69.3643L348.788 70.6239C349.813 71.8886 351.02 73.0772 352.404 74.1911L353.658 72.6331ZM349.564 68.9941H348.783V70.9941H349.564V68.9941ZM347.803 70.1903C348.056 71.4577 348.247 72.7585 348.374 74.0929L350.365 73.9032C350.231 72.5032 350.031 71.1347 349.764 69.798L347.803 70.1903ZM348.374 74.0929C348.501 75.4302 348.564 76.7332 348.564 78.002H350.564C350.564 76.6665 350.498 75.3002 350.365 73.9032L348.374 74.0929ZM348.564 78.002V100.023H350.564V78.002H348.564ZM349.564 99.0234H334.672V101.023H349.564V99.0234ZM335.672 100.023V21.4102H333.672V100.023H335.672ZM334.672 22.4102H346.781V20.4102H334.672V22.4102ZM345.823 21.6945L347.922 28.7745L349.84 28.2059L347.74 21.1258L345.823 21.6945ZM348.881 29.4902H349.564V27.4902H348.881V29.4902ZM350.397 29.0449C351.322 27.6563 352.452 26.37 353.791 25.1868L352.467 23.6882C351.006 24.9789 349.76 26.3945 348.732 27.9355L350.397 29.0449ZM353.791 25.1868C355.088 24.0411 356.653 23.1248 358.502 22.4467L357.814 20.5689C355.757 21.3231 353.97 22.3599 352.467 23.6882L353.791 25.1868ZM358.511 22.4435C360.362 21.7458 362.533 21.3848 365.043 21.3848V19.3848C362.345 19.3848 359.926 19.7725 357.805 20.5721L358.511 22.4435ZM360.258 31.2988C357.526 31.2988 355.235 31.8611 353.482 33.0917L354.631 34.7286C355.938 33.8108 357.781 33.2988 360.258 33.2988V31.2988ZM353.482 33.0917C351.742 34.3132 350.508 36.1203 349.739 38.4279L351.636 39.0604C352.299 37.0711 353.311 35.6556 354.631 34.7286L353.482 33.0917ZM349.735 38.4409C349.012 40.7126 348.631 43.5345 348.565 46.8786L350.564 46.9182C350.628 43.6869 350.996 41.0726 351.64 39.0473L349.735 38.4409ZM348.564 46.8984V48.5098H350.564V46.8984H348.564ZM348.564 48.5098C348.564 52.0812 348.895 55.1519 349.575 57.703L351.507 57.1876C350.885 54.8559 350.564 51.9696 350.564 48.5098H348.564ZM349.578 57.7149C350.303 60.3035 351.519 62.3576 353.28 63.7878L354.541 62.2356C353.176 61.1268 352.146 59.4699 351.504 57.1757L349.578 57.7149ZM353.287 63.7941C355.113 65.2475 357.54 65.916 360.453 65.916V63.916C357.832 63.916 355.897 63.315 354.533 62.2293L353.287 63.7941ZM360.453 65.916C362.928 65.916 365.046 65.2214 366.723 63.7674L365.413 62.256C364.161 63.3411 362.536 63.916 360.453 63.916V65.916ZM366.723 63.7674C368.372 62.3386 369.546 60.2957 370.299 57.7268L368.38 57.1638C367.702 59.4777 366.695 61.1458 365.413 62.256L366.723 63.7674ZM370.297 57.735C371.082 55.1395 371.463 52.0246 371.463 48.4121H369.463C369.463 51.8959 369.095 54.8033 368.383 57.1557L370.297 57.735ZM371.463 48.4121C371.463 43.0009 370.627 38.7613 368.825 35.828L367.121 36.8751C368.639 39.3454 369.463 43.1462 369.463 48.4121H371.463ZM368.825 35.828C366.962 32.7968 364.047 31.2988 360.258 31.2988V33.2988C363.434 33.2988 365.663 34.5027 367.121 36.8751L368.825 35.828Z" fill="black"/>
</svg>
