<svg width="269" height="77" viewBox="0 0 269 77" fill="none" xmlns="http://www.w3.org/2000/svg">
<path d="M64.9238 20.3848C71.1087 20.3848 75.7799 21.9798 78.9375 25.1699C82.1276 28.3275 83.7227 33.4056 83.7227 40.4043V76H68.7812V44.1152C68.7812 40.209 68.1139 37.263 66.7793 35.2773C65.4447 33.2917 63.3776 32.2988 60.5781 32.2988C56.6393 32.2988 53.8398 33.7148 52.1797 36.5469C50.5195 39.3464 49.6895 43.3665 49.6895 48.6074V76H34.7969V44.1152C34.7969 41.5111 34.5039 39.3301 33.918 37.5723C33.332 35.8145 32.4368 34.4961 31.2324 33.6172C30.028 32.7383 28.4818 32.2988 26.5938 32.2988C23.8268 32.2988 21.6458 32.9987 20.0508 34.3984C18.4883 35.7656 17.3652 37.8001 16.6816 40.502C16.0306 43.1712 15.7051 46.4427 15.7051 50.3164V76H0.8125V21.4102H12.1895L14.1914 28.3926H15.0215C16.1283 26.5046 17.5117 24.9746 19.1719 23.8027C20.8646 22.6309 22.7201 21.7682 24.7383 21.2148C26.7565 20.6615 28.8073 20.3848 30.8906 20.3848C34.8945 20.3848 38.2799 21.0358 41.0469 22.3379C43.8464 23.64 45.9948 25.6582 47.4922 28.3926H48.8105C50.4382 25.5931 52.7331 23.5586 55.6953 22.2891C58.6901 21.0195 61.7663 20.3848 64.9238 20.3848ZM121.418 20.2871C128.742 20.2871 134.357 21.8822 138.264 25.0723C142.17 28.2624 144.123 33.1126 144.123 39.623V76H133.723L130.842 68.5781H130.451C128.889 70.5312 127.294 72.1263 125.666 73.3633C124.038 74.6003 122.167 75.5117 120.051 76.0977C117.935 76.6836 115.363 76.9766 112.336 76.9766C109.113 76.9766 106.216 76.3581 103.645 75.1211C101.105 73.8841 99.1035 71.9961 97.6387 69.457C96.1738 66.8854 95.4414 63.6302 95.4414 59.6914C95.4414 53.8971 97.4759 49.6328 101.545 46.8984C105.614 44.1315 111.717 42.6016 119.855 42.3086L129.328 42.0156V39.623C129.328 36.7585 128.579 34.6589 127.082 33.3242C125.585 31.9896 123.501 31.3223 120.832 31.3223C118.195 31.3223 115.607 31.6966 113.068 32.4453C110.529 33.194 107.99 34.138 105.451 35.2773L100.52 25.2188C103.417 23.6888 106.656 22.4844 110.236 21.6055C113.85 20.7266 117.577 20.2871 121.418 20.2871ZM129.328 50.707L123.566 50.9023C118.749 51.0326 115.396 51.8952 113.508 53.4902C111.652 55.0853 110.725 57.1849 110.725 59.7891C110.725 62.0677 111.392 63.6953 112.727 64.6719C114.061 65.6159 115.803 66.0879 117.951 66.0879C121.141 66.0879 123.827 65.1439 126.008 63.2559C128.221 61.3678 129.328 58.6823 129.328 55.1992V50.707ZM174.396 0.0234375V34.0078C174.396 36.0586 174.315 38.1094 174.152 40.1602C173.99 42.2109 173.811 44.2617 173.615 46.3125H173.811C174.82 44.8802 175.845 43.4642 176.887 42.0645C177.961 40.6647 179.1 39.3138 180.305 38.0117L195.588 21.4102H212.385L190.705 45.0918L213.703 76H196.516L180.793 53.8809L174.396 59.0078V76H159.504V0.0234375H174.396ZM244.025 20.3848C249.071 20.3848 253.417 21.3613 257.062 23.3145C260.708 25.235 263.524 28.0345 265.51 31.7129C267.495 35.3913 268.488 39.8835 268.488 45.1895V52.416H233.283C233.446 56.6152 234.699 59.9193 237.043 62.3281C239.419 64.7044 242.707 65.8926 246.906 65.8926C250.389 65.8926 253.579 65.5345 256.477 64.8184C259.374 64.1022 262.352 63.028 265.412 61.5957V73.1191C262.71 74.4538 259.878 75.4303 256.916 76.0488C253.986 76.6673 250.422 76.9766 246.223 76.9766C240.754 76.9766 235.904 75.9674 231.672 73.9492C227.473 71.931 224.169 68.8548 221.76 64.7207C219.383 60.5866 218.195 55.3783 218.195 49.0957C218.195 42.7155 219.27 37.4095 221.418 33.1777C223.599 28.9134 226.626 25.7233 230.5 23.6074C234.374 21.459 238.882 20.3848 244.025 20.3848ZM244.123 30.9805C241.226 30.9805 238.817 31.9082 236.896 33.7637C235.008 35.6191 233.918 38.5326 233.625 42.5039H254.523C254.491 40.2904 254.084 38.321 253.303 36.5957C252.554 34.8704 251.415 33.5033 249.885 32.4941C248.387 31.485 246.467 30.9805 244.123 30.9805Z" fill="white"/>
<path d="M78.9375 25.1699L78.2267 25.8734L78.234 25.8806L78.9375 25.1699ZM83.7227 76V77H84.7227V76H83.7227ZM68.7812 76H67.7812V77H68.7812V76ZM52.1797 36.5469L53.0398 37.057L53.0424 37.0526L52.1797 36.5469ZM49.6895 76V77H50.6895V76H49.6895ZM34.7969 76H33.7969V77H34.7969V76ZM20.0508 34.3984L20.7093 35.151L20.7104 35.1501L20.0508 34.3984ZM16.6816 40.502L15.7122 40.2567L15.7101 40.265L16.6816 40.502ZM15.7051 76V77H16.7051V76H15.7051ZM0.8125 76H-0.1875V77H0.8125V76ZM0.8125 21.4102V20.4102H-0.1875V21.4102H0.8125ZM12.1895 21.4102L13.1507 21.1345L12.943 20.4102H12.1895V21.4102ZM14.1914 28.3926L13.2301 28.6682L13.4378 29.3926H14.1914V28.3926ZM15.0215 28.3926V29.3926H15.5944L15.8842 28.8983L15.0215 28.3926ZM19.1719 23.8027L18.6026 22.9805L18.5952 22.9858L19.1719 23.8027ZM24.7383 21.2148L24.4738 20.2504L24.7383 21.2148ZM41.0469 22.3379L40.6211 23.2427L40.6251 23.2446L41.0469 22.3379ZM47.4922 28.3926L46.6151 28.8729L46.8997 29.3926H47.4922V28.3926ZM48.8105 28.3926V29.3926H49.3859L49.6751 28.8952L48.8105 28.3926ZM55.6953 22.2891L55.305 21.3684L55.3014 21.3699L55.6953 22.2891ZM64.9238 21.3848C70.9449 21.3848 75.319 22.9356 78.2268 25.8734L79.6482 24.4665C76.2409 21.024 71.2725 19.3848 64.9238 19.3848V21.3848ZM78.234 25.8806C81.1513 28.7682 82.7227 33.5271 82.7227 40.4043H84.7227C84.7227 33.2841 83.1039 27.8868 79.641 24.4592L78.234 25.8806ZM82.7227 40.4043V76H84.7227V40.4043H82.7227ZM83.7227 75H68.7812V77H83.7227V75ZM69.7812 76V44.1152H67.7812V76H69.7812ZM69.7812 44.1152C69.7812 40.1243 69.1047 36.9445 67.6092 34.7195L65.9493 35.8352C67.1231 37.5816 67.7812 40.2936 67.7812 44.1152H69.7812ZM67.6092 34.7195C66.0551 32.4072 63.6451 31.2988 60.5781 31.2988V33.2988C63.1101 33.2988 64.8343 34.1762 65.9493 35.8352L67.6092 34.7195ZM60.5781 31.2988C56.3679 31.2988 53.1952 32.8372 51.317 36.0412L53.0424 37.0526C54.4845 34.5925 56.9107 33.2988 60.5781 33.2988V31.2988ZM51.3196 36.0368C49.528 39.0579 48.6895 43.2858 48.6895 48.6074H50.6895C50.6895 43.4473 51.5111 39.6348 53.0398 37.057L51.3196 36.0368ZM48.6895 48.6074V76H50.6895V48.6074H48.6895ZM49.6895 75H34.7969V77H49.6895V75ZM35.7969 76V44.1152H33.7969V76H35.7969ZM35.7969 44.1152C35.7969 41.4436 35.4973 39.1479 34.8667 37.256L32.9693 37.8885C33.5105 39.5123 33.7969 41.5785 33.7969 44.1152H35.7969ZM34.8667 37.256C34.2311 35.3494 33.2312 33.8378 31.8219 32.8094L30.643 34.425C31.6425 35.1544 32.433 36.2795 32.9693 37.8885L34.8667 37.256ZM31.8219 32.8094C30.4055 31.7758 28.6368 31.2988 26.5938 31.2988V33.2988C28.3267 33.2988 29.6505 33.7008 30.643 34.425L31.8219 32.8094ZM26.5938 31.2988C23.6594 31.2988 21.2183 32.0434 19.3912 33.6468L20.7104 35.1501C22.0734 33.954 23.9942 33.2988 26.5938 33.2988V31.2988ZM19.3923 33.6459C17.6327 35.1855 16.4288 37.4242 15.7122 40.2567L17.6511 40.7472C18.3016 38.176 19.3438 36.3458 20.7093 35.151L19.3923 33.6459ZM15.7101 40.265C15.0342 43.0362 14.7051 46.3927 14.7051 50.3164H16.7051C16.7051 46.4928 17.027 43.3062 17.6532 40.7389L15.7101 40.265ZM14.7051 50.3164V76H16.7051V50.3164H14.7051ZM15.7051 75H0.8125V77H15.7051V75ZM1.8125 76V21.4102H-0.1875V76H1.8125ZM0.8125 22.4102H12.1895V20.4102H0.8125V22.4102ZM11.2282 21.6858L13.2301 28.6682L15.1527 28.117L13.1507 21.1345L11.2282 21.6858ZM14.1914 29.3926H15.0215V27.3926H14.1914V29.3926ZM15.8842 28.8983C16.9245 27.1236 18.2136 25.7032 19.7486 24.6197L18.5952 22.9858C16.8098 24.246 15.332 25.8855 14.1588 27.8869L15.8842 28.8983ZM19.7411 24.6249C21.3394 23.5184 23.0916 22.7033 25.0027 22.1792L24.4738 20.2504C22.3486 20.8332 20.3898 21.7433 18.6027 22.9805L19.7411 24.6249ZM25.0027 22.1792C26.9352 21.6494 28.897 21.3848 30.8906 21.3848V19.3848C28.7175 19.3848 26.5778 19.6735 24.4738 20.2504L25.0027 22.1792ZM30.8906 21.3848C34.791 21.3848 38.0219 22.0196 40.6211 23.2427L41.4727 21.4331C38.538 20.0521 34.9981 19.3848 30.8906 19.3848V21.3848ZM40.6251 23.2446C43.2292 24.4558 45.2191 26.3236 46.6151 28.8729L48.3693 27.9123C46.7705 24.9928 44.4635 22.8241 41.4686 21.4312L40.6251 23.2446ZM47.4922 29.3926H48.8105V27.3926H47.4922V29.3926ZM49.6751 28.8952C51.1952 26.2806 53.3256 24.3926 56.0892 23.2082L55.3014 21.3699C52.1406 22.7245 49.6811 24.9056 47.946 27.89L49.6751 28.8952ZM56.0856 23.2098C58.9607 21.9909 61.9045 21.3848 64.9238 21.3848V19.3848C61.6281 19.3848 58.4195 20.0481 55.305 21.3684L56.0856 23.2098ZM138.264 25.0723L138.896 24.2977L138.264 25.0723ZM144.123 76V77H145.123V76H144.123ZM133.723 76L132.79 76.3619L133.038 77H133.723V76ZM130.842 68.5781L131.774 68.2163L131.526 67.5781H130.842V68.5781ZM130.451 68.5781V67.5781H129.971L129.67 67.9534L130.451 68.5781ZM125.666 73.3633L125.061 72.5671L125.666 73.3633ZM103.645 75.1211L103.207 76.0201L103.211 76.0223L103.645 75.1211ZM97.6387 69.457L96.7697 69.952L96.7725 69.9568L97.6387 69.457ZM101.545 46.8984L102.103 47.7285L102.107 47.7254L101.545 46.8984ZM119.855 42.3086L119.825 41.3091L119.819 41.3092L119.855 42.3086ZM129.328 42.0156L129.359 43.0151L130.328 42.9852V42.0156H129.328ZM105.451 35.2773L104.553 35.7176L104.979 36.5854L105.861 36.1897L105.451 35.2773ZM100.52 25.2188L100.053 24.3345L99.1944 24.7876L99.6216 25.659L100.52 25.2188ZM110.236 21.6055L110 20.6338L109.998 20.6343L110.236 21.6055ZM129.328 50.707H130.328V49.6726L129.294 49.7076L129.328 50.707ZM123.566 50.9023L123.593 51.902L123.6 51.9018L123.566 50.9023ZM113.508 53.4902L112.862 52.7263L112.856 52.7319L113.508 53.4902ZM112.727 64.6719L112.136 65.4789L112.143 65.4837L112.149 65.4883L112.727 64.6719ZM126.008 63.2559L125.359 62.495L125.353 62.4998L126.008 63.2559ZM121.418 21.2871C128.613 21.2871 133.969 22.8558 137.631 25.8468L138.896 24.2977C134.746 20.9085 128.871 19.2871 121.418 19.2871V21.2871ZM137.631 25.8468C141.24 28.7944 143.123 33.3185 143.123 39.623H145.123C145.123 32.9068 143.099 27.7303 138.896 24.2977L137.631 25.8468ZM143.123 39.623V76H145.123V39.623H143.123ZM144.123 75H133.723V77H144.123V75ZM134.655 75.6381L131.774 68.2163L129.91 68.94L132.79 76.3619L134.655 75.6381ZM130.842 67.5781H130.451V69.5781H130.842V67.5781ZM129.67 67.9534C128.148 69.8561 126.61 71.3895 125.061 72.5671L126.271 74.1594C127.977 72.8631 129.629 71.2064 131.232 69.2028L129.67 67.9534ZM125.061 72.5671C123.542 73.7218 121.787 74.5793 119.784 75.1339L120.318 77.0614C122.547 76.4441 124.535 75.4788 126.271 74.1594L125.061 72.5671ZM119.784 75.1339C117.781 75.6886 115.305 75.9766 112.336 75.9766V77.9766C115.422 77.9766 118.089 77.6785 120.318 77.0614L119.784 75.1339ZM112.336 75.9766C109.244 75.9766 106.498 75.3839 104.078 74.2199L103.211 76.0223C105.934 77.3323 108.983 77.9766 112.336 77.9766V75.9766ZM104.083 74.2221C101.73 73.076 99.874 71.3305 98.5049 68.9573L96.7725 69.9568C98.333 72.6617 100.481 74.6923 103.207 76.0201L104.083 74.2221ZM98.5076 68.9621C97.1525 66.5831 96.4414 63.5121 96.4414 59.6914H94.4414C94.4414 63.7483 95.1952 67.1877 96.7698 69.952L98.5076 68.9621ZM96.4414 59.6914C96.4414 54.1603 98.3634 50.2412 102.103 47.7284L100.987 46.0684C96.5884 49.0244 94.4414 53.6339 94.4414 59.6914H96.4414ZM102.107 47.7254C105.949 45.1128 111.831 43.5981 119.891 43.3079L119.819 41.3092C111.604 41.605 105.279 43.1502 100.983 46.0715L102.107 47.7254ZM119.886 43.3081L129.359 43.0151L129.297 41.0161L119.825 41.3091L119.886 43.3081ZM130.328 42.0156V39.623H128.328V42.0156H130.328ZM130.328 39.623C130.328 36.5986 129.536 34.1719 127.747 32.5777L126.417 34.0707C127.623 35.1458 128.328 36.9184 128.328 39.623H130.328ZM127.747 32.5777C126.013 31.0322 123.664 30.3223 120.832 30.3223V32.3223C123.338 32.3223 125.156 32.947 126.417 34.0707L127.747 32.5777ZM120.832 30.3223C118.099 30.3223 115.416 30.7105 112.786 31.4861L113.351 33.4045C115.799 32.6828 118.291 32.3223 120.832 32.3223V30.3223ZM112.786 31.4861C110.201 32.2482 107.62 33.2082 105.042 34.365L105.861 36.1897C108.361 35.0679 110.857 34.1398 113.351 33.4045L112.786 31.4861ZM106.349 34.8371L101.417 24.7785L99.6216 25.659L104.553 35.7176L106.349 34.8371ZM100.987 26.103C103.803 24.6157 106.964 23.4384 110.475 22.5766L109.998 20.6343C106.348 21.5303 103.03 22.7619 100.053 24.3345L100.987 26.103ZM110.473 22.5771C114.006 21.7177 117.654 21.2871 121.418 21.2871V19.2871C117.5 19.2871 113.693 19.7355 110 20.6338L110.473 22.5771ZM129.294 49.7076L123.533 49.9029L123.6 51.9018L129.362 51.7065L129.294 49.7076ZM123.539 49.9027C118.679 50.0341 115.026 50.8989 112.862 52.7263L114.153 54.2541C115.766 52.8914 118.819 52.031 123.593 51.902L123.539 49.9027ZM112.856 52.7319C110.764 54.5304 109.725 56.9148 109.725 59.7891H111.725C111.725 57.455 112.541 55.6402 114.16 54.2486L112.856 52.7319ZM109.725 59.7891C109.725 62.2569 110.455 64.2487 112.136 65.4789L113.317 63.8648C112.329 63.1419 111.725 61.8785 111.725 59.7891H109.725ZM112.149 65.4883C113.699 66.5842 115.66 67.0879 117.951 67.0879V65.0879C115.945 65.0879 114.424 64.6475 113.304 63.8555L112.149 65.4883ZM117.951 67.0879C121.354 67.0879 124.28 66.0743 126.662 64.0119L125.353 62.4998C123.374 64.2135 120.928 65.0879 117.951 65.0879V67.0879ZM126.657 64.0167C129.137 61.901 130.328 58.9116 130.328 55.1992H128.328C128.328 58.453 127.306 60.8347 125.359 62.495L126.657 64.0167ZM130.328 55.1992V50.707H128.328V55.1992H130.328ZM174.396 0.0234375H175.396V-0.976562H174.396V0.0234375ZM173.615 46.3125L172.62 46.2177L172.515 47.3125H173.615V46.3125ZM173.811 46.3125V47.3125H174.329L174.628 46.8885L173.811 46.3125ZM176.887 42.0645L176.093 41.4556L176.089 41.4615L176.084 41.4674L176.887 42.0645ZM180.305 38.0117L181.039 38.6908L181.04 38.689L180.305 38.0117ZM195.588 21.4102V20.4102H195.149L194.852 20.7329L195.588 21.4102ZM212.385 21.4102L213.122 22.0854L214.656 20.4102H212.385V21.4102ZM190.705 45.0918L189.967 44.4166L189.41 45.0259L189.903 45.6888L190.705 45.0918ZM213.703 76V77H215.694L214.505 75.403L213.703 76ZM196.516 76L195.701 76.5794L196 77H196.516V76ZM180.793 53.8809L181.608 53.3015L180.994 52.438L180.168 53.1006L180.793 53.8809ZM174.396 59.0078L173.771 58.2275L173.396 58.5278V59.0078H174.396ZM174.396 76V77H175.396V76H174.396ZM159.504 76H158.504V77H159.504V76ZM159.504 0.0234375V-0.976562H158.504V0.0234375H159.504ZM173.396 0.0234375V34.0078H175.396V0.0234375H173.396ZM173.396 34.0078C173.396 36.0321 173.316 38.0565 173.155 40.081L175.149 40.2393C175.314 38.1623 175.396 36.0851 175.396 34.0078H173.396ZM173.155 40.081C172.993 42.1266 172.815 44.1721 172.62 46.2177L174.611 46.4073C174.807 44.3513 174.986 42.2953 175.149 40.2393L173.155 40.081ZM173.615 47.3125H173.811V45.3125H173.615V47.3125ZM174.628 46.8885C175.632 45.4632 176.652 44.0542 177.689 42.6615L176.084 41.4674C175.038 42.8742 174.007 44.2972 172.993 45.7365L174.628 46.8885ZM177.68 42.6733C178.735 41.298 179.855 39.9705 181.039 38.6908L179.571 37.3327C178.345 38.6571 177.186 40.0315 176.093 41.4556L177.68 42.6733ZM181.04 38.689L196.324 22.0874L194.852 20.7329L179.569 37.3344L181.04 38.689ZM195.588 22.4102H212.385V20.4102H195.588V22.4102ZM211.647 20.7349L189.967 44.4166L191.443 45.767L213.122 22.0854L211.647 20.7349ZM189.903 45.6888L212.901 76.597L214.505 75.403L191.507 44.4948L189.903 45.6888ZM213.703 75H196.516V77H213.703V75ZM197.331 75.4206L181.608 53.3015L179.978 54.4602L195.701 76.5794L197.331 75.4206ZM180.168 53.1006L173.771 58.2275L175.022 59.7881L181.418 54.6611L180.168 53.1006ZM173.396 59.0078V76H175.396V59.0078H173.396ZM174.396 75H159.504V77H174.396V75ZM160.504 76V0.0234375H158.504V76H160.504ZM159.504 1.02344H174.396V-0.976562H159.504V1.02344ZM257.062 23.3145L256.59 24.196L256.596 24.1992L257.062 23.3145ZM265.51 31.7129L264.63 32.1879L265.51 31.7129ZM268.488 52.416V53.416H269.488V52.416H268.488ZM233.283 52.416V51.416H232.244L232.284 52.4547L233.283 52.416ZM237.043 62.3281L236.326 63.0255L236.336 63.0352L237.043 62.3281ZM265.412 61.5957H266.412V60.0235L264.988 60.69L265.412 61.5957ZM265.412 73.1191L265.855 74.0157L266.412 73.7405V73.1191H265.412ZM256.916 76.0488L256.712 75.0699L256.709 75.0704L256.916 76.0488ZM231.672 73.9492L231.239 74.8505L231.241 74.8518L231.672 73.9492ZM221.76 64.7207L220.893 65.2191L220.896 65.2242L221.76 64.7207ZM221.418 33.1777L220.528 32.7224L220.526 32.725L221.418 33.1777ZM230.5 23.6074L230.979 24.4851L230.985 24.4819L230.5 23.6074ZM236.896 33.7637L236.202 33.0445L236.196 33.0504L236.896 33.7637ZM233.625 42.5039L232.628 42.4303L232.549 43.5039H233.625V42.5039ZM254.523 42.5039V43.5039H255.538L255.523 42.4892L254.523 42.5039ZM253.303 36.5957L252.385 36.9938L252.389 37.001L252.392 37.0082L253.303 36.5957ZM249.885 32.4941L249.326 33.3234L249.334 33.3289L249.885 32.4941ZM244.025 21.3848C248.942 21.3848 253.118 22.336 256.59 24.1959L257.535 22.433C253.715 20.3867 249.2 19.3848 244.025 19.3848V21.3848ZM256.596 24.1992C260.064 26.0259 262.737 28.6815 264.63 32.1879L266.39 31.2379C264.311 27.3875 261.353 24.4442 257.529 22.4297L256.596 24.1992ZM264.63 32.1879C266.518 35.6862 267.488 40.0056 267.488 45.1895H269.488C269.488 39.7613 268.473 35.0963 266.39 31.2379L264.63 32.1879ZM267.488 45.1895V52.416H269.488V45.1895H267.488ZM268.488 51.416H233.283V53.416H268.488V51.416ZM232.284 52.4547C232.454 56.8366 233.77 60.3983 236.326 63.0255L237.76 61.6308C235.628 59.4403 234.438 56.3939 234.282 52.3773L232.284 52.4547ZM236.336 63.0352C238.944 65.6433 242.512 66.8926 246.906 66.8926V64.8926C242.902 64.8926 239.895 63.7655 237.75 61.621L236.336 63.0352ZM246.906 66.8926C250.457 66.8926 253.729 66.5276 256.717 65.7891L256.237 63.8476C253.43 64.5414 250.322 64.8926 246.906 64.8926V66.8926ZM256.717 65.7891C259.685 65.0555 262.725 63.9578 265.836 62.5014L264.988 60.69C261.98 62.0982 259.063 63.149 256.237 63.8476L256.717 65.7891ZM264.412 61.5957V73.1191H266.412V61.5957H264.412ZM264.969 72.2226C262.343 73.5196 259.592 74.4686 256.712 75.0699L257.12 77.0277C260.165 76.392 263.077 75.3879 265.855 74.0157L264.969 72.2226ZM256.709 75.0704C253.869 75.6701 250.378 75.9766 246.223 75.9766V77.9766C250.466 77.9766 254.104 77.6645 257.123 77.0273L256.709 75.0704ZM246.223 75.9766C240.878 75.9766 236.179 74.9909 232.102 73.0466L231.241 74.8518C235.628 76.944 240.63 77.9766 246.223 77.9766V75.9766ZM232.105 73.0479C228.091 71.1187 224.935 68.1836 222.624 64.2173L220.896 65.2242C223.402 69.526 226.854 72.7433 231.239 74.8505L232.105 73.0479ZM222.627 64.2224C220.361 60.2806 219.195 55.2573 219.195 49.0957H217.195C217.195 55.4993 218.406 60.8926 220.893 65.219L222.627 64.2224ZM219.195 49.0957C219.195 42.8211 220.253 37.6821 222.31 33.6304L220.526 32.725C218.286 37.1369 217.195 42.6099 217.195 49.0957H219.195ZM222.308 33.6331C224.406 29.5316 227.297 26.4964 230.979 24.485L230.021 22.7298C225.956 24.9502 222.792 28.2952 220.528 32.7224L222.308 33.6331ZM230.985 24.4819C234.688 22.4282 239.024 21.3848 244.025 21.3848V19.3848C238.74 19.3848 234.059 20.4898 230.015 22.7329L230.985 24.4819ZM244.123 29.9805C240.991 29.9805 238.325 30.9928 236.202 33.0445L237.591 34.4829C239.309 32.8236 241.461 31.9805 244.123 31.9805V29.9805ZM236.196 33.0504C234.065 35.144 232.93 38.3351 232.628 42.4303L234.622 42.5775C234.906 38.73 235.952 36.0943 237.597 34.4769L236.196 33.0504ZM233.625 43.5039H254.523V41.5039H233.625V43.5039ZM255.523 42.4892C255.489 40.1613 255.06 38.0529 254.214 36.1832L252.392 37.0082C253.108 38.5891 253.493 40.4194 253.524 42.5186L255.523 42.4892ZM254.22 36.1976C253.396 34.2992 252.132 32.7783 250.435 31.6594L249.334 33.3289C250.698 34.2282 251.712 35.4417 252.385 36.9938L254.22 36.1976ZM250.444 31.6649C248.738 30.5156 246.607 29.9805 244.123 29.9805V31.9805C246.326 31.9805 248.036 32.4544 249.326 33.3234L250.444 31.6649Z" fill="black"/>
</svg>
